<svg width="461" height="134" viewBox="0 0 461 134" fill="none" xmlns="http://www.w3.org/2000/svg">
<path d="M227.651 88.1972C227.878 87.8955 228.119 87.6995 228.376 87.6091C228.632 87.5186 228.843 87.4885 229.009 87.5188C229.122 87.5565 229.186 87.6282 229.201 87.7338C229.269 87.8318 229.311 87.9337 229.326 88.0393C229.341 88.1449 229.378 88.2203 229.439 88.2656C229.552 88.3033 229.68 88.2581 229.823 88.1299C229.778 88.5674 229.646 88.9633 229.427 89.3178C229.254 89.6119 229.17 89.9739 229.178 90.4038C229.087 90.5245 228.989 90.5923 228.884 90.6074C228.831 90.6149 228.782 90.6488 228.737 90.7091L228.804 91.1843C227.197 93.1373 225.68 95.1582 224.254 97.2471C222.828 99.3359 221.07 101.176 218.98 102.767C218.317 103.023 217.694 103.192 217.113 103.275C216.585 103.35 215.944 103.388 215.19 103.388C214.73 103.184 214.27 102.98 213.81 102.776C213.35 102.572 212.909 102.312 212.487 101.995C211.936 101.535 211.567 101.022 211.378 100.456C211.137 99.8979 211.002 99.3246 210.972 98.7363C210.881 98.1027 210.87 97.4578 210.938 96.8017C210.946 96.1002 210.976 95.3686 211.029 94.6068C211.316 93.2191 211.694 91.8993 212.162 90.6474C212.577 89.403 213.113 88.2492 213.77 87.1859C214.041 86.8239 214.452 86.496 215.003 86.202C215.607 85.9005 216.199 85.7083 216.78 85.6255C217.677 85.4976 218.367 85.6147 218.85 85.9769C219.001 86.2787 219.2 86.5465 219.449 86.7804C219.691 86.9615 219.89 87.2293 220.049 87.5838C219.943 87.5989 219.898 87.6592 219.913 87.7648C219.709 88.2248 219.317 88.4963 218.736 88.579C217.997 88.6844 217.408 88.5258 216.971 88.1033C215.817 89.4531 215.009 91.1574 214.548 93.2164C214.08 95.2225 213.963 97.4211 214.196 99.8121C214.346 100.114 214.49 100.363 214.625 100.559C214.806 100.695 214.991 100.857 215.18 101.046C215.677 101.136 216.243 101.136 216.877 101.046C218.008 100.292 218.993 99.4516 219.83 98.5241C220.66 97.5439 221.434 96.5447 222.15 95.5267C222.92 94.5012 223.663 93.4794 224.38 92.4614C225.15 91.4359 225.98 90.4556 226.87 89.5206C226.855 89.415 226.825 89.3924 226.78 89.4527C226.787 89.5055 226.738 89.5394 226.633 89.5545C226.693 89.2226 226.848 88.9851 227.097 88.8419C227.346 88.6986 227.53 88.4837 227.651 88.1972ZM227.651 88.1972C227.523 88.0538 227.444 88.0651 227.414 88.231C227.436 88.3894 227.515 88.3781 227.651 88.1972ZM228.525 86.7797C228.729 86.6968 228.891 86.7006 229.011 86.7911C229.125 86.8289 229.287 86.8327 229.498 86.8026C229.875 86.4256 230.275 86.207 230.697 86.1468C231.12 86.0866 231.557 86.132 232.01 86.283C232.462 86.4339 232.892 86.6151 233.299 86.8264C233.443 87.0754 233.578 87.2715 233.706 87.4149C233.887 87.5507 234.004 87.8034 234.057 88.173C234.653 88.5729 235.207 89.0596 235.72 89.633C236.285 90.1988 236.7 90.8401 236.963 91.5567C237.137 92.394 237.099 93.2613 236.85 94.1588C236.6 95.0563 236.204 95.867 235.661 96.5909C235.17 97.3073 234.529 97.9105 233.737 98.4005C232.998 98.883 232.172 99.1354 231.259 99.1577C230.558 99.15 229.969 98.9914 229.494 98.682C229.072 98.3651 228.597 98.0557 228.069 97.7538C227.82 97.1428 227.568 96.694 227.311 96.4073C226.995 94.5668 226.996 93.0583 227.313 91.8818C227.63 90.7053 228.083 89.5363 228.672 88.375C228.536 87.8017 228.487 87.2699 228.525 86.7797ZM232.335 95.9337C232.833 95.2701 233.331 94.6065 233.829 93.9429C234.319 93.2265 234.433 92.3215 234.169 91.2277C233.792 90.8505 233.438 90.4431 233.106 90.0055C232.767 89.5151 232.22 89.2698 231.466 89.2696C230.975 90.3631 230.503 91.5886 230.05 92.9461C229.643 94.2433 229.71 95.4727 230.253 96.6345C230.683 96.627 231.022 96.5517 231.271 96.4085C231.565 96.2049 231.92 96.0467 232.335 95.9337ZM241.808 81.5732L241.943 82.5236C241.528 83.3909 241.286 84.3412 241.218 85.3745C241.142 86.355 241.131 87.4071 241.183 88.531C241.228 89.602 241.277 90.6995 241.329 91.8233C241.434 92.9396 241.457 94.0408 241.396 95.1269C241.532 95.3231 241.664 95.4928 241.792 95.6362C241.815 95.0403 241.928 94.3238 242.132 93.4867C242.328 92.5967 242.687 91.8992 243.207 91.394C243.109 91.0847 243.091 90.7641 243.151 90.4323C243.264 90.0929 243.502 89.8705 243.864 89.765C244.03 89.041 244.287 88.3849 244.634 87.7967C245.034 87.2009 245.347 86.5637 245.574 85.8849L245.97 85.8285C246.377 84.9084 246.943 84.1544 247.667 83.5663C248.444 82.9707 249.278 82.3939 250.168 81.8361C250.734 81.6477 251.273 81.6516 251.786 81.8479C252.291 81.9913 252.752 82.0066 253.166 81.8936C254.426 82.4144 255.327 83.4442 255.869 84.983C255.725 87.7511 254.978 90.255 253.627 92.4946C252.329 94.7268 250.488 96.5515 248.104 97.9688C247.84 98.0064 247.678 98.0026 247.618 97.9573C247.014 98.2588 246.354 98.3529 245.638 98.2395C244.974 98.1186 244.356 97.9374 243.782 97.6959C243.352 98.8347 243.035 100.011 242.831 101.225C242.672 102.379 242.506 103.669 242.332 105.095C242.648 106.935 242.851 108.738 242.941 110.503C243.084 112.26 243.268 114.119 243.494 116.081C243.562 116.179 243.547 116.262 243.449 116.329C243.411 116.443 243.399 116.552 243.414 116.658C243.708 117.962 243.855 119.181 243.855 120.312C243.862 121.496 243.952 122.695 244.125 123.91C244.193 124.008 244.2 124.061 244.148 124.068C244.049 124.136 243.978 124.2 243.933 124.261C244.083 124.562 244.155 124.875 244.147 125.2C244.14 125.524 244.215 125.863 244.373 126.218C244.086 126.851 243.6 127.217 242.913 127.315C242.597 127.36 242.246 127.356 241.861 127.303C241.484 127.303 241.077 127.28 240.639 127.235C240.571 127.137 240.53 127.035 240.515 126.929C240.455 126.884 240.364 126.816 240.243 126.726C240.447 126.266 240.41 125.813 240.131 125.368C239.859 124.976 239.735 124.482 239.758 123.886C239.796 123.773 239.86 123.656 239.95 123.535C239.988 123.422 239.996 123.286 239.973 123.128C239.936 122.487 239.811 121.804 239.6 121.08C239.337 120.363 239.239 119.677 239.307 119.021C239.322 118.749 239.364 118.474 239.432 118.195C239.507 117.969 239.439 117.682 239.228 117.335C239.16 117.237 239.179 117.18 239.285 117.165C239.345 117.211 239.368 117.18 239.353 117.075C239.293 116.275 239.24 115.529 239.195 114.835C239.158 114.194 239.173 113.545 239.241 112.889C239.128 112.097 239.098 111.32 239.151 110.558C239.144 109.751 239.193 108.963 239.299 108.194C239.397 107.372 239.477 106.606 239.537 105.897C239.59 105.135 239.59 104.381 239.538 103.634C239.523 103.529 239.489 103.48 239.436 103.487C239.331 103.502 239.27 103.457 239.255 103.351C239.187 103.253 239.206 103.197 239.312 103.182C239.365 103.174 239.41 103.114 239.448 103.001C239.025 102.307 238.924 101.594 239.143 100.862C238.85 98.0488 238.662 95.2204 238.58 92.3768C238.437 89.488 238.393 86.7199 238.447 84.0725C238.643 83.9368 238.763 83.8388 238.809 83.7785C238.756 83.4089 238.816 83.077 238.99 82.7829C239.156 82.436 239.386 82.1608 239.68 81.9572C239.975 81.7537 240.307 81.6256 240.676 81.5729C241.091 81.4599 241.468 81.46 241.808 81.5732ZM247.542 87.7862C247.345 88.2991 247.123 88.8157 246.874 89.336C246.677 89.8488 246.391 90.2938 246.013 90.6708C245.908 91.0629 245.753 91.489 245.549 91.9491C245.398 92.4016 245.251 92.8805 245.107 93.3858C244.956 93.8383 244.888 94.3059 244.903 94.7886C244.971 95.2638 245.205 95.7692 245.604 96.3049C245.816 96.2748 245.925 96.2861 245.932 96.3389C247.041 95.8037 248.037 95.0423 248.92 94.0545C249.803 93.0667 250.44 92.06 250.833 91.0343C250.871 90.9212 250.939 90.8307 251.037 90.7628C251.18 90.6347 251.297 90.5103 251.388 90.3896C251.606 90.0352 251.78 89.5525 251.908 88.9416C252.037 88.3307 252.101 87.8367 252.101 87.4596C252.139 87.3464 252.207 87.256 252.305 87.1881C252.395 87.0675 252.437 86.9807 252.429 86.9279C252.497 86.6489 252.475 86.3019 252.362 85.887C252.241 85.4194 252.177 84.9706 252.17 84.5407C252.102 84.4426 252.038 84.3709 251.978 84.3256C251.91 84.2276 251.868 84.1257 251.853 84.0201C250.714 84.3441 249.877 84.8944 249.341 85.6711C248.858 86.4403 248.258 87.1454 247.542 87.7862ZM251.916 99.6073C252.127 99.5772 252.244 99.6413 252.267 99.7997C252.229 99.9128 252.199 100.079 252.176 100.297C252.146 100.463 252.142 100.626 252.165 100.784C252.187 100.942 252.334 101.029 252.606 101.044C252.44 101.768 252.473 102.383 252.707 102.888C252.36 104.231 252.088 105.724 251.891 107.368C251.642 109.02 251.634 110.664 251.867 112.301C252.333 115.575 253.479 118.321 255.304 120.539C257.083 122.817 259.258 124.285 261.83 124.942C262.268 124.987 262.675 125.01 263.052 125.01C263.376 125.018 263.723 124.995 264.093 124.942C264.779 124.845 265.553 124.6 266.413 124.208C268.668 122.647 270.441 120.724 271.732 118.439C272.494 116.607 273.109 114.687 273.578 112.681C274.046 110.675 274.19 108.473 274.01 106.074C273.837 104.106 273.521 102.265 273.061 100.553C272.647 98.7803 272.138 97.1019 271.535 95.5178C270.985 93.9262 270.337 92.4024 269.591 90.9465C268.897 89.483 268.185 88.0761 267.454 86.7258C267.122 87.4196 266.82 88.136 266.548 88.8751C266.329 89.6067 266.057 90.3457 265.733 91.0923C265.453 91.7786 265.091 92.4498 264.646 93.1058C264.246 93.7016 263.756 94.2294 263.175 94.6893C262.413 95.0134 261.753 95.1075 261.195 94.9715C260.637 94.8356 260.048 94.677 259.43 94.4958C259.294 94.2997 259.166 94.1563 259.045 94.0658C258.925 93.9752 258.804 93.8847 258.683 93.7941C258.329 93.1982 258.043 92.5117 257.824 91.7348C257.606 90.9578 257.47 90.196 257.418 89.4493C257.35 88.2198 257.279 86.964 257.204 85.6817C257.076 84.407 257.223 83.3624 257.646 82.548C258.091 82.269 258.563 82.1749 259.06 82.2656C259.611 82.3487 260.029 82.6392 260.316 83.1371C260.225 83.6349 260.131 84.2948 260.032 85.1169C259.927 85.8862 259.889 86.7536 259.919 87.719C259.941 88.6317 260.046 89.5594 260.234 90.5023C260.415 91.3924 260.747 92.2071 261.229 92.9464C261.961 92.4111 262.512 91.74 262.882 90.9331C263.244 90.0733 263.584 89.2438 263.901 88.4444C264.21 87.5922 264.49 86.7173 264.739 85.8198C265.041 84.9148 265.316 84.0136 265.566 83.1161C265.588 82.8974 265.539 82.7428 265.419 82.6522C265.351 82.5541 265.358 82.4184 265.441 82.2449C265.819 81.8679 266.298 81.638 266.878 81.5552C267.406 81.48 267.851 81.5782 268.213 81.8498C268.485 82.2421 268.684 82.6985 268.813 83.219C268.993 83.7319 269.152 84.275 269.287 84.8483C269.913 86.2137 270.599 87.6243 271.345 89.0802C272.091 90.5362 272.792 92.0524 273.448 93.629C274.104 95.2056 274.688 96.8463 275.2 98.551C275.712 100.256 276.07 102.01 276.273 103.812C276.619 106.995 276.607 109.933 276.236 112.626C275.866 115.318 275.085 117.773 273.892 119.99C273.138 121.121 272.315 122.154 271.425 123.089C270.542 124.077 269.456 124.959 268.166 125.736C266.944 126.233 265.778 126.561 264.669 126.719C262.769 126.99 260.992 126.812 259.341 126.185C257.697 125.612 256.226 124.744 254.929 123.582C253.64 122.473 252.562 121.145 251.695 119.599C250.783 118.112 250.108 116.592 249.671 115.038C249.686 114.39 249.611 113.673 249.446 112.889C249.28 112.104 249.201 111.361 249.209 110.66C249.224 110.011 249.239 109.363 249.254 108.714C249.27 108.065 249.353 107.326 249.504 106.497C249.61 105.727 249.742 104.954 249.901 104.177C249.999 103.355 250.271 102.616 250.716 101.96C250.55 101.553 250.581 101.198 250.807 100.897C250.973 100.55 251.082 100.184 251.135 99.7993C251.331 99.6636 251.501 99.7203 251.644 99.9692C251.78 100.165 251.908 100.12 252.029 99.8336C252.007 99.6752 251.969 99.5997 251.916 99.6073ZM251.916 99.6073C251.886 99.7732 251.863 99.8033 251.848 99.6977C251.78 99.5997 251.694 99.5582 251.588 99.5732C251.671 99.3998 251.746 99.3621 251.814 99.4601C251.829 99.5657 251.863 99.6148 251.916 99.6073ZM291.811 63.3751C293.01 63.0964 294.311 62.7762 295.714 62.4146C297.11 62.0002 298.52 61.6914 299.946 61.4882C301.318 61.2925 302.631 61.2402 303.883 61.3311C305.135 61.422 306.289 61.7693 307.345 62.373C307.48 62.5691 307.533 62.7502 307.503 62.9161C307.465 63.0292 307.51 63.1575 307.638 63.3008C306.884 63.3006 305.858 63.2852 304.561 63.2546C303.309 63.1637 302.106 63.2274 300.952 63.4458C299.353 63.9431 297.803 64.4065 296.302 64.8359C294.793 65.2126 293.281 65.7514 291.764 66.4524C291.59 69.3864 291.499 72.3354 291.49 75.2996C291.534 78.2563 291.552 81.2167 291.544 84.1809C291.717 85.7724 291.852 87.4771 291.95 89.2948C292.039 91.0598 292.231 92.7833 292.525 94.4654C292.66 95.4158 292.8 96.3926 292.943 97.3958C293.078 98.3461 293.266 99.289 293.507 100.224C293.748 101.16 294.088 102.027 294.525 102.827C294.962 103.626 295.543 104.298 296.267 104.841C296.546 104.909 296.745 104.8 296.866 104.513C297.04 104.219 297.274 104.159 297.568 104.332C297.719 104.634 297.741 104.981 297.635 105.373C297.582 105.758 297.465 106.071 297.284 106.312C296.719 106.501 296.277 106.617 295.96 106.663C295.651 106.761 295.199 106.798 294.603 106.775C293.555 106.224 292.744 105.451 292.171 104.455C291.538 103.414 291.052 102.271 290.713 101.027C290.366 99.7293 290.099 98.4206 289.911 97.1007C289.715 95.7279 289.508 94.4644 289.29 93.3104C288.921 89.2147 288.651 85.0512 288.479 80.8198C288.254 76.5959 288.282 72.2552 288.562 67.7977C287.174 68.2649 285.654 68.9395 284.002 69.8215C282.342 70.6506 280.664 71.5363 278.967 72.4786C278.567 72.6972 278.141 72.9196 277.688 73.1457C277.183 73.3794 276.768 73.4924 276.443 73.4847C276.066 73.4846 275.636 73.3035 275.154 72.9413C274.671 72.5791 274.449 72.1529 274.487 71.6626C275.105 71.0896 275.845 70.6071 276.705 70.2152C277.512 69.8307 278.319 69.4463 279.126 69.0619C279.911 68.5191 280.718 68.1347 281.548 67.9087C282.37 67.6299 283.147 67.2228 283.879 66.6875C284.761 66.454 285.553 66.1525 286.255 65.7832C286.956 65.4138 287.745 65.086 288.62 64.7996C288.748 64.1887 288.778 63.4571 288.711 62.6048C288.636 61.6997 288.621 60.8398 288.666 60.0252C288.712 59.2107 288.855 58.5168 289.097 57.9437C289.384 57.3102 289.957 56.986 290.817 56.9712C291.435 57.1524 291.809 57.5033 291.937 58.0237C292.118 58.5367 292.197 59.0911 292.174 59.6869C292.151 60.2828 292.079 60.9125 291.958 61.5762C291.837 62.2399 291.788 62.8396 291.811 63.3751ZM295.968 77.1664C296.172 77.0835 296.334 77.0873 296.455 77.1778C296.568 77.2156 296.73 77.2194 296.941 77.1893C297.318 76.8123 297.718 76.5937 298.141 76.5335C298.563 76.4733 299.001 76.5187 299.453 76.6697C299.906 76.8206 300.335 77.0018 300.743 77.2131C300.886 77.4621 301.022 77.6582 301.15 77.8016C301.331 77.9374 301.448 78.1901 301.5 78.5597C302.096 78.9596 302.65 79.4463 303.163 80.0197C303.728 80.5855 304.143 81.2268 304.407 81.9434C304.58 82.7807 304.542 83.648 304.293 84.5455C304.044 85.443 303.647 86.2537 303.104 86.9776C302.614 87.694 301.972 88.2972 301.18 88.7872C300.441 89.2697 299.615 89.5221 298.702 89.5444C298.001 89.5367 297.413 89.3781 296.938 89.0687C296.515 88.7518 296.04 88.4424 295.512 88.1405C295.264 87.5295 295.011 87.0807 294.755 86.794C294.438 84.9535 294.439 83.445 294.756 82.2685C295.073 81.0919 295.526 79.923 296.115 78.7616C295.979 78.1884 295.93 77.6566 295.968 77.1664ZM299.778 86.3203C300.276 85.6568 300.774 84.9932 301.272 84.3296C301.763 83.6132 301.876 82.7082 301.612 81.6144C301.235 81.2372 300.881 80.8298 300.549 80.3922C300.21 79.9018 299.663 79.6565 298.909 79.6563C298.418 80.7498 297.947 81.9753 297.494 83.3328C297.086 84.63 297.153 85.8594 297.696 87.0212C298.126 87.0137 298.466 86.9384 298.714 86.7952C299.009 86.5916 299.363 86.4334 299.778 86.3203ZM337.479 72.5425C337.705 72.2408 337.946 72.0448 338.203 71.9544C338.459 71.8639 338.671 71.8338 338.837 71.8641C338.95 71.9018 339.014 71.9735 339.029 72.0791C339.097 72.1772 339.138 72.279 339.153 72.3846C339.168 72.4902 339.206 72.5656 339.266 72.6109C339.379 72.6486 339.508 72.6034 339.651 72.4753C339.606 72.9127 339.473 73.3086 339.255 73.6631C339.081 73.9572 338.998 74.3192 339.005 74.7491C338.915 74.8698 338.817 74.9376 338.711 74.9527C338.658 74.9602 338.609 74.9941 338.564 75.0544L338.632 75.5296C337.025 77.4826 335.508 79.5035 334.082 81.5924C332.656 83.6812 330.898 85.521 328.808 87.1118C328.144 87.3681 327.522 87.5376 326.941 87.6203C326.413 87.6956 325.772 87.7331 325.018 87.7329C324.557 87.5291 324.097 87.3253 323.637 87.1215C323.177 86.9177 322.736 86.6574 322.314 86.3405C321.764 85.8802 321.394 85.3672 321.206 84.8014C320.965 84.2432 320.829 83.67 320.799 83.0816C320.709 82.448 320.698 81.8032 320.766 81.147C320.773 80.4455 320.804 79.7139 320.857 78.9522C321.144 77.5644 321.521 76.2446 321.989 74.9927C322.405 73.7483 322.941 72.5945 323.597 71.5312C323.869 71.1693 324.28 70.8413 324.831 70.5473C325.434 70.2458 326.026 70.0536 326.607 69.9709C327.505 69.8429 328.195 69.96 328.677 70.3222C328.828 70.624 329.028 70.8918 329.277 71.1257C329.518 71.3068 329.718 71.5746 329.876 71.9292C329.77 71.9442 329.725 72.0045 329.74 72.1101C329.536 72.5702 329.144 72.8416 328.563 72.9243C327.824 73.0297 327.236 72.8711 326.799 72.4486C325.644 73.7984 324.837 75.5027 324.376 77.5617C323.908 79.5678 323.79 81.7664 324.023 84.1574C324.174 84.4592 324.317 84.7081 324.453 84.9043C324.634 85.0401 324.818 85.2023 325.007 85.3909C325.505 85.4816 326.07 85.4818 326.704 85.3915C327.836 84.6376 328.82 83.7969 329.658 82.8694C330.488 81.8892 331.261 80.89 331.978 79.872C332.748 78.8465 333.491 77.8247 334.208 76.8067C334.977 75.7812 335.807 74.8009 336.698 73.8659C336.683 73.7603 336.652 73.7377 336.607 73.798C336.615 73.8508 336.566 73.8847 336.46 73.8998C336.52 73.5679 336.675 73.3304 336.924 73.1872C337.173 73.0439 337.358 72.829 337.479 72.5425ZM337.479 72.5425C337.35 72.3991 337.271 72.4104 337.241 72.5763C337.264 72.7347 337.343 72.7234 337.479 72.5425ZM339.686 77.0764C339.949 78.1702 340.19 79.2941 340.409 80.4481C340.619 81.5494 340.876 82.5903 341.177 83.5709C341.524 84.4912 341.938 85.321 342.421 86.0603C342.948 86.7393 343.638 87.2336 344.491 87.5431C345.63 87.2191 346.441 86.6725 346.924 85.9034C347.459 85.1267 348.055 84.3952 348.712 83.7091C349.383 82.3742 350.085 81.0621 350.817 79.7725C351.549 78.483 352.225 77.1746 352.844 75.8473C352.889 75.787 352.987 75.7191 353.138 75.6438C353.334 75.5081 353.319 75.4025 353.093 75.327C353.123 75.161 353.172 75.1271 353.24 75.2252C353.308 75.3233 353.391 75.3384 353.489 75.2705C353.579 75.1499 353.587 75.0141 353.512 74.8632C353.489 74.7048 353.47 74.5728 353.455 74.4672C353.908 74.2411 354.13 73.9131 354.123 73.4832C354.161 72.9929 354.432 72.6309 354.938 72.3973C354.915 72.2389 354.923 72.1031 354.961 71.99C354.998 71.8769 354.957 71.775 354.836 71.6845C355.115 71.7525 355.274 71.7299 355.311 71.6168C355.349 71.5036 355.44 71.383 355.583 71.2548C355.5 70.674 355.602 70.2554 355.889 69.9991C356.228 69.7352 356.417 69.3581 356.455 68.8679C356.576 68.9584 356.632 69.1659 356.625 69.4902C356.609 69.7617 356.556 69.9578 356.466 70.0785C356.579 70.1162 356.67 69.9956 356.738 69.7165C356.806 69.4375 356.881 69.2112 356.964 69.0378C357.13 69.068 357.168 69.1434 357.077 69.2641C357.032 69.3244 357.017 69.4073 357.032 69.5129C357.152 69.6035 357.266 69.6412 357.371 69.6262C357.469 69.5583 357.552 69.5734 357.62 69.6715C357.726 69.6565 357.741 69.5735 357.665 69.4226C357.643 69.2642 357.681 69.1511 357.779 69.0833C357.884 69.0682 357.926 69.17 357.903 69.3888C357.88 69.6075 357.918 69.6829 358.016 69.6151C357.586 70.7539 357.216 71.9379 356.906 73.1672C356.642 74.3362 356.114 75.3543 355.321 76.2214C355.412 76.4779 355.408 76.6401 355.31 76.7079C355.212 76.7758 355.178 76.9153 355.208 77.1265C354.597 78.1295 354.019 79.1815 353.476 80.2825C352.933 81.3835 352.363 82.4883 351.767 83.5969C351.17 84.7054 350.514 85.7687 349.797 86.7867C349.073 87.7519 348.201 88.6304 347.183 89.422C346.919 89.4596 346.609 89.5576 346.255 89.7159C345.893 89.8214 345.587 89.9457 345.338 90.0889C344.207 90.0886 343.204 89.8545 342.329 89.3865C341.507 88.9111 340.798 88.2849 340.203 87.5078C339.652 86.6704 339.196 85.7388 338.835 84.7129C338.42 83.6945 338.107 82.6347 337.897 81.5335C337.701 81.292 337.576 80.798 337.524 80.0512C337.464 79.2517 337.377 78.6445 337.264 78.2297C336.962 78.0033 336.668 77.8297 336.382 77.7089C336.035 77.5429 335.778 77.2562 335.613 76.8489C335.613 76.4717 335.771 76.2606 336.088 76.2154C336.405 76.1703 336.684 76.0497 336.925 75.8537C336.631 75.303 336.552 74.7486 336.688 74.1905C336.824 73.6324 336.745 73.078 336.451 72.5273C336.512 71.8183 336.565 71.2451 336.61 70.8077C336.648 70.3174 336.569 69.763 336.373 69.1445C336.449 67.7868 336.506 66.4858 336.544 65.2413C336.582 63.9968 336.665 62.692 336.794 61.3268C336.9 61.3118 336.934 61.3608 336.896 61.4739C336.911 61.5795 336.971 61.6248 337.077 61.6098C337.16 61.4363 337.141 61.3043 337.02 61.2138C336.892 61.0704 336.813 60.8931 336.783 60.6819C337.289 57.8084 337.773 55.1536 338.234 52.7175C338.747 50.2739 339.532 47.8455 340.589 45.4322C340.702 45.47 340.74 45.5454 340.702 45.6586C340.71 45.7114 340.766 45.7302 340.872 45.7152C340.774 45.4059 340.819 45.157 341.008 44.9685C341.189 44.7272 341.31 44.4406 341.37 44.1088C341.529 44.0862 341.604 44.0485 341.597 43.9957C341.634 43.8826 341.713 43.8713 341.834 43.9619C342.038 43.5018 342.313 43.1663 342.66 42.9552C343.053 42.6838 343.486 42.5142 343.962 42.4465C345.07 42.2884 346.066 42.4698 346.948 42.9905C347.137 43.1791 347.299 43.3715 347.435 43.5676C347.623 43.7562 347.834 43.9147 348.068 44.043C348.098 44.2542 348.234 44.4503 348.475 44.6314C349.168 46.472 349.507 48.2823 349.492 50.0623C349.468 51.7896 349.389 53.4979 349.252 55.1874C348.86 57.3444 348.433 59.4524 347.972 61.5113C347.511 63.5703 346.903 65.5424 346.149 67.4278C345.447 69.3057 344.567 71.0741 343.511 72.7331C342.5 74.3318 341.225 75.7796 339.686 77.0764ZM341.234 44.8554C341.264 44.6895 341.295 44.7122 341.325 44.9234C341.347 45.0818 341.317 45.0591 341.234 44.8554ZM345.359 60.7525C345.887 58.4145 346.311 56.0915 346.628 53.7836C346.998 51.4682 346.946 49.0244 346.472 46.4523C346.306 46.045 346.204 45.7093 346.167 45.4453C345.986 45.3095 345.831 45.1699 345.703 45.0265C345.567 44.8304 345.386 44.6946 345.16 44.6191C344.768 44.8905 344.364 45.2713 343.949 45.7614C343.534 46.2515 343.225 46.7266 343.021 47.1866C342.719 47.7145 342.455 48.3178 342.229 48.9966C342.055 49.6678 341.855 50.3428 341.628 51.0215C340.994 52.9975 340.518 55.1394 340.201 57.4473C339.883 59.7552 339.573 61.9273 339.271 63.9637C339.293 64.8763 339.286 65.7663 339.248 66.6337C339.255 67.4408 339.213 68.2817 339.122 69.1566C339.175 69.9034 339.197 70.6274 339.19 71.3289C339.182 72.0303 339.257 72.7469 339.415 73.4786C340.917 71.9177 342.098 69.9986 342.958 67.721C343.819 65.4434 344.619 63.1206 345.359 60.7525ZM337.157 59.9014C337.187 59.7355 337.217 59.7581 337.247 59.9693C337.27 60.1277 337.24 60.1051 337.157 59.9014ZM357.27 68.9134L357.428 68.8908L357.451 69.0492L357.292 69.0718L357.27 68.9134ZM357.1 69.9881C357.311 69.958 357.401 69.8374 357.371 69.6262C357.258 69.5884 357.209 69.6224 357.224 69.728C357.239 69.8336 357.198 69.9203 357.1 69.9881ZM357.02 70.5651C357.065 70.5048 357.073 70.369 357.043 70.1578C357.066 69.9391 357.02 69.8109 356.907 69.7731C356.87 69.8862 356.839 70.0522 356.817 70.2709C356.839 70.4293 356.907 70.5274 357.02 70.5651ZM356.194 71.0061C356.179 70.9005 356.217 70.7874 356.307 70.6667C356.39 70.4933 356.33 70.448 356.126 70.5309C356.194 70.629 356.183 70.7383 356.092 70.859C356.047 70.9193 356.081 70.9683 356.194 71.0061ZM355.165 71.1529C355.27 71.1378 355.304 71.1868 355.266 71.3C355.281 71.4056 355.229 71.4131 355.108 71.3225C355.146 71.2094 355.165 71.1529 355.165 71.1529ZM356.432 71.5379C356.59 71.5153 356.707 71.3909 356.782 71.1647C356.518 71.2023 356.401 71.3267 356.432 71.5379ZM353.104 75.9719C352.998 75.9869 352.949 76.0208 352.957 76.0736C353.062 76.0586 353.111 76.0246 353.104 75.9719ZM356.933 58.8604C357.257 59.2451 357.498 59.6148 357.656 59.9693C357.86 60.2635 358.007 60.7274 358.097 61.361C357.871 61.6627 357.546 61.8436 357.124 61.9038C356.702 61.964 356.291 61.9149 355.891 61.7563C355.536 61.5375 355.284 61.2772 355.133 60.9755C355.088 60.2815 355.198 59.7272 355.462 59.3124C355.779 58.8902 356.269 58.7395 356.933 58.8604ZM355.775 69.4496C356.19 69.3366 356.616 69.3028 357.054 69.3482C357.544 69.3861 357.94 69.5182 358.242 69.7445C358.309 69.8426 358.328 69.9746 358.298 70.1405C358.268 70.3065 358.309 70.4083 358.422 70.4461C358.211 71.2304 358.113 72.2411 358.127 73.478C358.187 74.6547 358.3 75.8238 358.466 76.9854C358.609 77.2343 358.797 77.423 359.031 77.5513C359.257 77.6267 359.435 77.7362 359.563 77.8795C359.751 78.4453 359.785 78.8714 359.664 79.158C359.596 79.437 359.362 79.6859 358.962 79.9045C358.699 79.9421 358.487 79.9722 358.329 79.9948C358.216 79.957 358.027 79.957 357.763 79.9946C356.903 79.6323 356.308 79.0438 355.976 78.2291C355.584 77.3692 355.343 76.4338 355.253 75.4231C355.155 74.3596 355.167 73.3074 355.288 72.2666C355.356 71.2333 355.417 70.3358 355.47 69.574C355.515 69.5137 355.617 69.4722 355.775 69.4496ZM364.397 64.0995L364.532 65.0499C364.117 65.9172 363.875 66.8674 363.807 67.9007C363.731 68.8812 363.72 69.9334 363.772 71.0572C363.817 72.1283 363.866 73.2257 363.918 74.3496C364.023 75.4659 364.046 76.5671 363.985 77.6532C364.121 77.8494 364.253 78.0191 364.381 78.1624C364.404 77.5666 364.517 76.8501 364.721 76.0129C364.917 75.123 365.276 74.4254 365.796 73.9202C365.698 73.611 365.68 73.2904 365.74 72.9586C365.853 72.6192 366.091 72.3968 366.453 72.2913C366.619 71.5673 366.876 70.9111 367.223 70.3229C367.623 69.7272 367.936 69.09 368.163 68.4112L368.559 68.3548C368.966 67.4347 369.532 66.6806 370.256 66.0926C371.034 65.4969 371.867 64.9202 372.757 64.3623C373.323 64.1739 373.862 64.1779 374.375 64.3742C374.88 64.5176 375.341 64.5328 375.755 64.4198C377.015 64.9407 377.916 65.9705 378.458 67.5093C378.314 70.2774 377.567 72.7812 376.216 75.0209C374.918 77.2531 373.077 79.0778 370.693 80.495C370.429 80.5327 370.267 80.5288 370.207 80.4836C369.603 80.7851 368.943 80.8792 368.227 80.7658C367.563 80.6449 366.945 80.4637 366.371 80.2222C365.941 81.3609 365.624 82.5375 365.42 83.7517C365.261 84.9057 365.095 86.1954 364.921 87.6209C365.237 89.4613 365.44 91.2641 365.53 93.029C365.673 94.7865 365.857 96.6457 366.083 98.6069C366.151 98.7049 366.136 98.7879 366.038 98.8557C366 98.9689 365.988 99.0782 366.004 99.1838C366.297 100.489 366.444 101.707 366.444 102.838C366.451 104.022 366.541 105.222 366.714 106.436C366.782 106.534 366.789 106.587 366.737 106.595C366.639 106.662 366.567 106.726 366.522 106.787C366.672 107.089 366.744 107.402 366.736 107.726C366.729 108.05 366.804 108.39 366.962 108.744C366.675 109.378 366.189 109.743 365.502 109.841C365.186 109.886 364.835 109.882 364.45 109.83C364.073 109.829 363.666 109.807 363.228 109.761C363.161 109.663 363.119 109.561 363.104 109.456C363.044 109.41 362.953 109.343 362.833 109.252C363.036 108.792 362.999 108.339 362.72 107.894C362.448 107.502 362.324 107.008 362.347 106.412C362.385 106.299 362.449 106.182 362.539 106.061C362.577 105.948 362.585 105.813 362.562 105.654C362.525 105.013 362.4 104.33 362.189 103.606C361.926 102.89 361.828 102.203 361.896 101.547C361.911 101.276 361.953 101 362.021 100.721C362.096 100.495 362.028 100.208 361.817 99.8613C361.749 99.7633 361.768 99.7067 361.874 99.6917C361.934 99.7369 361.957 99.7068 361.942 99.6012C361.882 98.8016 361.829 98.0549 361.784 97.361C361.747 96.7199 361.762 96.0712 361.83 95.4151C361.717 94.6231 361.687 93.8462 361.74 93.0844C361.733 92.2774 361.782 91.4892 361.888 90.7199C361.986 89.8978 362.066 89.1323 362.126 88.4233C362.179 87.6615 362.18 86.9073 362.127 86.1605C362.112 86.0549 362.078 86.0059 362.025 86.0134C361.92 86.0285 361.859 85.9832 361.844 85.8776C361.776 85.7795 361.795 85.723 361.901 85.7079C361.954 85.7004 361.999 85.6401 362.037 85.5269C361.614 84.8329 361.513 84.1201 361.732 83.3886C361.439 80.5751 361.251 77.7466 361.169 74.9031C361.026 72.0143 360.982 69.2462 361.036 66.5988C361.232 66.4631 361.352 66.3651 361.398 66.3047C361.345 65.9352 361.406 65.6033 361.579 65.3092C361.745 64.9623 361.975 64.6871 362.269 64.4835C362.564 64.28 362.896 64.1518 363.265 64.0992C363.68 63.9862 364.057 63.9863 364.397 64.0995ZM370.131 70.3125C369.934 70.8254 369.712 71.3419 369.463 71.8623C369.266 72.3751 368.98 72.82 368.602 73.197C368.497 73.5892 368.342 74.0153 368.138 74.4753C367.987 74.9279 367.84 75.4068 367.697 75.9121C367.546 76.3646 367.477 76.8322 367.492 77.3149C367.56 77.7901 367.794 78.2955 368.193 78.8311C368.405 78.801 368.514 78.8124 368.521 78.8652C369.63 78.33 370.626 77.5685 371.509 76.5808C372.392 75.593 373.029 74.5862 373.422 73.5606C373.46 73.4475 373.528 73.357 373.626 73.2891C373.769 73.1609 373.886 73.0365 373.977 72.9159C374.195 72.5615 374.369 72.0788 374.497 71.4679C374.626 70.857 374.69 70.363 374.69 69.9858C374.728 69.8727 374.796 69.7822 374.894 69.7144C374.985 69.5937 375.026 69.507 375.018 69.4542C375.086 69.1752 375.064 68.8282 374.951 68.4133C374.83 67.9457 374.766 67.4969 374.759 67.0669C374.691 66.9689 374.627 66.8972 374.567 66.8519C374.499 66.7538 374.457 66.652 374.442 66.5464C373.303 66.8704 372.466 67.4207 371.93 68.1974C371.447 68.9666 370.847 69.6716 370.131 70.3125ZM381.622 79.3413L381.701 79.33C381.694 79.2772 381.69 79.2508 381.69 79.2508C381.637 79.2583 381.615 79.2885 381.622 79.3413C381.464 79.3638 381.355 79.3525 381.294 79.3072C381.505 78.9 381.491 78.6058 381.249 78.4247C381.521 78.4399 381.626 78.4249 381.566 78.3796C381.445 78.289 381.43 78.1834 381.521 78.0628C381.219 77.8364 381.061 77.4819 381.046 76.9991C381.219 77.0822 381.287 77.1802 381.25 77.2934C381.204 77.3537 381.246 77.4555 381.374 77.5989C381.487 77.2595 381.438 76.9163 381.227 76.5693C381.016 76.2223 380.922 75.9394 380.945 75.7207C380.945 75.7207 381.005 75.7659 381.126 75.8565C381.141 75.9621 381.175 76.0111 381.227 76.0036C381.009 74.4724 380.893 73.0883 380.878 71.8514C380.803 70.5691 380.645 69.0832 380.404 67.3936C380.555 67.3182 380.585 67.1523 380.495 66.8958C380.404 66.6394 380.404 66.4508 380.495 66.3301C380.246 66.0963 380.156 65.8398 380.224 65.5607C380.284 65.2289 380.243 64.9385 380.099 64.6895C380.168 62.902 380.07 60.8957 379.807 58.6706C379.597 56.4379 379.556 54.2619 379.685 52.1425C379.61 50.8603 379.542 49.8194 379.482 49.0199C379.414 48.1675 379.543 47.1795 379.868 46.0558C380.32 45.8297 380.792 45.7355 381.282 45.7734C381.765 45.7584 382.168 45.9434 382.492 46.3281C382.462 47.2483 382.458 48.1647 382.48 49.0774C382.495 49.9372 382.423 50.7555 382.265 51.5324C382.272 51.5852 382.306 51.6342 382.366 51.6795C382.427 51.7248 382.476 51.6908 382.513 51.5777C382.642 51.721 382.581 51.8643 382.332 52.0076C382.136 52.1433 382.11 52.3356 382.253 52.5845C382.472 52.6072 382.539 52.5167 382.457 52.3131C382.374 52.1094 382.442 52.0189 382.66 52.0416C382.66 52.4187 382.547 52.7581 382.321 53.0597C382.283 53.1729 382.339 53.1917 382.49 53.1164C382.641 53.041 382.679 53.1164 382.603 53.3427C382.505 53.4105 382.46 53.4708 382.468 53.5236C382.528 53.5689 382.498 53.5463 382.377 53.4557C382.271 54.225 382.305 55.0283 382.478 55.8656C382.651 56.7029 382.617 57.5966 382.375 58.5469C382.406 58.7581 382.526 58.8487 382.737 58.8185C382.601 59.3766 382.545 59.9235 382.567 60.459C382.582 60.9417 382.672 61.3867 382.838 61.7941C383.026 64.2454 383.195 66.5648 383.345 68.7522C383.488 70.8867 383.698 73.1194 383.977 75.4501C384.12 75.3219 384.131 75.2125 384.011 75.122C383.943 75.0239 384.026 75.039 384.26 75.1673C384.018 74.6091 384.004 74.1264 384.215 73.7192C384.426 73.3119 384.438 72.8254 384.249 72.2597C384.46 72.2296 384.589 72.1844 384.634 72.1241C384.385 71.8902 384.34 71.7619 384.498 71.7394C384.649 71.664 384.762 71.5132 384.838 71.2869C384.77 71.1888 384.717 71.1964 384.679 71.3095C384.687 71.3623 384.634 71.3698 384.521 71.3321C384.725 70.872 384.816 70.3743 384.793 69.8387C384.823 69.2957 385.057 68.8583 385.495 68.5266C385.427 68.4285 385.389 68.3531 385.382 68.3003C385.367 68.1947 385.303 68.123 385.19 68.0852C385.552 67.2255 385.91 66.3394 386.265 65.4269C386.62 64.5143 387.065 63.6697 387.601 62.893C388.182 62.056 388.891 61.3623 389.729 60.8119C390.619 60.2541 391.731 59.9339 393.067 59.8513C393.979 59.829 394.688 60.0781 395.193 60.5987C395.744 61.0589 396.151 61.6474 396.415 62.364C396.731 63.0731 396.95 63.85 397.07 64.6948C397.183 65.4868 397.288 66.226 397.386 66.9124C397.348 67.4027 397.273 68.006 397.159 68.7225C397.038 69.3862 396.978 70.0952 396.978 70.8495C396.713 72.0185 396.309 73.1535 395.766 74.2545C395.215 75.3027 394.626 76.2755 394 77.1729C393.91 77.2935 393.872 77.4067 393.887 77.5123C393.902 77.6179 393.86 77.7046 393.762 77.7724C392.993 78.798 392.061 79.4426 390.967 79.7062C389.926 79.9623 388.735 80.1053 387.392 80.135C387.324 80.037 387.211 79.9992 387.053 80.0218C386.894 80.0444 386.774 79.9538 386.691 79.7501C386.645 79.8105 386.574 79.8746 386.476 79.9424C386.37 79.9575 386.31 79.9122 386.295 79.8066C386.249 80.244 386.174 80.6588 386.068 81.051C385.962 81.4432 385.796 81.7901 385.57 82.0917C384.997 82.2273 384.412 82.2837 383.816 82.2609C383.273 82.2305 382.707 82.2304 382.119 82.2604C381.825 81.7097 381.678 81.2458 381.678 80.8686C381.618 80.4462 381.599 79.9371 381.622 79.3413ZM382.512 54.9718L382.671 54.9492L382.693 55.1076L382.535 55.1302L382.512 54.9718ZM392.432 61.6387C392.387 61.699 392.266 61.797 392.07 61.9327L391.391 62.2719C390.803 62.679 390.275 63.32 389.807 64.1948C389.331 65.0167 388.897 65.9406 388.505 66.9662C388.158 67.9315 387.867 68.9157 387.633 69.9188C387.444 70.8616 387.315 71.661 387.247 72.3172C387.172 73.2977 386.998 74.3461 386.726 75.4623C386.447 76.5257 386.367 77.4798 386.487 78.3245C386.601 78.3623 386.635 78.4113 386.589 78.4717C386.597 78.5245 386.631 78.5735 386.691 78.6188C386.94 78.4755 387.238 78.4869 387.585 78.653C387.932 78.819 388.271 78.9323 388.603 78.9927C390.504 77.9675 391.802 76.4896 392.496 74.559C393.244 72.6208 393.708 70.5882 393.89 68.4613C393.995 68.4463 394.052 68.4651 394.059 68.5179C394.067 68.5707 394.12 68.5632 394.218 68.4953C394.135 67.9146 394.075 67.3036 394.037 66.6625C394.045 65.961 394.008 65.3199 393.925 64.7391C393.887 64.098 393.752 63.5247 393.518 63.0193C393.33 62.4535 392.968 61.9933 392.432 61.6387ZM380.133 66.6242C380.163 66.4583 380.171 66.5111 380.155 66.7826C380.133 67.0013 380.125 66.9485 380.133 66.6242ZM380.404 67.3936C380.246 67.4162 380.151 67.3219 380.121 67.1107C380.287 67.1409 380.382 67.2352 380.404 67.3936ZM380.234 67.9027C380.257 67.6839 380.261 67.7103 380.246 67.9819C380.223 68.2006 380.219 68.1742 380.234 67.9027ZM380.291 68.8644C380.502 68.8343 380.562 68.8795 380.471 69.0002C380.381 69.1208 380.37 69.2302 380.437 69.3283C380.332 69.3433 380.298 69.2943 380.336 69.1812C380.373 69.068 380.358 68.9624 380.291 68.8644ZM380.415 70.3012C380.535 70.3918 380.603 70.4899 380.618 70.5955C380.512 70.6105 380.445 70.5124 380.415 70.3012ZM380.753 73.2429C380.859 73.2279 380.896 73.3033 380.866 73.4692C380.836 73.6351 380.76 73.6728 380.64 73.5823L380.606 73.3447C380.606 73.3447 380.655 73.3108 380.753 73.2429ZM380.719 74.1367C380.741 74.2951 380.779 74.3705 380.832 74.363C380.832 74.363 380.828 74.3366 380.821 74.2838C380.813 74.231 380.806 74.1782 380.798 74.1254C380.783 74.0198 380.757 74.0236 380.719 74.1367ZM380.967 76.4448C381.178 76.4146 381.238 76.4599 381.148 76.5806C381.057 76.7012 381.046 76.8106 381.114 76.9087C381.008 76.9237 380.974 76.8747 381.012 76.7616C381.05 76.6484 381.035 76.5428 380.967 76.4448ZM400.304 62.2944C400.508 62.2115 400.67 62.2153 400.791 62.3059C400.904 62.3436 401.066 62.3475 401.277 62.3173C401.655 61.9403 402.054 61.7217 402.477 61.6615C402.899 61.6013 403.337 61.6467 403.789 61.7977C404.242 61.9487 404.671 62.1298 405.079 62.3412C405.222 62.5901 405.358 62.7863 405.486 62.9296C405.667 63.0654 405.784 63.3181 405.836 63.6877C406.432 64.0877 406.986 64.5743 407.499 65.1477C408.064 65.7136 408.479 66.3548 408.743 67.0714C408.916 67.9087 408.878 68.7761 408.629 69.6735C408.38 70.571 407.983 71.3817 407.44 72.1056C406.95 72.822 406.308 73.4252 405.516 73.9152C404.777 74.3977 403.951 74.6501 403.038 74.6725C402.337 74.6647 401.749 74.5061 401.274 74.1967C400.851 73.8798 400.376 73.5704 399.848 73.2686C399.6 72.6576 399.347 72.2087 399.091 71.922C398.775 70.0815 398.775 68.573 399.092 67.3965C399.409 66.22 399.862 65.0511 400.451 63.8897C400.315 63.3164 400.266 62.7847 400.304 62.2944ZM404.114 71.4484C404.612 70.7848 405.11 70.1212 405.608 69.4576C406.099 68.7413 406.212 67.8362 405.948 66.7425C405.571 66.3652 405.217 65.9578 404.885 65.5203C404.546 65.0299 403.999 64.7846 403.245 64.7843C402.754 65.8779 402.283 67.1034 401.83 68.4609C401.422 69.758 401.49 70.9875 402.032 72.1492C402.462 72.1418 402.802 72.0665 403.051 71.9232C403.345 71.7197 403.699 71.5614 404.114 71.4484ZM409.952 66.1718C409.967 66.2773 410.001 66.3264 410.054 66.3189C410.054 66.3189 410.058 66.3453 410.065 66.3981C410.201 66.2171 410.164 66.1416 409.952 66.1718C409.885 65.6966 409.994 65.5193 410.281 65.6401C410.221 64.8406 410.383 64.0902 410.768 63.3888C411.153 62.6875 411.447 61.9183 411.651 61.0811L411.968 61.036C412.149 60.4175 412.451 59.8896 412.873 59.4523C413.296 59.015 413.749 58.6003 414.231 58.2082C414.933 58.216 415.631 58.1974 416.324 58.1523C417.011 58.0545 417.543 58.1942 417.92 58.5714C418.168 58.8053 418.27 59.141 418.225 59.5784C418.225 59.9556 418.274 60.2988 418.371 60.608C418.975 60.6836 419.484 60.8535 419.899 61.1176C419.921 62.0303 419.977 62.992 420.067 64.0027C420.15 64.9606 420.139 65.8242 420.033 66.5935C420.372 67.461 420.549 68.3247 420.564 69.1845C420.578 70.0444 420.887 70.8892 421.491 71.7191C421.755 71.6814 422 71.7004 422.226 71.7759C422.445 71.7986 422.743 71.81 423.12 71.8101C423.09 71.976 423.131 72.0778 423.244 72.1156C423.357 72.1533 423.425 72.2514 423.448 72.4098C423.372 72.6361 423.206 72.7944 422.95 72.8848C422.693 72.9753 422.527 73.1336 422.452 73.3599C421.72 73.518 421.045 73.5065 420.427 73.3253C419.853 73.0837 419.348 72.7517 418.911 72.3292C418.526 71.8992 418.214 71.405 417.972 70.8468C417.731 70.2886 417.573 69.7455 417.498 69.2175C417.362 69.3985 417.256 69.6021 417.181 69.8283C417.158 70.0471 417.049 70.2243 416.852 70.36C416.581 71.4762 416.165 72.532 415.607 73.5274C415.048 74.5229 414.083 75.1184 412.71 75.3141C412.22 75.2762 411.782 75.2308 411.398 75.1779C411.013 75.125 410.591 74.9966 410.131 74.7929C410.055 74.642 409.957 74.5213 409.837 74.4307C409.716 74.3402 409.592 74.2232 409.463 74.0799C409.509 73.6424 409.475 73.2163 409.362 72.8014C409.189 72.3413 409.268 71.9528 409.6 71.6362C409.54 71.5909 409.483 71.572 409.43 71.5795C409.325 71.5946 409.238 71.5531 409.17 71.455C409.193 71.2363 409.227 71.0968 409.272 71.0364C409.317 70.9761 409.276 70.8743 409.148 70.7309L409.464 70.6858C409.329 70.4896 409.306 70.3312 409.397 70.2106C409.434 70.0974 409.499 69.9806 409.589 69.8599C409.68 69.7393 409.65 69.7166 409.499 69.792C409.287 69.8221 409.254 69.7731 409.397 69.6449C409.367 69.4337 409.386 69.3771 409.454 69.4752C409.469 69.5808 409.503 69.6298 409.555 69.6223C409.661 69.6073 409.706 69.5469 409.691 69.4413C409.623 69.3433 409.638 69.2603 409.736 69.1924C409.563 69.1094 409.491 68.9849 409.522 68.819C409.544 68.6003 409.631 68.4532 409.782 68.3779C409.812 68.2119 409.775 68.1365 409.669 68.1516C409.556 68.1138 409.518 68.0384 409.556 67.9253C409.661 67.9102 409.744 67.9253 409.805 67.9706C409.812 68.0234 409.861 67.9895 409.952 67.8688C409.944 67.4389 409.929 67.1447 409.907 66.9863C409.824 66.7826 409.813 66.5149 409.873 66.183L409.952 66.1718ZM412.688 72.8929C413.647 70.9247 414.424 69.0091 415.021 67.1463L415.19 67.2029L415.269 67.1916C415.104 66.7843 415.104 66.4072 415.27 66.0603C415.436 65.7134 415.579 65.3966 415.7 65.1101C415.896 65.3515 416.024 65.4948 416.085 65.5401C416.054 65.3289 415.979 65.178 415.858 65.0875C415.791 64.9894 415.723 64.8913 415.655 64.7933C415.911 64.3257 416.112 63.8393 416.255 63.334C416.391 62.7759 416.482 62.2781 416.527 61.8406C416.255 61.8255 416.044 61.8556 415.893 61.931C415.788 61.946 415.622 61.9158 415.396 61.8403C415.373 61.6819 415.35 61.5235 415.328 61.3651C415.351 61.1464 415.253 61.0257 415.034 61.003C414.611 61.8174 414.226 62.7073 413.879 63.6726C413.524 64.5852 413.207 65.5731 412.928 66.6365C412.694 67.6396 412.546 68.6842 412.486 69.7703C412.417 70.8036 412.485 71.8445 412.688 72.8929ZM415.326 66.4563C415.447 66.5468 415.496 66.5129 415.473 66.3545C415.504 66.1886 415.47 66.1395 415.372 66.2074C415.334 66.3205 415.315 66.3771 415.315 66.3771L415.326 66.4563ZM409.522 68.2533C409.605 68.457 409.635 68.4796 409.612 68.3212C409.582 68.11 409.552 68.0874 409.522 68.2533ZM435.054 57.4221C434.805 57.5653 434.518 57.6331 434.194 57.6254C433.915 57.5575 433.617 57.5461 433.3 57.5912C433.247 57.5987 433.198 57.6327 433.153 57.693C433.153 57.693 433.127 57.6968 433.074 57.7043L432.553 58.0209C432.501 58.0284 432.451 58.0624 432.406 58.1227C432.406 58.1227 432.38 58.1264 432.327 58.134C430.697 59.9286 429.486 62.0137 428.693 64.3893C427.901 66.765 427.319 69.299 426.949 71.9916C426.753 72.1273 426.613 72.2819 426.53 72.4553C426.492 72.5684 426.371 72.6665 426.168 72.7494C425.73 72.704 425.365 72.5945 425.07 72.4209C424.776 72.2474 424.46 72.104 424.12 71.9907C423.698 70.1653 423.495 68.3626 423.511 66.5826C423.474 64.8101 423.463 63.0338 423.479 61.2538C423.313 60.8465 423.166 60.3825 423.038 59.8621C422.902 59.2888 422.865 58.8362 422.925 58.5044C423.174 58.3612 423.374 58.2519 423.525 58.1765C423.615 58.0558 423.789 57.9503 424.045 57.8599C424.739 57.8148 425.222 57.9885 425.493 58.3807C425.765 58.773 425.916 59.2633 425.946 59.8517C426.028 60.4325 426.036 61.0509 425.968 61.7071C425.952 62.3558 425.982 62.9441 426.058 63.4721C426.48 62.6576 426.876 61.8469 427.246 61.04C427.609 60.1803 428.031 59.3658 428.514 58.5966C429.05 57.8199 429.684 57.1639 430.415 56.6287C431.147 56.0934 432.068 55.7467 433.176 55.5887C433.591 55.8528 434.074 56.0264 434.624 56.1095C434.805 56.2454 434.945 56.4679 435.043 56.7772C435.141 57.0864 435.144 57.3014 435.054 57.4221ZM451.719 58.6831C451.681 58.7962 451.613 58.8867 451.515 58.9545C451.462 58.9621 451.473 59.0413 451.549 59.1921C451.647 59.1243 451.715 59.0338 451.752 58.9207C451.843 58.8 451.832 58.7208 451.719 58.6831C451.628 58.4266 451.632 58.2644 451.73 58.1966C451.873 58.0684 451.956 57.895 451.979 57.6762C452.1 57.7668 452.16 57.8121 452.16 57.8121C452.258 57.7442 452.277 57.6876 452.217 57.6424C452.209 57.5896 452.156 57.5971 452.058 57.6649C452.149 57.5443 452.168 57.4877 452.115 57.4953C452.055 57.45 452.017 57.3745 452.002 57.2689C452.055 57.2614 452.111 57.2803 452.172 57.3256C452.232 57.3708 452.254 57.3407 452.239 57.2351C452.398 57.2125 452.507 57.2239 452.568 57.2691C452.658 57.1485 452.59 57.0504 452.364 56.9749C452.138 56.8994 452.149 56.79 452.398 56.6468C452.504 56.6318 452.564 56.677 452.579 56.7826C452.594 56.8882 452.715 56.9788 452.941 57.0543C452.964 56.8356 452.918 56.7073 452.805 56.6696C452.745 56.6243 452.73 56.5187 452.76 56.3528C452.919 56.3302 452.99 56.2661 452.975 56.1605C453.005 55.9946 453.066 55.8513 453.156 55.7306C453.352 55.5949 453.417 55.6666 453.349 55.9457C453.273 56.1719 453.333 56.2172 453.53 56.0815C453.545 56.1871 453.507 56.3002 453.416 56.4209C453.371 56.4812 453.39 56.6132 453.473 56.8169C453.593 56.9074 453.673 56.8961 453.71 56.783C453.748 56.6699 453.835 56.7114 453.971 56.9075C453.918 56.9151 453.85 57.0055 453.767 57.179C453.676 57.2996 453.616 57.2544 453.586 57.0432C453.488 57.111 453.461 57.3033 453.506 57.6201C453.574 57.3411 453.646 57.277 453.721 57.4279C453.842 57.5184 453.91 57.4279 453.925 57.1564C454.151 57.2319 454.227 57.3828 454.151 57.609C454.076 57.8353 453.921 57.8843 453.687 57.756C453.755 57.854 453.8 57.9823 453.823 58.1407C453.891 58.2387 453.88 58.3481 453.789 58.4688C453.616 58.3857 453.544 58.2613 453.574 58.0953C453.476 58.1632 453.389 58.3102 453.314 58.5365C453.321 58.5893 453.378 58.6082 453.484 58.5931L453.721 58.5593C453.736 58.6648 453.695 58.7516 453.597 58.8194C453.491 58.8345 453.449 58.9212 453.472 59.0796C453.683 59.0495 453.778 58.9552 453.755 58.7968C453.732 58.6384 453.83 58.5706 454.049 58.5933C453.996 59.3551 453.789 59.9773 453.426 60.4599C453.057 60.8897 452.845 61.4855 452.792 62.2472C452.566 62.5489 452.366 62.8467 452.192 63.1408C452.064 63.3746 451.973 63.6838 451.921 64.0685L451.604 64.1136C451.158 65.1468 450.656 66.1611 450.098 67.1565C449.585 68.0916 448.778 68.8532 447.676 69.4412C445.014 69.6591 443.158 68.7383 442.111 66.6789C441.816 67.2596 441.575 67.8327 441.386 68.3983C441.25 68.9564 441.171 69.5334 441.148 70.1293C440.763 70.4535 440.495 70.8418 440.344 71.2943C440.239 71.6865 440.14 72.1315 440.05 72.6292C439.944 72.6443 439.888 72.6254 439.88 72.5726C439.873 72.5198 439.82 72.5273 439.722 72.5952C439.261 73.8999 438.529 74.8123 437.526 75.3324C436.659 75.2944 435.84 75.2225 435.071 75.1167C434.302 75.0109 433.664 74.6977 433.159 74.1771C433.099 73.7547 433.027 73.4416 432.945 73.238C432.854 72.9815 432.839 72.6873 432.9 72.3555C432.794 72.3705 432.779 72.4535 432.854 72.6044C432.93 72.7552 432.854 72.7929 432.628 72.7174C432.636 72.016 432.606 71.2391 432.538 70.3868C432.418 69.542 432.358 68.7425 432.358 67.9882C432.463 67.9732 432.52 67.992 432.528 68.0448C432.482 68.1052 432.516 68.1542 432.629 68.192C432.72 68.0713 432.727 67.9355 432.652 67.7847C432.516 67.5885 432.52 67.4264 432.664 67.2982C432.422 67.1171 432.339 66.9134 432.415 66.6872C432.483 66.4081 432.615 66.2007 432.811 66.065C432.736 65.9142 432.656 65.9254 432.573 66.0989C432.49 66.2724 432.456 66.2233 432.472 65.9518C432.57 65.8839 432.585 65.801 432.517 65.7029C432.449 65.6048 432.551 65.5634 432.823 65.5785C432.86 65.4654 432.849 65.3862 432.789 65.3409C432.721 65.2429 432.679 65.141 432.664 65.0354C432.853 64.4698 433.008 63.8552 433.129 63.1915C433.25 62.5277 433.42 61.8301 433.638 61.0986C433.744 61.0835 433.797 61.076 433.797 61.076C433.661 60.5027 433.797 59.9446 434.205 59.4017C434.612 58.8588 434.948 58.3799 435.212 57.9652C435.303 57.8445 435.389 57.6975 435.472 57.524C435.555 57.3506 435.642 57.2035 435.733 57.0829C436.253 56.5777 436.883 56.2724 437.622 56.167C438.837 55.9939 439.825 56.311 440.586 57.1183C440.76 56.4471 440.787 55.6891 440.666 54.8443C440.591 53.9392 440.64 53.151 440.814 52.4798C440.791 52.3214 440.701 52.2535 440.543 52.276C440.656 51.1824 440.773 50.1152 440.894 49.0744C441.015 48.0335 441.095 46.8909 441.133 45.6464C441.186 45.6389 441.216 45.6615 441.223 45.7143C441.223 45.7143 441.276 45.7068 441.382 45.6917C441.246 45.1184 441.246 44.5528 441.382 43.9947C441.518 43.4366 441.598 42.8596 441.621 42.2637C441.764 42.1356 441.802 42.0224 441.734 41.9244C441.658 41.7735 441.609 41.6188 441.587 41.4605L441.904 41.4153C441.806 40.7289 441.874 40.0727 442.108 39.4468C442.395 38.8133 442.538 38.1194 442.538 37.3652C442.704 37.3954 442.784 37.3841 442.776 37.3313C442.761 37.2257 442.806 37.1654 442.912 37.1503C442.882 36.562 442.905 36.1547 442.98 35.9285C443.101 35.6419 443.263 35.2686 443.467 34.8086C443.739 34.4466 444.086 34.2355 444.508 34.1753C444.93 34.1151 445.345 34.1907 445.752 34.402C446.205 34.553 446.605 34.7115 446.952 34.8775C447.555 36.0845 447.747 37.4309 447.527 38.9167C447.361 40.395 447.236 41.7865 447.153 43.0914C447.122 44.0115 447.054 44.8563 446.948 45.6256C446.842 46.3949 446.793 47.183 446.8 47.9901C446.604 48.1258 446.499 48.3294 446.483 48.6009C446.461 48.8197 446.442 49.0648 446.427 49.3363C446.411 49.6078 446.366 49.8567 446.291 50.083C446.268 50.3017 446.159 50.4789 445.962 50.6146C446.03 50.7127 446.064 50.7617 446.064 50.7617C446.117 50.7542 446.174 50.7731 446.234 50.8183C446.136 50.8862 446.068 50.9767 446.03 51.0898C446.045 51.1954 446 51.2557 445.894 51.2708C445.985 51.9044 445.909 52.5078 445.667 53.0809C445.479 53.6465 445.422 54.1933 445.497 54.7213C445.248 54.8646 445.124 55.1247 445.124 55.5019C445.169 55.8187 445.071 56.0751 444.829 56.2711C444.708 57.3119 444.535 58.1717 444.308 58.8505C444.074 59.4764 443.885 60.2306 443.742 61.113C443.825 61.3167 443.858 61.5543 443.843 61.8258C443.971 63.1005 444.182 64.2018 444.476 65.1296C444.822 66.0499 445.271 66.9288 445.821 67.7661C446.485 67.5099 446.911 67.099 447.1 66.5333C447.342 65.9602 447.734 65.5002 448.277 65.1534C448.715 64.0675 449.247 63.0758 449.873 62.1784C450.492 61.2283 450.93 60.1423 451.187 58.9205C451.353 58.9507 451.402 58.9168 451.334 58.8187C451.311 58.6603 451.36 58.6264 451.481 58.7169L451.719 58.6831ZM446.995 39.7198C446.837 39.7424 446.761 39.7801 446.769 39.8329C446.927 39.8103 447.003 39.7726 446.995 39.7198ZM447.085 41.4848C447.131 41.4245 447.146 41.3415 447.131 41.2359C447.161 41.07 447.101 41.0247 446.95 41.1001C446.98 41.3113 447.025 41.4395 447.085 41.4848ZM441.621 42.2637C441.553 42.1657 441.496 42.1468 441.451 42.2071C441.458 42.2599 441.515 42.2788 441.621 42.2637ZM444.381 43.4865C444.418 43.3734 444.445 43.3696 444.46 43.4752C444.467 43.528 444.475 43.5808 444.482 43.6336C444.49 43.6864 444.467 43.7165 444.415 43.7241C444.415 43.7241 444.403 43.6449 444.381 43.4865ZM444.346 44.3802C444.384 44.2671 444.426 44.1804 444.471 44.1201C444.516 44.0597 444.456 44.0145 444.29 43.9843C444.358 44.0823 444.343 44.1653 444.245 44.2331C444.147 44.301 444.181 44.35 444.346 44.3802ZM444.177 44.8893C444.388 44.8592 444.475 44.7122 444.437 44.4482C444.384 44.4557 444.312 44.5198 444.222 44.6404L444.177 44.8893ZM444.12 46.1904C444.286 46.2206 444.335 46.1867 444.267 46.0886C444.244 45.9302 444.316 45.8661 444.482 45.8963C444.361 45.8058 444.32 45.7039 444.357 45.5908C444.388 45.4249 444.32 45.3268 444.154 45.2966C444.131 45.5153 444.124 45.6511 444.131 45.7039C444.191 45.7492 444.188 45.9113 444.12 46.1904ZM443.995 47.0162C444.033 46.9031 444.07 46.79 444.108 46.6769C444.199 46.5562 444.187 46.477 444.074 46.4393C444.029 46.4996 443.965 46.6165 443.882 46.7899C443.844 46.903 443.882 46.9785 443.995 47.0162ZM443.95 47.2651C444.025 47.0389 444.078 47.0313 444.108 47.2425C444.131 47.4009 444.078 47.4085 443.95 47.2651ZM440.995 51.4842C440.837 51.5068 440.762 51.5445 440.769 51.5973C440.814 51.537 440.89 51.4993 440.995 51.4842ZM452.579 56.217C452.707 56.3603 452.76 56.3528 452.738 56.1944C452.707 55.9832 452.655 55.9907 452.579 56.217ZM438.55 58.1359C437.206 60.0513 436.286 62.2836 435.787 64.8328C435.288 67.382 435.318 70.233 435.875 73.386C436.493 72.8129 436.991 72.1493 437.369 71.3952C437.746 70.6411 438.067 69.8681 438.331 69.0762C438.641 68.224 438.897 67.3793 439.101 66.5422C439.35 65.6447 439.664 64.8189 440.041 64.0648C439.951 63.8083 439.955 63.6461 440.053 63.5783C440.143 63.4576 440.121 63.2992 439.985 63.1031C440.332 62.5149 440.589 61.8588 440.755 61.1347C440.921 60.4107 440.906 59.5509 440.71 58.5552C440.537 58.4722 440.311 58.3967 440.032 58.3287C439.753 58.2607 439.579 58.3663 439.511 58.6453C439.044 58.3887 438.723 58.2189 438.55 58.1359ZM452.239 57.2351C452.119 57.1445 452.051 57.0465 452.036 56.9409C452.149 56.9786 452.217 57.0767 452.239 57.2351ZM452.216 58.2081L452.375 58.1855L452.341 57.9479L452.183 57.9705L452.216 58.2081ZM451.9 58.2532C451.975 58.027 452.028 58.0194 452.058 58.2306C452.081 58.389 452.028 58.3966 451.9 58.2532ZM453.506 59.8829C453.423 59.6792 453.393 59.468 453.415 59.2493C453.431 58.9778 453.378 58.7967 453.257 58.7062C453.219 58.8193 453.197 59.038 453.189 59.3624C453.234 59.6792 453.34 59.8527 453.506 59.8829ZM452.906 59.6451C452.929 59.4264 452.955 59.4226 452.985 59.6338C453.015 59.845 452.989 59.8488 452.906 59.6451ZM450.926 60.493C451.002 60.2668 451.028 60.263 451.005 60.4817C451.028 60.6401 451.001 60.6439 450.926 60.493ZM432.562 66.5854C432.6 66.4723 432.622 66.4421 432.63 66.4949C432.63 66.4949 432.634 66.5213 432.641 66.5741C432.596 66.6344 432.577 66.691 432.585 66.7438C432.532 66.7513 432.524 66.6985 432.562 66.5854ZM432.741 71.8124C432.832 71.6917 432.87 71.7672 432.854 72.0387C432.786 72.3177 432.749 72.2423 432.741 71.8124Z" fill="white"/>
<path d="M20 19.6562C20.3333 89.4896 86.5 160.656 208.5 118.656" stroke="white"/>
<path d="M1 37.6569C6.83333 24.4902 20 -1.24313 26 1.15687C33.5 4.15687 23 29.6567 44.5 45.6567" stroke="white"/>
</svg>
