<svg width="68" height="69" viewBox="0 0 68 69" fill="none" xmlns="http://www.w3.org/2000/svg">
<path d="M41.3268 0.254395H26.9268C11.2178 0.254395 0.335938 10.0726 0.335938 24.1453V43.2089C0.335938 58.1817 11.2178 68.7362 26.9268 68.6544H45.745V61.9453H26.9268C15.4723 61.9453 7.61776 54.2544 7.61776 43.2089V24.1453C7.61776 13.9999 15.4723 6.88167 26.9268 6.88167H41.3268C52.7814 6.88167 60.3905 13.6726 60.3905 23.818V34.5362C60.3905 41.0817 58.5087 44.1089 54.2541 44.1089C51.3087 44.1089 49.2632 42.2271 49.2632 39.4453V17.7635H42.3905V22.1817C40.345 19.2362 36.3359 17.2726 31.9996 17.2726C22.0178 17.2726 16.2905 24.3908 16.2905 34.2089C16.2905 43.9453 22.0178 51.1453 32.0814 51.1453C38.3814 51.1453 42.5541 48.5271 44.0268 45.0908C45.1723 48.6089 49.345 50.818 54.1723 50.818C62.5178 50.818 67.5087 45.0908 67.5087 34.5362V23.818C67.5087 9.7453 57.0359 0.254395 41.3268 0.254395ZM32.9814 45.3362C27.0087 45.418 23.0814 40.918 23.0814 34.2089C23.0814 27.418 27.0087 22.9998 32.9814 22.9998C38.9541 22.9998 42.7996 27.418 42.7996 34.2089C42.7996 40.918 38.9541 45.3362 32.9814 45.3362Z" fill="white"/>
</svg>
