<svg width="97" height="71" viewBox="0 0 97 71" fill="none" xmlns="http://www.w3.org/2000/svg">
<path d="M1 38.6905C1 38.6905 14.2201 45.5852 21.8738 35.8441C21.8738 35.8441 26.4914 -1.91858 65.5191 1.18087C100.119 3.96404 101.511 40.7146 87.658 57.3504C73.8054 73.9862 39.0157 75.8838 27.3769 53.6817C27.3769 53.6817 4.85849 57.3504 1 38.6905Z" stroke="white" stroke-width="0.8776" stroke-miterlimit="10"/>
<path d="M41.2282 31.7958C41.924 31.606 42.683 31.4163 43.5053 31.2265C44.3276 30.9735 45.1499 30.7837 45.9722 30.6572C46.7945 30.5307 47.5536 30.5307 48.3126 30.5307C49.0717 30.594 49.7042 30.7837 50.3367 31.1633C50.4 31.2898 50.4633 31.353 50.4 31.4795C50.4 31.5428 50.4 31.606 50.4633 31.7325C50.0205 31.7325 49.3879 31.7325 48.6289 31.7325C47.8698 31.6693 47.174 31.7325 46.5415 31.859C45.5927 32.1753 44.7071 32.4283 43.8216 32.6814C42.936 32.9344 42.0505 33.2506 41.1649 33.6302C41.0384 35.338 41.0384 37.1091 41.0384 38.817C41.0384 40.5248 41.1017 42.296 41.1017 44.0038C41.2282 44.9526 41.2914 45.9647 41.3547 46.9768C41.4179 47.9888 41.5444 49.0009 41.671 50.013C41.7342 50.5822 41.8607 51.1515 41.924 51.7208C41.9872 52.2901 42.1137 52.8594 42.2402 53.3654C42.3667 53.9347 42.5565 54.4407 42.8095 54.8835C43.0625 55.3263 43.3788 55.7691 43.8216 56.0853C44.0113 56.1486 44.0746 56.0853 44.2011 55.8956C44.3276 55.7058 44.4541 55.7058 44.5806 55.7691C44.6439 55.9588 44.7071 56.1486 44.6439 56.4016C44.6439 56.6546 44.5174 56.7811 44.4541 56.9709C44.1379 57.0974 43.8848 57.1606 43.6951 57.1606C43.5053 57.2239 43.2523 57.2239 42.8728 57.2239C42.2402 56.9076 41.7974 56.4649 41.4179 55.8956C41.0384 55.263 40.7854 54.6305 40.5324 53.8715C40.3426 53.1124 40.1529 52.3533 40.0896 51.5943C39.9631 50.772 39.8366 50.0762 39.7101 49.3804C39.5203 46.9768 39.3305 44.5098 39.204 42.0429C39.0775 39.576 39.0775 37.0459 39.2673 34.3892C38.445 34.6422 37.5594 35.085 36.6106 35.591C35.6618 36.0971 34.6497 36.6031 33.6377 37.1724C33.3847 37.2989 33.1316 37.4254 32.8786 37.5519C32.5624 37.6784 32.3094 37.7417 32.1196 37.7417C31.9298 37.7417 31.6768 37.6152 31.3605 37.4254C31.1075 37.2356 30.9178 36.9826 30.981 36.6663C31.3605 36.3501 31.8033 36.0338 32.3093 35.8441C32.7521 35.591 33.2582 35.4013 33.7009 35.1483C34.1437 34.832 34.6497 34.579 35.0925 34.4525C35.5986 34.2627 36.0413 34.0729 36.4841 33.7567C36.9901 33.6302 37.4962 33.4404 37.8757 33.2506C38.2552 33.0609 38.7613 32.8711 39.2673 32.6814C39.3305 32.3018 39.3305 31.9223 39.3305 31.4163C39.2673 30.9102 39.2673 30.4042 39.3305 29.8982C39.3305 29.3921 39.4571 29.0126 39.5836 28.6963C39.7733 28.3168 40.0896 28.1271 40.5956 28.1271C40.9752 28.2536 41.1649 28.4433 41.2282 28.7596C41.3547 29.0759 41.3547 29.3921 41.3547 29.7084C41.3547 30.0879 41.2914 30.4042 41.2282 30.847C41.2914 31.1633 41.2282 31.4795 41.2282 31.7958ZM45.2764 31.1633C45.2764 31.353 45.3397 31.5428 45.4662 31.7325C45.5294 31.9223 45.5927 32.0488 45.5927 32.1121C45.6559 32.2386 45.5927 32.3018 45.5294 32.3018C45.4662 32.3018 45.4029 32.3651 45.3397 32.4283C45.3397 34.326 45.2132 36.0971 44.9602 37.7417C44.7071 39.3863 44.5806 41.0941 44.4541 42.802C44.5806 42.549 44.7071 42.2327 44.8969 41.9164C45.0867 41.5369 45.2764 41.2206 45.5294 40.9044C45.7824 40.5249 46.0355 40.2718 46.2885 40.0188C46.6048 39.7658 46.921 39.576 47.3006 39.5128C47.6801 39.4495 48.1229 39.5128 48.6289 39.7658C48.8187 40.0188 48.9452 40.2086 49.0717 40.4616C49.2614 40.7146 49.3247 40.9676 49.4512 41.2839C49.5777 41.7899 49.7042 42.3592 49.8307 42.8653C49.9572 43.4345 50.2102 43.8773 50.5898 44.1936C50.906 44.0671 51.159 43.9406 51.3488 43.8141C51.6018 43.6243 51.7916 43.4345 51.9181 43.1815C52.1079 42.9918 52.2976 42.7387 52.4241 42.549C52.6139 42.3592 52.8037 42.1694 52.9934 41.9797C53.5627 41.2206 54.1952 40.4616 54.8278 39.7026C54.891 39.7658 54.891 39.8291 54.9543 39.8291C54.9543 39.8291 55.0175 39.8291 55.0808 39.8923C55.0808 40.1453 54.9543 40.3983 54.7645 40.5248C54.638 40.7146 54.7013 40.9044 54.891 41.0941C54.8278 41.3471 54.7013 41.5369 54.5115 41.6634C54.3218 41.7899 54.3217 41.9797 54.385 42.2327C54.3217 42.2327 54.2585 42.2327 54.2585 42.296C54.2585 42.3592 54.1952 42.296 54.132 42.296C53.879 42.9285 53.4995 43.4978 53.0567 43.9406C52.6139 44.3833 52.1079 44.8261 51.6018 45.2056C51.2856 45.2056 50.906 45.2689 50.653 45.3322C50.4 45.3954 50.0205 45.3321 49.7042 45.2056C49.1349 44.7629 48.6921 44.1936 48.4391 43.3713C48.1861 42.549 47.9331 41.7267 47.6801 40.9044C47.2373 41.3472 46.8578 41.8532 46.6048 42.4225C46.2885 42.9918 46.0355 43.561 45.8457 44.1936C45.6559 44.7629 45.4662 45.3954 45.3397 46.0912C45.1499 46.7237 44.9602 47.4195 44.7704 48.0521C44.5806 48.1153 44.4541 48.2418 44.4541 48.3051C44.0746 48.1786 43.8216 48.1786 43.6951 48.1786C43.5053 48.1786 43.2523 48.1153 42.8728 47.9256C42.8728 47.7991 42.8728 47.7358 42.7463 47.6725C42.6198 46.4707 42.6198 45.3322 42.7463 44.1303C42.8095 42.9285 42.9993 41.8532 43.189 40.7779C43.2523 39.9556 43.3155 39.1965 43.3788 38.4375C43.5053 37.6784 43.5686 36.9826 43.6951 36.2236C43.7583 35.4645 43.8216 34.6422 43.8216 33.8832C43.8848 33.0609 43.8848 32.2386 43.7583 31.353C43.9481 31.2265 44.2644 31.1633 44.5806 31.1633C44.8336 31.0368 45.0867 31.1 45.2764 31.1633ZM45.2764 45.9014H45.4029V46.028H45.2764V45.9014ZM54.891 43.055C54.891 43.4345 55.0175 43.7508 55.2073 44.0671C55.4603 44.3201 55.7133 44.5731 55.9663 44.6996C56.2826 44.6364 56.5989 44.5731 56.7887 44.4466C56.9784 44.3201 57.1682 44.1303 57.2947 43.9406C57.4844 43.7508 57.611 43.4978 57.7375 43.308C57.864 43.1183 57.9905 42.9285 58.1802 42.7387C58.4333 42.7387 58.6863 42.802 58.9393 42.9285C58.9393 43.561 58.8128 44.0671 58.4965 44.5731C58.2435 45.0791 57.8007 45.3954 57.2314 45.5852C56.3459 45.8382 55.5236 45.7749 54.9543 45.4587C54.3218 45.0791 53.879 44.5731 53.4994 43.9406C53.1832 42.4857 53.2464 41.1574 53.6892 40.0821C54.132 38.9435 54.7645 37.9314 55.5868 37.1091C55.9664 36.9194 56.2826 36.7929 56.5989 36.7296C57.0417 36.6664 57.4212 36.7296 57.7375 36.9194C58.117 37.0459 58.37 37.2989 58.623 37.6152C58.623 37.6784 58.623 37.7417 58.5598 37.8049C58.5598 37.8682 58.5598 37.8682 58.623 37.8682C58.117 39.8923 57.0417 41.6002 55.4603 43.055C55.3971 43.055 55.2706 43.1183 55.2073 43.1183C55.1441 43.055 55.0175 43.055 54.891 43.055ZM54.9543 41.3471C55.9031 40.2718 56.5989 39.07 57.1049 37.8682C56.4724 38.1212 55.9664 38.6272 55.7133 39.323C55.3971 39.9556 55.1441 40.6513 54.9543 41.3471ZM66.7828 36.6031C66.6563 36.6663 66.4665 36.7296 66.2768 36.7296C66.087 36.6664 65.9605 36.6664 65.7707 36.7296C65.7707 36.7296 65.7075 36.7296 65.7075 36.7929C65.7075 36.7929 65.7075 36.7929 65.6442 36.7929L65.328 36.9826C65.328 36.9826 65.2647 36.9826 65.2647 37.0459C65.2647 37.0459 65.2647 37.0459 65.2014 37.0459C64.2526 38.1212 63.5568 39.323 63.0508 40.7146C62.608 42.1062 62.2285 43.6243 62.0387 45.2056C61.9122 45.2689 61.849 45.3954 61.7857 45.4587C61.7857 45.5219 61.7225 45.5852 61.596 45.6484C61.343 45.6484 61.1532 45.5852 60.9634 45.4587C60.7737 45.3321 60.5839 45.2689 60.3941 45.2056C60.1411 44.1303 60.0146 43.055 60.0146 42.0429C60.0146 41.0309 60.0146 39.9556 60.0146 38.9435C59.8881 38.6905 59.8248 38.4375 59.7616 38.1212C59.6983 37.8049 59.6351 37.4887 59.6983 37.2989C59.8249 37.2356 59.9513 37.1724 60.0779 37.1091C60.1411 37.0459 60.2044 36.9826 60.3941 36.9194C60.7737 36.9194 61.0899 36.9826 61.2164 37.2356C61.4062 37.4886 61.4695 37.7417 61.4695 38.1212C61.5327 38.4375 61.5327 38.817 61.4695 39.1965C61.4695 39.576 61.4695 39.8923 61.5327 40.2086C61.7857 39.7025 62.0387 39.2598 62.2285 38.7537C62.4183 38.2477 62.6713 37.7417 62.9875 37.2989C63.3038 36.8561 63.6834 36.4766 64.1261 36.1603C64.5689 35.8441 65.0749 35.6543 65.7707 35.5278C66.0237 35.6543 66.2768 35.7808 66.593 35.8441C66.7195 35.9073 66.7828 36.0338 66.846 36.2236C66.846 36.4133 66.846 36.5398 66.7828 36.6031ZM67.1623 41.2839C67.1623 41.6634 67.2888 41.9797 67.4786 42.296C67.7316 42.549 67.9846 42.802 68.2376 42.9285C68.5539 42.8652 68.8702 42.802 69.0599 42.6755C69.2497 42.549 69.4395 42.3592 69.566 42.1695C69.7557 41.9797 69.8822 41.7267 70.0087 41.5369C70.1353 41.3472 70.2618 41.1574 70.4515 40.9676C70.7045 40.9676 70.9576 41.0309 71.2106 41.1574C71.2106 41.7899 71.0841 42.296 70.7678 42.802C70.5148 43.308 70.072 43.6243 69.5027 43.8141C68.6172 44.0671 67.7949 44.0038 67.2256 43.6875C66.593 43.308 66.1502 42.802 65.7707 42.1695C65.4544 40.7146 65.5177 39.3863 65.9605 38.311C66.4033 37.1724 67.0358 36.1603 67.8581 35.338C68.2376 35.1482 68.5539 35.0218 68.8702 34.9585C69.313 34.8952 69.6925 34.9585 70.0087 35.1483C70.3883 35.2748 70.6413 35.5278 70.8943 35.8441C70.8943 35.9073 70.8943 35.9706 70.831 36.0338C70.831 36.0971 70.831 36.0971 70.8943 36.0971C70.3883 38.1212 69.3129 39.8291 67.7316 41.2839C67.6683 41.2839 67.5418 41.3471 67.4786 41.3471C67.4153 41.2839 67.2888 41.2839 67.1623 41.2839ZM67.2256 39.576C68.1744 38.5007 68.8702 37.2989 69.3762 36.0971C68.7437 36.3501 68.2376 36.8561 67.9846 37.5519C67.6683 38.1844 67.4153 38.8802 67.2256 39.576ZM74.31 23.2565C74.6263 23.1933 74.9426 23.2565 75.1323 23.4463C75.3221 23.636 75.5751 23.7625 75.7649 23.9523C75.8914 25.7867 75.9546 27.7475 75.8914 29.7084C75.8281 31.6693 76.0179 33.6934 76.3341 35.7808C76.2709 35.9706 76.2709 36.0971 76.2076 36.2236C76.2076 36.3501 76.2076 36.4766 76.1444 36.6031C75.9546 36.6031 75.8281 36.6031 75.7016 36.6031C75.6384 36.6031 75.5118 36.6031 75.3221 36.5399C74.8793 35.7808 74.6263 35.0217 74.563 34.1994C74.4998 33.3771 74.4365 32.4916 74.3733 31.6693C74.3733 31.1633 74.3733 30.594 74.31 30.0247C74.31 29.4554 74.2468 28.8229 74.2468 28.2536C74.2468 27.621 74.1835 26.9885 74.2468 26.4192C74.2468 25.7867 74.2468 25.2806 74.1203 24.7113C74.1203 24.5216 73.9938 24.2686 73.8672 24.0788C73.7407 23.8258 73.804 23.636 74.057 23.4463C74.1203 23.383 74.1835 23.2565 74.31 23.2565ZM76.9667 41.9797C76.7769 42.1062 76.5872 42.2327 76.3341 42.2327C75.7649 42.296 75.3221 42.0429 75.0691 41.4737C75.1323 41.2839 75.1956 41.0941 75.2588 40.9044C75.3853 40.7146 75.4486 40.5881 75.5751 40.3983C76.0179 40.2086 76.3974 40.3351 76.6504 40.7146C76.9667 41.1574 77.0299 41.5369 76.9667 41.9797Z" fill="white"/>
<path d="M55.7137 16.2353C55.7137 16.4251 55.777 16.6148 55.9035 16.8046C55.9667 16.9944 56.03 17.1209 56.03 17.1841C56.0932 17.3106 56.03 17.3739 55.9667 17.3739C55.9034 17.3739 55.8402 17.4371 55.7769 17.5004C55.7769 19.398 55.6504 21.1691 55.3974 22.8137C55.1444 24.4583 55.0179 26.1662 54.8914 27.8741C55.0179 27.621 55.1444 27.3048 55.3342 26.9885C55.5239 26.609 55.7137 26.2927 55.9667 25.9764C56.2197 25.5969 56.4727 25.3439 56.7258 25.0909C57.042 24.8379 57.3583 24.6481 57.7378 24.5848C58.1174 24.5216 58.5601 24.5849 59.0662 24.8379C59.2559 25.0909 59.3824 25.2806 59.5089 25.5337C59.6987 25.7867 59.762 26.0397 59.8885 26.356C60.015 26.862 60.1415 27.4313 60.268 27.9373C60.3945 28.5066 60.6475 28.9494 61.027 29.2657C61.3433 29.1391 61.5963 29.0126 61.7861 28.8861C62.0391 28.6964 62.2289 28.5066 62.3554 28.2536C62.5451 28.0638 62.7349 27.8108 62.8614 27.621C63.0512 27.4313 63.2409 27.2415 63.4307 27.0518C64 26.2927 64.6325 25.5337 65.265 24.7746C65.3283 24.8379 65.3283 24.9011 65.3916 24.9011C65.3916 24.9011 65.4548 24.9011 65.5181 24.9644C65.5181 25.2174 65.3916 25.4704 65.2018 25.5969C65.0753 25.7867 65.1385 25.9764 65.3283 26.1662C65.2651 26.4192 65.1385 26.609 64.9488 26.7355C64.759 26.862 64.759 27.0518 64.8223 27.3048C64.759 27.3048 64.6958 27.3048 64.6958 27.368C64.6958 27.4313 64.6325 27.368 64.5693 27.368C64.3162 28.0006 63.9367 28.5698 63.4939 29.0126C63.0512 29.4554 62.5451 29.8982 62.0391 30.2777C61.7228 30.2777 61.3433 30.341 61.0903 30.4042C60.8373 30.4675 60.4577 30.4042 60.1415 30.2777C59.5722 29.8349 59.1294 29.2656 58.8764 28.4433C58.6234 27.621 58.3704 26.7987 58.1174 25.9764C57.6746 26.4192 57.295 26.9252 56.9788 27.4945C56.6625 28.0638 56.4095 28.6331 56.2197 29.2657C56.03 29.8349 55.8402 30.4675 55.7137 31.1633C55.5239 31.7958 55.3342 32.4916 55.1444 33.1241C54.9546 33.1874 54.8281 33.3139 54.8281 33.3772C54.4486 33.2507 54.1956 33.2506 54.0691 33.2506C53.8793 33.2506 53.6263 33.1874 53.2468 32.9976C53.2468 32.8711 53.2468 32.8079 53.1203 32.7446C52.9938 31.5428 52.9938 30.4042 53.1203 29.2024C53.1835 28.0006 53.3733 26.9252 53.5631 25.8499C53.6263 25.0276 53.6896 24.2686 53.7528 23.5095C53.8793 22.7505 53.9426 22.0547 54.0691 21.2956C54.1323 20.5366 54.1956 19.7143 54.1956 18.9552C54.2589 18.1329 54.2588 17.3106 54.1323 16.4251C54.3221 16.2986 54.6384 16.2353 54.9547 16.2353C55.2709 16.1088 55.5239 16.1088 55.7137 16.2353ZM55.7137 30.9735H55.8402V31.1H55.7137V30.9735ZM65.012 17.7534C65.2018 18.0064 65.3283 18.1962 65.4548 18.386C65.5813 18.5757 65.6446 18.8287 65.7078 19.2083C65.5813 19.398 65.3916 19.4613 65.1385 19.5245C64.8855 19.5878 64.6325 19.5245 64.4428 19.4613C64.253 19.3348 64.0632 19.2083 64 19.0185C64 18.639 64.0632 18.2594 64.1897 18.0697C64.3795 17.7534 64.6325 17.6902 65.012 17.7534ZM64.3795 23.9523C64.6325 23.889 64.8855 23.8891 65.1385 23.8891C65.4548 23.8891 65.6446 24.0156 65.8343 24.1421C65.8976 24.2053 65.8976 24.2686 65.8976 24.3951C65.8976 24.5216 65.8976 24.5216 65.9608 24.5848C65.8343 25.0276 65.7711 25.6602 65.7711 26.356C65.8343 27.0518 65.8976 27.7475 65.9608 28.4433C66.0241 28.5698 66.1506 28.6964 66.2771 28.7596C66.4036 28.8229 66.5301 28.8861 66.5934 28.9494C66.7199 29.2657 66.7199 29.5187 66.6566 29.7084C66.5934 29.8982 66.4669 30.0247 66.2771 30.1512C66.1506 30.1512 66.0241 30.2145 65.8976 30.2145C65.8343 30.2145 65.7078 30.2145 65.5813 30.2145C65.0753 30.0247 64.759 29.6452 64.506 29.2024C64.253 28.6964 64.1265 28.1271 64.0632 27.5578C64 26.9252 64 26.2927 64.0632 25.7234C64.1265 25.0909 64.1265 24.5849 64.1897 24.1421C64.1897 24.0156 64.253 23.9523 64.3795 23.9523Z" fill="white"/>
</svg>
