<svg width="68" height="68" viewBox="0 0 68 68" fill="none" xmlns="http://www.w3.org/2000/svg">
<path d="M34 6.11198C43.0845 6.11198 44.1532 6.14538 47.7269 6.31238C51.0334 6.47937 52.8369 7.01375 54.0393 7.48134C55.6424 8.08251 56.7446 8.85069 57.947 10.0196C59.1493 11.222 59.8841 12.3576 60.4853 13.9273C60.9528 15.1297 61.5206 16.9332 61.6542 20.2397C61.8212 23.8134 61.8546 24.9155 61.8546 33.9666C61.8546 43.0177 61.8212 44.1198 61.6542 47.6935C61.4872 51 60.9528 52.8035 60.4853 54.0059C59.8841 55.609 59.1159 56.7112 57.947 57.9136C56.7446 59.1159 55.609 59.8507 54.0393 60.4519C52.8369 60.9194 51.0334 61.4872 47.7269 61.6208C44.1532 61.7878 43.0511 61.8212 34 61.8212C24.9489 61.8212 23.8468 61.7878 20.2731 61.6208C16.9666 61.4538 15.1631 60.9194 13.9607 60.4519C12.3576 59.8507 11.2554 59.0825 10.053 57.9136C8.85069 56.7112 8.11591 55.5756 7.51473 54.0059C7.04715 52.8035 6.47937 51 6.34578 47.6935C6.17878 44.1198 6.14538 43.0177 6.14538 33.9666C6.14538 24.9155 6.17878 23.8134 6.34578 20.2397C6.51277 16.9332 7.04715 15.1297 7.51473 13.9273C8.11591 12.3242 8.88409 11.222 10.053 10.0196C11.2554 8.81729 12.391 8.08251 13.9607 7.48134C15.1631 7.01375 16.9666 6.44597 20.2731 6.31238C23.8468 6.14538 24.9155 6.11198 34 6.11198ZM34 0C24.7819 0 23.613 0.0333988 19.9725 0.200393C16.3654 0.367387 13.8939 0.935167 11.723 1.77014C9.48526 2.63851 7.58153 3.80747 5.7112 5.6778C3.80747 7.58153 2.67191 9.45187 1.80354 11.6896C0.935167 13.8939 0.367387 16.3654 0.200393 19.9725C0.0333988 23.613 0 24.7819 0 34C0 43.2181 0.0333988 44.387 0.200393 48.0275C0.367387 51.6346 0.935167 54.1061 1.77014 56.277C2.63851 58.5147 3.80747 60.4185 5.6778 62.2888C7.58153 64.1925 9.45187 65.3281 11.6896 66.1965C13.8605 67.0314 16.332 67.5992 19.9391 67.7662C23.5796 67.9332 24.7151 67.9666 33.9666 67.9666C43.2181 67.9666 44.3536 67.9332 47.9941 67.7662C51.6012 67.5992 54.0727 67.0314 56.2436 66.1965C58.4813 65.3281 60.3851 64.1591 62.2554 62.2888C64.1591 60.3851 65.2947 58.5147 66.1631 56.277C66.998 54.1061 67.5658 51.6346 67.7328 48.0275C67.8998 44.387 67.9332 43.2515 67.9332 34C67.9332 24.7485 67.8998 23.613 67.7328 19.9725C67.5658 16.3654 66.998 13.8939 66.1631 11.723C65.2947 9.48526 64.1257 7.58153 62.2554 5.7112C60.3517 3.80747 58.4813 2.67191 56.2436 1.80354C54.0727 0.968566 51.6012 0.400786 47.9941 0.233792C44.387 0.0333988 43.2181 0 34 0Z" fill="white"/>
<path d="M34.0008 16.5325C24.3485 16.5325 16.5332 24.3478 16.5332 34.0001C16.5332 43.6523 24.3485 51.4676 34.0008 51.4676C43.653 51.4676 51.4684 43.6523 51.4684 34.0001C51.4684 24.3478 43.653 16.5325 34.0008 16.5325ZM34.0008 45.3223C27.7552 45.3223 22.6786 40.2456 22.6786 34.0001C22.6786 27.7545 27.7552 22.6779 34.0008 22.6779C40.2464 22.6779 45.323 27.7545 45.323 34.0001C45.323 40.2456 40.2464 45.3223 34.0008 45.3223Z" fill="white"/>
<path d="M52.1352 19.9391C54.3856 19.9391 56.2099 18.1148 56.2099 15.8645C56.2099 13.6141 54.3856 11.7898 52.1352 11.7898C49.8848 11.7898 48.0605 13.6141 48.0605 15.8645C48.0605 18.1148 49.8848 19.9391 52.1352 19.9391Z" fill="white"/>
</svg>
