<svg width="68" height="68" viewBox="0 0 68 68" fill="none" xmlns="http://www.w3.org/2000/svg">
<path d="M63.0859 0H4.91406C2.20469 0 0 2.20469 0 4.91406V63.0859C0 65.7953 2.20469 68 4.91406 68H63.0859C65.7953 68 68 65.7953 68 63.0859V4.91406C68 2.20469 65.7953 0 63.0859 0ZM24.1188 51.3984H15.8312V26.4828H24.1188V51.3984ZM19.975 23.0828H19.9219C17.1328 23.0828 15.3531 21.1703 15.3531 18.7797C15.3531 16.3359 17.2125 14.4766 20.0281 14.4766C22.8438 14.4766 24.5969 16.3359 24.65 18.7797C24.65 21.1703 22.8703 23.0828 19.975 23.0828ZM53.975 51.3984H45.6875V38.0641C45.6875 34.7172 44.4922 32.4328 41.4906 32.4328C39.2062 32.4328 37.8516 33.9734 37.2406 35.4609C37.0281 35.9922 36.975 36.7359 36.975 37.4797V51.3984H28.6875C28.6875 51.3984 28.7938 28.8203 28.6875 26.4828H36.975V30.0156C38.0641 28.3156 40.0563 25.8984 44.4391 25.8984C49.8844 25.8984 53.975 29.4578 53.975 37.1078V51.3984Z" fill="white"/>
</svg>
