<svg width="70" height="70" viewBox="0 0 70 70" fill="none" xmlns="http://www.w3.org/2000/svg">
<path fill-rule="evenodd" clip-rule="evenodd" d="M33.2695 4.21484H51.9213V7.15484H33.4153C29.4894 7.56743 21.2305 10.9213 19.5598 21.2123C19.3605 23.2322 19.8386 28.5026 23.4622 32.7857L24.5608 34.0842L23.1168 34.9831C21.7884 35.81 20.1345 37.553 19.5841 40.0127C19.0496 42.4017 19.4958 45.7453 22.8551 49.9534L22.8877 49.9943L32.2181 63.56H47.5151L32.362 38.3994H41.5837V41.3394H37.5647L52.7178 66.5H30.6719L20.5243 51.7461C16.7697 47.0241 15.9463 42.8066 16.7151 39.3707C17.2992 36.7603 18.7678 34.7624 20.2632 33.4558C16.8471 28.658 16.3905 23.2402 16.6397 20.8669L16.6439 20.8272L16.6502 20.7877C18.5947 8.66204 28.4452 4.68578 33.1982 4.2218L33.2695 4.21484Z" fill="#FFD809"/>
<path fill-rule="evenodd" clip-rule="evenodd" d="M53.4977 4.23486V11.9933L53.4914 12.0608C53.0457 16.8785 51.4207 20.2604 48.2666 22.3401C47.3233 22.9621 46.2683 23.4493 45.1086 23.8255C47.7868 25.1096 49.6433 26.9767 50.9059 29.1056C53.1406 32.8739 53.3617 37.2415 53.4871 39.7191C53.49 39.7773 53.4929 39.8345 53.4958 39.8906C53.9887 49.5394 48.2279 54.9659 45.0563 56.5243L43.7598 53.8856C46.0498 52.7604 50.9833 48.3342 50.5596 40.0406L50.5591 40.0304C50.4296 37.4956 50.2379 33.7429 48.3771 30.6053C46.6068 27.6202 43.1643 24.9491 35.9062 24.9491V22.0091C40.9314 22.0091 44.3739 21.3852 46.6482 19.8856C48.7959 18.4696 50.154 16.0922 50.5577 11.8565V4.23486H53.4977Z" fill="#FFD809"/>
</svg>
