<svg width="65" height="65" viewBox="0 0 65 65" fill="none" xmlns="http://www.w3.org/2000/svg">
<g clip-path="url(#clip0_3702_33717)">
<circle cx="32.5" cy="32.5" r="32.5" fill="white"/>
<path d="M53.3438 33.1846C48.0598 33.1842 42.9698 35.2078 39.0892 38.8518C35.2086 42.4959 32.8226 47.4925 32.4072 52.845H32.278C31.8627 47.4928 29.4772 42.4965 25.597 38.8524C21.7169 35.2084 16.6274 33.1846 11.3438 33.1846C16.9132 33.184 22.2544 30.9354 26.1923 26.9335C30.1303 22.9316 32.3425 17.5041 32.3424 11.845C32.3424 17.5046 34.555 22.9324 38.4935 26.9344C42.4321 30.9363 47.7739 33.1846 53.3438 33.1846Z" fill="#121222"/>
<path d="M46.6013 47.7879C42.8653 44.0513 37.8352 41.883 32.5145 41.7158C27.1937 41.5485 21.9734 43.3945 17.8949 46.8855L17.8035 46.7941C21.2944 42.716 23.1406 37.4961 22.9736 32.1757C22.8066 26.8554 20.6389 21.8255 16.9028 18.0894C20.8414 22.0272 26.2082 24.214 31.8225 24.1688C37.4368 24.1235 42.8389 21.85 46.8405 17.8483C42.8385 21.8502 40.565 27.2529 40.5202 32.8676C40.4753 38.4824 42.6628 43.8494 46.6013 47.7879Z" fill="#121222"/>
</g>
<defs>
<clipPath id="clip0_3702_33717">
<rect width="65" height="65" fill="white"/>
</clipPath>
</defs>
</svg>
