<svg width="78" height="78" viewBox="0 0 78 78" fill="none" xmlns="http://www.w3.org/2000/svg">
<circle cx="39" cy="39" r="33" fill="#7140F2"/>
<circle cx="39" cy="39" r="39" fill="#7140F2" fill-opacity="0.59"/>
<path d="M30.1739 46.3539C30.1739 47.9365 29.767 49.1461 28.953 49.9826C28.1391 50.8191 27.0313 51.2374 25.6296 51.2374H24.9174C23.4252 51.2374 22.2835 50.8191 21.4922 49.9826C20.7235 49.1235 20.3391 47.9139 20.3391 46.3539V30.5165C20.3391 28.9565 20.7009 27.7357 21.4243 26.8539C22.1478 25.9722 23.3122 25.5313 24.9174 25.5313H25.5957C27.2009 25.5313 28.3652 25.9835 29.0887 26.8878C29.8122 27.7922 30.1739 29.0017 30.1739 30.5165V46.3539ZM25.7652 30.0417C25.7652 29.5443 25.5957 29.2957 25.2565 29.2957C24.94 29.2957 24.7817 29.5443 24.7817 30.0417V46.727C24.7817 47.1791 24.94 47.4052 25.2565 47.4052C25.5957 47.4052 25.7652 47.1791 25.7652 46.727V30.0417ZM35.1106 40.5548V51H30.8376V25.7687H37.0776C37.9819 25.7687 38.7167 26.0287 39.2819 26.5487C39.8698 27.0461 40.1637 27.8826 40.1637 29.0583V37.1974C40.1637 38.3278 39.8698 39.1757 39.2819 39.7409C38.6941 40.2835 37.9819 40.5548 37.1454 40.5548H35.1106ZM35.1106 37.1296H35.4159C35.755 37.1296 35.9246 36.9148 35.9246 36.4852V29.6687C35.9246 29.4652 35.8906 29.307 35.8228 29.1939C35.7776 29.0809 35.6419 29.0243 35.4159 29.0243H35.1106V37.1296ZM48.0305 25.7687V29.6348H44.9783V35.773H47.5557V39.7748H44.9783V47.0661H48.1322V51H40.7731V25.7687H48.0305ZM53.0954 25.7687L54.7572 39.4357L54.7232 25.7687H58.2841V51H54.3163L52.3154 35.8748L52.3493 51H48.7546V25.7687H53.0954Z" fill="white"/>
</svg>
