<svg width="728" height="613" viewBox="0 0 728 613" fill="none" xmlns="http://www.w3.org/2000/svg">
<path d="M81.6293 163.199C175.614 221.187 342.177 273.001 256.549 16.3528C296.947 125.653 420.414 275.004 596 0C528.614 107.817 431.133 306.037 726.496 203.771C726.999 203.595 727.5 203.421 728 203.248C727.498 203.423 726.996 203.597 726.496 203.771C617.836 241.778 445.409 363.309 613.886 550.341C525.893 489.591 312.257 416.968 146.29 598.14C142.109 603.072 137.891 607.873 133.689 612.5C137.856 607.545 142.058 602.76 146.29 598.14C224.17 506.275 289.326 368.809 0 459.396C112.726 421.711 286.869 309.712 81.6293 163.199Z" fill="#121222"/>
</svg>
