<svg width="141" height="67" viewBox="0 0 141 67" fill="none" xmlns="http://www.w3.org/2000/svg">
<path d="M75.3684 31.0522C75.1335 31.1267 74.93 31.1352 74.7581 31.0778C74.6263 31.0148 74.4945 30.9517 74.3628 30.8886C74.2654 30.7797 74.1508 30.6937 74.019 30.6306C73.8815 30.5274 73.7125 30.4901 73.5119 30.5187C72.2165 31.4811 71.0127 32.5122 69.9006 33.6121C68.8286 34.7064 67.9887 35.9926 67.3808 37.4709C67.3521 37.5569 67.3578 37.597 67.3979 37.5913C67.4381 37.5856 67.461 37.6028 67.4667 37.6429C68.5555 37.8151 69.6299 37.8871 70.6901 37.8588C71.7847 37.7846 72.8333 37.9626 73.8361 38.3927C73.9965 38.3698 74.1255 38.2696 74.223 38.092C74.3147 37.8742 74.4351 37.8571 74.584 38.0405C74.6471 37.9087 74.7073 37.7569 74.7647 37.585C74.822 37.4131 74.9596 37.373 75.1773 37.4648C75.206 37.3788 75.2347 37.2929 75.2634 37.2069C75.292 37.121 75.3007 37.0379 75.2892 36.9576C75.4955 36.9692 75.6359 36.9492 75.7105 36.8976C75.785 36.846 75.8366 36.7773 75.8652 36.6913C75.9283 36.5596 75.9771 36.4707 76.0115 36.4249C76.0803 36.3332 76.1748 36.2788 76.2952 36.2617C76.3525 36.0898 76.4443 35.872 76.5704 35.6085C76.6965 35.6314 76.7223 35.6687 76.6478 35.7202C76.6134 35.7661 76.642 35.8234 76.7337 35.8922C77.0089 35.5255 77.3098 35.1961 77.6366 34.9039C78.0034 34.6061 78.2987 34.2365 78.5223 33.7953C78.7229 33.7667 78.8977 33.7009 79.0467 33.5978C79.1957 33.4947 79.3419 33.3715 79.4852 33.2283C79.6285 33.0851 79.7747 32.9619 79.9237 32.8588C80.1129 32.75 80.3307 32.6985 80.5771 32.7043C80.6629 33.0195 80.6084 33.3547 80.4134 33.71C80.2529 34.0194 80.0752 34.2084 79.8803 34.2771C79.8115 34.3688 79.8 34.4318 79.8459 34.4662C79.9318 34.4949 79.9633 34.5723 79.9403 34.6984C79.2811 35.5291 78.5759 36.3254 77.825 37.0874C77.1142 37.8436 76.4492 38.6342 75.83 39.4592C76.2825 40.0496 76.5631 40.7259 76.6718 41.4881C76.6887 42.1815 76.5682 42.7718 76.3102 43.2588C76.0866 43.7 75.8457 44.1641 75.5877 44.6511C75.2552 44.9032 74.9571 45.2526 74.6934 45.6995C74.1718 46.0604 73.6702 46.4184 73.1888 46.7736C72.7016 47.0886 72.0425 47.203 71.2116 47.1168C71.1199 47.048 71.0311 46.9992 70.9452 46.9706C70.8592 46.9419 70.7847 46.8502 70.7217 46.6954C70.3034 46.6323 70.0141 46.4688 69.8537 46.2052C69.7334 45.9358 69.5874 45.6292 69.4156 45.2853C69.4158 44.7122 69.4904 44.2309 69.6395 43.8412C69.8231 43.4058 70.0324 43.0075 70.2674 42.6466C70.5369 42.2398 70.792 41.876 71.0328 41.5551C71.3137 41.2286 71.5316 40.8905 71.6864 40.541C71.7839 40.3634 71.9071 40.223 72.0562 40.1199C72.2052 40.0168 72.3112 39.8994 72.3743 39.7676C71.9102 39.67 71.4116 39.6183 70.8787 39.6124C70.3801 39.5607 69.8902 39.5691 69.4088 39.6377C68.7899 39.6032 68.1423 39.5113 67.4662 39.3621C66.8244 39.167 66.2486 38.8603 65.7387 38.4418C65.6528 38.1265 65.4781 37.9059 65.2145 37.7797C65.037 37.3957 64.9884 37.0547 65.0687 36.7567C65.1032 36.4244 65.2036 36.1236 65.3698 35.8543C65.496 35.5907 65.6651 35.3415 65.8772 35.1066C66.0435 34.8373 66.1697 34.5737 66.2557 34.3159C66.7946 33.7888 67.3965 33.13 68.0615 32.3394C68.7265 31.5487 69.423 30.8355 70.151 30.1996C70.5178 29.9017 70.8875 29.6239 71.2601 29.3662C71.6269 29.0683 72.0711 28.8822 72.5926 28.8078C72.9537 28.7564 73.4093 28.7938 73.9594 28.92C74.1026 29.0633 74.263 29.1837 74.4406 29.2812C74.6182 29.3787 74.7987 29.4962 74.9821 29.6338C75.1597 29.7313 75.3029 29.8746 75.4117 30.0637C75.5148 30.2128 75.5491 30.4534 75.5146 30.7858C75.4344 30.7973 75.4 30.8431 75.4115 30.9233C75.4172 30.9634 75.4028 31.0064 75.3684 31.0522ZM74.0157 41.3756C73.6086 41.9657 73.1586 42.5415 72.6655 43.1029C72.2069 43.6185 71.8686 44.2603 71.6506 45.0281C72.3671 44.5985 72.926 44.0686 73.3273 43.4384C73.7688 42.8024 74.0985 42.1005 74.3165 41.3327L74.0157 41.3756ZM91.1728 31.3782C91.3448 31.149 91.5282 31.0001 91.7231 30.9314C91.9179 30.8627 92.0784 30.8398 92.2045 30.8627C92.2904 30.8914 92.3391 30.9459 92.3506 31.0261C92.4021 31.1006 92.4336 31.178 92.445 31.2582C92.4565 31.3385 92.4851 31.3958 92.5309 31.4302C92.6169 31.4589 92.7143 31.4245 92.8232 31.3271C92.7887 31.6595 92.6884 31.9603 92.5221 32.2296C92.3902 32.4531 92.3271 32.7281 92.3327 33.0547C92.2639 33.1464 92.1894 33.198 92.1092 33.2094C92.0691 33.2151 92.0318 33.2409 91.9974 33.2867L92.0489 33.6478C90.8278 35.1316 89.6755 36.6671 88.5919 38.2541C87.5083 39.8412 86.1726 41.239 84.5848 42.4477C84.0805 42.6424 83.6077 42.7712 83.1664 42.8341C82.7652 42.8913 82.2781 42.9198 81.7051 42.9196C81.3555 42.7648 81.006 42.6099 80.6565 42.4551C80.307 42.3002 79.9718 42.1024 79.651 41.8616C79.2327 41.5119 78.952 41.1222 78.8089 40.6923C78.6257 40.2682 78.5226 39.8326 78.4999 39.3857C78.4312 38.9043 78.4228 38.4143 78.4745 37.9157C78.4804 37.3828 78.5035 36.8269 78.5438 36.2481C78.7619 35.1938 79.0488 34.191 79.4044 33.2398C79.7198 32.2944 80.127 31.4177 80.6258 30.6098C80.8322 30.3348 81.1446 30.0857 81.563 29.8623C82.0215 29.6332 82.4714 29.4872 82.9127 29.4243C83.5947 29.3271 84.119 29.4161 84.4857 29.6913C84.6002 29.9205 84.752 30.124 84.9411 30.3017C85.1244 30.4393 85.2762 30.6428 85.3965 30.9122C85.3162 30.9236 85.2818 30.9695 85.2933 31.0497C85.1384 31.3992 84.8404 31.6054 84.3991 31.6683C83.8375 31.7484 83.3905 31.6279 83.0582 31.3069C82.1811 32.3324 81.5676 33.6273 81.2175 35.1917C80.8617 36.7159 80.7724 38.3864 80.9495 40.203C81.064 40.4323 81.1728 40.6214 81.2759 40.7705C81.4134 40.8737 81.5538 40.9969 81.697 41.1402C82.0752 41.2091 82.505 41.2092 82.9864 41.1406C83.8462 40.5678 84.5942 39.9291 85.2305 39.2244C85.8611 38.4796 86.4488 37.7205 86.9934 36.9471C87.5782 36.1679 88.1429 35.3915 88.6876 34.6181C89.2723 33.8389 89.9029 33.0941 90.5794 32.3837C90.5679 32.3035 90.545 32.2863 90.5106 32.3321C90.5163 32.3722 90.4791 32.398 90.3988 32.4094C90.4448 32.1573 90.5623 31.9768 90.7514 31.868C90.9406 31.7592 91.081 31.5959 91.1728 31.3782ZM91.1728 31.3782C91.0754 31.2693 91.0152 31.2778 90.9923 31.4039C91.0094 31.5243 91.0696 31.5157 91.1728 31.3782ZM99.728 29.2378C99.5389 29.3466 99.3211 29.3981 99.0747 29.3923C98.8627 29.3406 98.6363 29.332 98.3956 29.3663C98.3555 29.372 98.3183 29.3978 98.2839 29.4436C98.2839 29.4436 98.2638 29.4465 98.2237 29.4522L97.8282 29.6928C97.7881 29.6985 97.7508 29.7243 97.7164 29.7701C97.7164 29.7701 97.6964 29.7729 97.6563 29.7787C96.418 31.1422 95.4978 32.7264 94.8955 34.5314C94.2932 36.3363 93.8513 38.2617 93.5699 40.3074C93.4209 40.4105 93.3148 40.528 93.2517 40.6598C93.2231 40.7457 93.1313 40.8202 92.9766 40.8832C92.6442 40.8487 92.3663 40.7655 92.1429 40.6336C91.9194 40.5018 91.6788 40.3928 91.4209 40.3068C91.1004 38.9198 90.9461 37.5502 90.958 36.1978C90.9298 34.851 90.9216 33.5015 90.9335 32.1491C90.8075 31.8396 90.6959 31.4871 90.5986 31.0916C90.4956 30.6561 90.467 30.3122 90.5129 30.0601C90.7021 29.9513 90.854 29.8682 90.9686 29.811C91.0374 29.7193 91.1692 29.6391 91.3641 29.5704C91.8913 29.5362 92.258 29.6681 92.4642 29.9662C92.6704 30.2642 92.7849 30.6367 92.8077 31.0837C92.8706 31.525 92.8762 31.9949 92.8245 32.4935C92.8129 32.9863 92.8357 33.4333 92.8928 33.8345C93.2139 33.2157 93.515 32.5997 93.796 31.9866C94.0713 31.3334 94.3924 30.7146 94.7593 30.1302C95.1664 29.5401 95.6479 29.0417 96.2039 28.635C96.7599 28.2282 97.4591 27.9649 98.3016 27.8448C98.6167 28.0454 98.9834 28.1774 99.4017 28.2405C99.5392 28.3437 99.6452 28.5128 99.7196 28.7478C99.794 28.9828 99.7968 29.1461 99.728 29.2378ZM99.3584 29.2291C99.5132 29.1661 99.6364 29.169 99.728 29.2378C99.814 29.2664 99.9372 29.2694 100.098 29.2465C100.384 28.96 100.688 28.7939 101.009 28.7482C101.33 28.7025 101.662 28.7369 102.006 28.8517C102.35 28.9664 102.677 29.104 102.986 29.2646C103.095 29.4537 103.198 29.6027 103.295 29.7117C103.433 29.8148 103.521 30.0069 103.562 30.2877C104.014 30.5915 104.435 30.9613 104.825 31.3969C105.254 31.8269 105.569 32.3141 105.77 32.8585C105.901 33.4947 105.873 34.1537 105.683 34.8356C105.494 35.5175 105.193 36.1334 104.78 36.6834C104.407 37.2277 103.92 37.686 103.318 38.0583C102.757 38.4249 102.129 38.6167 101.436 38.6337C100.903 38.6278 100.456 38.5073 100.095 38.2722C99.774 38.0314 99.4131 37.7964 99.012 37.567C98.823 37.1028 98.6311 36.7617 98.4364 36.5439C98.1961 35.1456 98.1965 33.9994 98.4374 33.1055C98.6784 32.2116 99.0225 31.3235 99.4698 30.4411C99.3668 30.0056 99.3297 29.6015 99.3584 29.2291ZM102.253 36.1841C102.631 35.6799 103.01 35.1757 103.388 34.6715C103.761 34.1273 103.847 33.4396 103.647 32.6086C103.36 32.322 103.091 32.0124 102.839 31.68C102.581 31.3074 102.166 31.121 101.593 31.1209C101.22 31.9517 100.862 32.8828 100.517 33.9142C100.208 34.8998 100.259 35.8339 100.671 36.7165C100.998 36.7109 101.256 36.6537 101.445 36.5449C101.669 36.3902 101.938 36.2699 102.253 36.1841ZM109.01 32.5195C109.21 33.3506 109.393 34.2045 109.559 35.0813C109.719 35.918 109.914 36.7089 110.143 37.454C110.406 38.1532 110.721 38.7837 111.088 39.3454C111.489 39.8613 112.013 40.2368 112.66 40.4719C113.526 40.2258 114.142 39.8105 114.509 39.2261C114.916 38.636 115.369 38.0802 115.868 37.5589C116.378 36.5447 116.911 35.5478 117.467 34.568C118.024 33.5883 118.537 32.5941 119.007 31.5857C119.041 31.5399 119.116 31.4883 119.231 31.431C119.38 31.3279 119.368 31.2477 119.196 31.1903C119.219 31.0643 119.256 31.0385 119.308 31.113C119.36 31.1875 119.423 31.199 119.497 31.1475C119.566 31.0558 119.572 30.9526 119.514 30.838C119.497 30.7177 119.483 30.6174 119.472 30.5371C119.815 30.3653 119.985 30.1161 119.979 29.7895C120.008 29.417 120.214 29.142 120.598 28.9644C120.581 28.8441 120.587 28.7409 120.615 28.655C120.644 28.569 120.613 28.4917 120.521 28.4229C120.733 28.4745 120.853 28.4574 120.882 28.3714C120.911 28.2855 120.979 28.1938 121.088 28.0964C121.025 27.6551 121.103 27.3371 121.321 27.1423C121.579 26.9418 121.722 26.6553 121.751 26.2829C121.842 26.3517 121.885 26.5093 121.88 26.7557C121.868 26.962 121.828 27.111 121.759 27.2026C121.845 27.2313 121.914 27.1396 121.965 26.9276C122.017 26.7156 122.074 26.5437 122.138 26.4119C122.264 26.4349 122.292 26.4922 122.223 26.5839C122.189 26.6297 122.178 26.6927 122.189 26.773C122.281 26.8418 122.367 26.8704 122.447 26.859C122.521 26.8075 122.584 26.8189 122.636 26.8934C122.716 26.882 122.728 26.819 122.67 26.7043C122.653 26.584 122.682 26.498 122.756 26.4465C122.837 26.4351 122.868 26.5124 122.851 26.6786C122.834 26.8448 122.862 26.9021 122.937 26.8506C122.61 27.7158 122.329 28.6154 122.094 29.5494C121.893 30.4376 121.491 31.2111 120.889 31.87C120.958 32.0648 120.955 32.188 120.881 32.2396C120.806 32.2911 120.78 32.3971 120.803 32.5576C120.339 33.3196 119.9 34.1189 119.487 34.9555C119.074 35.792 118.642 36.6314 118.189 37.4737C117.736 38.3159 117.237 39.1238 116.692 39.8973C116.142 40.6306 115.48 41.298 114.706 41.8995C114.505 41.9281 114.27 42.0025 114.001 42.1228C113.726 42.2029 113.494 42.2974 113.305 42.4062C112.445 42.406 111.683 42.2281 111.018 41.8726C110.394 41.5113 109.855 41.0355 109.403 40.4451C108.984 39.8089 108.638 39.1011 108.363 38.3216C108.048 37.5479 107.811 36.7426 107.65 35.9059C107.501 35.7225 107.407 35.3471 107.367 34.7798C107.321 34.1723 107.256 33.711 107.17 33.3958C106.941 33.2238 106.717 33.0919 106.499 33.0001C106.236 32.874 106.041 32.6562 105.915 32.3467C105.915 32.0601 106.036 31.8997 106.276 31.8654C106.517 31.8311 106.729 31.7395 106.913 31.5905C106.689 31.1721 106.629 30.7509 106.732 30.3269C106.836 29.9028 106.776 29.4816 106.552 29.0632C106.598 28.5245 106.639 28.089 106.673 27.7567C106.702 27.3842 106.642 26.963 106.493 26.493C106.551 25.4615 106.594 24.473 106.623 23.5274C106.652 22.5819 106.715 21.5905 106.813 20.5533C106.893 20.5419 106.919 20.5791 106.89 20.6651C106.902 20.7453 106.947 20.7797 107.028 20.7683C107.091 20.6365 107.076 20.5362 106.985 20.4674C106.887 20.3585 106.827 20.2238 106.804 20.0633C107.189 17.8801 107.556 15.863 107.907 14.0121C108.297 12.1555 108.893 10.3104 109.696 8.47688C109.782 8.50556 109.811 8.56288 109.782 8.64883C109.788 8.68894 109.831 8.70329 109.911 8.69185C109.837 8.45687 109.871 8.26777 110.014 8.12455C110.152 7.94121 110.244 7.72348 110.29 7.47134C110.41 7.45419 110.467 7.42555 110.462 7.38543C110.49 7.29948 110.55 7.29091 110.642 7.3597C110.797 7.01018 111.006 6.75524 111.27 6.59486C111.568 6.38865 111.897 6.25981 112.259 6.20835C113.101 6.08827 113.857 6.22604 114.528 6.62166C114.671 6.76497 114.794 6.91114 114.897 7.06017C115.04 7.20348 115.201 7.32387 115.378 7.42135C115.401 7.58182 115.504 7.73085 115.688 7.86844C116.215 9.26688 116.472 10.6423 116.46 11.9947C116.443 13.307 116.382 14.605 116.278 15.8886C115.98 17.5275 115.656 19.1291 115.306 20.6935C114.956 22.2578 114.494 23.7563 113.92 25.1887C113.387 26.6155 112.719 27.9591 111.916 29.2196C111.148 30.4343 110.179 31.5342 109.01 32.5195ZM110.186 8.03864C110.209 7.91257 110.232 7.92977 110.255 8.09024C110.272 8.21059 110.249 8.19339 110.186 8.03864ZM113.32 20.1169C113.722 18.3406 114.043 16.5756 114.284 14.8221C114.566 13.0629 114.526 11.2062 114.166 9.25191C114.04 8.94242 113.963 8.68738 113.934 8.4868C113.797 8.3836 113.679 8.27755 113.582 8.16864C113.479 8.01961 113.341 7.91642 113.169 7.85905C112.871 8.06527 112.564 8.35457 112.249 8.72696C111.934 9.09935 111.699 9.46031 111.544 9.80983C111.315 10.2109 111.114 10.6693 110.942 11.185C110.81 11.695 110.658 12.2078 110.486 12.7235C110.004 14.2248 109.642 15.8522 109.401 17.6057C109.16 19.3592 108.924 21.0095 108.695 22.5567C108.712 23.2502 108.706 23.9264 108.677 24.5854C108.682 25.1986 108.651 25.8375 108.582 26.5022C108.622 27.0696 108.639 27.6197 108.633 28.1527C108.627 28.6856 108.684 29.2301 108.804 29.786C109.945 28.6001 110.842 27.1419 111.496 25.4115C112.15 23.681 112.758 21.9162 113.32 20.1169ZM107.088 19.4703C107.111 19.3442 107.134 19.3614 107.157 19.5219C107.174 19.6422 107.151 19.625 107.088 19.4703ZM122.37 26.3174L122.49 26.3003L122.507 26.4206L122.387 26.4378L122.37 26.3174ZM122.24 27.134C122.401 27.1111 122.47 27.0195 122.447 26.859C122.361 26.8303 122.324 26.8561 122.335 26.9363C122.347 27.0166 122.315 27.0825 122.24 27.134ZM122.18 27.5724C122.215 27.5265 122.22 27.4234 122.197 27.2629C122.215 27.0968 122.18 26.9993 122.094 26.9706C122.066 27.0566 122.043 27.1827 122.026 27.3488C122.043 27.4692 122.094 27.5437 122.18 27.5724ZM121.553 27.9074C121.541 27.8272 121.57 27.7412 121.639 27.6496C121.702 27.5178 121.656 27.4834 121.501 27.5464C121.553 27.6209 121.544 27.704 121.475 27.7957C121.441 27.8415 121.467 27.8787 121.553 27.9074ZM120.77 28.0189C120.851 28.0075 120.876 28.0448 120.848 28.1307C120.859 28.2109 120.819 28.2167 120.727 28.1479C120.756 28.0619 120.77 28.0189 120.77 28.0189ZM121.733 28.3115C121.853 28.2943 121.942 28.1998 122 28.0279C121.799 28.0565 121.71 28.151 121.733 28.3115ZM119.205 31.6803C119.124 31.6918 119.087 31.7175 119.093 31.7576C119.173 31.7462 119.21 31.7204 119.205 31.6803ZM123.524 30.4506C123.725 31.2816 123.908 32.1356 124.074 33.0124C124.234 33.8491 124.428 34.64 124.657 35.3851C124.921 36.0843 125.236 36.7148 125.602 37.2765C126.003 37.7923 126.528 38.1679 127.175 38.403C128.041 38.1569 128.657 37.7416 129.024 37.1572C129.431 36.5671 129.884 36.0113 130.382 35.49C130.893 34.4758 131.426 33.4789 131.982 32.4991C132.538 31.5193 133.052 30.5252 133.522 29.5168C133.556 29.471 133.631 29.4194 133.745 29.3621C133.894 29.259 133.883 29.1788 133.711 29.1214C133.734 28.9954 133.771 28.9696 133.823 29.0441C133.874 29.1186 133.937 29.1301 134.012 29.0786C134.081 28.9869 134.086 28.8837 134.029 28.7691C134.012 28.6488 133.998 28.5485 133.986 28.4682C134.33 28.2964 134.499 28.0472 134.494 27.7205C134.522 27.3481 134.729 27.0731 135.113 26.8955C135.096 26.7752 135.101 26.672 135.13 26.5861C135.159 26.5001 135.127 26.4227 135.036 26.354C135.248 26.4056 135.368 26.3884 135.397 26.3025C135.425 26.2165 135.494 26.1249 135.603 26.0275C135.54 25.5862 135.618 25.2682 135.835 25.0734C136.093 24.8729 136.237 24.5864 136.265 24.2139C136.357 24.2827 136.4 24.4403 136.394 24.6868C136.383 24.8931 136.343 25.042 136.274 25.1337C136.36 25.1624 136.429 25.0707 136.48 24.8587C136.532 24.6467 136.589 24.4748 136.652 24.343C136.778 24.366 136.807 24.4233 136.738 24.515C136.704 24.5608 136.692 24.6238 136.704 24.7041C136.795 24.7728 136.881 24.8015 136.962 24.7901C137.036 24.7385 137.099 24.75 137.151 24.8245C137.231 24.8131 137.242 24.7501 137.185 24.6354C137.168 24.5151 137.197 24.4291 137.271 24.3776C137.351 24.3661 137.383 24.4435 137.366 24.6097C137.348 24.7759 137.377 24.8332 137.452 24.7816C137.125 25.6469 136.844 26.5465 136.608 27.4805C136.407 28.3687 136.006 29.1422 135.404 29.801C135.473 29.9959 135.47 30.1191 135.395 30.1707C135.321 30.2222 135.295 30.3282 135.318 30.4887C134.854 31.2507 134.415 32.05 134.002 32.8866C133.589 33.7231 133.156 34.5625 132.703 35.4048C132.25 36.247 131.751 37.0549 131.207 37.8284C130.656 38.5617 129.994 39.2291 129.221 39.8306C129.02 39.8592 128.785 39.9336 128.516 40.0539C128.241 40.134 128.008 40.2285 127.819 40.3373C126.96 40.337 126.198 40.1592 125.533 39.8037C124.908 39.4424 124.37 38.9666 123.917 38.3762C123.499 37.74 123.153 37.0322 122.878 36.2527C122.563 35.479 122.325 34.6737 122.165 33.837C122.016 33.6536 121.922 33.2782 121.882 32.7109C121.836 32.1034 121.77 31.6421 121.685 31.3268C121.455 31.1549 121.232 31.023 121.014 30.9312C120.751 30.8051 120.556 30.5872 120.43 30.2777C120.43 29.9912 120.55 29.8308 120.791 29.7965C121.032 29.7622 121.244 29.6706 121.427 29.5216C121.204 29.1032 121.144 28.682 121.247 28.258C121.35 27.8339 121.29 27.4127 121.067 26.9943C121.113 26.4556 121.153 26.0201 121.188 25.6877C121.217 25.3153 121.156 24.894 121.008 24.4241C121.065 23.3926 121.109 22.4041 121.137 21.4585C121.166 20.513 121.23 19.5216 121.328 18.4844C121.408 18.4729 121.434 18.5102 121.405 18.5962C121.416 18.6764 121.462 18.7108 121.542 18.6993C121.605 18.5676 121.591 18.4673 121.499 18.3985C121.402 18.2896 121.342 18.1549 121.319 17.9944C121.704 15.8112 122.071 13.7941 122.421 11.9432C122.812 10.0866 123.408 8.24152 124.211 6.40797C124.297 6.43665 124.326 6.49396 124.297 6.57991C124.303 6.62003 124.346 6.63437 124.426 6.62294C124.351 6.38796 124.386 6.19886 124.529 6.05564C124.667 5.8723 124.758 5.65456 124.804 5.40243C124.925 5.38528 124.982 5.35664 124.976 5.31652C125.005 5.23057 125.065 5.22199 125.157 5.29079C125.312 4.94127 125.521 4.68632 125.785 4.52595C126.083 4.31974 126.412 4.1909 126.773 4.13944C127.616 4.01936 128.372 4.15713 129.042 4.55275C129.186 4.69606 129.309 4.84223 129.412 4.99126C129.555 5.13457 129.716 5.25496 129.893 5.35244C129.916 5.51291 130.019 5.66193 130.202 5.79953C130.729 7.19796 130.987 8.5734 130.975 9.92582C130.957 11.2381 130.897 12.5361 130.793 13.8197C130.495 15.4586 130.17 17.0602 129.82 18.6246C129.47 20.1889 129.008 21.6873 128.435 23.1198C127.902 24.5466 127.233 25.8902 126.431 27.1507C125.663 28.3653 124.694 29.4653 123.524 30.4506ZM124.701 5.96973C124.724 5.84366 124.747 5.86086 124.77 6.02133C124.787 6.14167 124.764 6.12447 124.701 5.96973ZM127.835 18.048C128.236 16.2716 128.558 14.5067 128.799 12.7532C129.081 10.994 129.041 9.13726 128.681 7.183C128.555 6.87351 128.477 6.61847 128.449 6.41789C128.311 6.31469 128.194 6.20864 128.096 6.09973C127.993 5.9507 127.856 5.8475 127.684 5.79014C127.386 5.99635 127.079 6.28566 126.764 6.65805C126.449 7.03044 126.213 7.3914 126.059 7.74092C125.829 8.14199 125.629 8.60038 125.456 9.11608C125.325 9.62607 125.173 10.1389 125 10.6546C124.519 12.1559 124.157 13.7833 123.916 15.5368C123.675 17.2903 123.439 18.9406 123.209 20.4878C123.226 21.1812 123.22 21.8575 123.192 22.5165C123.197 23.1296 123.165 23.7686 123.096 24.4333C123.136 25.0007 123.153 25.5508 123.147 26.0838C123.142 26.6167 123.199 27.1611 123.319 27.7171C124.46 26.5312 125.357 25.073 126.011 23.3426C126.665 21.6121 127.273 19.8473 127.835 18.048ZM121.603 17.4014C121.626 17.2753 121.649 17.2925 121.672 17.453C121.689 17.5733 121.666 17.5561 121.603 17.4014ZM136.884 24.2485L137.005 24.2314L137.022 24.3517L136.902 24.3689L136.884 24.2485ZM136.755 25.0651C136.916 25.0422 136.984 24.9506 136.962 24.7901C136.876 24.7614 136.838 24.7872 136.85 24.8674C136.861 24.9477 136.83 25.0135 136.755 25.0651ZM136.695 25.5035C136.729 25.4576 136.735 25.3545 136.712 25.194C136.729 25.0278 136.695 24.9304 136.609 24.9017C136.58 24.9877 136.557 25.1137 136.54 25.2799C136.557 25.4003 136.609 25.4748 136.695 25.5035ZM136.067 25.8385C136.056 25.7583 136.085 25.6723 136.153 25.5807C136.216 25.4489 136.171 25.4145 136.016 25.4775C136.067 25.552 136.059 25.6351 135.99 25.7267C135.956 25.7726 135.981 25.8098 136.067 25.8385ZM135.285 25.95C135.365 25.9386 135.391 25.9758 135.362 26.0618C135.374 26.142 135.334 26.1477 135.242 26.0789C135.271 25.993 135.285 25.95 135.285 25.95ZM136.248 26.2426C136.368 26.2254 136.457 26.1309 136.514 25.959C136.314 25.9876 136.225 26.0821 136.248 26.2426ZM133.719 29.6114C133.639 29.6228 133.602 29.6486 133.608 29.6887C133.688 29.6773 133.725 29.6515 133.719 29.6114Z" fill="white"/>
<path d="M15.4297 52.1611C15.6836 0.316095 54.9382 -0.643713 80.7709 14.9318" stroke="white" stroke-width="0.759782"/>
<path d="M1 39.1555C5.483 49.0122 15.6018 68.2764 20.2129 66.4797C25.9767 64.2339 17.9073 45.1445 34.4304 33.1668" stroke="white" stroke-width="0.759782"/>
<path d="M75.3684 31.0522C75.1335 31.1267 74.93 31.1352 74.7581 31.0778C74.6263 31.0148 74.4945 30.9517 74.3628 30.8886C74.2654 30.7797 74.1508 30.6937 74.019 30.6306C73.8815 30.5274 73.7125 30.4901 73.5119 30.5187C72.2165 31.4811 71.0127 32.5122 69.9006 33.6121C68.8286 34.7064 67.9887 35.9926 67.3808 37.4709C67.3521 37.5569 67.3578 37.597 67.3979 37.5913C67.4381 37.5856 67.461 37.6028 67.4667 37.6429C68.5555 37.8151 69.6299 37.8871 70.6901 37.8588C71.7847 37.7846 72.8333 37.9626 73.8361 38.3927C73.9965 38.3698 74.1255 38.2696 74.223 38.092C74.3147 37.8742 74.4351 37.8571 74.584 38.0405C74.6471 37.9087 74.7073 37.7569 74.7647 37.585C74.822 37.4131 74.9596 37.373 75.1773 37.4648C75.206 37.3788 75.2347 37.2929 75.2634 37.2069C75.292 37.121 75.3007 37.0379 75.2892 36.9576C75.4955 36.9692 75.6359 36.9492 75.7105 36.8976C75.785 36.846 75.8366 36.7773 75.8652 36.6913C75.9283 36.5596 75.9771 36.4707 76.0115 36.4249C76.0803 36.3332 76.1748 36.2788 76.2952 36.2617C76.3525 36.0898 76.4443 35.872 76.5704 35.6085C76.6965 35.6314 76.7223 35.6687 76.6478 35.7202C76.6134 35.7661 76.642 35.8234 76.7337 35.8922C77.0089 35.5255 77.3098 35.1961 77.6366 34.9039C78.0034 34.6061 78.2987 34.2365 78.5223 33.7953C78.7229 33.7667 78.8977 33.7009 79.0467 33.5978C79.1957 33.4947 79.3419 33.3715 79.4852 33.2283C79.6285 33.0851 79.7747 32.9619 79.9237 32.8588C80.1129 32.75 80.3307 32.6985 80.5771 32.7043C80.6629 33.0195 80.6084 33.3547 80.4134 33.71C80.2529 34.0194 80.0752 34.2084 79.8803 34.2771C79.8115 34.3688 79.8 34.4318 79.8459 34.4662C79.9318 34.4949 79.9633 34.5723 79.9403 34.6984C79.2811 35.5291 78.5759 36.3254 77.825 37.0874C77.1142 37.8436 76.4492 38.6342 75.83 39.4592C76.2825 40.0496 76.5631 40.7259 76.6718 41.4881C76.6887 42.1815 76.5682 42.7718 76.3102 43.2588C76.0866 43.7 75.8457 44.1641 75.5877 44.6511C75.2552 44.9032 74.9571 45.2526 74.6934 45.6995C74.1718 46.0604 73.6702 46.4184 73.1888 46.7736C72.7016 47.0886 72.0425 47.203 71.2116 47.1168C71.1199 47.048 71.0311 46.9992 70.9452 46.9706C70.8592 46.9419 70.7847 46.8502 70.7217 46.6954C70.3034 46.6323 70.0141 46.4688 69.8537 46.2052C69.7334 45.9358 69.5874 45.6292 69.4156 45.2853C69.4158 44.7122 69.4904 44.2309 69.6395 43.8412C69.8231 43.4058 70.0324 43.0075 70.2674 42.6466C70.5369 42.2398 70.792 41.876 71.0328 41.5551C71.3137 41.2286 71.5316 40.8905 71.6864 40.541C71.7839 40.3634 71.9071 40.223 72.0562 40.1199C72.2052 40.0168 72.3112 39.8994 72.3743 39.7676C71.9102 39.67 71.4116 39.6183 70.8787 39.6124C70.3801 39.5607 69.8902 39.5691 69.4088 39.6377C68.7899 39.6032 68.1423 39.5113 67.4662 39.3621C66.8244 39.167 66.2486 38.8603 65.7387 38.4418C65.6528 38.1265 65.4781 37.9059 65.2145 37.7797C65.037 37.3957 64.9884 37.0547 65.0687 36.7567C65.1032 36.4244 65.2036 36.1236 65.3698 35.8543C65.496 35.5907 65.6651 35.3415 65.8772 35.1066C66.0435 34.8373 66.1697 34.5737 66.2557 34.3159C66.7946 33.7888 67.3965 33.13 68.0615 32.3394C68.7265 31.5487 69.423 30.8355 70.151 30.1996C70.5178 29.9017 70.8875 29.6239 71.2601 29.3662C71.6269 29.0683 72.0711 28.8822 72.5926 28.8078C72.9537 28.7564 73.4093 28.7938 73.9594 28.92C74.1026 29.0633 74.263 29.1837 74.4406 29.2812C74.6182 29.3787 74.7987 29.4962 74.9821 29.6338C75.1597 29.7313 75.3029 29.8746 75.4117 30.0637C75.5148 30.2128 75.5491 30.4534 75.5146 30.7858C75.4344 30.7973 75.4 30.8431 75.4115 30.9233C75.4172 30.9634 75.4028 31.0064 75.3684 31.0522ZM74.0157 41.3756C73.6086 41.9657 73.1586 42.5415 72.6655 43.1029C72.2069 43.6185 71.8686 44.2603 71.6506 45.0281C72.3671 44.5985 72.926 44.0686 73.3273 43.4384C73.7688 42.8024 74.0985 42.1005 74.3165 41.3327L74.0157 41.3756ZM91.1728 31.3782C91.3448 31.149 91.5282 31.0001 91.7231 30.9314C91.9179 30.8627 92.0784 30.8398 92.2045 30.8627C92.2904 30.8914 92.3391 30.9459 92.3506 31.0261C92.4021 31.1006 92.4336 31.178 92.445 31.2582C92.4565 31.3385 92.4851 31.3958 92.5309 31.4302C92.6169 31.4589 92.7143 31.4245 92.8232 31.3271C92.7887 31.6595 92.6884 31.9603 92.5221 32.2296C92.3902 32.4531 92.3271 32.7281 92.3327 33.0547C92.2639 33.1464 92.1894 33.198 92.1092 33.2094C92.0691 33.2151 92.0318 33.2409 91.9974 33.2867L92.0489 33.6478C90.8278 35.1316 89.6755 36.6671 88.5919 38.2541C87.5083 39.8412 86.1726 41.239 84.5848 42.4477C84.0805 42.6424 83.6077 42.7712 83.1664 42.8341C82.7652 42.8913 82.2781 42.9198 81.7051 42.9196C81.3555 42.7648 81.006 42.6099 80.6565 42.4551C80.307 42.3002 79.9718 42.1024 79.651 41.8616C79.2327 41.5119 78.952 41.1222 78.8089 40.6923C78.6257 40.2682 78.5226 39.8326 78.4999 39.3857C78.4312 38.9043 78.4228 38.4143 78.4745 37.9157C78.4804 37.3828 78.5035 36.8269 78.5438 36.2481C78.7619 35.1938 79.0488 34.191 79.4044 33.2398C79.7198 32.2944 80.127 31.4177 80.6258 30.6098C80.8322 30.3348 81.1446 30.0857 81.563 29.8623C82.0215 29.6332 82.4714 29.4872 82.9127 29.4243C83.5947 29.3271 84.119 29.4161 84.4857 29.6913C84.6002 29.9205 84.752 30.124 84.9411 30.3017C85.1244 30.4393 85.2762 30.6428 85.3965 30.9122C85.3162 30.9236 85.2818 30.9695 85.2933 31.0497C85.1384 31.3992 84.8404 31.6054 84.3991 31.6683C83.8375 31.7484 83.3905 31.6279 83.0582 31.3069C82.1811 32.3324 81.5676 33.6273 81.2175 35.1917C80.8617 36.7159 80.7724 38.3864 80.9495 40.203C81.064 40.4323 81.1728 40.6214 81.2759 40.7705C81.4134 40.8737 81.5538 40.9969 81.697 41.1402C82.0752 41.2091 82.505 41.2092 82.9864 41.1406C83.8462 40.5678 84.5942 39.9291 85.2305 39.2244C85.8611 38.4796 86.4488 37.7205 86.9934 36.9471C87.5782 36.1679 88.1429 35.3915 88.6876 34.6181C89.2723 33.8389 89.9029 33.0941 90.5794 32.3837C90.5679 32.3035 90.545 32.2863 90.5106 32.3321C90.5163 32.3722 90.4791 32.398 90.3988 32.4094C90.4448 32.1573 90.5623 31.9768 90.7514 31.868C90.9406 31.7592 91.081 31.5959 91.1728 31.3782ZM91.1728 31.3782C91.0754 31.2693 91.0152 31.2778 90.9923 31.4039C91.0094 31.5243 91.0696 31.5157 91.1728 31.3782ZM99.728 29.2378C99.5389 29.3466 99.3211 29.3981 99.0747 29.3923C98.8627 29.3406 98.6363 29.332 98.3956 29.3663C98.3555 29.372 98.3183 29.3978 98.2839 29.4436C98.2839 29.4436 98.2638 29.4465 98.2237 29.4522L97.8282 29.6928C97.7881 29.6985 97.7508 29.7243 97.7164 29.7701C97.7164 29.7701 97.6964 29.7729 97.6563 29.7787C96.418 31.1422 95.4978 32.7264 94.8955 34.5314C94.2932 36.3363 93.8513 38.2617 93.5699 40.3074C93.4209 40.4105 93.3148 40.528 93.2517 40.6598C93.2231 40.7457 93.1313 40.8202 92.9766 40.8832C92.6442 40.8487 92.3663 40.7655 92.1429 40.6336C91.9194 40.5018 91.6788 40.3928 91.4209 40.3068C91.1004 38.9198 90.9461 37.5502 90.958 36.1978C90.9298 34.851 90.9216 33.5015 90.9335 32.1491C90.8075 31.8396 90.6959 31.4871 90.5986 31.0916C90.4956 30.6561 90.467 30.3122 90.5129 30.0601C90.7021 29.9513 90.854 29.8682 90.9686 29.811C91.0374 29.7193 91.1692 29.6391 91.3641 29.5704C91.8913 29.5362 92.258 29.6681 92.4642 29.9662C92.6704 30.2642 92.7849 30.6367 92.8077 31.0837C92.8706 31.525 92.8762 31.9949 92.8245 32.4935C92.8129 32.9863 92.8357 33.4333 92.8928 33.8345C93.2139 33.2157 93.515 32.5997 93.796 31.9866C94.0713 31.3334 94.3924 30.7146 94.7593 30.1302C95.1664 29.5401 95.6479 29.0417 96.2039 28.635C96.7599 28.2282 97.4591 27.9649 98.3016 27.8448C98.6167 28.0454 98.9834 28.1774 99.4017 28.2405C99.5392 28.3437 99.6452 28.5128 99.7196 28.7478C99.794 28.9828 99.7968 29.1461 99.728 29.2378ZM99.3584 29.2291C99.5132 29.1661 99.6364 29.169 99.728 29.2378C99.814 29.2664 99.9372 29.2694 100.098 29.2465C100.384 28.96 100.688 28.7939 101.009 28.7482C101.33 28.7025 101.662 28.7369 102.006 28.8517C102.35 28.9664 102.677 29.104 102.986 29.2646C103.095 29.4537 103.198 29.6027 103.295 29.7117C103.433 29.8148 103.521 30.0069 103.562 30.2877C104.014 30.5915 104.435 30.9613 104.825 31.3969C105.254 31.8269 105.569 32.3141 105.77 32.8585C105.901 33.4947 105.873 34.1537 105.683 34.8356C105.494 35.5175 105.193 36.1334 104.78 36.6834C104.407 37.2277 103.92 37.686 103.318 38.0583C102.757 38.4249 102.129 38.6167 101.436 38.6337C100.903 38.6278 100.456 38.5073 100.095 38.2722C99.774 38.0314 99.4131 37.7964 99.012 37.567C98.823 37.1028 98.6311 36.7617 98.4364 36.5439C98.1961 35.1456 98.1965 33.9994 98.4374 33.1055C98.6784 32.2116 99.0225 31.3235 99.4698 30.4411C99.3668 30.0056 99.3297 29.6015 99.3584 29.2291ZM102.253 36.1841C102.631 35.6799 103.01 35.1757 103.388 34.6715C103.761 34.1273 103.847 33.4396 103.647 32.6086C103.36 32.322 103.091 32.0124 102.839 31.68C102.581 31.3074 102.166 31.121 101.593 31.1209C101.22 31.9517 100.862 32.8828 100.517 33.9142C100.208 34.8998 100.259 35.8339 100.671 36.7165C100.998 36.7109 101.256 36.6537 101.445 36.5449C101.669 36.3902 101.938 36.2699 102.253 36.1841ZM109.01 32.5195C109.21 33.3506 109.393 34.2045 109.559 35.0813C109.719 35.918 109.914 36.7089 110.143 37.454C110.406 38.1532 110.721 38.7837 111.088 39.3454C111.489 39.8613 112.013 40.2368 112.66 40.4719C113.526 40.2258 114.142 39.8105 114.509 39.2261C114.916 38.636 115.369 38.0802 115.868 37.5589C116.378 36.5447 116.911 35.5478 117.467 34.568C118.024 33.5883 118.537 32.5941 119.007 31.5857C119.041 31.5399 119.116 31.4883 119.231 31.431C119.38 31.3279 119.368 31.2477 119.196 31.1903C119.219 31.0643 119.256 31.0385 119.308 31.113C119.36 31.1875 119.423 31.199 119.497 31.1475C119.566 31.0558 119.572 30.9526 119.514 30.838C119.497 30.7177 119.483 30.6174 119.472 30.5371C119.815 30.3653 119.985 30.1161 119.979 29.7895C120.008 29.417 120.214 29.142 120.598 28.9644C120.581 28.8441 120.587 28.7409 120.615 28.655C120.644 28.569 120.613 28.4917 120.521 28.4229C120.733 28.4745 120.853 28.4574 120.882 28.3714C120.911 28.2855 120.979 28.1938 121.088 28.0964C121.025 27.6551 121.103 27.3371 121.321 27.1423C121.579 26.9418 121.722 26.6553 121.751 26.2829C121.842 26.3517 121.885 26.5093 121.88 26.7557C121.868 26.962 121.828 27.111 121.759 27.2026C121.845 27.2313 121.914 27.1396 121.965 26.9276C122.017 26.7156 122.074 26.5437 122.138 26.4119C122.264 26.4349 122.292 26.4922 122.223 26.5839C122.189 26.6297 122.178 26.6927 122.189 26.773C122.281 26.8418 122.367 26.8704 122.447 26.859C122.521 26.8075 122.584 26.8189 122.636 26.8934C122.716 26.882 122.728 26.819 122.67 26.7043C122.653 26.584 122.682 26.498 122.756 26.4465C122.837 26.4351 122.868 26.5124 122.851 26.6786C122.834 26.8448 122.862 26.9021 122.937 26.8506C122.61 27.7158 122.329 28.6154 122.094 29.5494C121.893 30.4376 121.491 31.2111 120.889 31.87C120.958 32.0648 120.955 32.188 120.881 32.2396C120.806 32.2911 120.78 32.3971 120.803 32.5576C120.339 33.3196 119.9 34.1189 119.487 34.9555C119.074 35.792 118.642 36.6314 118.189 37.4737C117.736 38.3159 117.237 39.1238 116.692 39.8973C116.142 40.6306 115.48 41.298 114.706 41.8995C114.505 41.9281 114.27 42.0025 114.001 42.1228C113.726 42.2029 113.494 42.2974 113.305 42.4062C112.445 42.406 111.683 42.2281 111.018 41.8726C110.394 41.5113 109.855 41.0355 109.403 40.4451C108.984 39.8089 108.638 39.1011 108.363 38.3216C108.048 37.5479 107.811 36.7426 107.65 35.9059C107.501 35.7225 107.407 35.3471 107.367 34.7798C107.321 34.1723 107.256 33.711 107.17 33.3958C106.941 33.2238 106.717 33.0919 106.499 33.0001C106.236 32.874 106.041 32.6562 105.915 32.3467C105.915 32.0601 106.036 31.8997 106.276 31.8654C106.517 31.8311 106.729 31.7395 106.913 31.5905C106.689 31.1721 106.629 30.7509 106.732 30.3269C106.836 29.9028 106.776 29.4816 106.552 29.0632C106.598 28.5245 106.639 28.089 106.673 27.7567C106.702 27.3842 106.642 26.963 106.493 26.493C106.551 25.4615 106.594 24.473 106.623 23.5274C106.652 22.5819 106.715 21.5905 106.813 20.5533C106.893 20.5419 106.919 20.5791 106.89 20.6651C106.902 20.7453 106.947 20.7797 107.028 20.7683C107.091 20.6365 107.076 20.5362 106.985 20.4674C106.887 20.3585 106.827 20.2238 106.804 20.0633C107.189 17.8801 107.556 15.863 107.907 14.0121C108.297 12.1555 108.893 10.3104 109.696 8.47688C109.782 8.50556 109.811 8.56288 109.782 8.64883C109.788 8.68894 109.831 8.70329 109.911 8.69185C109.837 8.45687 109.871 8.26777 110.014 8.12455C110.152 7.94121 110.244 7.72348 110.29 7.47134C110.41 7.45419 110.467 7.42555 110.462 7.38543C110.49 7.29948 110.55 7.29091 110.642 7.3597C110.797 7.01018 111.006 6.75524 111.27 6.59486C111.568 6.38865 111.897 6.25981 112.259 6.20835C113.101 6.08827 113.857 6.22604 114.528 6.62166C114.671 6.76497 114.794 6.91114 114.897 7.06017C115.04 7.20348 115.201 7.32387 115.378 7.42135C115.401 7.58182 115.504 7.73085 115.688 7.86844C116.215 9.26688 116.472 10.6423 116.46 11.9947C116.443 13.307 116.382 14.605 116.278 15.8886C115.98 17.5275 115.656 19.1291 115.306 20.6935C114.956 22.2578 114.494 23.7563 113.92 25.1887C113.387 26.6155 112.719 27.9591 111.916 29.2196C111.148 30.4343 110.179 31.5342 109.01 32.5195ZM110.186 8.03864C110.209 7.91257 110.232 7.92977 110.255 8.09024C110.272 8.21059 110.249 8.19339 110.186 8.03864ZM113.32 20.1169C113.722 18.3406 114.043 16.5756 114.284 14.8221C114.566 13.0629 114.526 11.2062 114.166 9.25191C114.04 8.94242 113.963 8.68738 113.934 8.4868C113.797 8.3836 113.679 8.27755 113.582 8.16864C113.479 8.01961 113.341 7.91642 113.169 7.85905C112.871 8.06527 112.564 8.35457 112.249 8.72696C111.934 9.09935 111.699 9.46031 111.544 9.80983C111.315 10.2109 111.114 10.6693 110.942 11.185C110.81 11.695 110.658 12.2078 110.486 12.7235C110.004 14.2248 109.642 15.8522 109.401 17.6057C109.16 19.3592 108.924 21.0095 108.695 22.5567C108.712 23.2502 108.706 23.9264 108.677 24.5854C108.682 25.1986 108.651 25.8375 108.582 26.5022C108.622 27.0696 108.639 27.6197 108.633 28.1527C108.627 28.6856 108.684 29.2301 108.804 29.786C109.945 28.6001 110.842 27.1419 111.496 25.4115C112.15 23.681 112.758 21.9162 113.32 20.1169ZM107.088 19.4703C107.111 19.3442 107.134 19.3614 107.157 19.5219C107.174 19.6422 107.151 19.625 107.088 19.4703ZM122.37 26.3174L122.49 26.3003L122.507 26.4206L122.387 26.4378L122.37 26.3174ZM122.24 27.134C122.401 27.1111 122.47 27.0195 122.447 26.859C122.361 26.8303 122.324 26.8561 122.335 26.9363C122.347 27.0166 122.315 27.0825 122.24 27.134ZM122.18 27.5724C122.215 27.5265 122.22 27.4234 122.197 27.2629C122.215 27.0968 122.18 26.9993 122.094 26.9706C122.066 27.0566 122.043 27.1827 122.026 27.3488C122.043 27.4692 122.094 27.5437 122.18 27.5724ZM121.553 27.9074C121.541 27.8272 121.57 27.7412 121.639 27.6496C121.702 27.5178 121.656 27.4834 121.501 27.5464C121.553 27.6209 121.544 27.704 121.475 27.7957C121.441 27.8415 121.467 27.8787 121.553 27.9074ZM120.77 28.0189C120.851 28.0075 120.876 28.0448 120.848 28.1307C120.859 28.2109 120.819 28.2167 120.727 28.1479C120.756 28.0619 120.77 28.0189 120.77 28.0189ZM121.733 28.3115C121.853 28.2943 121.942 28.1998 122 28.0279C121.799 28.0565 121.71 28.151 121.733 28.3115ZM119.205 31.6803C119.124 31.6918 119.087 31.7175 119.093 31.7576C119.173 31.7462 119.21 31.7204 119.205 31.6803ZM123.524 30.4506C123.725 31.2816 123.908 32.1356 124.074 33.0124C124.234 33.8491 124.428 34.64 124.657 35.3851C124.921 36.0843 125.236 36.7148 125.602 37.2765C126.003 37.7923 126.528 38.1679 127.175 38.403C128.041 38.1569 128.657 37.7416 129.024 37.1572C129.431 36.5671 129.884 36.0113 130.382 35.49C130.893 34.4758 131.426 33.4789 131.982 32.4991C132.538 31.5193 133.052 30.5252 133.522 29.5168C133.556 29.471 133.631 29.4194 133.745 29.3621C133.894 29.259 133.883 29.1788 133.711 29.1214C133.734 28.9954 133.771 28.9696 133.823 29.0441C133.874 29.1186 133.937 29.1301 134.012 29.0786C134.081 28.9869 134.086 28.8837 134.029 28.7691C134.012 28.6488 133.998 28.5485 133.986 28.4682C134.33 28.2964 134.499 28.0472 134.494 27.7205C134.522 27.3481 134.729 27.0731 135.113 26.8955C135.096 26.7752 135.101 26.672 135.13 26.5861C135.159 26.5001 135.127 26.4227 135.036 26.354C135.248 26.4056 135.368 26.3884 135.397 26.3025C135.425 26.2165 135.494 26.1249 135.603 26.0275C135.54 25.5862 135.618 25.2682 135.835 25.0734C136.093 24.8729 136.237 24.5864 136.265 24.2139C136.357 24.2827 136.4 24.4403 136.394 24.6868C136.383 24.8931 136.343 25.042 136.274 25.1337C136.36 25.1624 136.429 25.0707 136.48 24.8587C136.532 24.6467 136.589 24.4748 136.652 24.343C136.778 24.366 136.807 24.4233 136.738 24.515C136.704 24.5608 136.692 24.6238 136.704 24.7041C136.795 24.7728 136.881 24.8015 136.962 24.7901C137.036 24.7385 137.099 24.75 137.151 24.8245C137.231 24.8131 137.242 24.7501 137.185 24.6354C137.168 24.5151 137.197 24.4291 137.271 24.3776C137.351 24.3661 137.383 24.4435 137.366 24.6097C137.348 24.7759 137.377 24.8332 137.452 24.7816C137.125 25.6469 136.844 26.5465 136.608 27.4805C136.407 28.3687 136.006 29.1422 135.404 29.801C135.473 29.9959 135.47 30.1191 135.395 30.1707C135.321 30.2222 135.295 30.3282 135.318 30.4887C134.854 31.2507 134.415 32.05 134.002 32.8866C133.589 33.7231 133.156 34.5625 132.703 35.4048C132.25 36.247 131.751 37.0549 131.207 37.8284C130.656 38.5617 129.994 39.2291 129.221 39.8306C129.02 39.8592 128.785 39.9336 128.516 40.0539C128.241 40.134 128.008 40.2285 127.819 40.3373C126.96 40.337 126.198 40.1592 125.533 39.8037C124.908 39.4424 124.37 38.9666 123.917 38.3762C123.499 37.74 123.153 37.0322 122.878 36.2527C122.563 35.479 122.325 34.6737 122.165 33.837C122.016 33.6536 121.922 33.2782 121.882 32.7109C121.836 32.1034 121.77 31.6421 121.685 31.3268C121.455 31.1549 121.232 31.023 121.014 30.9312C120.751 30.8051 120.556 30.5872 120.43 30.2777C120.43 29.9912 120.55 29.8308 120.791 29.7965C121.032 29.7622 121.244 29.6706 121.427 29.5216C121.204 29.1032 121.144 28.682 121.247 28.258C121.35 27.8339 121.29 27.4127 121.067 26.9943C121.113 26.4556 121.153 26.0201 121.188 25.6877C121.217 25.3153 121.156 24.894 121.008 24.4241C121.065 23.3926 121.109 22.4041 121.137 21.4585C121.166 20.513 121.23 19.5216 121.328 18.4844C121.408 18.4729 121.434 18.5102 121.405 18.5962C121.416 18.6764 121.462 18.7108 121.542 18.6993C121.605 18.5676 121.591 18.4673 121.499 18.3985C121.402 18.2896 121.342 18.1549 121.319 17.9944C121.704 15.8112 122.071 13.7941 122.421 11.9432C122.812 10.0866 123.408 8.24152 124.211 6.40797C124.297 6.43665 124.326 6.49396 124.297 6.57991C124.303 6.62003 124.346 6.63437 124.426 6.62294C124.351 6.38796 124.386 6.19886 124.529 6.05564C124.667 5.8723 124.758 5.65456 124.804 5.40243C124.925 5.38528 124.982 5.35664 124.976 5.31652C125.005 5.23057 125.065 5.22199 125.157 5.29079C125.312 4.94127 125.521 4.68632 125.785 4.52595C126.083 4.31974 126.412 4.1909 126.773 4.13944C127.616 4.01936 128.372 4.15713 129.042 4.55275C129.186 4.69606 129.309 4.84223 129.412 4.99126C129.555 5.13457 129.716 5.25496 129.893 5.35244C129.916 5.51291 130.019 5.66193 130.202 5.79953C130.729 7.19796 130.987 8.5734 130.975 9.92582C130.957 11.2381 130.897 12.5361 130.793 13.8197C130.495 15.4586 130.17 17.0602 129.82 18.6246C129.47 20.1889 129.008 21.6873 128.435 23.1198C127.902 24.5466 127.233 25.8902 126.431 27.1507C125.663 28.3653 124.694 29.4653 123.524 30.4506ZM124.701 5.96973C124.724 5.84366 124.747 5.86086 124.77 6.02133C124.787 6.14167 124.764 6.12447 124.701 5.96973ZM127.835 18.048C128.236 16.2716 128.558 14.5067 128.799 12.7532C129.081 10.994 129.041 9.13726 128.681 7.183C128.555 6.87351 128.477 6.61847 128.449 6.41789C128.311 6.31469 128.194 6.20864 128.096 6.09973C127.993 5.9507 127.856 5.8475 127.684 5.79014C127.386 5.99635 127.079 6.28566 126.764 6.65805C126.449 7.03044 126.213 7.3914 126.059 7.74092C125.829 8.14199 125.629 8.60038 125.456 9.11608C125.325 9.62607 125.173 10.1389 125 10.6546C124.519 12.1559 124.157 13.7833 123.916 15.5368C123.675 17.2903 123.439 18.9406 123.209 20.4878C123.226 21.1812 123.22 21.8575 123.192 22.5165C123.197 23.1296 123.165 23.7686 123.096 24.4333C123.136 25.0007 123.153 25.5508 123.147 26.0838C123.142 26.6167 123.199 27.1611 123.319 27.7171C124.46 26.5312 125.357 25.073 126.011 23.3426C126.665 21.6121 127.273 19.8473 127.835 18.048ZM121.603 17.4014C121.626 17.2753 121.649 17.2925 121.672 17.453C121.689 17.5733 121.666 17.5561 121.603 17.4014ZM136.884 24.2485L137.005 24.2314L137.022 24.3517L136.902 24.3689L136.884 24.2485ZM136.755 25.0651C136.916 25.0422 136.984 24.9506 136.962 24.7901C136.876 24.7614 136.838 24.7872 136.85 24.8674C136.861 24.9477 136.83 25.0135 136.755 25.0651ZM136.695 25.5035C136.729 25.4576 136.735 25.3545 136.712 25.194C136.729 25.0278 136.695 24.9304 136.609 24.9017C136.58 24.9877 136.557 25.1137 136.54 25.2799C136.557 25.4003 136.609 25.4748 136.695 25.5035ZM136.067 25.8385C136.056 25.7583 136.085 25.6723 136.153 25.5807C136.216 25.4489 136.171 25.4145 136.016 25.4775C136.067 25.552 136.059 25.6351 135.99 25.7267C135.956 25.7726 135.981 25.8098 136.067 25.8385ZM135.285 25.95C135.365 25.9386 135.391 25.9758 135.362 26.0618C135.374 26.142 135.334 26.1477 135.242 26.0789C135.271 25.993 135.285 25.95 135.285 25.95ZM136.248 26.2426C136.368 26.2254 136.457 26.1309 136.514 25.959C136.314 25.9876 136.225 26.0821 136.248 26.2426ZM133.719 29.6114C133.639 29.6228 133.602 29.6486 133.608 29.6887C133.688 29.6773 133.725 29.6515 133.719 29.6114Z" fill="white"/>
<path d="M15.4297 52.1611C15.6836 0.316095 54.9382 -0.643713 80.7709 14.9318" stroke="white" stroke-width="0.759782"/>
<path d="M1 39.1555C5.483 49.0122 15.6018 68.2764 20.2129 66.4797C25.9767 64.2339 17.9073 45.1445 34.4304 33.1668" stroke="white" stroke-width="0.759782"/>
</svg>
