<?xml version="1.0" encoding="utf-8"?>
<!-- Generator: Adobe Illustrator 25.0.0, SVG Export Plug-In . SVG Version: 6.00 Build 0)  -->
<svg version="1.1" id="Layer_1" xmlns="http://www.w3.org/2000/svg" xmlns:xlink="http://www.w3.org/1999/xlink" x="0px" y="0px"
	 viewBox="0 0 444.4 209" style="enable-background:new 0 0 444.4 209;" xml:space="preserve">
<style type="text/css">
	.st0{clip-path:url(#SVGID_2_);}
	.st1{fill:#5A76FF;}
	.st2{fill:url(#SVGID_3_);}
	.st3{fill:#B3BFFF;}
</style>
<g>
	<g>
		<defs>
			<path id="SVGID_1_" d="M94.9,15.5l293,51.8c37.2,6.6,62,42.1,55.5,79.3l0,0c-6.6,37.2-42.1,62-79.3,55.5l-293-51.8
				C33.9,143.7,9,108.2,15.6,71l0,0C22.2,33.8,57.7,9,94.9,15.5z"/>
		</defs>
		<clipPath id="SVGID_2_">
			<use xlink:href="#SVGID_1_"  style="overflow:visible;"/>
		</clipPath>
		<g class="st0">
			<path class="st1" d="M94.9,15.5l293,51.8c37.2,6.6,62,42.1,55.5,79.3l0,0c-6.6,37.2-42.1,62-79.3,55.5l-293-51.8
				C33.9,143.7,9,108.2,15.6,71l0,0C22.2,33.8,57.7,9,94.9,15.5z"/>
			<g>
				
					<linearGradient id="SVGID_3_" gradientUnits="userSpaceOnUse" x1="252.9538" y1="418.284" x2="336.2978" y2="270.1091" gradientTransform="matrix(0.9847 0.174 0.174 -0.9847 -120.9965 395.1518)">
					<stop  offset="0" style="stop-color:#304195"/>
					<stop  offset="1" style="stop-color:#081870"/>
				</linearGradient>
				<path class="st2" d="M94.3,18.9l293,51.8c35.3,6.2,58.9,40,52.7,75.3l0,0c-6.2,35.3-40,58.9-75.3,52.7l-293-51.8
					c-35.3-6.2-58.9-40-52.7-75.3l0,0C25.2,36.2,58.9,12.7,94.3,18.9z"/>
			</g>
			<g>
				<path class="st3" d="M115.3,91.2c1.5-5.7,1.4-11.7-0.2-17.4c-4.9,3.3-10.4,5.5-16.2,6.5c-0.5,5.4-1.7,10.8-3.6,15.9
					C102.2,95.8,109,94.1,115.3,91.2z M89.7,96.4c2-5,3.3-10.2,3.9-15.5c-3.3,0.2-6.8,0-10.2-0.6c-3.4-0.6-6.7-1.6-9.8-2.9
					C72.4,82.6,71.8,88,72,93.3C77.7,95.2,83.7,96.3,89.7,96.4z M72.4,98.8c4.9,1.5,9.9,2.4,15,2.7c-2.7,5.2-6.1,10-10.2,14.2
					C74.8,110.3,73.2,104.6,72.4,98.8z M66.8,91.3c0-5.5,0.7-10.9,2.1-16.2c-5.1-3-9.5-7-13-11.7c-3.5,4.8-5.6,10.4-6.2,16.3
					C54.7,84.5,60.5,88.4,66.8,91.3z M112.9,97.7c-2.7,5.5-6.9,10.1-12,13.3c-5.2,3.3-11.1,5.1-17.2,5.2c3.8-4.4,7-9.4,9.5-14.7
					C99.9,101.3,106.5,100,112.9,97.7L112.9,97.7z M49.8,86.6c5.1,4.3,10.9,7.8,17.2,10.3c0.5,5.8,1.8,11.6,3.9,17.1
					c-5.7-2.2-10.7-5.9-14.4-10.8C52.8,98.4,50.5,92.7,49.8,86.6L49.8,86.6z M95,51.8c8.1,3.1,14.6,9.2,18.2,17.1
					c-4.2,3-9,5.1-14.1,6.2C99.2,67.1,97.8,59.2,95,51.8z M88.8,50.2c3.6,8.1,5.4,16.8,5.2,25.7c-3.2,0.2-6.4,0.1-9.7-0.5
					c-3.3-0.6-6.4-1.5-9.2-2.9C77.9,64.1,82.6,56.5,88.8,50.2z M82.3,49.6c-5.2,6-9.2,13-11.8,20.4c-4.4-2.8-8.2-6.4-11.1-10.7
					C65.5,53.2,73.7,49.7,82.3,49.6z"/>
			</g>
			<g>
				<path class="st3" d="M142.3,128.9l8.9-50.5l7,1.2l-1.1,6l0.6,0.1c0.6-0.7,1.3-1.5,2.3-2.3c1-0.9,2.2-1.6,3.7-2.1
					c1.5-0.5,3.4-0.6,5.7-0.2c3,0.5,5.5,1.7,7.5,3.7c2.1,1.9,3.5,4.4,4.3,7.5c0.8,3.1,0.9,6.6,0.2,10.5c-0.7,4-2,7.3-3.8,9.9
					c-1.8,2.6-4,4.4-6.6,5.6c-2.6,1.1-5.4,1.4-8.3,0.9c-2.2-0.4-4-1.1-5.3-2.1c-1.3-1-2.2-2.1-2.8-3.2c-0.6-1.1-1.1-2.1-1.4-3
					l-0.4-0.1l-3.4,19.5L142.3,128.9z M155,97.9c-0.5,2.6-0.5,4.9-0.1,7c0.4,2.1,1.2,3.8,2.4,5.1c1.2,1.3,2.9,2.2,4.9,2.5
					c2.1,0.4,4,0.1,5.7-0.8c1.6-0.9,3-2.3,4.1-4.1c1.1-1.8,1.9-4,2.3-6.4c0.4-2.4,0.4-4.7,0.1-6.7c-0.4-2.1-1.2-3.8-2.4-5.1
					c-1.2-1.4-2.9-2.2-5.1-2.6c-2.1-0.4-3.9-0.1-5.5,0.7c-1.6,0.8-2.9,2.1-4,3.9C156.2,93.2,155.5,95.4,155,97.9z M183.7,121.9
					l6.5-36.7l6.9,1.2l-1,5.8l0.4,0.1c1-1.9,2.5-3.2,4.4-4c1.9-0.8,3.9-1.1,6.1-0.7c0.4,0.1,1,0.2,1.6,0.3c0.6,0.1,1.1,0.3,1.4,0.4
					l-1.2,6.8c-0.3-0.1-0.8-0.3-1.5-0.5c-0.7-0.2-1.4-0.4-2.2-0.6c-1.7-0.3-3.3-0.2-4.7,0.3c-1.4,0.5-2.6,1.3-3.6,2.4
					c-1,1.1-1.6,2.5-1.9,4.1l-4,22.4L183.7,121.9z M220.9,129.3c-3.4-0.6-6.3-1.9-8.6-4c-2.3-2-3.9-4.6-4.8-7.7
					c-0.9-3.1-1-6.5-0.4-10.3c0.7-3.8,2-7,3.9-9.6c1.9-2.6,4.3-4.5,7.2-5.6s6-1.4,9.4-0.8c3.4,0.6,6.3,1.9,8.6,4
					c2.3,2,3.9,4.6,4.8,7.7c0.9,3.1,1,6.6,0.4,10.4c-0.7,3.8-2,7-3.9,9.6c-1.9,2.6-4.3,4.4-7.2,5.6
					C227.4,129.6,224.3,129.9,220.9,129.3z M221.9,123.3c2.2,0.4,4.2,0.1,5.9-0.8c1.7-0.9,3-2.3,4.1-4.1c1.1-1.8,1.8-3.9,2.2-6.3
					c0.4-2.3,0.4-4.6,0.1-6.6c-0.4-2.1-1.2-3.9-2.4-5.3c-1.3-1.5-3-2.4-5.2-2.8c-2.2-0.4-4.2-0.1-5.9,0.8c-1.7,0.9-3.1,2.3-4.1,4.2
					c-1,1.8-1.8,3.9-2.2,6.3c-0.4,2.4-0.4,4.6-0.1,6.7c0.4,2.1,1.2,3.9,2.4,5.3C217.9,122,219.7,122.9,221.9,123.3z M257,135.6
					c-3-0.5-5.5-1.8-7.5-3.7c-2-1.9-3.5-4.4-4.3-7.5c-0.8-3.1-0.9-6.6-0.2-10.6c0.7-4,2-7.3,3.8-9.8c1.8-2.6,4.1-4.4,6.6-5.5
					c2.6-1.1,5.4-1.4,8.3-0.8c2.3,0.4,4,1.1,5.3,2.1c1.3,1,2.2,2.1,2.8,3.2c0.6,1.1,1.1,2.1,1.3,3l0.4,0.1l3.2-18.2l7.2,1.3l-8.7,49
					l-7-1.2l1-5.7l-0.6-0.1c-0.6,0.7-1.3,1.5-2.3,2.3c-1,0.9-2.2,1.5-3.8,2C261.1,136,259.3,136,257,135.6z M259.7,129.8
					c2.1,0.4,3.9,0.1,5.5-0.7c1.6-0.8,3-2.2,4.1-4c1.1-1.8,1.9-4,2.3-6.6c0.4-2.6,0.5-4.8,0.1-6.9c-0.4-2-1.2-3.7-2.4-5
					c-1.2-1.3-2.9-2.2-5-2.5c-2.2-0.4-4-0.1-5.7,0.7c-1.6,0.9-3,2.2-4.1,4c-1.1,1.8-1.8,3.9-2.2,6.3c-0.4,2.5-0.5,4.7-0.1,6.8
					c0.4,2.1,1.2,3.8,2.4,5.2C255.9,128.6,257.6,129.5,259.7,129.8z M308.8,128.4l3.8-21.5l7.2,1.3l-6.5,36.7l-7-1.2l1.1-6.4
					l-0.4-0.1c-1.2,1.8-2.8,3.2-4.9,4.2c-2.1,1-4.5,1.2-7.3,0.7c-2.4-0.4-4.4-1.3-6-2.7c-1.6-1.4-2.8-3.2-3.4-5.4
					c-0.7-2.2-0.7-4.9-0.2-7.9l4.1-23.4l7.2,1.3l-4,22.5c-0.4,2.5-0.1,4.6,1,6.3c1.1,1.7,2.8,2.8,5,3.2c1.3,0.2,2.7,0.1,4.2-0.3
					c1.5-0.4,2.7-1.2,3.9-2.4C307.7,132.1,308.5,130.4,308.8,128.4z M335.6,149.6c-3.6-0.6-6.5-2-8.8-4c-2.3-2.1-3.8-4.7-4.7-7.8
					s-1-6.5-0.3-10.2c0.7-3.7,1.9-6.9,3.9-9.5c1.9-2.6,4.3-4.5,7.1-5.7c2.8-1.2,6-1.4,9.4-0.8c2.8,0.5,5.2,1.5,7.2,2.9
					c2,1.4,3.5,3.2,4.5,5.2c1,2.1,1.5,4.4,1.3,6.9l-7-1.2c-0.1-1.8-0.7-3.4-1.8-4.9c-1.1-1.5-2.8-2.4-5.1-2.8
					c-2-0.4-3.8-0.1-5.5,0.7c-1.7,0.8-3.1,2.1-4.3,3.8c-1.2,1.8-2,4-2.4,6.6c-0.5,2.7-0.5,5.1,0,7.2c0.5,2.1,1.4,3.8,2.6,5.1
					c1.3,1.3,3,2.2,5,2.5c1.4,0.2,2.6,0.2,3.8-0.1c1.2-0.3,2.3-0.9,3.2-1.7c0.9-0.8,1.7-1.8,2.2-3.1l7,1.2c-0.7,2.3-1.8,4.3-3.4,6
					c-1.6,1.6-3.6,2.8-6,3.5C341.1,150,338.5,150.1,335.6,149.6z M379.4,118.6l-1,5.7l-20.1-3.5l1-5.7L379.4,118.6z M366.3,107.2
					l7.2,1.3l-6.1,34.8c-0.2,1.4-0.2,2.5,0.1,3.2c0.3,0.8,0.7,1.3,1.4,1.7c0.6,0.4,1.3,0.6,2.1,0.7c0.6,0.1,1.1,0.2,1.5,0.1
					c0.4,0,0.8,0,1,0l0.2,6.1c-0.4,0.1-1.1,0.1-1.9,0.2c-0.8,0-1.8,0-2.9-0.2c-1.9-0.3-3.6-0.9-5.1-1.9c-1.5-1-2.6-2.3-3.4-4
					c-0.7-1.6-0.9-3.6-0.5-5.8L366.3,107.2z"/>
			</g>
		</g>
	</g>
</g>
</svg>
