<?xml version="1.0" encoding="utf-8"?>
<!-- Generator: Adobe Illustrator 25.0.0, SVG Export Plug-In . SVG Version: 6.00 Build 0)  -->
<svg version="1.1" id="Layer_1" xmlns="http://www.w3.org/2000/svg" xmlns:xlink="http://www.w3.org/1999/xlink" x="0px" y="0px"
	 viewBox="0 0 474 223" style="enable-background:new 0 0 474 223;" xml:space="preserve">
<style type="text/css">
	.st0{clip-path:url(#SVGID_2_);}
	.st1{fill:#949C7C;}
	.st2{fill:url(#SVGID_3_);}
	.st3{fill:#D4EF8C;}
	.st4{clip-path:url(#SVGID_5_);}
	.st5{fill-rule:evenodd;clip-rule:evenodd;fill:#D4EF8C;}
</style>
<g>
	<g>
		<defs>
			<path id="SVGID_1_" d="M68.7,80.7l314.8-65.4c37-7.7,73.2,16.1,80.9,53.1v0c7.7,37-16.1,73.2-53.1,80.9L96.5,214.6
				c-37,7.7-73.2-16.1-80.9-53.1l0,0C7.9,124.6,31.7,88.4,68.7,80.7z"/>
		</defs>
		<clipPath id="SVGID_2_">
			<use xlink:href="#SVGID_1_"  style="overflow:visible;"/>
		</clipPath>
		<g class="st0">
			<path class="st1" d="M68.7,80.7l314.8-65.4c37-7.7,73.2,16.1,80.9,53.1v0c7.7,37-16.1,73.2-53.1,80.9L96.5,214.6
				c-37,7.7-73.2-16.1-80.9-53.1l0,0C7.9,124.6,31.7,88.4,68.7,80.7z"/>
			<g>
				
					<linearGradient id="SVGID_3_" gradientUnits="userSpaceOnUse" x1="38.4137" y1="321.8629" x2="325.8747" y2="36.4376" gradientTransform="matrix(0.9791 -0.2034 -0.2034 -0.9791 117.7333 340.2328)">
					<stop  offset="0" style="stop-color:#222B0A"/>
					<stop  offset="1" style="stop-color:#597314"/>
				</linearGradient>
				<path class="st2" d="M69.3,84l314.8-65.4c35.1-7.3,69.5,15.3,76.8,50.4v0c7.3,35.1-15.3,69.5-50.4,76.8L95.8,211.3
					c-35.1,7.3-69.5-15.3-76.8-50.4l0,0C11.6,125.7,34.2,91.3,69.3,84z"/>
			</g>
			<g>
				<path class="st3" d="M164.9,151.3l-7.6-36.5l6.9-1.4l1.2,5.8l0.4-0.1c0.3-2.1,1.1-3.9,2.6-5.4c1.5-1.5,3.3-2.5,5.4-2.9
					c0.4-0.1,1-0.2,1.6-0.3c0.6-0.1,1.1-0.2,1.5-0.2l1.4,6.8c-0.3,0-0.8,0-1.6,0.1c-0.8,0-1.5,0.1-2.2,0.3c-1.7,0.3-3.1,1-4.3,2
					c-1.2,1-2,2.2-2.5,3.6c-0.5,1.4-0.6,2.9-0.3,4.5l4.6,22.3L164.9,151.3z M202.5,144.2c-3.6,0.7-6.9,0.6-9.8-0.4
					c-2.9-1-5.4-2.8-7.4-5.3c-2-2.5-3.4-5.7-4.2-9.5c-0.8-3.7-0.8-7.2,0-10.3c0.8-3.1,2.3-5.8,4.5-7.9c2.2-2.1,5-3.5,8.4-4.2
					c2.1-0.4,4.1-0.5,6.2-0.2c2.1,0.3,4,1,5.9,2.1s3.4,2.8,4.8,4.9c1.4,2.1,2.4,4.9,3.1,8.2l0.5,2.5l-29,6l-1.1-5.3l22.1-4.6
					c-0.4-1.9-1.1-3.4-2.2-4.7c-1.1-1.3-2.4-2.2-3.9-2.8c-1.5-0.6-3.2-0.6-5.1-0.3c-2,0.4-3.6,1.3-4.9,2.6c-1.3,1.3-2.2,2.8-2.6,4.5
					c-0.5,1.7-0.5,3.5-0.1,5.3l0.9,4.2c0.5,2.4,1.4,4.4,2.6,6c1.2,1.5,2.7,2.6,4.5,3.2c1.7,0.6,3.6,0.6,5.7,0.2
					c1.3-0.3,2.5-0.7,3.6-1.3c1-0.6,1.9-1.4,2.5-2.4c0.6-0.9,1.1-2,1.3-3.3l7-0.2c-0.1,2.1-0.7,4-1.8,5.8c-1.1,1.8-2.6,3.3-4.5,4.5
					C207.4,142.8,205.1,143.7,202.5,144.2z M244.8,105.8l-6.2,2.5c-0.4-0.8-1-1.5-1.8-2.1c-0.7-0.6-1.6-1.1-2.7-1.3
					c-1.1-0.3-2.4-0.3-3.8,0.1c-2,0.4-3.6,1.2-4.8,2.4c-1.2,1.2-1.6,2.5-1.3,3.9c0.3,1.2,0.9,2.1,2,2.7c1.1,0.6,2.6,0.9,4.8,0.9
					l6.1,0.1c3.5,0.1,6.3,0.8,8.3,2c2,1.3,3.2,3.2,3.8,5.8c0.5,2.2,0.2,4.3-0.7,6.2c-0.9,2-2.4,3.7-4.4,5.1c-2,1.4-4.5,2.5-7.5,3.1
					c-4.1,0.8-7.6,0.7-10.6-0.5c-2.9-1.2-5.1-3.4-6.3-6.5l6.7-2.5c0.8,1.7,2,2.9,3.5,3.5c1.5,0.6,3.3,0.7,5.5,0.3
					c2.3-0.5,4.1-1.4,5.3-2.6c1.2-1.3,1.6-2.6,1.3-4c-0.2-1.1-0.9-2-1.9-2.6c-1-0.6-2.4-0.9-4.2-1l-6.5-0.1
					c-3.6-0.1-6.3-0.8-8.3-2.1c-2-1.4-3.2-3.3-3.8-5.9c-0.4-2.2-0.2-4.2,0.6-6c0.9-1.9,2.3-3.5,4.2-4.8c1.9-1.4,4.3-2.3,7-2.9
					c3.9-0.8,7.2-0.6,9.9,0.6C241.6,101.2,243.5,103.1,244.8,105.8z M272.3,129.7c-3.6,0.7-6.9,0.6-9.8-0.4c-2.9-1-5.4-2.8-7.4-5.3
					c-2-2.5-3.4-5.7-4.2-9.5c-0.8-3.7-0.8-7.2,0-10.3c0.8-3.1,2.3-5.8,4.5-7.9c2.2-2.1,5-3.5,8.4-4.2c2.1-0.4,4.1-0.5,6.2-0.2
					c2.1,0.3,4,1,5.9,2.1c1.8,1.1,3.4,2.8,4.8,4.9c1.4,2.1,2.4,4.9,3.1,8.2l0.5,2.5l-29,6l-1.1-5.3l22.1-4.6
					c-0.4-1.9-1.1-3.4-2.2-4.7c-1.1-1.3-2.4-2.2-3.9-2.8c-1.5-0.6-3.2-0.6-5.1-0.3c-2,0.4-3.6,1.3-4.9,2.6c-1.3,1.3-2.2,2.8-2.6,4.5
					c-0.5,1.7-0.5,3.5-0.1,5.3l0.9,4.2c0.5,2.4,1.4,4.4,2.6,6c1.2,1.5,2.7,2.6,4.5,3.2c1.7,0.6,3.6,0.6,5.7,0.2
					c1.3-0.3,2.5-0.7,3.6-1.3c1-0.6,1.9-1.4,2.5-2.4c0.6-0.9,1.1-2,1.3-3.3l7-0.2c-0.1,2.1-0.7,4-1.8,5.8c-1.1,1.8-2.6,3.3-4.5,4.5
					C277.3,128.3,275,129.2,272.3,129.7z M303.9,123.2c-2.3,0.5-4.5,0.5-6.5,0c-2.1-0.5-3.8-1.4-5.2-2.9c-1.4-1.4-2.4-3.3-2.9-5.7
					c-0.4-2.1-0.4-3.8,0.1-5.3c0.5-1.5,1.4-2.8,2.6-3.8c1.2-1.1,2.6-2,4.2-2.7c1.6-0.7,3.2-1.4,4.9-2c2.1-0.7,3.9-1.3,5.2-1.7
					c1.3-0.5,2.3-0.9,2.8-1.5c0.5-0.5,0.7-1.2,0.5-2l0-0.2c-0.4-2.1-1.4-3.6-2.8-4.5c-1.4-0.9-3.2-1.1-5.5-0.6
					c-2.4,0.5-4.2,1.4-5.3,2.8c-1.1,1.3-1.8,2.7-2.1,4.1l-7-0.1c0.3-2.4,1.1-4.4,2.4-6.1c1.3-1.7,2.8-3.1,4.7-4.1
					c1.9-1,3.9-1.8,6.1-2.3c1.5-0.3,3-0.4,4.7-0.4c1.7,0,3.4,0.3,5,0.9c1.6,0.6,3.1,1.7,4.3,3.1c1.3,1.5,2.2,3.5,2.7,6.2l5,24.3
					l-6.9,1.4l-1-5l-0.3,0.1c-0.3,1-0.8,2.1-1.5,3.1c-0.7,1.1-1.8,2.1-3.1,2.9C307.5,122.2,305.9,122.8,303.9,123.2z M304.2,117.2
					c2-0.4,3.6-1.1,4.8-2.2c1.2-1.1,2.1-2.3,2.6-3.7c0.5-1.4,0.6-2.9,0.3-4.3l-1-4.7c-0.2,0.3-0.6,0.6-1.3,1
					c-0.7,0.4-1.4,0.7-2.3,1.1c-0.9,0.3-1.8,0.7-2.6,1c-0.8,0.3-1.6,0.5-2.1,0.7c-1.3,0.5-2.5,1-3.6,1.7c-1,0.6-1.8,1.4-2.3,2.3
					c-0.5,0.9-0.6,2-0.4,3.3c0.4,1.8,1.3,3,2.8,3.6C300.5,117.5,302.2,117.6,304.2,117.2z M328.5,117.3l-7.6-36.5l6.9-1.4l1.2,5.8
					l0.4-0.1c0.3-2.1,1.1-3.9,2.6-5.4c1.5-1.5,3.3-2.5,5.4-2.9c0.4-0.1,1-0.2,1.6-0.3c0.6-0.1,1.1-0.2,1.5-0.2l1.4,6.8
					c-0.3,0-0.8,0-1.6,0.1c-0.8,0-1.5,0.1-2.2,0.3c-1.7,0.3-3.1,1-4.3,2c-1.2,1-2,2.2-2.5,3.6c-0.5,1.4-0.6,2.9-0.3,4.5l4.6,22.3
					L328.5,117.3z M365.8,110.3c-3.5,0.7-6.7,0.6-9.6-0.5c-2.9-1.1-5.3-2.9-7.2-5.5s-3.3-5.7-4.1-9.3c-0.8-3.7-0.8-7.1,0.1-10.3
					c0.8-3.1,2.3-5.8,4.5-7.9c2.2-2.1,5-3.6,8.5-4.3c2.8-0.6,5.4-0.6,7.7,0c2.4,0.6,4.4,1.6,6.1,3.2c1.7,1.6,3,3.5,3.7,5.9l-6.9,1.4
					c-0.7-1.6-1.9-2.9-3.5-3.9c-1.6-1-3.5-1.2-5.8-0.7c-2,0.4-3.6,1.3-4.9,2.7c-1.3,1.3-2.1,3.1-2.5,5.1c-0.4,2.1-0.4,4.4,0.2,7
					c0.6,2.7,1.4,4.9,2.6,6.6c1.2,1.8,2.7,3,4.4,3.8c1.7,0.8,3.6,0.9,5.6,0.5c1.3-0.3,2.5-0.8,3.5-1.5c1-0.7,1.8-1.7,2.3-2.7
					c0.6-1.1,0.9-2.3,0.9-3.7l6.9-1.4c0.2,2.4-0.1,4.7-1,6.8c-0.9,2.1-2.3,3.9-4.3,5.4C371.1,108.6,368.7,109.7,365.8,110.3z
					 M388.2,82.2l4.5,21.7l-7.1,1.5l-10.1-48.7l7-1.5l3.8,18.1l0.5-0.1c0.4-2.1,1.4-4,3-5.5c1.5-1.5,3.7-2.6,6.5-3.2
					c2.5-0.5,4.8-0.5,6.9,0.2c2.1,0.6,3.9,1.9,5.3,3.7c1.5,1.8,2.5,4.2,3.2,7.3l4.8,23.2l-7.1,1.5l-4.6-22.4
					c-0.6-2.7-1.7-4.6-3.4-5.8c-1.7-1.2-3.8-1.6-6.2-1c-1.7,0.3-3.1,1-4.3,2c-1.2,1-2,2.2-2.5,3.8C387.8,78.6,387.8,80.3,388.2,82.2
					z"/>
			</g>
			<g>
				<defs>
					
						<rect id="SVGID_4_" x="54.5" y="103.2" transform="matrix(0.9791 -0.2034 0.2034 0.9791 -27.3472 22.4442)" width="82.1" height="82.1"/>
				</defs>
				<clipPath id="SVGID_5_">
					<use xlink:href="#SVGID_4_"  style="overflow:visible;"/>
				</clipPath>
				<g class="st4">
					<g>
						<path class="st5" d="M84.4,122.9l18,13.6c3.8,2.8,4.8,8,2.5,12.1l-11.1,19.6c-2.8,5-9.3,6.3-13.9,2.9l-18-13.6
							c-3.8-2.8-4.8-8-2.5-12.1l11.1-19.6C73.3,120.9,79.8,119.5,84.4,122.9z"/>
					</g>
					<g>
						<path class="st5" d="M92,118.6c0.9-1.1,2.5-1.3,3.6-0.5l20.3,15.7c3.7,2.8,4.7,7.9,2.5,12L106,168.3c-0.7,1.2-2.2,1.7-3.5,1
							c-1.2-0.7-1.7-2.2-1-3.5l12.4-22.5c0,0,0,0,0,0c1-1.8,0.5-4.2-1.1-5.4l0,0l-20.3-15.7C91.3,121.3,91.1,119.7,92,118.6z"/>
					</g>
					<g>
						<path class="st5" d="M105.4,115.8c0.9-1.1,2.5-1.3,3.6-0.5l20.3,15.7c3.7,2.8,4.7,7.9,2.5,12l-12.4,22.5
							c-0.7,1.2-2.2,1.7-3.5,1c-1.2-0.7-1.7-2.2-1-3.5l12.4-22.5l0,0c1-1.8,0.5-4.2-1.1-5.4l0,0l-20.3-15.7
							C104.7,118.5,104.5,116.9,105.4,115.8z"/>
					</g>
				</g>
			</g>
		</g>
	</g>
</g>
</svg>
