<?xml version="1.0" encoding="utf-8"?>
<!-- Generator: Adobe Illustrator 25.0.0, SVG Export Plug-In . SVG Version: 6.00 Build 0)  -->
<svg version="1.1" id="Layer_1" xmlns="http://www.w3.org/2000/svg" xmlns:xlink="http://www.w3.org/1999/xlink" x="0px" y="0px"
	 viewBox="0 0 448 215" style="enable-background:new 0 0 448 215;" xml:space="preserve">
<style type="text/css">
	.st0{clip-path:url(#SVGID_2_);}
	.st1{fill:#0088C2;}
	.st2{fill:url(#SVGID_3_);}
	.st3{fill:#B3E8FF;}
	.st4{clip-path:url(#SVGID_5_);}
</style>
<g>
	<g>
		<defs>
			<path id="SVGID_1_" d="M96.6,15.4L387.3,74c37,7.5,61,43.5,53.5,80.6l0,0c-7.5,37-43.5,61-80.6,53.5L69.5,149.5
				c-37-7.5-61-43.5-53.5-80.6l0,0C23.4,31.9,59.5,7.9,96.6,15.4z"/>
		</defs>
		<clipPath id="SVGID_2_">
			<use xlink:href="#SVGID_1_"  style="overflow:visible;"/>
		</clipPath>
		<g class="st0">
			<path class="st1" d="M96.6,15.4L387.3,74c37,7.5,61,43.5,53.5,80.6l0,0c-7.5,37-43.5,61-80.6,53.5L69.5,149.5
				c-37-7.5-61-43.5-53.5-80.6l0,0C23.4,31.9,59.5,7.9,96.6,15.4z"/>
			<g>
				
					<linearGradient id="SVGID_3_" gradientUnits="userSpaceOnUse" x1="217.1151" y1="497.2616" x2="364.7771" y2="253.13" gradientTransform="matrix(0.9803 0.1976 0.1976 -0.9803 -138.7356 401.8528)">
					<stop  offset="0" style="stop-color:#0093D3"/>
					<stop  offset="1" style="stop-color:#004C6D"/>
				</linearGradient>
				<path class="st2" d="M95.9,18.7l289.6,58.4c35.2,7.1,58,41.4,50.9,76.6l0,0c-7.1,35.2-41.4,58-76.6,50.9L70.2,146.1
					c-35.2-7.1-58-41.4-50.9-76.6l0,0C26.4,34.4,60.7,11.6,95.9,18.7z"/>
			</g>
			<g>
				<path class="st3" d="M175.2,96.5l-6.7-0.2c-0.1-0.9-0.4-1.8-0.8-2.6c-0.4-0.9-1.1-1.6-2-2.3c-0.9-0.7-2.1-1.2-3.5-1.5
					c-2-0.4-3.8-0.3-5.3,0.3c-1.5,0.6-2.4,1.6-2.7,3c-0.2,1.2,0,2.3,0.8,3.2c0.8,0.9,2.1,1.8,4,2.7l5.5,2.5c3.2,1.5,5.5,3.2,6.8,5.1
					c1.3,2,1.7,4.2,1.2,6.8c-0.4,2.2-1.5,4-3.1,5.5c-1.6,1.4-3.6,2.4-6.1,2.9c-2.4,0.5-5.1,0.5-8.1-0.1c-4.1-0.8-7.3-2.4-9.5-4.6
					c-2.2-2.3-3.3-5.1-3.3-8.5l7.1,0.3c0.1,1.9,0.7,3.4,1.8,4.6c1.2,1.2,2.8,2,4.9,2.4c2.3,0.5,4.3,0.4,5.9-0.3
					c1.6-0.7,2.5-1.8,2.8-3.2c0.2-1.1,0-2.2-0.7-3.1c-0.7-0.9-1.9-1.8-3.5-2.5l-5.9-2.6c-3.3-1.5-5.5-3.2-6.8-5.2
					c-1.3-2-1.7-4.3-1.1-6.9c0.4-2.2,1.4-3.9,3-5.3c1.5-1.4,3.5-2.3,5.8-2.8c2.3-0.5,4.8-0.5,7.6,0.1c4,0.8,6.9,2.3,8.8,4.5
					C174,90.9,175,93.5,175.2,96.5z M199.9,92.2l-1.2,5.7l-20-4l1.2-5.7L199.9,92.2z M187,80.5l7.1,1.4l-7,34.6
					c-0.3,1.4-0.3,2.5,0,3.2c0.3,0.8,0.7,1.3,1.3,1.7c0.6,0.4,1.3,0.6,2.1,0.8c0.6,0.1,1.1,0.2,1.5,0.2c0.4,0,0.8,0,1,0l0.1,6.1
					c-0.4,0.1-1.1,0.1-1.9,0.1c-0.8,0-1.8-0.1-2.9-0.3c-1.9-0.3-3.6-1-5-2.1c-1.5-1-2.6-2.4-3.3-4c-0.7-1.7-0.8-3.6-0.4-5.8
					L187,80.5z M197.7,129.8l7.4-36.6l6.9,1.4l-1.2,5.8l0.4,0.1c1.1-1.8,2.6-3.1,4.5-3.9c1.9-0.8,4-1,6.1-0.6c0.4,0.1,1,0.2,1.6,0.4
					c0.6,0.2,1.1,0.3,1.4,0.4l-1.4,6.8c-0.3-0.1-0.8-0.3-1.5-0.6c-0.7-0.3-1.4-0.5-2.2-0.6c-1.7-0.3-3.3-0.3-4.7,0.2
					c-1.4,0.4-2.7,1.2-3.7,2.3c-1,1.1-1.7,2.4-2,4l-4.5,22.3L197.7,129.8z M230.9,137.4c-2.3-0.5-4.3-1.3-6-2.6
					c-1.7-1.3-2.9-2.8-3.7-4.7c-0.7-1.9-0.9-4-0.4-6.4c0.4-2.1,1.2-3.7,2.2-4.9c1.1-1.2,2.3-2,3.9-2.5c1.5-0.5,3.1-0.8,4.9-0.8
					c1.7-0.1,3.5,0,5.3,0.1c2.2,0.2,4.1,0.3,5.5,0.5c1.4,0.1,2.4,0,3.1-0.2c0.7-0.3,1.1-0.8,1.3-1.7l0-0.2c0.4-2.1,0.2-3.8-0.8-5.2
					c-0.9-1.4-2.5-2.3-4.8-2.8c-2.4-0.5-4.4-0.3-6,0.5c-1.6,0.8-2.8,1.7-3.5,2.9l-6.4-2.9c1.2-2.1,2.8-3.6,4.6-4.7
					c1.8-1.1,3.8-1.7,5.9-1.9c2.1-0.2,4.3-0.1,6.5,0.3c1.5,0.3,3,0.8,4.5,1.5c1.6,0.7,3,1.6,4.2,2.8c1.3,1.2,2.2,2.7,2.8,4.6
					c0.6,1.9,0.6,4.1,0.1,6.8l-4.9,24.3l-7-1.4l1-5l-0.3-0.1c-0.6,0.8-1.5,1.6-2.6,2.3c-1.1,0.7-2.4,1.2-4,1.5
					C234.7,137.8,232.9,137.8,230.9,137.4z M233.6,132c2,0.4,3.7,0.3,5.3-0.1c1.6-0.5,2.8-1.3,3.8-2.4c1-1.1,1.6-2.4,1.9-3.8
					l0.9-4.7c-0.3,0.2-0.8,0.3-1.6,0.4c-0.8,0.1-1.6,0.1-2.6,0.1c-0.9,0-1.9-0.1-2.8-0.1c-0.9-0.1-1.6-0.1-2.2-0.2
					c-1.4-0.1-2.7-0.1-4,0.1c-1.2,0.2-2.2,0.6-3.1,1.2c-0.8,0.6-1.4,1.6-1.6,2.8c-0.4,1.8,0,3.2,1.1,4.4
					C230,130.8,231.6,131.6,233.6,132z M280.4,108.4l-1.2,5.7l-20-4l1.2-5.7L280.4,108.4z M267.5,96.7l7.1,1.4l-7,34.6
					c-0.3,1.4-0.3,2.5,0,3.2c0.3,0.8,0.7,1.3,1.3,1.7c0.6,0.4,1.3,0.6,2.1,0.8c0.6,0.1,1.1,0.2,1.5,0.2c0.4,0,0.8,0,1,0l0.1,6.1
					c-0.4,0.1-1.1,0.1-1.9,0.1c-0.8,0-1.8-0.1-2.9-0.3c-1.9-0.3-3.6-1-5-2.1c-1.5-1-2.6-2.4-3.3-4c-0.7-1.7-0.8-3.6-0.4-5.8
					L267.5,96.7z M293.4,149.9c-3.6-0.7-6.6-2.1-8.8-4.2c-2.3-2.1-3.8-4.7-4.7-7.8c-0.8-3.1-0.9-6.6-0.1-10.4
					c0.8-3.7,2.1-6.9,4.1-9.5c2-2.6,4.4-4.4,7.3-5.5c2.9-1.1,6-1.3,9.4-0.6c2.1,0.4,4,1.2,5.8,2.2c1.8,1.1,3.3,2.5,4.6,4.3
					c1.2,1.8,2.1,3.9,2.5,6.4c0.4,2.5,0.3,5.4-0.4,8.7l-0.5,2.5l-29.1-5.9l1.1-5.3l22.1,4.5c0.4-1.9,0.3-3.6-0.1-5.2
					c-0.5-1.6-1.3-3-2.5-4.1c-1.2-1.1-2.7-1.9-4.6-2.2c-2-0.4-3.8-0.3-5.5,0.4c-1.7,0.7-3.1,1.7-4.2,3.1c-1.1,1.4-1.8,3-2.2,4.8
					l-0.8,4.2c-0.5,2.4-0.5,4.6,0,6.5c0.5,1.9,1.5,3.4,2.9,4.7c1.4,1.2,3.1,2,5.2,2.4c1.3,0.3,2.6,0.3,3.8,0.2
					c1.2-0.2,2.3-0.6,3.2-1.2c1-0.6,1.8-1.4,2.4-2.5l6.5,2.6c-0.9,1.9-2.3,3.4-4,4.6c-1.7,1.2-3.6,2-5.9,2.4
					C298.6,150.5,296.1,150.4,293.4,149.9z M326.9,170.9c-2.9-0.6-5.3-1.5-7.3-2.7c-1.9-1.2-3.4-2.5-4.5-4.1
					c-1.1-1.5-1.8-3.1-2.1-4.7l6.6-1.3c0.3,0.8,0.7,1.6,1.3,2.6c0.6,0.9,1.4,1.8,2.5,2.6c1.1,0.8,2.7,1.4,4.7,1.8
					c2.7,0.5,5.1,0.3,7.1-0.6c2-0.9,3.3-2.8,3.9-5.7l1.5-7.2l-0.5-0.1c-0.6,0.7-1.4,1.4-2.4,2.2c-1,0.8-2.2,1.4-3.8,1.8
					c-1.5,0.4-3.4,0.4-5.7-0.1c-2.9-0.6-5.4-1.8-7.4-3.6c-2-1.8-3.4-4.2-4.3-7.1c-0.8-2.9-0.8-6.3,0-10.2c0.8-3.9,2.1-7.1,4-9.6
					c1.9-2.5,4.1-4.3,6.8-5.3c2.6-1,5.4-1.2,8.3-0.6c2.3,0.5,4,1.2,5.3,2.3c1.2,1,2.2,2.1,2.7,3.3c0.6,1.2,1,2.2,1.3,3l0.5,0.1
					l1.2-5.9l7,1.4l-7.5,37.4c-0.6,3.1-1.9,5.6-3.8,7.3c-1.9,1.7-4.1,2.8-6.8,3.3C332.9,171.6,330,171.6,326.9,170.9z M331.1,150
					c2,0.4,3.9,0.3,5.5-0.4c1.6-0.7,3-1.8,4.1-3.5c1.1-1.7,1.9-3.8,2.4-6.3c0.5-2.5,0.6-4.7,0.2-6.7c-0.4-2-1.1-3.7-2.3-5
					c-1.2-1.3-2.8-2.2-4.9-2.7c-2.1-0.4-4-0.2-5.7,0.6c-1.6,0.8-3,2.1-4.1,3.8c-1.1,1.7-1.9,3.8-2.3,6.1c-0.5,2.4-0.5,4.6-0.2,6.5
					c0.4,2,1.2,3.6,2.4,4.9C327.3,148.7,328.9,149.6,331.1,150z M354.9,175.8c-1.1-0.2-2-0.5-2.9-0.8c-0.8-0.3-1.5-0.6-1.8-0.9
					l2.9-5.5c1.2,0.6,2.4,1,3.4,1.2c1,0.2,2,0,2.9-0.6c0.9-0.6,1.9-1.6,2.8-3.1l1.4-2.3l-5.9-39.8l7.6,1.5l3.5,30.3l0.4,0.1l15-26.5
					l7.6,1.5l-23.4,38.4c-1.1,1.8-2.3,3.2-3.6,4.3c-1.3,1.1-2.8,1.9-4.5,2.2C358.7,176.2,356.9,176.2,354.9,175.8z"/>
			</g>
			<g>
				<defs>
					
						<rect id="SVGID_4_" x="42" y="41.4" transform="matrix(0.1976 -0.9803 0.9803 0.1976 -14.1783 147.539)" width="82.1" height="82.1"/>
				</defs>
				<clipPath id="SVGID_5_">
					<use xlink:href="#SVGID_4_"  style="overflow:visible;"/>
				</clipPath>
				<g class="st4">
					<g>
						<path class="st3" d="M111.9,60.3c2.7,0.5,5,2.1,6.5,4.4c1.5,2.3,2,5,1.5,7.7l-2.7,13.4c-0.2,0.9-0.7,1.7-1.5,2.2
							c-0.8,0.5-1.7,0.7-2.6,0.5c-0.9-0.2-1.7-0.7-2.2-1.5c-0.5-0.8-0.7-1.7-0.5-2.6l2.7-13.4c0.2-0.9,0-1.8-0.5-2.6
							c-0.5-0.8-1.3-1.3-2.2-1.5l-46.9-9.5c-0.9-0.2-1.8,0-2.6,0.5c-0.8,0.5-1.3,1.3-1.5,2.2l-6.8,33.5c-0.2,0.9,0,1.8,0.5,2.6
							c0.5,0.8,1.3,1.3,2.2,1.5l20.1,4.1c0.9,0.2,1.7,0.7,2.2,1.5c0.5,0.8,0.7,1.7,0.5,2.6s-0.7,1.7-1.5,2.2
							c-0.8,0.5-1.7,0.7-2.6,0.5l-20.1-4.1c-2.7-0.5-5-2.1-6.5-4.4c-1.5-2.3-2-5-1.5-7.7l6.8-33.5c0.5-2.7,2.1-5,4.4-6.5
							c2.3-1.5,5-2.1,7.7-1.5L111.9,60.3z"/>
					</g>
					<g>
						<path class="st3" d="M109.2,91.2c1.8,0.4,3.3,1.4,4.3,2.9c1,1.5,1.4,3.4,1,5.1l-2,10.1c-0.4,1.8-1.4,3.3-2.9,4.3
							c-1.5,1-3.4,1.4-5.1,1l-16.8-3.4c-1.8-0.4-3.3-1.4-4.3-2.9c-1-1.5-1.4-3.4-1-5.1l2-10.1c0.4-1.8,1.4-3.3,2.9-4.3
							c1.5-1,3.4-1.4,5.1-1L109.2,91.2z"/>
					</g>
				</g>
			</g>
		</g>
	</g>
</g>
</svg>
