<?xml version="1.0" encoding="utf-8"?>
<!-- Generator: Adobe Illustrator 25.0.0, SVG Export Plug-In . SVG Version: 6.00 Build 0)  -->
<svg version="1.1" id="Layer_1" xmlns="http://www.w3.org/2000/svg" xmlns:xlink="http://www.w3.org/1999/xlink" x="0px" y="0px"
	 viewBox="0 0 290 182" style="enable-background:new 0 0 290 182;" xml:space="preserve">
<style type="text/css">
	.st0{clip-path:url(#SVGID_2_);}
	.st1{fill:#B7389B;}
	.st2{fill:url(#SVGID_3_);}
	.st3{fill:#FF96E8;}
	.st4{clip-path:url(#SVGID_5_);}
	.st5{fill-rule:evenodd;clip-rule:evenodd;fill:#FF96E8;}
</style>
<g>
	<g>
		<defs>
			<path id="SVGID_1_" d="M61.5,35.4l142.9-24.8C241.6,4.1,277,29,283.5,66.3v0c6.5,37.2-18.5,72.6-55.7,79.1L85,170.2
				c-37.2,6.5-72.6-18.5-79.1-55.7l0,0C-0.6,77.3,24.3,41.9,61.5,35.4z"/>
		</defs>
		<clipPath id="SVGID_2_">
			<use xlink:href="#SVGID_1_"  style="overflow:visible;"/>
		</clipPath>
		<g class="st0">
			<path class="st1" d="M61.5,35.4l142.9-24.8C241.6,4.1,277,29,283.5,66.3v0c6.5,37.2-18.5,72.6-55.7,79.1L85,170.2
				c-37.2,6.5-72.6-18.5-79.1-55.7l0,0C-0.6,77.3,24.3,41.9,61.5,35.4z"/>
			<g>
				
					<linearGradient id="SVGID_3_" gradientUnits="userSpaceOnUse" x1="27.2121" y1="257.077" x2="131.2196" y2="96.3823" gradientTransform="matrix(0.9852 -0.1713 -0.1713 -0.9852 101.2795 283.4647)">
					<stop  offset="0" style="stop-color:#470B3A"/>
					<stop  offset="1" style="stop-color:#99167D"/>
				</linearGradient>
				<path class="st2" d="M62.1,38.8l141.8-24.7C239.3,8,273,31.7,279.1,67l0,0c6.1,35.4-17.5,69-52.9,75.2L84.4,166.9
					C49,173,15.4,149.3,9.2,114l0,0C3.1,78.6,26.8,45,62.1,38.8z"/>
			</g>
			<g>
				<path class="st3" d="M173,92.1l-3.7-21.5l7.2-1.2l6.4,36.8l-7,1.2l-1.1-6.4l-0.4,0.1c-0.5,2.1-1.6,4-3.2,5.6
					c-1.6,1.6-3.8,2.7-6.6,3.1c-2.4,0.4-4.5,0.3-6.5-0.5c-2-0.7-3.7-2-5.1-3.9c-1.4-1.9-2.3-4.3-2.9-7.4l-4.1-23.4l7.2-1.2L157,96
					c0.4,2.5,1.5,4.4,3.1,5.6c1.6,1.2,3.6,1.7,5.8,1.3c1.3-0.2,2.6-0.8,3.8-1.7c1.2-0.9,2.2-2.1,2.8-3.6
					C173.2,96,173.3,94.2,173,92.1z M189,67.2l10.6,12.9l5.7-15.7l7.8-1.4l-8.3,20.4l14.8,16.4l-7.8,1.4l-10.7-12.3l-5.9,15.2
					l-7.8,1.4l8.2-20.4l-14.5-16.4L189,67.2z"/>
			</g>
			<g>
				<defs>
					
						<rect id="SVGID_4_" x="42.4" y="61" transform="matrix(0.9852 -0.1713 0.1713 0.9852 -16.2441 15.8087)" width="82.1" height="82.1"/>
				</defs>
				<clipPath id="SVGID_5_">
					<use xlink:href="#SVGID_4_"  style="overflow:visible;"/>
				</clipPath>
				<g class="st4">
					<g>
						<path class="st5" d="M77.3,66.6c0.7-0.1,1.4,0,1.9,0.4c0.6,0.4,0.9,1,1.1,1.7l1.3,7.6c0.1,0.7,0,1.4-0.4,1.9
							c-0.4,0.6-1,0.9-1.7,1.1c-0.7,0.1-1.4,0-1.9-0.4c-0.6-0.4-0.9-1-1.1-1.7l-1.3-7.6c-0.1-0.7,0-1.4,0.4-1.9
							C76.1,67.1,76.7,66.8,77.3,66.6z M57.4,79.2c0.4-0.6,1-0.9,1.7-1c0.7-0.1,1.4,0,1.9,0.4l6.3,4.4c0.5,0.4,0.9,1,1,1.7
							c0.1,0.7,0,1.3-0.4,1.9c-0.4,0.5-1,0.9-1.6,1c-0.7,0.1-1.3,0-1.9-0.4L58,82.8c-0.3-0.2-0.5-0.4-0.7-0.7
							c-0.2-0.3-0.3-0.6-0.4-0.9c-0.1-0.3,0-0.7,0-1C57.1,79.8,57.2,79.5,57.4,79.2z M100.3,71.8c0.6,0.4,0.9,1,1.1,1.7
							c0.1,0.7,0,1.4-0.4,1.9l-4.4,6.3c-0.4,0.5-1,0.9-1.7,1c-0.7,0.1-1.3,0-1.9-0.4c-0.6-0.4-0.9-1-1-1.6c-0.1-0.7,0-1.3,0.4-1.9
							l4.4-6.3c0.2-0.3,0.4-0.5,0.7-0.7c0.3-0.2,0.6-0.3,0.9-0.4c0.3-0.1,0.7,0,1,0C99.7,71.5,100,71.6,100.3,71.8z M80,90.9
							c0.5-0.2,1-0.3,1.6-0.2c0.5,0.1,1,0.4,1.4,0.8l22.3,23.6c0.3,0.4,0.6,0.8,0.7,1.3c0.1,0.5,0,1-0.2,1.5c-0.2,0.5-0.5,0.9-1,1.1
							c-0.4,0.3-0.9,0.4-1.4,0.4l-7.3-0.2l5.8,12.5c0.3,0.6,0.3,1.3,0.1,2c-0.2,0.6-0.7,1.2-1.3,1.4c-0.6,0.3-1.3,0.3-2,0.1
							s-1.2-0.7-1.4-1.3l-5.8-12.5l-4.6,5.7c-0.3,0.4-0.7,0.7-1.2,0.8c-0.5,0.2-1,0.2-1.5,0c-0.5-0.1-0.9-0.4-1.3-0.8
							c-0.3-0.4-0.5-0.9-0.6-1.4l-3.6-32.2c-0.1-0.5,0-1.1,0.3-1.5C79.1,91.5,79.5,91.2,80,90.9L80,90.9z M52.3,102.2
							c-0.1-0.7,0-1.4,0.4-1.9c0.4-0.6,1-0.9,1.7-1.1l7.6-1.3c0.7-0.1,1.4,0,1.9,0.4c0.6,0.4,0.9,1,1.1,1.7c0.1,0.7,0,1.4-0.4,1.9
							c-0.4,0.6-1,0.9-1.7,1.1l-7.6,1.3c-0.7,0.1-1.4,0-1.9-0.4C52.8,103.5,52.4,102.9,52.3,102.2z M100.3,93.9
							c-0.1-0.7,0-1.4,0.4-1.9c0.4-0.6,1-0.9,1.7-1.1l7.6-1.3c0.7-0.1,1.4,0,1.9,0.4c0.6,0.4,0.9,1,1.1,1.7c0.1,0.7,0,1.4-0.4,1.9
							c-0.4,0.6-1,0.9-1.7,1.1l-7.6,1.3c-0.7,0.1-1.4,0-1.9-0.4C100.8,95.2,100.4,94.6,100.3,93.9z M72.3,111.6
							c0.3,0.2,0.5,0.4,0.7,0.7c0.2,0.3,0.3,0.6,0.4,0.9c0.1,0.3,0,0.7,0,1c-0.1,0.3-0.2,0.6-0.4,0.9l-4.4,6.3
							c-0.2,0.3-0.4,0.5-0.7,0.7c-0.3,0.2-0.6,0.3-0.9,0.4c-0.3,0.1-0.7,0.1-1,0c-0.3-0.1-0.6-0.2-0.9-0.4c-0.3-0.2-0.5-0.4-0.7-0.7
							c-0.2-0.3-0.3-0.6-0.4-0.9c-0.1-0.3,0-0.7,0-1c0.1-0.3,0.2-0.6,0.4-0.9l4.4-6.3c0.4-0.6,1-0.9,1.7-1.1
							C71,111.1,71.7,111.3,72.3,111.6L72.3,111.6z"/>
					</g>
				</g>
			</g>
		</g>
	</g>
</g>
</svg>
