<svg width="181" height="129" viewBox="0 0 181 129" fill="none" xmlns="http://www.w3.org/2000/svg">
<path d="M9.5 68.5C9.5 68.5 33.348 80.8873 47.0715 63.4008C47.0715 63.4008 55.3804 -4.67141 125.669 0.949234C188.049 5.94536 190.544 72.144 165.592 102.121C140.641 132.098 78 135.5 57 95.5C57 95.5 16.5 102.121 9.5 68.5Z" stroke="white" stroke-miterlimit="10"/>
<path d="M81.9779 55.6525C83.2443 55.3548 84.6182 55.0131 86.0996 54.6273C87.573 54.1857 89.0624 53.8557 90.5678 53.6372C92.0175 53.4268 93.4036 53.368 94.726 53.4607C96.0485 53.5534 97.2676 53.9173 98.3833 54.5524C98.5269 54.7593 98.5828 54.9504 98.5511 55.1258C98.5113 55.2455 98.5592 55.3809 98.6948 55.532C97.8982 55.5337 96.8148 55.5202 95.4446 55.4913C94.1221 55.3986 92.8516 55.4691 91.6329 55.7029C89.9445 56.2327 88.3079 56.7264 86.723 57.1841C85.1301 57.5861 83.5333 58.1595 81.9327 58.9041C81.7519 62.0047 81.6588 65.1209 81.6532 68.2529C81.7035 71.3769 81.7259 74.5048 81.7204 77.6368C81.9049 79.318 82.0497 81.1188 82.1548 83.0392C82.2518 84.9038 82.4564 86.7244 82.7685 88.5009C82.9127 89.5047 83.0608 90.5364 83.213 91.596C83.3572 92.5999 83.5572 93.5956 83.8128 94.5833C84.0685 95.5709 84.4277 96.4866 84.8904 97.3303C85.3531 98.1741 85.9671 98.882 86.7323 99.4541C87.0271 99.5252 87.2381 99.4092 87.3653 99.1061C87.5483 98.7948 87.7952 98.7305 88.106 98.9132C88.2656 99.2316 88.2898 99.5981 88.1786 100.013C88.1231 100.419 87.9999 100.75 87.8089 101.006C87.2116 101.206 86.7457 101.331 86.4112 101.379C86.0846 101.484 85.6067 101.525 84.9774 101.502C83.8696 100.923 83.0126 100.108 82.4064 99.0572C81.7363 97.9589 81.2216 96.7527 80.8621 95.4385C80.4945 94.0686 80.2107 92.6865 80.0104 91.2923C79.8022 89.8423 79.582 88.5079 79.3501 87.2891C78.9563 82.9625 78.6661 78.564 78.4793 74.0936C78.2369 69.6312 78.2611 65.0447 78.5522 60.3342C77.0868 60.8315 75.4822 61.5483 73.7383 62.4846C71.9865 63.3651 70.2147 64.3054 68.4232 65.3055C68.0011 65.5376 67.5512 65.7737 67.0734 66.0138C66.5399 66.262 66.1019 66.3825 65.7593 66.3753C65.361 66.3762 64.9068 66.1859 64.3967 65.8045C63.8865 65.4231 63.6512 64.9734 63.6906 64.4552C64.3433 63.8481 65.1236 63.3364 66.0314 62.92C66.8835 62.5116 67.7355 62.1033 68.5876 61.695C69.4156 61.1194 70.2677 60.711 71.1438 60.47C72.0118 60.1732 72.832 59.7411 73.6043 59.1735C74.5361 58.9244 75.3723 58.6038 76.1129 58.2117C76.8534 57.8195 77.6856 57.471 78.6094 57.1662C78.7444 56.5203 78.7756 55.7472 78.7032 54.8468C78.6228 53.8907 78.6061 52.9822 78.6533 52.1214C78.7004 51.2606 78.8512 50.5271 79.1056 49.9208C79.4078 49.2507 80.013 48.9067 80.9211 48.8888C81.5745 49.0786 81.9691 49.4483 82.1049 49.9979C82.2965 50.5394 82.3806 51.125 82.3572 51.7546C82.3338 52.3842 82.2587 53.0499 82.1318 53.7515C82.0049 54.453 81.9536 55.0867 81.9779 55.6525ZM89.2406 54.4276C89.2887 54.7622 89.3925 55.0888 89.552 55.4072C89.7116 55.7256 89.7755 55.9725 89.7438 56.1479C89.8316 56.3629 89.7919 56.4825 89.6246 56.5068C89.4573 56.5311 89.3538 56.603 89.3141 56.7227C89.3486 60.1335 89.1241 63.3258 88.6405 66.2995C88.2127 69.265 87.9084 72.2981 87.7276 75.3986C87.9423 74.912 88.2047 74.3615 88.5149 73.7472C88.8171 73.0771 89.1831 72.4547 89.6128 71.8799C90.0345 71.2494 90.5001 70.7264 91.0096 70.3108C91.5669 69.8314 92.18 69.5432 92.8491 69.4461C93.5182 69.349 94.3069 69.4907 95.2154 69.8712C95.5025 70.285 95.7617 70.7028 95.9931 71.1247C96.2802 71.5385 96.4917 72.0202 96.6275 72.5698C96.8752 73.5016 97.099 74.4654 97.2989 75.4612C97.5546 76.4488 98.0093 77.2368 98.663 77.8251C99.2046 77.6326 99.6545 77.3966 100.013 77.1168C100.419 76.7733 100.765 76.4099 101.051 76.0267C101.394 75.6355 101.708 75.2482 101.995 74.8651C102.281 74.4819 102.631 74.1464 103.045 73.8586C104.096 72.4537 105.206 71.0685 106.376 69.7032C106.448 69.8066 106.515 69.8822 106.579 69.9298C106.635 69.9218 106.727 69.9654 106.854 70.0607C106.807 70.5231 106.636 70.9179 106.341 71.2453C106.102 71.5646 106.182 71.9231 106.581 72.3207C106.47 72.7353 106.235 73.0825 105.877 73.3622C105.574 73.6339 105.511 73.9847 105.686 74.4146C105.575 74.4308 105.495 74.4708 105.448 74.5347C105.4 74.5986 105.312 74.5828 105.185 74.4875C104.724 75.6361 104.067 76.6138 103.215 77.4206C102.364 78.2274 101.476 78.9824 100.552 79.6858C99.9311 79.719 99.3457 79.804 98.7961 79.9407C98.2943 80.0135 97.7127 79.9272 97.0513 79.6816C95.9753 78.9268 95.2176 77.8128 94.7783 76.3394C94.339 74.866 93.8719 73.3967 93.3768 71.9314C92.5808 72.7301 91.9164 73.652 91.3835 74.6972C90.8426 75.6866 90.3694 76.7516 89.964 77.8921C89.6064 78.9688 89.2847 80.0972 88.9988 81.2773C88.713 82.4574 88.3673 83.6177 87.962 84.7582C87.5877 84.9264 87.4086 85.0663 87.4246 85.1778C86.7712 84.988 86.3051 84.9133 86.0263 84.9538C85.6838 84.9465 85.2057 84.7882 84.5921 84.4788C84.6158 84.2476 84.536 84.0884 84.3527 84.0011C84.1598 81.8657 84.1661 79.7299 84.3716 77.5936C84.5212 75.4655 84.8025 73.4605 85.2152 71.5788C85.2858 70.0884 85.3962 68.6775 85.5465 67.3463C85.7526 66.007 85.9307 64.6717 86.0811 63.3405C86.2234 61.9535 86.3059 60.5467 86.3287 59.1201C86.4072 57.6854 86.3861 56.1513 86.2653 54.5179C86.6316 54.2939 87.1294 54.1932 87.7587 54.2157C88.3881 54.2382 88.882 54.3089 89.2406 54.4276ZM89.2137 80.9899L89.4646 80.9535L89.5006 81.2044L89.2497 81.2409L89.2137 80.9899ZM106.547 75.9122C106.588 76.5896 106.787 77.1868 107.146 77.704C107.561 78.2132 108.011 78.5748 108.497 78.7889C109.111 78.6999 109.6 78.5434 109.967 78.3194C110.325 78.0397 110.623 77.7402 110.862 77.4209C111.149 77.0377 111.407 76.6586 111.638 76.2835C111.869 75.9085 112.131 75.5572 112.426 75.2298C112.88 75.2209 113.35 75.3234 113.836 75.5375C113.821 76.6214 113.567 77.6261 113.074 78.5517C112.628 79.4134 111.864 80.0367 110.781 80.4216C109.132 80.8317 107.754 80.747 106.646 80.1677C105.53 79.5326 104.657 78.6061 104.027 77.3882C103.475 74.7355 103.597 72.4122 104.392 70.4181C105.179 68.3682 106.317 66.5805 107.805 65.0551C108.434 64.6791 109.028 64.4507 109.585 64.3698C110.366 64.2565 111.063 64.3545 111.677 64.664C112.338 64.9096 112.852 65.3189 113.219 65.8919C113.235 66.0034 113.195 66.123 113.1 66.2508C113.052 66.3146 113.084 66.3385 113.195 66.3223C112.234 69.9346 110.349 73.0548 107.539 75.6829C107.372 75.7072 107.208 75.7594 107.049 75.8394C106.946 75.9114 106.778 75.9356 106.547 75.9122ZM106.617 72.8279C108.328 70.8716 109.621 68.7768 110.495 66.5434C109.308 67.0003 108.465 67.8628 107.964 69.1311C107.455 70.3436 107.006 71.5758 106.617 72.8279ZM127.981 64.2617C127.719 64.4137 127.416 64.4861 127.073 64.4788C126.779 64.4078 126.464 64.3965 126.129 64.4451C126.074 64.4532 126.022 64.4891 125.974 64.553C125.974 64.553 125.946 64.557 125.891 64.5651L125.341 64.9011C125.285 64.9092 125.234 64.9451 125.186 65.009C125.186 65.009 125.158 65.013 125.102 65.0211C123.383 66.9217 122.106 69.128 121.272 71.6402C120.437 74.1525 119.826 76.8315 119.438 79.6775C119.231 79.8214 119.084 79.9851 118.996 80.1686C118.956 80.2882 118.829 80.3921 118.614 80.4802C118.152 80.4334 117.766 80.3187 117.455 80.1361C117.144 79.9535 116.809 79.8028 116.451 79.6841C116.003 77.7565 115.786 75.8522 115.801 73.9714C115.76 72.0987 115.746 70.2219 115.761 68.3411C115.585 67.9111 115.429 67.4213 115.293 66.8717C115.15 66.2664 115.109 65.7883 115.173 65.4375C115.436 65.2855 115.647 65.1695 115.806 65.0894C115.901 64.9617 116.084 64.8497 116.355 64.7535C117.088 64.7041 117.598 64.8863 117.885 65.3C118.172 65.7138 118.332 66.2315 118.364 66.853C118.452 67.4665 118.461 68.12 118.39 68.8135C118.374 69.4989 118.407 70.1204 118.487 70.6781C118.932 69.8164 119.35 68.9588 119.739 68.1052C120.121 67.1958 120.567 66.3341 121.076 65.5201C121.641 64.698 122.309 64.0032 123.082 63.4357C123.854 62.8681 124.825 62.4994 125.996 62.3295C126.435 62.6074 126.945 62.7896 127.526 62.876C127.718 63.019 127.865 63.2538 127.969 63.5803C128.073 63.9068 128.077 64.1339 127.981 64.2617ZM128.681 72.6998C128.721 73.3771 128.921 73.9744 129.28 74.4916C129.695 75.0007 130.145 75.3623 130.631 75.5764C131.244 75.4874 131.734 75.3309 132.1 75.107C132.459 74.8273 132.757 74.5278 132.996 74.2085C133.282 73.8253 133.541 73.4462 133.772 73.0711C134.002 72.696 134.265 72.3448 134.56 72.0174C135.014 72.0084 135.484 72.111 135.97 72.3251C135.955 73.409 135.701 74.4137 135.207 75.3392C134.762 76.2009 133.998 76.8242 132.915 77.2091C131.266 77.6192 129.888 77.5346 128.78 76.9553C127.664 76.3202 126.791 75.3936 126.161 74.1757C125.609 71.5231 125.731 69.1997 126.526 67.2056C127.313 65.1557 128.451 63.3681 129.939 61.8426C130.568 61.4667 131.162 61.2382 131.719 61.1573C132.5 61.044 133.197 61.1421 133.81 61.4515C134.472 61.6971 134.986 62.1064 135.353 62.6794C135.369 62.791 135.329 62.9106 135.234 63.0383C135.186 63.1022 135.218 63.126 135.329 63.1098C134.368 66.7221 132.483 69.8423 129.673 72.4705C129.505 72.4947 129.342 72.5469 129.183 72.627C129.079 72.6989 128.912 72.7232 128.681 72.6998ZM128.75 69.6155C130.462 67.6592 131.754 65.5643 132.629 63.331C131.442 63.7878 130.599 64.6504 130.098 65.9186C129.589 67.1311 129.14 68.3634 128.75 69.6155ZM141.484 40.1843C142.097 40.0953 142.599 40.2217 142.989 40.5635C143.372 40.8496 143.755 41.1356 144.137 41.4217C144.387 44.7444 144.457 48.207 144.348 51.8094C144.288 55.348 144.553 58.9814 145.146 62.7098C145.074 63.0049 144.999 63.272 144.919 63.5113C144.888 63.6867 144.864 63.9178 144.848 64.2048C144.506 64.1976 144.251 64.2061 144.083 64.2304C143.972 64.2466 143.741 64.2232 143.39 64.1602C142.633 62.8469 142.173 61.4333 142.013 59.9195C141.852 58.4056 141.748 56.8837 141.699 55.3537C141.674 54.3894 141.645 53.3973 141.613 52.3773C141.572 51.3015 141.535 50.2536 141.503 49.2336C141.454 48.102 141.437 46.9943 141.452 45.9104C141.467 44.8265 141.407 43.8106 141.271 42.8625C141.214 42.4721 141.075 42.0939 140.851 41.7278C140.676 41.2978 140.791 40.911 141.197 40.5674C141.173 40.4001 141.268 40.2724 141.484 40.1843ZM146.254 73.9922C145.896 74.2719 145.521 74.4401 145.131 74.4967C144.072 74.6505 143.323 74.1899 142.884 73.115C143.003 72.7561 143.126 72.4251 143.253 72.122C143.436 71.8108 143.619 71.4995 143.802 71.1883C144.606 70.8439 145.26 71.0337 145.762 71.7578C146.257 72.4262 146.421 73.1709 146.254 73.9922Z" fill="white"/>
<path d="M108.06 27.5283C108.108 27.8629 108.212 28.1894 108.372 28.5079C108.531 28.8263 108.595 29.0732 108.563 29.2486C108.651 29.4636 108.611 29.5832 108.444 29.6075C108.277 29.6318 108.173 29.7037 108.134 29.8233C108.168 33.2342 107.944 36.4265 107.46 39.4001C107.032 42.3657 106.728 45.3988 106.547 48.4993C106.762 48.0127 107.024 47.4622 107.334 46.8479C107.637 46.1778 108.003 45.5553 108.432 44.9806C108.854 44.3501 109.32 43.827 109.829 43.4115C110.386 42.9321 111 42.6439 111.669 42.5468C112.338 42.4496 113.126 42.5914 114.035 42.9719C114.322 43.3857 114.581 43.8035 114.813 44.2254C115.1 44.6391 115.311 45.1208 115.447 45.6704C115.695 46.6023 115.919 47.5661 116.118 48.5619C116.374 49.5495 116.829 50.3375 117.483 50.9258C118.024 50.7333 118.474 50.4972 118.832 50.2175C119.238 49.8739 119.584 49.5105 119.871 49.1274C120.213 48.7361 120.528 48.3489 120.814 47.9657C121.101 47.5826 121.451 47.2471 121.865 46.9593C122.915 45.5543 124.025 44.1692 125.195 42.8038C125.267 42.9073 125.335 42.9828 125.399 43.0305C125.454 43.0224 125.546 43.0661 125.674 43.1614C125.626 43.6237 125.455 44.0186 125.161 44.346C124.922 44.6653 125.002 45.0238 125.401 45.4213C125.289 45.836 125.055 46.1832 124.696 46.4629C124.394 46.7345 124.33 47.0853 124.506 47.5153C124.394 47.5315 124.315 47.5715 124.267 47.6354C124.219 47.6992 124.132 47.6835 124.004 47.5881C123.543 48.7368 122.887 49.7145 122.035 50.5213C121.183 51.328 120.295 52.0831 119.372 52.7865C118.751 52.8197 118.165 52.9047 117.616 53.0414C117.114 53.1142 116.532 53.0278 115.871 52.7822C114.795 52.0275 114.037 50.9135 113.598 49.4401C113.159 47.9667 112.691 46.4974 112.196 45.0321C111.4 45.8308 110.736 46.7527 110.203 47.7979C109.662 48.7873 109.189 49.8522 108.784 50.9928C108.426 52.0694 108.104 53.1978 107.818 54.3779C107.532 55.558 107.187 56.7184 106.781 57.8589C106.407 58.0271 106.228 58.1669 106.244 58.2785C105.591 58.0886 105.125 58.014 104.846 58.0544C104.503 58.0472 104.025 57.8889 103.412 57.5794C103.435 57.3483 103.356 57.189 103.172 57.1018C102.979 54.9664 102.986 52.8306 103.191 50.6943C103.341 48.5661 103.622 46.5612 104.035 44.6795C104.105 43.189 104.216 41.7782 104.366 40.447C104.572 39.1076 104.75 37.7724 104.901 36.4411C105.043 35.0541 105.125 33.6473 105.148 32.2208C105.227 30.7861 105.206 29.252 105.085 27.6185C105.451 27.3946 105.949 27.2939 106.578 27.3164C107.208 27.3389 107.702 27.4095 108.06 27.5283ZM108.033 54.0906L108.284 54.0541L108.32 54.3051L108.069 54.3415L108.033 54.0906ZM124.814 30.3058C125.157 30.7115 125.412 31.1015 125.58 31.4756C125.795 31.786 125.951 32.2758 126.047 32.945C125.808 33.2643 125.466 33.4563 125.02 33.521C124.574 33.5858 124.14 33.5349 123.717 33.3685C123.343 33.1382 123.076 32.8639 122.916 32.5454C122.868 31.8124 122.983 31.2264 123.261 30.7874C123.596 30.3404 124.113 30.1799 124.814 30.3058ZM123.604 41.4976C124.042 41.3771 124.492 41.3403 124.955 41.387C125.472 41.4258 125.891 41.5643 126.21 41.8027C126.281 41.9061 126.301 42.0455 126.27 42.2209C126.238 42.3963 126.282 42.5038 126.401 42.5434C126.179 43.3727 126.076 44.4409 126.093 45.7478C126.158 46.9909 126.278 48.2259 126.454 49.4528C126.606 49.7155 126.805 49.9143 127.052 50.0492C127.291 50.1284 127.479 50.2435 127.614 50.3946C127.814 50.9919 127.85 51.4421 127.723 51.7452C127.651 52.0403 127.405 52.3038 126.983 52.5358C126.704 52.5763 126.481 52.6087 126.314 52.6329C126.194 52.5934 125.995 52.5938 125.716 52.6343C124.808 52.2537 124.178 51.6335 123.827 50.7736C123.412 49.866 123.156 48.8783 123.06 47.8106C122.955 46.6872 122.966 45.5754 123.093 44.4753C123.164 43.3834 123.227 42.4349 123.282 41.6298C123.33 41.566 123.437 41.5219 123.604 41.4976Z" fill="white"/>
</svg>
