<svg width="245" height="50" viewBox="0 0 245 50" fill="none" xmlns="http://www.w3.org/2000/svg">
<circle cx="33.8246" cy="24.9998" r="7.49643" stroke="#5CFF62" stroke-width="3"/>
<path d="M68.5543 27.5061H62.7246L61.4095 31H59.3093L64.7071 17.26H66.5915L71.9893 31H69.8694L68.5543 27.5061ZM67.887 25.7199L65.6493 19.8117L63.4116 25.7199H67.887ZM71.5406 21.1072H73.5035L76.0945 28.6053L78.7051 21.1072H80.6679L77.0563 31H75.1719L71.5406 21.1072ZM85.629 20.9502C86.2702 20.9502 86.846 21.0418 87.3564 21.225C87.8798 21.3951 88.3247 21.6437 88.6911 21.9709C89.0706 22.2849 89.3585 22.6709 89.5548 23.1289C89.7641 23.5739 89.8688 24.0711 89.8688 24.6207V31H87.9648V29.3905C87.7293 29.927 87.3171 30.3588 86.7282 30.6859C86.1525 31 85.4916 31.157 84.7458 31.157C83.7251 31.157 82.9072 30.8822 82.2922 30.3326C81.6902 29.783 81.3893 29.0633 81.3893 28.1735C81.3893 27.2182 81.736 26.4658 82.4296 25.9162C83.1231 25.3666 84.0588 25.0918 85.2365 25.0918H87.2975C87.5199 25.0918 87.6835 25.0395 87.7882 24.9348C87.906 24.8301 87.9648 24.6861 87.9648 24.5029C87.9648 23.901 87.7555 23.4168 87.3367 23.0504C86.9311 22.6709 86.3422 22.4812 85.5702 22.4812C85.2299 22.4812 84.9093 22.5335 84.6084 22.6382C84.3205 22.7298 84.0653 22.8607 83.8428 23.0308C83.6335 23.2009 83.4634 23.4037 83.3325 23.6393C83.2147 23.8617 83.1493 24.0973 83.1362 24.3459H81.3696C81.4089 23.8617 81.5398 23.4168 81.7622 23.0112C81.9978 22.5924 82.3053 22.2326 82.6848 21.9316C83.0642 21.6175 83.5026 21.3755 83.9999 21.2053C84.4971 21.0352 85.0402 20.9502 85.629 20.9502ZM85.1187 29.6456C86.0216 29.6456 86.7217 29.3774 87.219 28.8409C87.7162 28.3043 87.9648 27.5781 87.9648 26.6621V26.4265H85.4131C84.7588 26.4265 84.2354 26.5836 83.8428 26.8976C83.4634 27.1986 83.2736 27.6108 83.2736 28.1342C83.2736 28.5922 83.4437 28.9586 83.784 29.2334C84.1242 29.5082 84.5691 29.6456 85.1187 29.6456ZM94.0765 16.9656V19.3603H91.9566V16.9656H94.0765ZM92.0744 21.1072H93.9784V31H92.0744V21.1072ZM96.4855 16.9656H98.3895V31H96.4855V16.9656ZM104.663 20.9502C105.305 20.9502 105.88 21.0418 106.391 21.225C106.914 21.3951 107.359 21.6437 107.725 21.9709C108.105 22.2849 108.393 22.6709 108.589 23.1289C108.798 23.5739 108.903 24.0711 108.903 24.6207V31H106.999V29.3905C106.764 29.927 106.351 30.3588 105.763 30.6859C105.187 31 104.526 31.157 103.78 31.157C102.759 31.157 101.942 30.8822 101.327 30.3326C100.725 29.783 100.424 29.0633 100.424 28.1735C100.424 27.2182 100.77 26.4658 101.464 25.9162C102.157 25.3666 103.093 25.0918 104.271 25.0918H106.332C106.554 25.0918 106.718 25.0395 106.823 24.9348C106.94 24.8301 106.999 24.6861 106.999 24.5029C106.999 23.901 106.79 23.4168 106.371 23.0504C105.965 22.6709 105.377 22.4812 104.605 22.4812C104.264 22.4812 103.944 22.5335 103.643 22.6382C103.355 22.7298 103.1 22.8607 102.877 23.0308C102.668 23.2009 102.498 23.4037 102.367 23.6393C102.249 23.8617 102.184 24.0973 102.171 24.3459H100.404C100.443 23.8617 100.574 23.4168 100.797 23.0112C101.032 22.5924 101.34 22.2326 101.719 21.9316C102.099 21.6175 102.537 21.3755 103.034 21.2053C103.531 21.0352 104.075 20.9502 104.663 20.9502ZM104.153 29.6456C105.056 29.6456 105.756 29.3774 106.253 28.8409C106.751 28.3043 106.999 27.5781 106.999 26.6621V26.4265H104.447C103.793 26.4265 103.27 26.5836 102.877 26.8976C102.498 27.1986 102.308 27.6108 102.308 28.1342C102.308 28.5922 102.478 28.9586 102.818 29.2334C103.159 29.5082 103.603 29.6456 104.153 29.6456ZM116.212 31.157C115.545 31.157 114.93 31.0131 114.367 30.7252C113.818 30.4242 113.399 30.0251 113.111 29.5279V31H111.207V16.9656H113.111V22.5597C113.399 22.0755 113.818 21.6895 114.367 21.4016C114.93 21.1007 115.551 20.9502 116.232 20.9502C116.991 20.9502 117.665 21.081 118.254 21.3427C118.842 21.5914 119.333 21.9447 119.726 22.4027C120.131 22.8476 120.439 23.3841 120.648 24.0122C120.858 24.6403 120.962 25.3208 120.962 26.0536C120.962 26.7864 120.858 27.4669 120.648 28.095C120.439 28.7231 120.131 29.2661 119.726 29.7241C119.32 30.1691 118.823 30.5224 118.234 30.7841C117.645 31.0327 116.971 31.157 116.212 31.157ZM115.996 29.4886C116.912 29.4886 117.645 29.1745 118.195 28.5464C118.757 27.9183 119.039 27.0874 119.039 26.0536C119.039 25.0198 118.757 24.1889 118.195 23.5608C117.645 22.9327 116.912 22.6186 115.996 22.6186C115.067 22.6186 114.328 22.9327 113.778 23.5608C113.229 24.1889 112.954 25.0198 112.954 26.0536C112.954 27.0874 113.229 27.9183 113.778 28.5464C114.328 29.1745 115.067 29.4886 115.996 29.4886ZM122.938 16.9656H124.842V31H122.938V16.9656ZM136.334 27.7809C136.242 28.2913 136.066 28.7558 135.804 29.1745C135.555 29.5802 135.228 29.9335 134.823 30.2345C134.43 30.5224 133.972 30.7514 133.449 30.9215C132.938 31.0785 132.376 31.157 131.76 31.157C131.002 31.157 130.315 31.0196 129.699 30.7448C129.084 30.4569 128.561 30.0775 128.129 29.6064C127.697 29.1353 127.364 28.5857 127.128 27.9576C126.906 27.3295 126.794 26.6752 126.794 25.9947C126.794 25.3012 126.899 24.6534 127.109 24.0515C127.318 23.4365 127.625 22.8999 128.031 22.4419C128.437 21.9839 128.934 21.6241 129.523 21.3624C130.125 21.0876 130.805 20.9502 131.564 20.9502C132.336 20.9502 133.01 21.081 133.586 21.3427C134.175 21.5914 134.666 21.9316 135.058 22.3634C135.451 22.7822 135.745 23.2794 135.941 23.8552C136.151 24.4179 136.255 25.0133 136.255 25.6414C136.255 25.7723 136.249 25.9097 136.236 26.0536C136.236 26.1845 136.229 26.2957 136.216 26.3873H128.659C128.698 26.8584 128.797 27.2902 128.954 27.6828C129.124 28.0623 129.346 28.3894 129.621 28.6642C129.896 28.939 130.21 29.1549 130.563 29.3119C130.93 29.4559 131.329 29.5279 131.76 29.5279C132.493 29.5279 133.082 29.3774 133.527 29.0764C133.985 28.7754 134.286 28.3436 134.43 27.7809H136.334ZM131.564 22.4812C130.779 22.4812 130.144 22.6971 129.66 23.1289C129.176 23.5477 128.862 24.1693 128.718 24.9937H134.332C134.266 24.2347 133.992 23.6262 133.507 23.1682C133.036 22.7102 132.389 22.4812 131.564 22.4812ZM143.856 22.756H141.834V21.1072H143.856V20.1454C143.856 19.164 144.151 18.3919 144.739 17.8292C145.328 17.2535 146.12 16.9656 147.114 16.9656H148.744V18.6144H147.252C146.794 18.6144 146.427 18.7583 146.153 19.0462C145.891 19.321 145.76 19.707 145.76 20.2043V21.1072H148.744V22.756H145.76V31H143.856V22.756ZM154.287 31.157C153.541 31.157 152.854 31.0327 152.226 30.7841C151.611 30.5224 151.074 30.1691 150.616 29.7241C150.171 29.2661 149.818 28.7296 149.556 28.1146C149.308 27.4865 149.183 26.7995 149.183 26.0536C149.183 25.3077 149.308 24.6273 149.556 24.0122C149.818 23.3841 150.171 22.8476 150.616 22.4027C151.074 21.9447 151.611 21.5914 152.226 21.3427C152.854 21.081 153.541 20.9502 154.287 20.9502C155.033 20.9502 155.713 21.081 156.328 21.3427C156.956 21.5914 157.493 21.9447 157.938 22.4027C158.396 22.8476 158.749 23.3841 158.998 24.0122C159.246 24.6273 159.371 25.3077 159.371 26.0536C159.371 26.7995 159.246 27.4865 158.998 28.1146C158.749 28.7296 158.396 29.2661 157.938 29.7241C157.493 30.1691 156.956 30.5224 156.328 30.7841C155.713 31.0327 155.033 31.157 154.287 31.157ZM154.287 29.4886C154.758 29.4886 155.183 29.4035 155.563 29.2334C155.955 29.0633 156.289 28.8278 156.564 28.5268C156.838 28.2258 157.048 27.866 157.192 27.4472C157.349 27.0285 157.427 26.5639 157.427 26.0536C157.427 25.5433 157.349 25.0787 157.192 24.66C157.048 24.2412 156.838 23.8814 156.564 23.5804C156.289 23.2794 155.955 23.0439 155.563 22.8738C155.183 22.7037 154.758 22.6186 154.287 22.6186C153.816 22.6186 153.384 22.7037 152.991 22.8738C152.612 23.0439 152.278 23.2794 151.99 23.5804C151.715 23.8814 151.499 24.2412 151.342 24.66C151.198 25.0787 151.127 25.5433 151.127 26.0536C151.127 26.5639 151.198 27.0285 151.342 27.4472C151.499 27.866 151.715 28.2258 151.99 28.5268C152.278 28.8278 152.612 29.0633 152.991 29.2334C153.384 29.4035 153.816 29.4886 154.287 29.4886ZM165.533 22.756C165.088 22.756 164.709 22.8541 164.395 23.0504C164.094 23.2336 163.845 23.4953 163.649 23.8356C163.466 24.1627 163.335 24.5618 163.256 25.0329C163.178 25.4909 163.138 25.9882 163.138 26.5247V31H161.234V21.1072H163.138V23.0112C163.361 22.3438 163.675 21.8596 164.081 21.5587C164.499 21.2577 165.062 21.1072 165.769 21.1072H166.966V22.756H165.533ZM172.237 17.26H174.337L177.517 27.9576L180.795 17.26H182.562L185.84 27.9576L189.039 17.26H191.12L186.939 31H184.897L181.678 20.4202L178.459 31H176.438L172.237 17.26ZM195.882 31.157C195.137 31.157 194.45 31.0327 193.821 30.7841C193.206 30.5224 192.67 30.1691 192.212 29.7241C191.767 29.2661 191.414 28.7296 191.152 28.1146C190.903 27.4865 190.779 26.7995 190.779 26.0536C190.779 25.3077 190.903 24.6273 191.152 24.0122C191.414 23.3841 191.767 22.8476 192.212 22.4027C192.67 21.9447 193.206 21.5914 193.821 21.3427C194.45 21.081 195.137 20.9502 195.882 20.9502C196.628 20.9502 197.309 21.081 197.924 21.3427C198.552 21.5914 199.088 21.9447 199.533 22.4027C199.991 22.8476 200.345 23.3841 200.593 24.0122C200.842 24.6273 200.966 25.3077 200.966 26.0536C200.966 26.7995 200.842 27.4865 200.593 28.1146C200.345 28.7296 199.991 29.2661 199.533 29.7241C199.088 30.1691 198.552 30.5224 197.924 30.7841C197.309 31.0327 196.628 31.157 195.882 31.157ZM195.882 29.4886C196.353 29.4886 196.779 29.4035 197.158 29.2334C197.551 29.0633 197.885 28.8278 198.159 28.5268C198.434 28.2258 198.643 27.866 198.787 27.4472C198.944 27.0285 199.023 26.5639 199.023 26.0536C199.023 25.5433 198.944 25.0787 198.787 24.66C198.643 24.2412 198.434 23.8814 198.159 23.5804C197.885 23.2794 197.551 23.0439 197.158 22.8738C196.779 22.7037 196.353 22.6186 195.882 22.6186C195.411 22.6186 194.979 22.7037 194.587 22.8738C194.207 23.0439 193.874 23.2794 193.586 23.5804C193.311 23.8814 193.095 24.2412 192.938 24.66C192.794 25.0787 192.722 25.5433 192.722 26.0536C192.722 26.5639 192.794 27.0285 192.938 27.4472C193.095 27.866 193.311 28.2258 193.586 28.5268C193.874 28.8278 194.207 29.0633 194.587 29.2334C194.979 29.4035 195.411 29.4886 195.882 29.4886ZM207.129 22.756C206.684 22.756 206.304 22.8541 205.99 23.0504C205.689 23.2336 205.441 23.4953 205.244 23.8356C205.061 24.1627 204.93 24.5618 204.852 25.0329C204.773 25.4909 204.734 25.9882 204.734 26.5247V31H202.83V21.1072H204.734V23.0112C204.957 22.3438 205.271 21.8596 205.676 21.5587C206.095 21.2577 206.658 21.1072 207.364 21.1072H208.562V22.756H207.129ZM213.392 26.2695L212.155 27.408V31H210.232V16.9656H212.155V25.0525L216.454 21.1072H218.927L214.766 24.974L219.3 31H216.944L213.392 26.2695Z" fill="white"/>
<rect x="0.5" y="0.5" width="244" height="49" rx="24.5" stroke="white" stroke-opacity="0.5"/>
</svg>
