<svg width="154" height="121" viewBox="0 0 154 121" fill="none" xmlns="http://www.w3.org/2000/svg">
<path d="M4.64561 77.173L8.40988 81.9431C10.3578 84.4116 12.9679 85.1126 15.1862 83.362C16.7206 82.1512 16.9439 80.5134 16.5185 79.117C17.4251 79.5112 18.7987 79.537 19.8995 78.6683C21.8509 77.1284 21.6513 74.7147 19.9798 72.5965L16.3208 67.9598L4.64561 77.173ZM13.8155 73.9424L16.284 71.9945L17.8107 73.9292C18.6926 75.0467 18.6371 75.9024 17.8532 76.521C17.0693 77.1396 16.2241 76.9946 15.3817 75.9272L13.8155 73.9424ZM8.7618 77.9304L11.6973 75.614L13.3425 77.6988C14.4349 79.0832 14.3882 80.1215 13.4375 80.8717C12.4868 81.6219 11.4994 81.3996 10.407 80.0153L8.7618 77.9304Z" fill="white"/>
<path d="M22.1201 96.1197L24.5796 98.3415L30.3554 83.5167L28.1008 81.4801L13.9374 88.728L16.3969 90.9498L19.4431 89.3209L23.432 92.9241L22.1201 96.1197ZM21.9471 87.9752L26.473 85.5641L24.517 90.2967L21.9471 87.9752Z" fill="white"/>
<path d="M34.2877 105.901C37.5833 107.799 41.0294 107.307 42.8594 104.684L40.0977 103.093C39.1133 104.291 37.3233 104.462 35.6663 103.507C33.5859 102.309 32.8112 99.9503 34.4019 97.1887C35.9925 94.427 38.432 93.8951 40.5125 95.0934C42.1326 96.0266 42.8834 97.6604 42.2934 99.1105L45.1839 100.775C46.4354 97.7938 45.1208 94.5848 41.8804 92.7184C38.4376 90.7354 34.1245 91.2424 31.6218 95.5874C29.1192 99.9324 30.7897 103.886 34.2877 105.901Z" fill="white"/>
<path d="M55.3192 114.558L59.1893 115.629L55.9146 105.398L62.6446 101.154L58.8154 100.094L51.7547 104.577L53.4096 98.5981L50.3176 97.7423L46.3504 112.076L49.4424 112.932L50.6099 108.714L53.1707 107.108L55.3192 114.558Z" fill="white"/>
<path d="M79.2291 116.36L82.413 116.222L81.8876 104.102L86.2815 103.911L86.1628 101.173L74.191 101.692L74.3097 104.43L78.7036 104.24L79.2291 116.36Z" fill="white"/>
<path d="M97.4664 113.782C101.701 112.763 104.085 108.868 103.061 104.612C102.037 100.357 98.142 97.9728 93.9073 98.9918C89.652 100.016 87.2677 103.911 88.2917 108.166C89.3156 112.422 93.2111 114.806 97.4664 113.782ZM96.7995 111.102C94.3207 111.698 92.062 110.122 91.4109 107.416C90.7597 104.71 92.049 102.258 94.5279 101.661C97.0067 101.065 99.291 102.657 99.9422 105.363C100.593 108.069 99.2783 110.505 96.7995 111.102Z" fill="white"/>
<path d="M120.636 103.679L123.354 102.015L117.018 91.6688L120.769 89.3719L119.337 87.0346L109.118 93.2927L110.55 95.63L114.3 93.3332L120.636 103.679Z" fill="white"/>
<path d="M135.337 92.5824C138.546 89.6381 138.743 85.0751 135.785 81.8498C132.826 78.6245 128.263 78.4278 125.053 81.3721C121.828 84.3308 121.631 88.8937 124.59 92.119C127.549 95.3443 132.112 95.541 135.337 92.5824ZM133.454 90.5613C131.575 92.2848 128.836 92.0013 126.954 89.9503C125.073 87.8992 125.012 85.1297 126.89 83.4062C128.769 81.6827 131.539 81.9675 133.42 84.0186C135.302 86.0696 135.333 88.8379 133.454 90.5613Z" fill="white"/>
<path d="M143.282 83.8094L145.124 81.1827L140.636 78.0354L142.307 75.6522C144.124 73.0603 143.568 70.4124 141.341 68.851C139.097 67.2773 136.435 67.6685 134.618 70.2604L131.105 75.2704L143.282 83.8094ZM138.461 76.5106L135.121 74.1685L136.683 71.9418C137.536 70.7241 138.685 70.7512 139.572 71.3733C140.46 71.9955 140.876 73.0663 140.023 74.284L138.461 76.5106Z" fill="white"/>
<path d="M72.4653 14.4105L72.6777 86.0774L79.0614 86.0585L78.849 14.3916L72.4653 14.4105Z" fill="white"/>
<path d="M99.8848 27.4289L99.9037 33.8125C94.5111 33.5163 89.3512 31.5178 85.1659 28.1044C80.9806 24.691 77.9854 20.0385 76.6107 14.8156C74.3047 19.5371 70.9861 23.6921 66.8913 26.9849C62.7965 30.2778 58.0262 32.6274 52.9199 33.8667L51.7096 27.5717C57.8143 26.1542 63.272 22.7416 67.2194 17.8739C71.1669 13.0063 73.3786 6.9614 73.5047 0.695581L79.8884 0.676661C79.8884 0.676661 82.1808 27.4814 99.8848 27.4289Z" fill="white"/>
</svg>
