<?xml version="1.0" encoding="utf-8"?>
<!-- Generator: Adobe Illustrator 25.2.0, SVG Export Plug-In . SVG Version: 6.00 Build 0)  -->
<svg version="1.1" id="Layer_1" xmlns="http://www.w3.org/2000/svg" xmlns:xlink="http://www.w3.org/1999/xlink" x="0px" y="0px"
	 viewBox="0 0 427.1 115.7" style="enable-background:new 0 0 427.1 115.7;" xml:space="preserve">
<style type="text/css">
	.st0{fill:#FFFFFF;}
	.st1{fill:none;stroke:#FFFFFF;}
</style>
<path class="st0" d="M144.7,84.3c0.3,0.4,0.6,0.8,0.7,1.1c0.2,0.3,0.4,0.8,0.4,1.4c-0.2,0.3-0.6,0.5-1,0.5c-0.4,0.1-0.8,0-1.2-0.1
	c-0.4-0.2-0.6-0.5-0.8-0.8c0-0.7,0.1-1.2,0.3-1.7C143.6,84.3,144,84.2,144.7,84.3z M143.6,94.9c0.4-0.1,0.8-0.1,1.3-0.1
	c0.5,0,0.9,0.2,1.2,0.4c0.1,0.1,0.1,0.2,0.1,0.4s0,0.3,0.1,0.3c-0.2,0.8-0.3,1.8-0.3,3c0.1,1.2,0.2,2.3,0.3,3.5
	c0.1,0.2,0.3,0.4,0.6,0.6c0.2,0.1,0.4,0.2,0.5,0.3c0.2,0.6,0.2,1,0.1,1.3c-0.1,0.3-0.3,0.5-0.7,0.7c-0.3,0-0.5,0.1-0.6,0.1
	c-0.1,0-0.3,0-0.6,0c-0.9-0.4-1.5-0.9-1.8-1.8c-0.4-0.9-0.6-1.8-0.7-2.8c-0.1-1.1-0.1-2.1,0-3.2c0.1-1,0.1-1.9,0.2-2.7
	C143.3,94.9,143.4,94.9,143.6,94.9z M180.4,90c0.2-0.3,0.5-0.5,0.7-0.6c0.3-0.1,0.5-0.1,0.6-0.1c0.1,0,0.2,0.1,0.2,0.2
	c0.1,0.1,0.1,0.2,0.1,0.3s0.1,0.2,0.1,0.2c0.1,0,0.2,0,0.4-0.1c0,0.4-0.2,0.8-0.4,1.2c-0.2,0.3-0.3,0.7-0.2,1.1
	c-0.1,0.1-0.2,0.2-0.3,0.2c-0.1,0-0.1,0-0.1,0.1l0.1,0.5c-1.6,2-3.1,4-4.5,6.1c-1.4,2.1-3.2,3.9-5.3,5.5c-0.7,0.3-1.3,0.4-1.9,0.5
	c-0.5,0.1-1.2,0.1-1.9,0.1c-0.5-0.2-0.9-0.4-1.4-0.6c-0.5-0.2-0.9-0.5-1.3-0.8c-0.6-0.5-0.9-1-1.1-1.5c-0.2-0.6-0.4-1.1-0.4-1.7
	c-0.1-0.6-0.1-1.3,0-1.9c0-0.7,0-1.4,0.1-2.2c0.3-1.4,0.7-2.7,1.1-4c0.4-1.2,0.9-2.4,1.6-3.5c0.3-0.4,0.7-0.7,1.2-1
	c0.6-0.3,1.2-0.5,1.8-0.6c0.9-0.1,1.6,0,2.1,0.3c0.2,0.3,0.4,0.6,0.6,0.8c0.2,0.2,0.4,0.4,0.6,0.8c-0.1,0-0.1,0.1-0.1,0.2
	c-0.2,0.5-0.6,0.7-1.2,0.8c-0.7,0.1-1.3-0.1-1.8-0.5c-1.2,1.4-2,3.1-2.4,5.1c-0.5,2-0.6,4.2-0.3,6.6c0.2,0.3,0.3,0.6,0.4,0.7
	c0.2,0.1,0.4,0.3,0.6,0.5c0.5,0.1,1.1,0.1,1.7,0c1.1-0.8,2.1-1.6,2.9-2.5c0.8-1,1.6-2,2.3-3c0.8-1,1.5-2.1,2.2-3.1
	c0.8-1,1.6-2,2.5-2.9c0-0.1,0-0.1-0.1-0.1c0,0.1,0,0.1-0.1,0.1c0.1-0.3,0.2-0.6,0.5-0.7C180.1,90.5,180.3,90.3,180.4,90z M180.4,90
	c-0.1-0.1-0.2-0.1-0.2,0C180.2,90.2,180.3,90.2,180.4,90z M179.6,94.1c0,0.1,0,0.2,0.1,0.1c0,0,0,0,0,0.1
	C179.8,94.1,179.8,94.1,179.6,94.1c-0.1-0.5,0-0.7,0.3-0.5c-0.1-0.8,0.1-1.5,0.5-2.3c0.4-0.7,0.7-1.5,0.9-2.3l0.3,0
	c0.2-0.6,0.5-1.1,0.9-1.6c0.4-0.4,0.9-0.9,1.4-1.2c0.7,0,1.4,0,2.1-0.1c0.7-0.1,1.2,0,1.6,0.4c0.2,0.2,0.4,0.6,0.3,1
	c0,0.4,0.1,0.7,0.1,1c0.6,0.1,1.1,0.2,1.5,0.5c0,0.9,0.1,1.9,0.2,2.9c0.1,1,0.1,1.8,0,2.6c0.3,0.9,0.5,1.7,0.5,2.6
	c0,0.9,0.3,1.7,0.9,2.5c0.3,0,0.5,0,0.7,0.1c0.2,0,0.5,0,0.9,0c0,0.2,0,0.3,0.1,0.3c0.1,0,0.2,0.1,0.2,0.3c-0.1,0.2-0.2,0.4-0.5,0.5
	c-0.3,0.1-0.4,0.2-0.5,0.5c-0.7,0.2-1.4,0.2-2,0c-0.6-0.2-1.1-0.6-1.5-1c-0.4-0.4-0.7-0.9-0.9-1.5c-0.2-0.6-0.4-1.1-0.5-1.6
	c-0.1,0.2-0.2,0.4-0.3,0.6c0,0.2-0.1,0.4-0.3,0.5c-0.3,1.1-0.7,2.2-1.2,3.2c-0.6,1-1.5,1.6-2.9,1.8c-0.5,0-0.9-0.1-1.3-0.1
	c-0.4-0.1-0.8-0.2-1.3-0.4c-0.1-0.2-0.2-0.3-0.3-0.4c-0.1-0.1-0.2-0.2-0.4-0.4c0-0.4,0-0.9-0.1-1.3c-0.2-0.5-0.1-0.8,0.2-1.2
	c-0.1,0-0.1-0.1-0.2-0.1c-0.1,0-0.2,0-0.3-0.1c0-0.2,0.1-0.4,0.1-0.4c0-0.1,0-0.2-0.1-0.3l0.3,0c-0.1-0.2-0.2-0.4-0.1-0.5
	c0-0.1,0.1-0.2,0.2-0.4c0.1-0.1,0.1-0.1-0.1-0.1c-0.2,0-0.2,0-0.1-0.1c0-0.2,0-0.3,0.1-0.2c0,0.1,0,0.2,0.1,0.1
	c0.1,0,0.2-0.1,0.1-0.2c-0.1-0.1-0.1-0.2,0-0.2c-0.2-0.1-0.2-0.2-0.2-0.4c0-0.2,0.1-0.4,0.3-0.4c0-0.2,0-0.2-0.1-0.2
	c-0.1,0-0.2-0.1-0.1-0.2c0.1,0,0.2,0,0.2,0c0,0.1,0.1,0,0.1-0.1c0-0.4,0-0.7,0-0.9C179.4,94.7,179.4,94.4,179.6,94.1L179.6,94.1z
	 M182.3,100.8c1-2,1.7-3.9,2.3-5.8l0.2,0.1l0.1,0c-0.2-0.4-0.2-0.8,0-1.1c0.2-0.3,0.3-0.7,0.4-1c0.2,0.2,0.3,0.4,0.4,0.4
	c0-0.2-0.1-0.4-0.2-0.5c-0.1-0.1-0.1-0.2-0.2-0.3c0.3-0.5,0.5-1,0.6-1.5c0.1-0.6,0.2-1.1,0.3-1.5c-0.3,0-0.5,0-0.6,0.1
	c-0.1,0-0.3,0-0.5-0.1c0-0.2,0-0.3-0.1-0.5c0-0.2-0.1-0.3-0.3-0.4c-0.4,0.8-0.8,1.7-1.2,2.7c-0.4,0.9-0.7,1.9-0.9,3
	c-0.2,1-0.4,2-0.4,3.1C182,98.7,182.1,99.8,182.3,100.8z M184.9,94.4c0.1,0.1,0.2,0.1,0.1-0.1c0-0.2,0-0.2-0.1-0.1
	C184.9,94.2,184.9,94.3,184.9,94.4L184.9,94.4z M179.1,96.2C179.2,96.4,179.2,96.4,179.1,96.2C179.2,96,179.2,96,179.1,96.2z
	 M192.8,93.7C192.9,93.6,192.9,93.6,192.8,93.7c-0.1-0.4,0-0.7,0-0.9c0.1-0.2,0-0.5-0.1-0.7c0.1-0.1,0.2-0.2,0.5-0.2
	c0-0.3-0.1-0.5-0.3-0.6c0.3-1,0.5-1.9,0.5-2.9c0-1,0.1-2,0.4-3c0.2,0,0.4,0,0.4-0.1c0.1-0.1,0.2-0.2,0.3-0.2
	c0.3,0.3,0.6,0.5,1.1,0.5c0.5,0,0.8,0.2,1,0.7c0.1,0.3,0.1,0.6-0.1,0.7c-0.2,0.1-0.2,0.4,0,0.8c-0.3,0.5-0.4,0.9-0.4,1.4
	c0,0.5,0,1,0.1,1.5c0,0.5,0,1.1,0,1.6c0,0.5-0.1,1.1-0.3,1.6c0.4-0.5,0.7-1.1,0.9-1.7c0.2-0.6,0.4-1.2,0.6-1.9
	c0.2-0.6,0.4-1.2,0.6-1.8c0.2-0.6,0.4-1.2,0.7-1.6c0-0.3-0.1-0.4-0.1-0.4c0.4-0.7,0.7-1.4,0.8-2.1c0.2-0.8,0.5-1.4,1.2-1.9
	c0.6,0,1.1,0.1,1.5,0.3c0.5,0.2,0.9,0.4,1.4,0.6c0.3,1,0.4,2,0.4,3c0,0.9,0,1.8,0.1,2.7c0,0.9,0.1,1.9,0.1,2.9
	c0.1,1,0.3,2.1,0.6,3.3c0.2,0.2,0.4,0.5,0.6,0.8c0.2,0.2,0.4,0.4,0.7,0.5c0.2,0,0.4-0.1,0.6-0.1c0.2,0,0.3-0.1,0.4-0.2
	c0.3,0,0.5,0.1,0.5,0.4c0.1,0.3,0.3,0.4,0.6,0.5c0,0.2,0,0.2-0.2,0.3c-0.2,0-0.3,0.1-0.4,0.1c-0.3,0.4-0.7,0.7-1.2,0.7
	c-0.6,0.1-1.2,0-1.9-0.4c-0.6-0.4-1.2-0.7-1.7-1c-0.4-0.6-0.7-1.4-1.1-2.4c-0.4-1.1-0.4-2-0.2-2.8c-0.2-0.2-0.3-0.4-0.3-0.7
	c0-0.3,0-0.6,0-0.9c0-0.3,0-0.6,0-0.9c0-0.3-0.1-0.5-0.3-0.7c0-0.2,0.1-0.3,0.2-0.5c0.1-0.2,0.1-0.4-0.1-0.6
	c-0.3,0.9-0.6,1.8-0.9,2.8s-0.5,2-0.7,3.1c-0.3,0.4-0.5,0.9-0.7,1.5c-0.1,0.5-0.4,1-0.7,1.4c0.1,0.4,0,0.8-0.3,1
	c-0.2,0.2-0.3,0.6-0.2,1.1c-0.3,0.4-0.5,0.9-0.7,1.3c-0.1,0.5-0.4,0.9-0.7,1.3c-0.3,0.4-0.6,0.8-1.1,1c-0.5,0.2-1.1,0.3-1.8,0.3
	c-0.2-0.2-0.4-0.4-0.6-0.6c-0.2-0.2-0.4-0.5-0.6-0.7c0.1-1.2,0.2-2.4,0.4-3.7C192.4,95.9,192.6,94.8,192.8,93.7z M193.5,88.4
	c0.2,0.1,0.2,0,0.2-0.1c0-0.2-0.1-0.3-0.3-0.1L193.5,88.4z M200.6,89.1l-0.2,0.3c-0.1,0-0.1,0-0.1-0.1
	C200.4,89.1,200.5,89.1,200.6,89.1z M210.1,78.9c-0.3,0-0.5,0-0.7-0.1c-0.1-0.1-0.3-0.2-0.6-0.2c-0.3-1.4-0.4-2.7-0.3-4.1
	c0.2-1.4,0.3-2.8,0.3-4.2c0.2-0.1,0.4-0.2,0.6-0.3c0.2-0.1,0.5-0.2,0.8-0.1c0.2,0.2,0.5,0.4,0.7,0.6c0.2,0.2,0.4,0.4,0.7,0.6
	c-0.1,0.3-0.1,0.6-0.1,0.9s0,0.6-0.1,0.9l-0.3,3.6c-0.1,0.3-0.1,0.6-0.1,0.9c0,0.3,0,0.6-0.1,0.9c-0.1,0.1-0.3,0.2-0.4,0.3
	C210.3,78.7,210.2,78.8,210.1,78.9z M218.7,68.8c1.2-0.3,2.5-0.6,3.9-1c1.4-0.4,2.8-0.7,4.2-0.9c1.4-0.2,2.7-0.3,3.9-0.2
	c1.3,0.1,2.4,0.4,3.5,1c0.1,0.2,0.2,0.4,0.2,0.5c0,0.1,0,0.2,0.1,0.4c-0.8,0-1.8,0-3.1,0c-1.3-0.1-2.5,0-3.6,0.2
	c-1.6,0.5-3.1,1-4.6,1.4c-1.5,0.4-3,0.9-4.5,1.6c-0.2,2.9-0.3,5.9-0.3,8.8c0,3,0.1,5.9,0.1,8.9c0.2,1.6,0.3,3.3,0.4,5.1
	c0.1,1.8,0.3,3.5,0.6,5.2c0.1,1,0.3,1.9,0.4,2.9c0.1,1,0.3,1.9,0.6,2.8c0.2,0.9,0.6,1.8,1,2.6c0.4,0.8,1,1.5,1.7,2
	c0.3,0.1,0.5,0,0.6-0.3c0.2-0.3,0.4-0.4,0.7-0.2c0.2,0.3,0.2,0.6,0.1,1c-0.1,0.4-0.2,0.7-0.4,0.9c-0.6,0.2-1,0.3-1.3,0.4
	c-0.3,0.1-0.8,0.1-1.4,0.1c-1-0.5-1.9-1.3-2.4-2.3c-0.6-1-1.1-2.2-1.5-3.4c-0.3-1.3-0.6-2.6-0.8-3.9c-0.2-1.4-0.4-2.6-0.6-3.8
	c-0.4-4.1-0.6-8.3-0.8-12.5c-0.2-4.2-0.2-8.6,0.1-13c-1.4,0.5-2.9,1.1-4.6,2c-1.7,0.8-3.3,1.7-5,2.7c-0.4,0.2-0.8,0.4-1.3,0.7
	c-0.5,0.2-0.9,0.3-1.2,0.3c-0.4,0-0.8-0.2-1.3-0.5s-0.7-0.8-0.7-1.3c0.6-0.6,1.4-1.1,2.2-1.5c0.8-0.4,1.6-0.8,2.4-1.2
	c0.8-0.5,1.6-0.9,2.4-1.2c0.8-0.3,1.6-0.7,2.3-1.2c0.9-0.2,1.7-0.5,2.4-0.9c0.7-0.4,1.5-0.7,2.4-1c0.1-0.6,0.2-1.3,0.1-2.2
	c-0.1-0.9-0.1-1.8,0-2.6c0-0.8,0.2-1.5,0.4-2.1c0.3-0.6,0.9-1,1.7-1c0.6,0.2,1,0.5,1.1,1c0.2,0.5,0.3,1.1,0.2,1.7
	c0,0.6-0.1,1.2-0.2,1.9C218.7,67.6,218.7,68.2,218.7,68.8z M249.8,76.5c-0.3,0.1-0.6,0.1-0.8,0c-0.2-0.1-0.3-0.2-0.5-0.2
	c-0.1-0.1-0.3-0.3-0.5-0.3c-0.2-0.1-0.4-0.2-0.7-0.1c-1.7,1.3-3.3,2.6-4.7,4.1c-1.4,1.4-2.5,3.1-3.3,5.1c0,0.1,0,0.2,0,0.2
	c0.1,0,0.1,0,0.1,0.1c1.4,0.2,2.8,0.3,4.2,0.3c1.4-0.1,2.8,0.1,4.1,0.7c0.2,0,0.4-0.2,0.5-0.4c0.1-0.3,0.3-0.3,0.5-0.1
	c0.1-0.2,0.2-0.4,0.2-0.6c0.1-0.2,0.3-0.3,0.5-0.2c0-0.1,0.1-0.2,0.1-0.3c0-0.1,0-0.2,0-0.3c0.3,0,0.5,0,0.6-0.1
	c0.1-0.1,0.2-0.2,0.2-0.3c0.1-0.2,0.1-0.3,0.2-0.4c0.1-0.1,0.2-0.2,0.4-0.2c0.1-0.2,0.2-0.5,0.4-0.9c0.2,0,0.2,0.1,0.1,0.1
	c0,0.1,0,0.1,0.1,0.2c0.4-0.5,0.8-0.9,1.2-1.3c0.5-0.4,0.9-0.9,1.2-1.5c0.3,0,0.5-0.1,0.7-0.3c0.2-0.1,0.4-0.3,0.6-0.5
	c0.2-0.2,0.4-0.4,0.6-0.5c0.2-0.1,0.5-0.2,0.9-0.2c0.1,0.4,0,0.9-0.2,1.3c-0.2,0.4-0.4,0.7-0.7,0.7c-0.1,0.1-0.1,0.2,0,0.2
	c0.1,0,0.2,0.1,0.1,0.3c-0.9,1.1-1.8,2.1-2.8,3.2c-0.9,1-1.8,2-2.6,3.1c0.6,0.8,1,1.7,1.1,2.7c0,0.9-0.1,1.7-0.5,2.3
	c-0.3,0.6-0.6,1.2-0.9,1.8c-0.4,0.3-0.8,0.8-1.2,1.4c-0.7,0.5-1.3,0.9-2,1.4c-0.6,0.4-1.5,0.6-2.6,0.5c-0.1-0.1-0.2-0.2-0.4-0.2
	c-0.1,0-0.2-0.2-0.3-0.4c-0.6-0.1-0.9-0.3-1.1-0.6c-0.2-0.4-0.4-0.8-0.6-1.2c0-0.8,0.1-1.4,0.3-1.9c0.2-0.6,0.5-1.1,0.8-1.6
	c0.4-0.5,0.7-1,1-1.4c0.4-0.4,0.7-0.9,0.9-1.3c0.1-0.2,0.3-0.4,0.5-0.6c0.2-0.1,0.3-0.3,0.4-0.5c-0.6-0.1-1.3-0.2-2-0.2
	c-0.7-0.1-1.3-0.1-1.9,0c-0.8,0-1.7-0.2-2.6-0.4c-0.8-0.3-1.6-0.7-2.3-1.2c-0.1-0.4-0.3-0.7-0.7-0.9c-0.2-0.5-0.3-1-0.2-1.3
	c0-0.4,0.2-0.8,0.4-1.2c0.2-0.3,0.4-0.7,0.7-1c0.2-0.4,0.4-0.7,0.5-1c0.7-0.7,1.5-1.6,2.4-2.6c0.9-1,1.8-2,2.7-2.8
	c0.5-0.4,1-0.8,1.5-1.1c0.5-0.4,1.1-0.6,1.8-0.7c0.5-0.1,1.1,0,1.8,0.1c0.2,0.2,0.4,0.3,0.6,0.5c0.2,0.1,0.5,0.3,0.7,0.5
	c0.2,0.1,0.4,0.3,0.6,0.6c0.1,0.2,0.2,0.5,0.1,0.9c-0.1,0-0.2,0.1-0.1,0.2C249.9,76.4,249.9,76.5,249.8,76.5z M248.1,90.1
	c-0.5,0.8-1.1,1.5-1.8,2.3c-0.6,0.7-1,1.5-1.3,2.5c0.9-0.6,1.7-1.3,2.2-2.1c0.6-0.8,1-1.8,1.3-2.8L248.1,90.1z M258.7,62.8
	c0,0.3,0.1,0.6,0.3,0.9c0.2,0.3,0.2,0.5,0.2,0.7c0.1,0.2,0,0.3-0.1,0.3c-0.2,0-0.3,0.1-0.3,0.2c0,3.2-0.2,6.3-0.6,9.1
	c-0.4,2.8-0.7,5.7-0.9,8.6c0.2-0.5,0.5-1,0.7-1.6c0.3-0.6,0.6-1.2,1-1.8c0.4-0.6,0.8-1.1,1.3-1.5c0.5-0.5,1.1-0.7,1.7-0.8
	c0.6-0.1,1.4,0,2.2,0.4c0.3,0.4,0.5,0.8,0.7,1.2c0.3,0.4,0.5,0.8,0.6,1.4c0.2,0.9,0.4,1.8,0.6,2.7c0.2,0.9,0.7,1.7,1.3,2.2
	c0.5-0.2,0.9-0.4,1.3-0.7c0.4-0.3,0.7-0.7,1-1c0.3-0.4,0.6-0.7,0.9-1.1c0.3-0.4,0.6-0.7,1-1c1-1.3,2-2.6,3.2-3.9
	c0.1,0.1,0.1,0.2,0.2,0.2c0.1,0,0.1,0,0.3,0.1c0,0.4-0.2,0.8-0.5,1.1c-0.2,0.3-0.2,0.6,0.2,1c-0.1,0.4-0.3,0.7-0.7,1
	c-0.3,0.3-0.3,0.6-0.2,1c-0.1,0-0.2,0.1-0.2,0.1c0,0.1-0.1,0-0.2,0c-0.4,1.1-1.1,2-1.9,2.8c-0.8,0.8-1.6,1.5-2.5,2.1
	c-0.6,0-1.1,0.1-1.7,0.2c-0.5,0.1-1,0-1.7-0.2c-1-0.7-1.7-1.8-2.2-3.2c-0.4-1.4-0.9-2.8-1.3-4.2c-0.8,0.8-1.4,1.6-1.9,2.6
	c-0.5,0.9-1,1.9-1.3,3c-0.3,1-0.6,2.1-0.9,3.2c-0.3,1.1-0.6,2.2-1,3.3c-0.4,0.2-0.5,0.3-0.5,0.4c-0.6-0.2-1.1-0.3-1.3-0.2
	c-0.3,0-0.8-0.2-1.4-0.5c0-0.2-0.1-0.4-0.2-0.5c-0.2-2-0.2-4,0-6.1c0.1-2,0.4-3.9,0.8-5.7c0.1-1.4,0.2-2.7,0.3-4
	c0.2-1.3,0.4-2.5,0.5-3.8c0.1-1.3,0.2-2.6,0.2-4c0.1-1.4,0.1-2.8-0.1-4.4c0.3-0.2,0.8-0.3,1.4-0.3C257.9,62.6,258.4,62.7,258.7,62.8
	z M258.7,87.9l0.2,0l0,0.2l-0.2,0L258.7,87.9z M274,75.1c0.2-0.1,0.4-0.1,0.5,0c0.1,0,0.3,0,0.5,0c0.4-0.4,0.8-0.6,1.2-0.7
	c0.4-0.1,0.9,0,1.3,0.1c0.5,0.2,0.9,0.3,1.3,0.5c0.1,0.2,0.3,0.4,0.4,0.6c0.2,0.1,0.3,0.4,0.4,0.8c0.6,0.4,1.2,0.9,1.7,1.5
	c0.6,0.6,1,1.2,1.2,1.9c0.2,0.8,0.1,1.7-0.1,2.6c-0.2,0.9-0.6,1.7-1.2,2.4c-0.5,0.7-1.1,1.3-1.9,1.8c-0.7,0.5-1.6,0.7-2.5,0.8
	c-0.7,0-1.3-0.2-1.8-0.5c-0.4-0.3-0.9-0.6-1.4-0.9c-0.2-0.6-0.5-1.1-0.8-1.3c-0.3-1.8-0.3-3.3,0-4.5c0.3-1.2,0.8-2.3,1.4-3.5
	C274,76.2,273.9,75.6,274,75.1z M277.8,84.3c0.5-0.7,1-1.3,1.5-2c0.5-0.7,0.6-1.6,0.3-2.7c-0.4-0.4-0.7-0.8-1.1-1.2
	c-0.3-0.5-0.9-0.7-1.6-0.7c-0.5,1.1-1,2.3-1.4,3.7c-0.4,1.3-0.3,2.5,0.2,3.7c0.4,0,0.8-0.1,1-0.2C277,84.5,277.4,84.4,277.8,84.3z
	 M287,72.9c-0.1,1.2-0.2,2.5-0.2,3.9c0,1.3,0.1,2.7,0.2,3.9c0,0.4,0,0.9,0,1.3c0,0.4-0.1,0.7-0.2,1.1c0.2,0.1,0.2,0.3,0.2,0.5
	c0,0.2,0,0.4,0.2,0.6c-0.4,0.2-0.5,0.5-0.3,1c0.2,0.5,0.3,1,0.2,1.5c0.5-0.8,1-1.7,1.3-2.6c0.3-1,0.7-1.9,1-2.9c0.3-1,0.6-1.9,1-2.8
	c0.3-1,0.8-1.8,1.4-2.5c0.2,0,0.3-0.1,0.4-0.1c0.3,0,0.5,0,0.7,0.1c0.2,0.1,0.4,0.1,0.8,0c0.5,0.3,0.7,0.8,0.8,1.5
	c0.1,0.7,0.2,1.4,0.5,1.9c0,0.4,0,0.8,0.1,1c0.2,0.2,0.2,0.5,0.1,0.9c0.3,0.4,0.5,0.8,0.7,1.2c0.1,0.4,0.3,0.9,0.6,1.4
	c0.7-0.6,1-1.3,1.1-2.3c0.1-0.9,0-1.8-0.2-2.7c-0.2-0.6-0.4-1-0.5-1.4c-0.2-0.4-0.2-0.8-0.2-1.3c0-0.9,0.4-1.6,1.4-2.1
	c0.9-0.5,2-0.9,3.2-1c0.9-0.1,1.7-0.2,2.5-0.1c0.8,0,1.5,0,2,0.1c0,0.3,0.2,0.4,0.4,0.5c0.2,0,0.3,0.1,0.2,0.4
	c-0.4,0.3-1,0.6-1.8,0.7c-0.7,0.1-1.4,0.2-2.1,0.4c-0.7,0.2-1.3,0.4-1.9,0.6c-0.6,0.2-1.1,0.5-1.4,1c0.2,0.4,0.3,0.8,0.3,1.2
	c0.1,0.4,0.2,0.8,0.5,1.1c0.3,1.6,0.3,3.1-0.2,4.3c-0.5,1.2-1.4,2.1-2.7,2.6c-0.8,0.1-1.4-0.1-1.9-0.4c-0.5-0.4-0.9-0.8-1.2-1.4
	c-0.3-0.6-0.6-1.3-0.8-2c-0.2-0.8-0.4-1.6-0.7-2.3c-0.2,0.1-0.4,0.4-0.3,0.7c0,0.3-0.1,0.5-0.6,0.5c0.2,0.1,0.3,0.3,0.2,0.5
	c0,0.2,0,0.3-0.1,0.5c-0.1,0.2-0.2,0.4-0.2,0.6c-0.1,0.2-0.1,0.4-0.1,0.7c-0.3-0.2-0.5,0-0.6,0.6c0.1,0,0.2,0.1,0.3,0.1
	c0.1,0,0,0.1,0,0.3c-0.1-0.2-0.2-0.3-0.2,0c0,0.2,0,0.1-0.1-0.1c-0.1,0.1-0.1,0.2-0.1,0.3c0,0.1,0,0.1-0.1,0.2
	c0,0.2,0.1,0.3,0.2,0.1c0.1-0.1,0.1-0.1,0.1,0.1c-0.1,0.1-0.2,0.1-0.2,0.1c0-0.1-0.1,0-0.2,0c0,0.3,0,0.4,0,0.5c0,0-0.1,0.1-0.3,0.4
	c0,0.9-0.2,1.6-0.7,2.3c-0.5,0.7-1.1,1.2-1.8,1.6c-0.8,0.2-1.5,0.1-2-0.2c-0.5-0.4-0.8-0.9-1-1.5c-0.2-0.6-0.4-1.3-0.5-2
	c-0.1-0.7-0.2-1.4-0.2-2.1c-0.3-3.9-0.2-7.4,0.3-10.6c0.4-0.2,0.9-0.4,1.5-0.5C286.2,72.8,286.6,72.8,287,72.9z M313.2,85.6
	c0.2,0,0.3,0,0.4,0.2c0,0.1-0.1,0.3-0.1,0.5c0,0.2,0,0.3,0,0.5c0,0.2,0.2,0.2,0.4,0.3c-0.2,0.7-0.1,1.3,0.1,1.8
	c-0.3,1.3-0.6,2.8-0.8,4.5c-0.2,1.7-0.3,3.3,0,4.9c0.5,3.3,1.6,6,3.4,8.2c1.8,2.3,4,3.7,6.5,4.4c0.4,0,0.8,0.1,1.2,0.1
	c0.3,0,0.7,0,1-0.1c0.7-0.1,1.5-0.3,2.3-0.7c2.3-1.6,4-3.5,5.3-5.8c0.8-1.8,1.4-3.8,1.8-5.8c0.5-2,0.6-4.2,0.4-6.6
	c-0.2-2-0.5-3.8-1-5.5c-0.4-1.8-0.9-3.4-1.5-5c-0.6-1.6-1.2-3.1-1.9-4.6c-0.7-1.5-1.4-2.9-2.1-4.2c-0.3,0.7-0.6,1.4-0.9,2.2
	c-0.2,0.7-0.5,1.5-0.8,2.2c-0.3,0.7-0.6,1.4-1.1,2c-0.4,0.6-0.9,1.1-1.5,1.6c-0.8,0.3-1.4,0.4-2,0.3c-0.6-0.1-1.1-0.3-1.8-0.5
	c-0.1-0.2-0.3-0.3-0.4-0.4c-0.1-0.1-0.2-0.2-0.4-0.3c-0.4-0.6-0.6-1.3-0.9-2.1c-0.2-0.8-0.4-1.5-0.4-2.3c-0.1-1.2-0.1-2.5-0.2-3.8
	c-0.1-1.3,0-2.3,0.4-3.1c0.4-0.3,0.9-0.4,1.4-0.3c0.6,0.1,1,0.4,1.3,0.9c-0.1,0.5-0.2,1.2-0.3,2c-0.1,0.8-0.1,1.6-0.1,2.6
	c0,0.9,0.1,1.8,0.3,2.8c0.2,0.9,0.5,1.7,1,2.4c0.7-0.5,1.3-1.2,1.7-2c0.4-0.9,0.7-1.7,1-2.5c0.3-0.9,0.6-1.7,0.8-2.6
	c0.3-0.9,0.6-1.8,0.8-2.7c0-0.2,0-0.4-0.1-0.5c-0.1-0.1-0.1-0.2,0-0.4c0.4-0.4,0.9-0.6,1.4-0.7c0.5-0.1,1,0,1.3,0.3
	c0.3,0.4,0.5,0.8,0.6,1.4c0.2,0.5,0.3,1.1,0.5,1.6c0.6,1.4,1.3,2.8,2.1,4.2c0.7,1.5,1.4,3,2.1,4.5c0.7,1.6,1.2,3.2,1.8,4.9
	c0.5,1.7,0.9,3.5,1.1,5.3c0.3,3.2,0.3,6.1,0,8.8s-1.1,5.2-2.3,7.4c-0.8,1.1-1.6,2.2-2.5,3.1c-0.9,1-2,1.9-3.3,2.7
	c-1.2,0.5-2.4,0.8-3.5,1c-1.9,0.3-3.7,0.1-5.3-0.5c-1.6-0.6-3.1-1.4-4.4-2.6c-1.3-1.1-2.4-2.4-3.2-4c-0.9-1.5-1.6-3-2-4.6
	c0-0.6-0.1-1.4-0.2-2.2c-0.2-0.8-0.2-1.5-0.2-2.2c0-0.6,0-1.3,0-1.9c0-0.6,0.1-1.4,0.2-2.2c0.1-0.8,0.2-1.5,0.4-2.3
	c0.1-0.8,0.4-1.6,0.8-2.2c-0.2-0.4-0.1-0.8,0.1-1.1c0.2-0.3,0.3-0.7,0.3-1.1c0.2-0.1,0.4-0.1,0.5,0.2c0.1,0.2,0.3,0.2,0.4-0.1
	C313.3,85.7,313.3,85.6,313.2,85.6z M313.2,85.6C313.2,85.8,313.2,85.8,313.2,85.6c-0.1,0-0.2,0-0.3,0c0.1-0.2,0.2-0.2,0.2-0.1
	C313.1,85.6,313.2,85.6,313.2,85.6z M335.5,66.2c0.2-0.1,0.4-0.1,0.5,0c0.1,0,0.3,0,0.5,0c0.4-0.4,0.8-0.6,1.2-0.7
	c0.4-0.1,0.9,0,1.3,0.1c0.5,0.1,0.9,0.3,1.3,0.5c0.1,0.2,0.3,0.4,0.4,0.6c0.2,0.1,0.3,0.4,0.4,0.8c0.6,0.4,1.1,0.9,1.7,1.5
	c0.6,0.6,1,1.2,1.2,1.9c0.2,0.8,0.1,1.7-0.1,2.6c-0.2,0.9-0.6,1.7-1.2,2.4c-0.5,0.7-1.1,1.3-1.9,1.8c-0.7,0.5-1.6,0.7-2.5,0.8
	c-0.7,0-1.3-0.2-1.8-0.5c-0.4-0.3-0.9-0.6-1.4-0.9c-0.2-0.6-0.5-1.1-0.8-1.3c-0.3-1.8-0.3-3.3,0-4.5c0.3-1.2,0.8-2.3,1.4-3.5
	C335.5,67.2,335.5,66.7,335.5,66.2z M339.3,75.3c0.5-0.7,1-1.3,1.5-2c0.5-0.7,0.6-1.6,0.3-2.7c-0.4-0.4-0.7-0.8-1.1-1.2
	c-0.3-0.5-0.9-0.7-1.6-0.7c-0.5,1.1-1,2.3-1.4,3.7c-0.4,1.3-0.3,2.5,0.2,3.7c0.4,0,0.8-0.1,1-0.2C338.6,75.6,338.9,75.5,339.3,75.3z
	 M348.5,65.4c0,0.2,0,0.4,0.1,0.5c0.1,0.1,0.1,0.2,0.1,0.4c-0.3,1.3-0.4,2.7-0.4,4.3c0.1,1.5,0.1,3,0.3,4.6c0.3-0.2,0.5-0.4,0.6-0.6
	c0.1-0.3,0.3-0.5,0.6-0.7c0.6-1.3,1.2-2.6,1.8-3.8c0.6-1.3,1.2-2.6,1.6-4c0-0.3,0-0.5,0-0.6c0.1-0.2,0.1-0.4,0.1-0.7
	c0.6-0.2,1.1-0.2,1.6,0.1c0.5,0.2,0.9,0.6,1.3,0.9c-0.1,1-0.2,2.1-0.3,3.3c-0.1,1.1,0.2,2.2,0.6,3.3c0.2,0.1,0.4,0,0.5-0.1
	c0.1-0.2,0.3-0.3,0.4-0.4c0.9-1.2,1.7-2.5,2.5-3.8c0.8-1.3,1.5-2.6,2.1-4c0.2,0.1,0.3,0.1,0.2,0c0-0.1,0.1-0.2,0.3-0.2
	c0.1,0.3,0.2,0.4,0.4,0.5c0.2,0.1,0.4,0.2,0.5,0.5c0,1.6-0.4,3-0.9,4.1c-0.6,1.1-1.2,2.1-1.9,3.2c-0.2,0.1-0.2,0.1-0.2,0
	c0-0.1-0.1-0.2-0.2-0.1c-0.1,0.2-0.1,0.3-0.1,0.4c0.1,0.1,0.1,0.2,0,0.4c-0.2,0.1-0.4,0.3-0.6,0.6c-0.1,0.2-0.3,0.5-0.5,0.7
	c-0.4,0.3-0.8,0.4-1.2,0.5c-0.4,0.1-0.8,0.1-1.2,0.3c-0.6-0.2-1.2-0.4-1.7-0.7c-0.5-0.3-0.9-0.8-1.2-1.5c-0.4,0.4-0.7,0.9-0.9,1.4
	c-0.2,0.5-0.5,1-0.8,1.6c-0.2,0.5-0.6,1-0.9,1.5c-0.4,0.4-0.8,0.8-1.4,1.1c-0.2,0.1-0.4,0.1-0.6,0.1c-0.2-0.1-0.4-0.1-0.5,0.1
	c-1.1-0.1-1.9-0.5-2.3-1.4c-0.4-0.9-0.7-1.8-0.8-2.9c-0.2-1.4-0.2-3-0.1-4.6c0.1-1.6,0.3-3,0.6-4c0.3-0.3,0.8-0.4,1.2-0.3
	C347.6,65.2,348.1,65.3,348.5,65.4z M379.6,45.4c1.2-0.3,2.5-0.6,3.9-1c1.4-0.4,2.8-0.7,4.2-0.9c1.4-0.2,2.7-0.3,3.9-0.2
	c1.3,0.1,2.4,0.4,3.5,1c0.1,0.2,0.2,0.4,0.2,0.5c0,0.1,0,0.2,0.1,0.4c-0.8,0-1.8,0-3.1,0c-1.3-0.1-2.5,0-3.6,0.2
	c-1.6,0.5-3.1,1-4.6,1.4c-1.5,0.4-3,0.9-4.5,1.6c-0.2,2.9-0.3,5.9-0.3,8.8c0,3,0.1,5.9,0.1,8.9c0.2,1.6,0.3,3.3,0.4,5.1
	c0.1,1.8,0.3,3.5,0.6,5.2c0.1,0.9,0.3,1.9,0.4,2.9c0.1,0.9,0.3,1.9,0.6,2.8c0.2,0.9,0.6,1.8,1,2.6c0.4,0.8,1,1.5,1.7,2
	c0.3,0.1,0.5,0,0.6-0.3c0.2-0.3,0.4-0.4,0.7-0.2c0.2,0.3,0.2,0.6,0.1,1c-0.1,0.4-0.2,0.7-0.3,0.9c-0.6,0.2-1,0.3-1.3,0.4
	c-0.3,0.1-0.8,0.1-1.4,0.1c-1-0.5-1.9-1.3-2.4-2.3c-0.6-1-1.1-2.2-1.5-3.4c-0.3-1.3-0.6-2.6-0.8-3.9c-0.2-1.4-0.4-2.6-0.6-3.8
	c-0.4-4.1-0.6-8.3-0.8-12.5c-0.2-4.2-0.2-8.6,0.1-13c-1.4,0.5-2.9,1.1-4.6,2c-1.7,0.8-3.3,1.7-5,2.7c-0.4,0.2-0.8,0.4-1.3,0.7
	c-0.5,0.2-0.9,0.3-1.2,0.3c-0.4,0-0.8-0.2-1.3-0.5c-0.5-0.4-0.7-0.8-0.7-1.3c0.6-0.6,1.4-1.1,2.2-1.5c0.8-0.4,1.6-0.8,2.4-1.2
	c0.8-0.5,1.6-0.9,2.4-1.2c0.8-0.3,1.6-0.7,2.3-1.2c0.9-0.2,1.7-0.5,2.4-0.9s1.5-0.7,2.4-1c0.1-0.6,0.2-1.3,0.1-2.2
	c-0.1-0.9-0.1-1.8,0-2.6c0-0.8,0.2-1.5,0.4-2.1c0.3-0.6,0.9-1,1.7-1c0.6,0.2,1,0.5,1.1,1c0.2,0.5,0.3,1.1,0.2,1.7s-0.1,1.2-0.2,1.9
	C379.6,44.3,379.6,44.9,379.6,45.4z M386.5,44.3c0,0.3,0.1,0.6,0.3,0.9c0.2,0.3,0.2,0.5,0.2,0.7c0.1,0.2,0,0.3-0.1,0.3
	c-0.2,0-0.3,0.1-0.3,0.2c0,3.2-0.2,6.3-0.6,9.1c-0.4,2.8-0.7,5.7-0.9,8.6c0.2-0.5,0.5-1,0.7-1.6c0.3-0.6,0.6-1.2,1-1.8
	c0.4-0.6,0.8-1.1,1.3-1.5c0.5-0.5,1.1-0.7,1.7-0.8c0.6-0.1,1.4,0,2.2,0.4c0.3,0.4,0.5,0.8,0.7,1.2c0.3,0.4,0.5,0.8,0.6,1.4
	c0.2,0.9,0.4,1.8,0.6,2.7c0.2,0.9,0.7,1.7,1.3,2.2c0.5-0.2,0.9-0.4,1.3-0.7c0.4-0.3,0.7-0.7,1-1c0.3-0.4,0.6-0.7,0.9-1.1
	c0.3-0.4,0.6-0.7,1-1c1-1.3,2-2.6,3.2-3.9c0.1,0.1,0.1,0.2,0.2,0.2c0.1,0,0.1,0,0.3,0.1c0,0.4-0.2,0.8-0.5,1.1
	c-0.2,0.3-0.2,0.6,0.2,1c-0.1,0.4-0.3,0.7-0.7,1c-0.3,0.3-0.3,0.6-0.2,1c-0.1,0-0.2,0.1-0.2,0.1c0,0.1-0.1,0-0.2,0
	c-0.4,1.1-1.1,2-1.9,2.8c-0.8,0.8-1.6,1.5-2.5,2.1c-0.6,0-1.1,0.1-1.7,0.2c-0.5,0.1-1,0-1.7-0.2c-1-0.7-1.7-1.8-2.2-3.2
	c-0.4-1.4-0.9-2.8-1.3-4.2c-0.8,0.8-1.4,1.6-1.9,2.6c-0.5,0.9-1,1.9-1.3,3c-0.3,1-0.6,2.1-0.9,3.2c-0.3,1.1-0.6,2.2-1,3.3
	c-0.4,0.2-0.5,0.3-0.5,0.4c-0.6-0.2-1.1-0.3-1.3-0.2c-0.3,0-0.8-0.2-1.4-0.4c0-0.2-0.1-0.4-0.2-0.5c-0.2-2-0.2-4,0-6.1
	c0.1-2,0.4-3.9,0.8-5.7c0.1-1.4,0.2-2.7,0.3-4c0.2-1.3,0.4-2.5,0.5-3.8c0.1-1.3,0.2-2.6,0.2-4c0.1-1.4,0.1-2.8-0.1-4.4
	c0.3-0.2,0.8-0.3,1.4-0.3C385.7,44.1,386.1,44.1,386.5,44.3z M386.4,69.4l0.2,0l0,0.2l-0.2,0L386.4,69.4z M402.3,46.9
	c0.3,0.4,0.6,0.8,0.7,1.1c0.2,0.3,0.4,0.8,0.4,1.4c-0.2,0.3-0.6,0.5-1,0.5c-0.4,0.1-0.8,0-1.2-0.1c-0.4-0.2-0.6-0.5-0.8-0.8
	c0-0.7,0.1-1.2,0.3-1.7C401.2,46.9,401.7,46.8,402.3,46.9z M401.2,57.5c0.4-0.1,0.8-0.1,1.3-0.1c0.5,0,0.9,0.2,1.2,0.4
	c0.1,0.1,0.1,0.2,0.1,0.4s0,0.3,0.1,0.3c-0.2,0.8-0.3,1.8-0.3,3c0.1,1.2,0.2,2.3,0.3,3.5c0.1,0.2,0.3,0.4,0.6,0.6
	c0.2,0.1,0.4,0.2,0.5,0.3c0.2,0.6,0.2,1,0.1,1.3c-0.1,0.3-0.3,0.5-0.7,0.7c-0.3,0-0.5,0.1-0.6,0.1c-0.1,0-0.3,0-0.6,0
	c-0.9-0.4-1.5-0.9-1.8-1.8c-0.4-0.9-0.6-1.8-0.7-2.8c-0.1-1.1-0.1-2.1,0-3.2c0.1-1,0.1-1.9,0.2-2.7C400.9,57.5,401,57.5,401.2,57.5z
	 M419.3,51.9c-0.3,0.1-0.6,0.1-0.8,0c-0.2-0.1-0.3-0.2-0.5-0.2c-0.1-0.1-0.3-0.3-0.5-0.3c-0.2-0.1-0.4-0.2-0.7-0.1
	c-1.7,1.3-3.3,2.6-4.7,4.1c-1.4,1.4-2.5,3.1-3.3,5.1c0,0.1,0,0.2,0,0.2c0.1,0,0.1,0,0.1,0.1c1.4,0.2,2.8,0.3,4.2,0.3
	c1.4-0.1,2.8,0.1,4.1,0.7c0.2,0,0.4-0.2,0.5-0.4c0.1-0.3,0.3-0.3,0.5-0.1c0.1-0.2,0.2-0.4,0.2-0.6c0.1-0.2,0.3-0.3,0.5-0.2
	c0-0.1,0.1-0.2,0.1-0.3c0-0.1,0-0.2,0-0.3c0.3,0,0.5,0,0.6-0.1c0.1-0.1,0.2-0.2,0.2-0.3c0.1-0.2,0.1-0.3,0.2-0.4
	c0.1-0.1,0.2-0.2,0.4-0.2c0.1-0.2,0.2-0.5,0.4-0.9c0.2,0,0.2,0.1,0.1,0.1c0,0.1,0,0.1,0.1,0.2c0.4-0.5,0.8-0.9,1.2-1.3
	c0.5-0.4,0.9-0.9,1.2-1.5c0.3,0,0.5-0.1,0.7-0.3c0.2-0.1,0.4-0.3,0.6-0.5c0.2-0.2,0.4-0.4,0.6-0.5c0.2-0.1,0.5-0.2,0.9-0.2
	c0.1,0.4,0,0.9-0.2,1.3c-0.2,0.4-0.4,0.7-0.7,0.7c-0.1,0.1-0.1,0.2,0,0.2c0.1,0,0.2,0.1,0.1,0.3c-0.9,1.1-1.8,2.1-2.8,3.2
	c-0.9,1-1.8,2-2.6,3.1c0.6,0.8,1,1.7,1.1,2.7c0,0.9-0.1,1.7-0.5,2.3c-0.3,0.6-0.6,1.2-0.9,1.8c-0.4,0.3-0.8,0.8-1.2,1.4
	c-0.7,0.5-1.3,0.9-2,1.4c-0.6,0.4-1.5,0.6-2.6,0.5c-0.1-0.1-0.2-0.2-0.4-0.2c-0.1,0-0.2-0.2-0.3-0.4c-0.6-0.1-0.9-0.3-1.1-0.6
	c-0.2-0.4-0.4-0.8-0.6-1.2c0-0.8,0.1-1.4,0.3-1.9c0.2-0.6,0.5-1.1,0.8-1.6c0.4-0.5,0.7-1,1-1.4c0.4-0.4,0.7-0.9,0.9-1.3
	c0.1-0.2,0.3-0.4,0.5-0.6c0.2-0.1,0.3-0.3,0.4-0.5c-0.6-0.1-1.3-0.2-2-0.2c-0.7-0.1-1.3-0.1-1.9,0c-0.8,0-1.7-0.2-2.6-0.4
	c-0.8-0.3-1.6-0.7-2.3-1.2c-0.1-0.4-0.3-0.7-0.7-0.9c-0.2-0.5-0.3-1-0.2-1.3c0-0.4,0.2-0.8,0.4-1.2c0.2-0.3,0.4-0.7,0.7-1
	c0.2-0.4,0.4-0.7,0.5-1c0.7-0.7,1.5-1.6,2.4-2.6c0.9-1,1.8-2,2.7-2.8c0.5-0.4,1-0.8,1.5-1.1c0.5-0.4,1.1-0.6,1.8-0.7
	c0.5-0.1,1.1,0,1.8,0.1c0.2,0.2,0.4,0.3,0.6,0.5c0.2,0.1,0.5,0.3,0.7,0.5c0.2,0.1,0.4,0.3,0.6,0.6c0.1,0.2,0.2,0.5,0.1,1
	c-0.1,0-0.2,0.1-0.1,0.2C419.4,51.8,419.3,51.9,419.3,51.9z M417.5,65.5c-0.5,0.8-1.1,1.5-1.8,2.3c-0.6,0.7-1,1.5-1.3,2.5
	c0.9-0.6,1.7-1.3,2.2-2.1c0.6-0.8,1-1.8,1.3-2.8L417.5,65.5z"/>
<path class="st1" d="M13.9,67C39,8.9,126.1-29.5,225.2,44.2"/>
<path class="st1" d="M2.5,46c0.8,12.8,3.9,38.5,10.4,38.4C21,84.2,20.2,59.6,46,53.1"/>
</svg>
