<svg width="66" height="66" viewBox="0 0 66 66" fill="none" xmlns="http://www.w3.org/2000/svg">
<path fill-rule="evenodd" clip-rule="evenodd" d="M33 0C14.782 0 0 14.782 0 33C0 51.218 14.782 66 33 66C51.1822 66 66 51.218 66 33C66 14.782 51.1822 0 33 0ZM54.7972 15.2115C58.7343 20.0076 61.0965 26.128 61.1681 32.7495C60.2375 32.5705 50.9317 30.6736 41.5543 31.8546C41.3395 31.3894 41.1605 30.8883 40.9458 30.3872C40.3731 29.0271 39.7288 27.6312 39.0846 26.3069C49.4642 22.0835 54.1887 15.9989 54.7972 15.2115ZM33 4.86768C40.1584 4.86768 46.7083 7.55205 51.6833 11.9544C51.1822 12.6703 46.923 18.3612 36.9013 22.1193C32.2842 13.6367 27.1659 6.69306 26.3785 5.61931C28.4902 5.11822 30.7093 4.86768 33 4.86768ZM21.0098 7.51628C21.7614 8.51842 26.7722 15.4979 31.4609 23.8015C18.2896 27.3091 6.65729 27.2375 5.40455 27.2375C7.2299 18.5044 13.1356 11.2386 21.0098 7.51628ZM4.79609 33.0358C4.79609 32.7495 4.79609 32.4632 4.79609 32.1768C6.01302 32.2126 19.6855 32.3915 33.7516 28.1681C34.5748 29.743 35.3264 31.3536 36.0423 32.9642C35.6843 33.0716 35.2907 33.179 34.9327 33.2863C20.4013 37.9751 12.6703 50.7885 12.0261 51.8623C7.55205 46.8872 4.79609 40.2657 4.79609 33.0358ZM33 61.2039C26.4859 61.2039 20.4729 58.9848 15.7126 55.2625C16.2137 54.2245 21.9404 43.2006 37.8319 37.6529C37.9035 37.6172 37.9392 37.6172 38.0109 37.5813C41.9837 47.8536 43.5944 56.4794 44.0238 58.949C40.6237 60.4165 36.9013 61.2039 33 61.2039ZM48.7126 56.3721C48.4262 54.654 46.923 46.4219 43.2365 36.2929C52.077 34.897 59.808 37.1876 60.7744 37.5098C59.5575 45.3481 55.0477 52.1128 48.7126 56.3721Z" fill="white"/>
</svg>
