<svg width="298" height="105" viewBox="0 0 298 105" fill="none" xmlns="http://www.w3.org/2000/svg">
<g clip-path="url(#clip0_4359_4277)">
<path d="M69.4644 59.6845L73.1392 56.7768L54.5696 17.6406L36 56.7768L39.6749 59.6846C41.509 53.211 47.483 48.4664 54.5696 48.4664C61.6562 48.4664 67.6302 53.2108 69.4644 59.6845Z" fill="white"/>
<path d="M66.0771 62.3635L61.67 65.8505L58.9343 74.5923C57.5869 75.1373 56.1135 75.4376 54.5699 75.4376C53.0261 75.4376 51.5528 75.1373 50.2054 74.5923L47.4697 65.8506L43.0625 62.3635C43.8072 56.695 48.6754 52.3184 54.5699 52.3184C60.4643 52.3184 65.3324 56.695 66.0771 62.3635Z" fill="white"/>
<path d="M51.5859 79.0059L54.5696 88.5397L57.5532 79.0059C56.5877 79.1937 55.5902 79.2921 54.5696 79.2921C53.5489 79.2921 52.5513 79.1937 51.5859 79.0059Z" fill="white"/>
<path d="M91.9888 66.9524H87.3984L92.2779 39.4844H110.495L109.772 43.5884H96.1093L94.7719 51.1484H106.916L106.23 55.2164H94.0852L91.9888 66.9524Z" fill="white"/>
<path d="M113.551 66.9524C112.226 66.9524 111.226 66.7004 110.551 66.1964C109.876 65.6924 109.539 64.8644 109.539 63.7124C109.539 63.2564 109.587 62.7884 109.684 62.3084L113.732 39.4844H117.997L114.129 61.1924C114.057 61.5524 114.021 61.8645 114.021 62.1284C114.021 62.5845 114.153 62.9085 114.419 63.1004C114.684 63.2924 115.093 63.3884 115.647 63.3884H116.84L116.226 66.9524H113.551Z" fill="white"/>
<path d="M118.43 74.2961L119.08 70.6601H121.177C121.948 70.6601 122.538 70.5521 122.948 70.3361C123.357 70.1201 123.779 69.6161 124.213 68.8241L125.297 66.8801L121.249 46.8281H125.695L128.225 61.9121L135.599 46.8281H140.406L128.117 69.8681C127.225 71.5482 126.297 72.7002 125.333 73.3241C124.393 73.9721 123.165 74.2961 121.647 74.2961H118.43Z" fill="white"/>
<path d="M144.582 66.9524H139.992L144.872 39.4844H152.354L154.739 61.4084L164.895 39.4844H172.92L168.04 66.9524H163.45L167.752 42.7244L156.257 66.9524H151.775L148.848 42.9044L144.582 66.9524Z" fill="white"/>
<path d="M182.176 67.3487C180.441 67.3487 178.936 67.0007 177.659 66.3047C176.381 65.6087 175.406 64.6487 174.731 63.4247C174.056 62.1767 173.719 60.7487 173.719 59.1407C173.719 56.9087 174.249 54.8207 175.309 52.8767C176.37 50.9327 177.828 49.3847 179.683 48.2327C181.539 47.0567 183.574 46.4688 185.791 46.4688C187.358 46.4688 188.779 46.7687 190.056 47.3688C191.334 47.9448 192.346 48.8327 193.093 50.0328C193.84 51.2087 194.213 52.6607 194.213 54.3887C194.189 55.2527 194.045 56.3807 193.779 57.7727H178.129V58.3847C178.129 59.9207 178.55 61.1807 179.394 62.1648C180.261 63.1487 181.441 63.6407 182.935 63.6407C184.141 63.6407 185.238 63.3287 186.225 62.7047C187.236 62.0567 188.031 61.2527 188.61 60.2927H193.02C191.984 62.3807 190.539 64.0847 188.683 65.4047C186.828 66.7007 184.659 67.3487 182.176 67.3487ZM189.948 54.4248C189.948 53.9447 189.864 53.5367 189.695 53.2008C189.55 52.1687 189.069 51.3647 188.249 50.7887C187.43 50.2127 186.441 49.9248 185.285 49.9248C184.225 49.9248 183.249 50.1527 182.358 50.6087C181.466 51.0407 180.695 51.6767 180.044 52.5167C179.563 53.0447 179.201 53.6807 178.96 54.4248H189.948Z" fill="white"/>
<path d="M208.3 67.4168C205.843 67.4168 203.794 66.9488 202.156 66.0128C200.518 65.0529 199.3 63.7569 198.505 62.1248C197.71 60.4688 197.312 58.5968 197.312 56.5088C197.312 53.3169 197.988 50.3888 199.336 47.7248C200.71 45.0608 202.614 42.9489 205.048 41.3888C207.481 39.8289 210.24 39.0488 213.325 39.0488C216.986 39.0488 219.734 40.0568 221.565 42.0728C223.398 44.0649 224.313 46.6808 224.313 49.9208C224.313 53.0888 223.625 56.0169 222.252 58.7048C220.902 61.3688 218.999 63.4928 216.541 65.0768C214.107 66.6369 211.361 67.4168 208.3 67.4168ZM209.024 63.3128C211.12 63.3128 212.962 62.7249 214.554 61.5488C216.144 60.3489 217.373 58.7768 218.24 56.8328C219.108 54.8649 219.541 52.7648 219.541 50.5328C219.541 48.2529 218.939 46.4529 217.734 45.1328C216.553 43.7889 214.843 43.1168 212.601 43.1168C210.505 43.1168 208.661 43.7169 207.071 44.9168C205.481 46.0929 204.253 47.6528 203.385 49.5968C202.541 51.5408 202.12 53.6288 202.12 55.8608C202.12 58.1648 202.71 59.9889 203.891 61.3328C205.071 62.6529 206.783 63.3128 209.024 63.3128Z" fill="white"/>
<path d="M232.415 67.3481C229.378 67.3481 227.512 66.2442 226.812 64.0361C226.62 63.4122 226.523 62.7282 226.523 61.9841C226.523 61.3361 226.645 60.2082 226.885 58.6001L228.981 46.8281H233.246L231.186 58.6361C231.041 59.4522 230.97 60.1602 230.97 60.7601C230.97 61.6482 231.138 62.3322 231.475 62.8121C231.957 63.4601 232.812 63.7841 234.041 63.7841C235.44 63.7841 236.607 63.3521 237.547 62.4881C238.126 61.9362 238.608 61.1921 238.993 60.2561C239.38 59.3201 239.705 58.0842 239.97 56.5481L241.705 46.8281H245.97L242.391 66.9521H238.126L238.632 64.2161C237.596 65.3202 236.585 66.1241 235.596 66.6281C234.632 67.1082 233.571 67.3481 232.415 67.3481Z" fill="white"/>
<path d="M253.406 66.9524C252.081 66.9524 251.069 66.7004 250.37 66.1964C249.695 65.6684 249.358 64.8404 249.358 63.7124C249.358 63.2564 249.406 62.7884 249.502 62.3084L251.635 50.3564H248.562L249.176 46.8284H252.249L253.55 39.4844H257.815L256.514 46.8284H260.599L259.984 50.3564H255.9L253.984 61.1204C253.889 61.6004 253.84 61.9244 253.84 62.0924C253.84 62.5244 253.96 62.8484 254.201 63.0644C254.443 63.2804 254.876 63.3884 255.503 63.3884H257.635L257.02 66.9524H253.406Z" fill="white"/>
</g>
<defs>
<clipPath id="clip0_4359_4277">
<rect width="225" height="72" fill="white" transform="translate(36 17)"/>
</clipPath>
</defs>
</svg>
