<svg width="374" height="42" viewBox="0 0 374 42" fill="none" xmlns="http://www.w3.org/2000/svg">
<g clip-path="url(#clip0_2158_23468)">
<path d="M0.480658 19.8917C0.305131 17.4685 0.643361 15.0355 1.47321 12.7521C2.30305 10.4686 3.60581 8.38615 5.29618 6.64103C6.98655 4.89591 9.02644 3.52746 11.2823 2.62528C13.5381 1.72309 15.9591 1.30751 18.3867 1.40573C22.251 0.981906 26.131 2.05244 29.2313 4.39785C32.3315 6.74325 34.4171 10.1858 35.0603 14.0197H27.8109C27.3724 11.9185 26.16 10.0589 24.4142 8.81002C22.6684 7.56112 20.5169 7.01419 18.3867 7.27775C16.7927 7.26265 15.2142 7.59132 13.7586 8.24137C12.3031 8.89141 11.0048 9.84756 9.95219 11.0447C8.89957 12.2418 8.11734 13.6517 7.65882 15.1784C7.20029 16.7051 7.07623 18.3127 7.2951 19.8917C7.08758 21.4652 7.22015 23.0648 7.68385 24.5827C8.14755 26.1005 8.93158 27.5011 9.98298 28.69C11.0344 29.8788 12.3287 30.8282 13.7784 31.4739C15.2282 32.1197 16.7997 32.4468 18.3867 32.4332C20.496 32.6348 22.6076 32.0724 24.3372 30.8484C26.0668 29.6243 27.2995 27.82 27.8109 25.7637H34.6254C34.0497 29.5462 32.0443 32.9635 29.0227 35.3106C26.0012 37.6577 22.194 38.7556 18.3867 38.3777C15.9561 38.4876 13.5299 38.08 11.2686 37.1818C9.00739 36.2837 6.96269 34.9155 5.26987 33.1679C3.57706 31.4202 2.27474 29.333 1.44911 27.0443C0.623486 24.7556 0.293385 22.3176 0.480658 19.8917V19.8917Z" fill="white"/>
<path d="M59.4969 29.5333H45.5056L42.3158 37.9426H35.0664L49.5652 1.76807H56.0172L69.9361 38.0151H62.6866L59.4969 29.5333ZM57.3946 23.7338L52.5375 10.5398L47.6804 23.7338H57.3946Z" fill="white"/>
<path d="M70.5195 25.8351H77.1165C77.2798 27.6425 78.1151 29.3229 79.4573 30.5444C80.7996 31.7658 82.5511 32.4394 84.3659 32.432C88.2081 32.432 90.8904 30.9097 90.8904 27.6474C90.8904 19.963 71.462 25.3276 71.462 11.4812C71.462 5.53673 76.609 1.40457 83.9309 1.40457C85.537 1.21342 87.1653 1.35609 88.7137 1.82365C90.2621 2.29122 91.6973 3.07358 92.9292 4.12172C94.1611 5.16985 95.1632 6.46116 95.8727 7.91469C96.5822 9.36823 96.9838 10.9527 97.0524 12.5687H90.5279C90.4468 11.7862 90.2112 11.0276 89.8347 10.3368C89.4582 9.6461 88.9484 9.03695 88.3348 8.54469C87.7211 8.05244 87.0159 7.68688 86.26 7.4692C85.504 7.25152 84.7124 7.18605 83.9309 7.27659C80.3787 7.27659 78.1314 8.94395 78.1314 11.4812C78.1314 19.4556 97.8498 13.4386 97.8498 27.5749C97.8498 34.3169 92.3402 38.3765 84.3659 38.3765C82.6216 38.5153 80.8674 38.2958 79.2111 37.7316C77.5548 37.1674 76.0314 36.2704 74.7345 35.0957C73.4377 33.9211 72.3948 32.4936 71.6699 30.901C70.945 29.3085 70.5536 27.5845 70.5195 25.8351V25.8351Z" fill="white"/>
<path d="M102.855 1.76807H126.923V7.71258H109.67V16.4844H123.516V22.3564H109.67V31.9981H127.503V37.9426H102.855V1.76807Z" fill="white"/>
<path d="M142.078 25.8351H148.603C148.766 27.6425 149.601 29.3229 150.943 30.5444C152.286 31.7658 154.037 32.4394 155.852 32.432C159.694 32.432 162.376 30.9096 162.376 27.6474C162.376 19.963 142.948 25.3276 142.948 11.4812C142.948 5.53673 148.095 1.40457 155.417 1.40457C157.023 1.21342 158.651 1.35609 160.2 1.82365C161.748 2.29122 163.183 3.07358 164.415 4.12172C165.647 5.16985 166.649 6.46116 167.359 7.91469C168.068 9.36823 168.47 10.9527 168.538 12.5687H162.014C161.933 11.7862 161.697 11.0276 161.321 10.3368C160.944 9.6461 160.435 9.03694 159.821 8.54469C159.207 8.05244 158.502 7.68688 157.746 7.4692C156.99 7.25152 156.198 7.18605 155.417 7.27659C151.865 7.27659 149.618 8.94395 149.618 11.4812C149.618 19.4556 169.336 13.4386 169.336 27.5749C169.336 34.3169 163.826 38.3765 155.852 38.3765C154.111 38.5156 152.361 38.2959 150.708 37.7309C149.056 37.166 147.537 36.2679 146.246 35.0922C144.955 33.9166 143.919 32.4883 143.202 30.896C142.485 29.3037 142.102 27.5812 142.078 25.8351V25.8351Z" fill="white"/>
<path d="M181.372 7.71258H170.426V1.76807H199.423V7.71258H188.187V37.9426H181.372V7.71258Z" fill="white"/>
<path d="M202.301 24.8937V1.76807H209.043V24.9662C209.23 26.9034 210.132 28.7014 211.572 30.0098C213.013 31.3182 214.89 32.043 216.836 32.043C218.782 32.043 220.658 31.3182 222.099 30.0098C223.54 28.7014 224.442 26.9034 224.629 24.9662V1.76807H230.791V24.8937C230.917 26.786 230.62 28.6825 229.92 30.4454C229.221 32.2083 228.138 33.7932 226.749 35.0847C225.36 36.3763 223.701 37.342 221.892 37.9116C220.083 38.4812 218.17 38.6404 216.292 38.3776C214.456 38.5471 212.605 38.3188 210.865 37.7082C209.124 37.0977 207.536 36.1193 206.209 34.8396C204.881 33.56 203.844 32.0092 203.17 30.2928C202.496 28.5765 202.199 26.7349 202.301 24.8937V24.8937Z" fill="white"/>
<path d="M236.973 1.7672H248.717C251.15 1.59853 253.592 1.94994 255.879 2.79806C258.166 3.64618 260.246 4.97157 261.981 6.68606C263.716 8.40055 265.066 10.4648 265.941 12.7416C266.817 15.0184 267.197 17.4555 267.058 19.8907C267.201 22.3362 266.817 24.7838 265.933 27.0682C265.048 29.3526 263.684 31.4204 261.931 33.1318C260.178 34.8432 258.079 36.1583 255.774 36.9881C253.469 37.8179 251.013 38.1431 248.572 37.9417H236.973V1.7672ZM248.137 31.9972C249.769 32.1527 251.415 31.947 252.958 31.3946C254.501 30.8423 255.904 29.9568 257.067 28.8012C258.229 27.6456 259.123 26.2482 259.684 24.7082C260.246 23.1682 260.462 21.5234 260.316 19.8907C260.473 18.2523 260.266 16.5994 259.709 15.0503C259.153 13.5013 258.261 12.0945 257.097 10.9306C255.933 9.76673 254.526 8.87461 252.977 8.31813C251.428 7.76164 249.775 7.55456 248.137 7.71172H243.787V31.9972H248.137Z" fill="white"/>
<path d="M278.719 22.9363L266.25 1.76807H273.499L281.981 16.2669L290.536 1.76807H297.785L285.533 22.9363V37.9426H278.719V22.9363Z" fill="white"/>
<path d="M370.931 19.5269H309.891V24.9639H370.931V19.5269Z" fill="white"/>
<path d="M350.5 41.9286H345.062C345.328 37.3364 347.044 32.9468 349.961 29.3907C352.879 25.8347 356.849 23.2953 361.301 22.1377C357.286 20.1617 353.755 17.3248 350.961 13.8289C348.167 10.333 346.178 6.26412 345.135 1.91189L350.5 0.896973C351.691 6.09996 354.584 10.757 358.72 14.1313C362.856 17.5057 367.999 19.4047 373.335 19.5279V24.965C373.335 24.965 350.5 26.8498 350.5 41.9286Z" fill="white"/>
</g>
<defs>
<clipPath id="clip0_2158_23468">
<rect width="372.909" height="41.0316" fill="white" transform="translate(0.488281 0.896973)"/>
</clipPath>
</defs>
</svg>
