<svg width="298" height="105" viewBox="0 0 298 105" fill="none" xmlns="http://www.w3.org/2000/svg">
<path d="M34.8763 40.1328H27.8672V65.6401H34.8763V40.1328Z" fill="white"/>
<path d="M61.702 65.6407H54.6425V50.825C54.6425 47.8721 53.0289 46.192 50.2555 46.192C47.6334 46.192 46.171 48.5849 45.8685 49.094V65.6407H38.8594V40.1333H45.5155V42.7808C46.5744 41.4571 48.7931 39.5733 52.4237 39.5733C54.8946 39.5224 57.2646 40.4388 58.979 42.1189C60.7943 43.9009 61.7524 46.3447 61.7524 49.2467V65.6407H61.702Z" fill="white"/>
<path d="M31.3941 37.125C28.9233 37.125 26.9062 35.0885 26.9062 32.5937C26.9062 30.0481 28.8728 28.0625 31.3941 28.0625C33.8649 28.0625 35.8819 30.099 35.8819 32.5937C35.8819 35.0885 33.8649 37.125 31.3941 37.125Z" fill="white"/>
<path d="M76.2192 66.0961C68.958 66.0961 65.0753 61.6667 64.924 61.463L64.6719 61.2085L68.5546 56.1681L68.9076 56.5245C68.958 56.5754 72.0844 59.8848 75.9167 59.8848C77.8328 59.8848 80.102 59.4265 80.102 58.1028C80.102 56.8809 79.3456 56.6263 75.6141 55.8117C69.311 54.3862 66.2351 51.7387 66.2351 47.6148C66.2351 43.6945 70.0674 39.4688 77.1773 39.4688C82.7745 39.4688 86.4556 42.4726 86.6068 42.5744L86.9094 42.829L83.3292 48.1239L82.9762 47.8693C82.9258 47.8693 80.2533 45.8328 77.1773 45.8328C74.9586 45.8328 73.1937 46.6474 73.1937 47.7166C73.1937 48.7858 74.5048 49.1422 78.6397 50.0077C83.0266 50.975 87.2624 52.4006 87.2624 58.1028C87.2624 62.634 82.472 66.0961 76.2192 66.0961Z" fill="white"/>
<path d="M103.197 66.3022C98.1547 66.3022 94.4736 62.4328 94.4736 57.087V46.5481H89.6328V40.1331H94.4736V32.8525H101.533V40.1331H108.845V46.6499H101.533V56.1197C101.533 58.4107 102.441 59.5817 104.256 59.5817C105.466 59.5817 106.576 58.818 106.626 58.7671L107.08 58.4616L109.652 64.3166L109.349 64.5203C109.248 64.6221 106.878 66.3022 103.197 66.3022Z" fill="white"/>
<path d="M120.857 66.1959C118.437 66.1959 116.168 65.3812 114.503 63.9048C112.638 62.2756 111.68 60.0863 111.68 57.4898C111.68 52.6531 116.067 48.8855 121.664 48.8855C124.841 48.8855 126.959 49.751 127.967 50.3111V49.751C127.967 48.4273 126.959 45.9326 123.177 45.9326C119.748 45.9326 116.067 47.7145 116.067 47.7145L115.663 47.9182L113.344 41.9614L113.697 41.8087C113.898 41.7068 118.386 39.5176 123.53 39.5176C130.64 39.5176 135.027 43.2342 135.027 49.191V65.6867H128.471V63.2938C127.261 64.363 124.79 66.1959 120.857 66.1959ZM122.773 54.3332C121.26 54.3332 118.689 54.995 118.689 57.3879C118.689 59.7808 121.21 60.1372 122.672 60.1372C125.748 60.1372 127.564 57.9989 127.917 57.4898V55.3514C127.311 55.1478 125.395 54.3332 122.773 54.3332Z" fill="white"/>
<path d="M161.644 65.6407H154.635V50.825C154.635 47.8721 153.021 46.192 150.248 46.192C147.626 46.192 146.163 48.5849 145.861 49.094V65.6407H138.852V40.1333H145.508V42.7808C146.567 41.4571 148.785 39.5733 152.416 39.5733C154.937 39.5224 157.257 40.4388 158.971 42.1189C160.786 43.9009 161.694 46.3447 161.694 49.2467V65.6407H161.644Z" fill="white"/>
<path d="M177.978 66.3022C172.936 66.3022 169.255 62.4328 169.255 57.087V46.5481H164.414V40.1331H169.255V32.8525H176.264V40.1331H183.576V46.6499H176.264V56.1197C176.264 58.4107 177.172 59.5817 178.987 59.5817C180.197 59.5817 181.306 58.7671 181.357 58.7671L181.811 58.4616L184.382 64.3166L184.08 64.5203C184.029 64.6221 181.659 66.3022 177.978 66.3022Z" fill="white"/>
<path d="M194.525 77.6031H187.516V40.1313H194.071V42.5242C195.18 41.3532 197.399 39.5713 200.979 39.5713C207.887 39.5713 213.283 45.4263 213.283 52.9613C213.283 56.678 211.972 60.0891 209.602 62.5838C207.282 65.0276 204.257 66.3514 201.03 66.3514C197.752 66.3514 195.685 64.8749 194.626 63.8567V77.6031H194.525ZM194.525 56.4234C194.827 56.9325 196.441 59.4782 199.87 59.4782C203.601 59.4782 206.072 56.7798 206.072 52.8086C206.072 48.8374 203.551 46.139 199.87 46.139C196.441 46.139 194.827 48.6847 194.525 49.1938V56.4234Z" fill="white"/>
<path d="M225.021 66.1959C222.601 66.1959 220.332 65.3812 218.668 63.9048C216.802 62.2756 215.844 60.0863 215.844 57.4898C215.844 52.6531 220.231 48.8855 225.828 48.8855C229.005 48.8855 231.123 49.751 232.131 50.3111V49.751C232.131 48.4273 231.123 45.9326 227.341 45.9326C223.912 45.9326 220.231 47.7145 220.231 47.7145L219.827 47.9182L217.508 41.9614L217.861 41.8087C218.062 41.7068 222.55 39.5176 227.694 39.5176C234.804 39.5176 239.191 43.2342 239.191 49.191V65.6867H232.635V63.2938C231.425 64.363 228.954 66.1959 225.021 66.1959ZM226.937 54.3332C225.425 54.3332 222.853 54.995 222.853 57.3879C222.853 59.7808 225.374 60.1372 226.836 60.1372C229.912 60.1372 231.728 57.9989 232.081 57.4898V55.3514C231.476 55.1478 229.559 54.3332 226.937 54.3332Z" fill="white"/>
<path d="M249.082 78.0628C245.3 78.0628 242.375 75.4153 242.224 75.3135L241.972 75.0589L245.35 69.5095L245.753 69.9168C245.753 69.9168 247.266 71.4441 248.729 71.4441C250.645 71.4441 251.351 70.9859 252.46 68.1348L253.368 65.7928L241.266 40.1328H249.082L256.948 57.3922L263.15 40.1328H270.764L258.662 70.7823C256.746 75.619 253.519 78.0628 249.082 78.0628Z" fill="white"/>
</svg>
