<svg width="298" height="105" viewBox="0 0 298 105" fill="none" xmlns="http://www.w3.org/2000/svg">
<path d="M60.4626 41.6562L60.5555 41.7465L60.6518 41.6584C63.0565 39.4576 65.2608 38.0007 68.0201 36.788L68.6012 36.5327L52.2029 36.6054L52.904 36.8585C55.9794 37.9666 57.9571 39.2221 60.4626 41.6562Z" fill="white"/>
<path d="M20.1474 44.9179C19.1778 45.182 19 45.7432 19 46.7534V52.8969C19 53.632 19.5143 54.1459 20.2516 54.1459H21.842V53.0279C21.842 49.5759 22.7583 46.3594 24.4223 43.9694L24.6318 43.6678L20.1474 44.9179Z" fill="white"/>
<path d="M100.737 44.919L96.5746 43.6909L96.7989 44.0035C98.6792 46.6213 99.241 49.1005 98.8038 52.8485L98.6509 54.1459H100.63C101.367 54.1459 101.881 53.632 101.881 52.8969V46.7534C101.881 45.7509 101.71 45.2216 100.737 44.919Z" fill="white"/>
<path d="M93.8202 41.9501C91.3622 39.3323 88.1532 37.7136 84.7846 37.3912L83.892 37.3053L84.7177 37.6443C88.9756 39.3895 91.8368 45.0962 91.8368 51.845C91.8368 57.2865 89.9577 61.2171 86.2526 63.5269L85.702 63.8702L86.3477 63.7689C89.3732 63.2925 92.1948 61.7849 94.2937 59.5225C96.4617 57.1852 97.6556 54.2262 97.6556 51.188C97.6556 47.8648 96.2929 44.5845 93.8202 41.9501Z" fill="white"/>
<path d="M89.4989 45.6618C88.5587 42.7787 86.8075 40.3468 84.4334 38.6313C82.1204 36.9598 79.3837 36.0762 76.5202 36.0762C71.6088 36.0762 65.7708 38.7094 61.6466 42.7842L61.5548 42.8745L61.6443 42.9669C63.7115 45.1094 65.2815 47.8912 66.5852 51.7217L66.7744 52.2785L66.8491 51.6964C67.5106 46.5212 72.3088 41.1688 79.1923 41.1688C83.0503 41.1688 87.0035 42.9801 89.2633 45.7828L89.7265 46.3583L89.4989 45.6618Z" fill="white"/>
<path d="M57.3558 61.885C56.0702 60.1628 54.9363 57.7518 54.1638 55.0933L53.9577 54.3824L53.8976 55.1186C53.4876 60.1782 48.669 65.4723 41.3166 65.5746L40.2213 65.59L41.2871 65.8354C42.643 66.1468 43.9807 66.2987 45.3762 66.2987C49.744 66.2987 53.7662 64.8736 57.3309 62.0643L57.4305 61.9851L57.3558 61.885Z" fill="white"/>
<path d="M95.2153 60.4666C92.4753 63.7381 86.7958 65.9368 81.0847 65.9368C77.3694 65.9368 74.3609 64.9805 71.8882 63.0141C69.4427 61.0697 67.5159 58.1316 65.9958 54.0337L64.9141 51.1429C61.3744 41.729 53.0206 36.1092 42.5691 36.1092C36.961 36.1092 32.13 37.7356 28.5971 40.8123C25.0619 43.8913 23.1929 48.1036 23.1929 52.9949C23.1929 57.7024 25.0347 61.9973 28.3796 65.0894C31.7222 68.1794 36.3652 69.8806 41.4545 69.8806C46.2006 69.8806 50.4834 68.5513 53.5111 66.1381L54.3516 65.4691L53.3672 65.9169C50.7258 67.1186 48.1013 67.6787 45.1064 67.6787C40.3637 67.6787 36.3267 66.2702 33.4326 63.605C30.5408 60.9409 29.0117 57.2271 29.0117 52.864C29.0117 48.8024 30.431 45.1193 33.0067 42.4927C35.6086 39.8396 39.2933 38.3782 43.3824 38.3782C47.3729 38.3782 50.5898 39.2861 53.2189 41.1535C56.1243 43.2178 58.4395 46.5157 60.2983 51.2365L61.9215 55.3432C65.7432 64.9904 71.8384 69.8817 80.0381 69.8817C83.4487 69.8817 86.6758 69.052 89.3728 67.4817C92.1841 65.8443 94.2853 63.4652 95.4486 60.6009L95.7703 59.8075L95.2153 60.4666Z" fill="white"/>
<path d="M71.5645 68.8373C66.8071 67.0151 63.2538 62.6002 60.0437 54.5244L58.5893 50.8127C55.6295 43.2111 50.8767 39.8208 43.1776 39.8208C39.6345 39.8208 36.4448 41.061 33.9528 43.4059H33.9551C35.9294 41.8367 38.7918 41.1688 41.6893 41.1688C44.6196 41.1688 47.1874 42.0524 49.3203 43.7944C51.5552 45.6199 53.3358 48.4095 54.6135 52.0837L55.898 55.7634C58.4885 63.1824 64.0263 67.9152 71.492 69.0904L72.7358 69.2863L71.5645 68.8373Z" fill="white"/>
<path d="M164.81 45.4954C161.341 45.4954 158.588 46.7828 157.109 49.3099L156.803 46.2379H151.855V69.7719H157.719V56.6437C157.719 53.2742 159.299 50.6494 163.328 50.6494C167.103 50.6494 168.479 53.2742 168.479 56.6437V69.7719H174.343V54.909C174.348 49.6551 171.134 45.4954 164.81 45.4954Z" fill="white"/>
<path d="M136.864 45.4954C129.163 45.4954 123.962 51.0446 123.962 57.981C123.962 64.5701 128.756 70.5145 136.966 70.5145C142.524 70.5145 146.757 67.8397 148.645 63.528L143.291 61.8433C142.272 64.1229 139.977 65.3604 137.018 65.3604C132.837 65.3604 130.439 62.8333 129.826 59.7613H149.001C149.716 51.3398 144.719 45.4954 136.864 45.4954ZM129.929 55.6515C130.745 52.827 133.091 50.6473 136.866 50.6473C140.538 50.6473 142.73 52.9269 143.242 55.6515H129.929Z" fill="white"/>
<path d="M118.482 35.6104H115.448L115.445 69.7695H121.309L121.312 38.3589C121.314 36.7111 120.027 35.6104 118.482 35.6104Z" fill="white"/>
<path d="M223.662 46.2378H216.573L206.934 55.8989L206.939 38.3699C206.939 36.9218 205.647 35.7148 204.255 35.7148H201.075L201.07 69.7718H206.934V62.8853L210.3 59.5159L217.185 69.7718H223.968L214.278 55.5537L223.662 46.2378Z" fill="white"/>
<path d="M256.708 49.8048L256.351 46.2377H251.403V69.7718H257.267V58.376C257.267 53.6692 259.053 51.6371 263.183 51.6371H264.202V45.7905C260.481 45.7927 257.88 47.2277 256.708 49.8048Z" fill="white"/>
<path d="M278.994 51.2918V46.2376H272.363V38.7866H266.499V60.3081C266.499 66.4522 268.897 69.7717 275.832 69.7717H278.994V64.5699H275.934C273.691 64.5699 272.365 63.3802 272.365 61.0528V51.2918H278.994Z" fill="white"/>
<path d="M242.582 49.4574C240.847 46.7827 238.043 45.4931 234.422 45.4931C227.231 45.4931 222.131 50.4974 222.131 57.9788C222.131 65.4102 227.179 70.5122 234.422 70.5122C237.685 70.5122 240.235 69.4723 241.969 67.3902V69.7675H247.833V46.2334H242.886L242.582 49.4574ZM235.287 65.3603C231.003 65.3603 228.047 62.3881 228.047 57.9788C228.047 53.5694 231.005 50.6472 235.287 50.6472C239.317 50.6472 242.325 53.5694 242.325 57.9788C242.327 62.3881 239.317 65.3603 235.287 65.3603Z" fill="white"/>
<path d="M191.43 55.849L186.891 55.1564C184.189 54.7113 183.116 54.1165 183.116 52.8269C183.116 51.5872 184.341 50.3997 187.094 50.3997C190.663 50.3997 192.552 52.0844 193.571 53.9667L197.752 50.8447C196.069 47.9703 193.01 45.4931 187.807 45.4931C181.483 45.4931 177.556 48.6151 177.556 53.0244C177.556 56.6913 179.8 59.2184 184.696 59.911L189.132 60.5558C192.395 61.0508 192.856 62.0429 192.856 63.1328C192.856 64.5201 191.276 65.61 188.775 65.61C185.51 65.61 182.757 64.2227 180.922 61.2006L176.28 64.3703C178.882 68.6321 183.217 70.5143 188.366 70.5143C194.997 70.5143 198.514 66.9473 198.514 62.5379C198.519 59.1186 196.632 56.6414 191.43 55.849Z" fill="white"/>
</svg>
