<svg width="121" height="109" viewBox="0 0 121 109" fill="none" xmlns="http://www.w3.org/2000/svg">
<path d="M87.757 2.58437L17.3135 13.0997C7.75151 14.527 1.15709 23.4356 2.58443 32.9976C4.01177 42.5595 12.9204 49.1539 22.4823 47.7266L92.9259 37.2113C102.488 35.784 109.082 26.8754 107.655 17.3134C106.228 7.75145 97.319 1.15703 87.757 2.58437Z" fill="#7140F2"/>
<path d="M103.386 71.8729L23.4861 63.0835C13.8622 62.1619 5.31345 69.2165 4.39186 78.8404C3.47027 88.4643 10.5249 97.0131 20.1488 97.9347L100.048 106.724C109.672 107.646 118.221 100.591 119.143 90.9672C120.064 81.3433 113.01 72.7945 103.386 71.8729Z" fill="#7140F2"/>
<path d="M31.6614 84.8179C31.9903 81.3832 28.1823 80.0282 25.0775 78.717C22.4733 77.5952 21.2864 76.9392 21.434 75.3971C21.5884 73.7849 23.182 73.3951 25.3316 73.601C27.7382 73.8314 29.6191 75.1198 29.3685 77.7367L31.6349 77.9537C31.9034 75.1499 30.4029 72.1059 25.5195 71.6383C21.4073 71.2445 19.4137 72.6099 19.1654 75.2034C18.8812 78.1708 21.2239 79.3147 24.4222 80.6349C26.9163 81.6755 29.6008 82.4513 29.386 84.6943C29.2182 86.4467 27.7069 86.9622 24.9966 86.7027C21.5619 86.3738 19.7287 85.3258 20.0733 81.7276L17.8069 81.5105C17.4332 85.4125 18.9907 88.1082 24.7619 88.6609C29.6686 89.1308 31.4198 87.3414 31.6614 84.8179ZM41.8042 78.0787C39.2807 77.837 37.6655 79.1915 36.9968 81.2496L36.366 81.1892L36.9041 79.7552L37.6157 72.325L35.3492 72.108L33.7047 89.2815L35.9711 89.4985L36.4499 84.4983C36.752 81.344 38.5554 79.7483 40.9386 79.9765C42.9013 80.1644 43.6786 81.1585 43.4526 83.5184L42.8171 90.1541L45.1069 90.3734L45.7737 83.4105C46.0892 80.116 44.5145 78.3382 41.8042 78.0787ZM47.8528 87.3823C47.7365 88.5973 48.0357 90.8896 51.4704 91.2185C54.3677 91.496 55.7649 89.9556 56.3811 88.199L56.9886 88.2572L56.5196 89.462L56.4681 89.9994C56.3786 90.934 56.8668 91.4995 57.778 91.5868L59.951 91.7948L60.1389 89.8322L58.4333 89.6688L58.8763 85.0425C59.1873 81.7947 57.2557 79.5583 54.008 79.2473C50.7135 78.9318 48.5539 80.8 48.3122 83.3235L50.5086 83.5338C50.6965 81.5711 52.1934 80.9599 53.829 81.1166C55.7683 81.3023 56.7513 82.3632 56.6636 84.2647L52.156 84.3046C49.2742 84.3588 48.0318 85.5131 47.8528 87.3823ZM50.1506 87.2723C50.2512 86.2208 50.988 85.9141 52.4056 85.8848L56.5114 85.8535C56.3011 88.0499 54.5089 89.5288 51.9855 89.2872C50.7938 89.1731 50.0342 88.4873 50.1506 87.2723ZM62.0214 91.9931L64.2878 92.2101L65.2343 82.3266L71.3358 83.1231L71.5238 81.1605L64.8403 80.2846C63.6976 80.1516 63.1065 80.6609 62.9969 81.8058L62.0214 91.9931ZM88.1884 82.5205C85.7584 82.2878 84.4303 83.5989 83.7616 85.6571L83.3411 85.6168C83.2598 83.5104 82.3237 81.9589 80.1975 81.7553C77.7675 81.5226 76.4394 82.8337 75.7707 84.8919L75.1398 84.8314L75.6803 83.3741L75.8525 81.575L73.5861 81.3579L72.4718 92.9938L74.7383 93.2109L75.2081 88.3042C75.4968 85.2901 76.8786 83.4181 79.145 83.6352C80.9208 83.8052 81.3152 84.8569 81.1004 87.1L80.4628 93.7591L82.7292 93.9761L83.1991 89.0694C83.4877 86.0553 84.8695 84.1833 87.1359 84.4004C88.9117 84.5704 89.3062 85.6221 89.0914 87.8652L88.4537 94.5243L90.7201 94.7413L91.3981 87.6616C91.6576 84.9513 90.7352 82.7644 88.1884 82.5205ZM93.4881 91.7524C93.3717 92.9674 93.671 95.2597 97.1057 95.5886C100.003 95.866 101.4 94.3257 102.016 92.5691L102.624 92.6272L102.155 93.832L102.103 94.3694C102.014 95.3041 102.502 95.8696 103.413 95.9568L105.586 96.1649L105.774 94.2022L104.069 94.0389L104.512 89.4126C104.823 86.1648 102.891 83.9284 99.6432 83.6174C96.3487 83.3019 94.1891 85.1701 93.9475 87.6936L96.1438 87.9039C96.3318 85.9412 97.8287 85.33 99.4642 85.4866C101.404 85.6723 102.387 86.7332 102.299 88.6348L97.7913 88.6747C94.9094 88.7289 93.6671 89.8832 93.4881 91.7524ZM95.7858 91.6423C95.8865 90.5909 96.6233 90.2842 98.0409 90.2549L102.147 90.2236C101.936 92.4199 100.144 93.8989 97.6207 93.6572C96.4291 93.5431 95.6695 92.8573 95.7858 91.6423Z" fill="white"/>
<path d="M25.0775 78.717L24.9786 78.9466L24.9802 78.9473L25.0775 78.717ZM29.3685 77.7367L29.1196 77.7129L29.0958 77.9617L29.3447 77.9856L29.3685 77.7367ZM31.6349 77.9537L31.6111 78.2026L31.86 78.2264L31.8838 77.9776L31.6349 77.9537ZM24.4222 80.6349L24.5185 80.4042L24.5176 80.4038L24.4222 80.6349ZM20.0733 81.7276L20.3221 81.7514L20.346 81.5025L20.0971 81.4787L20.0733 81.7276ZM17.8069 81.5105L17.8307 81.2617L17.5818 81.2378L17.558 81.4867L17.8069 81.5105ZM31.9103 84.8418C32.0863 83.0036 31.1434 81.7298 29.8028 80.768C28.475 79.8153 26.7121 79.136 25.1747 78.4867L24.9802 78.9473C26.5476 79.6093 28.2412 80.263 29.5114 81.1743C30.7688 82.0765 31.5655 83.1975 31.4126 84.7941L31.9103 84.8418ZM25.1764 78.4874C23.8669 77.9233 22.954 77.4919 22.3827 77.0216C22.102 76.7906 21.9147 76.5585 21.8034 76.3073C21.6925 76.0574 21.6493 75.7716 21.6829 75.4209L21.1852 75.3732C21.1449 75.7936 21.1947 76.1681 21.3463 76.51C21.4973 76.8505 21.7418 77.1417 22.0649 77.4077C22.7011 77.9313 23.6839 78.3889 24.9786 78.9466L25.1764 78.4874ZM21.6829 75.4209C21.7175 75.0592 21.831 74.7796 22.0023 74.562C22.1744 74.3434 22.4158 74.1734 22.7271 74.0495C23.3576 73.7985 24.2453 73.7481 25.3078 73.8498L25.3554 73.3521C24.2683 73.248 23.2844 73.2895 22.5422 73.585C22.167 73.7343 21.8467 73.9512 21.6094 74.2527C21.3714 74.5552 21.2277 74.9288 21.1852 75.3732L21.6829 75.4209ZM25.3078 73.8498C26.478 73.9619 27.4911 74.329 28.1776 74.9582C28.8545 75.5787 29.2381 76.4755 29.1196 77.7129L29.6174 77.7605C29.7495 76.381 29.318 75.3252 28.5154 74.5896C27.7224 73.8628 26.5918 73.4705 25.3554 73.3521L25.3078 73.8498ZM29.3447 77.9856L31.6111 78.2026L31.6588 77.7049L29.3923 77.4878L29.3447 77.9856ZM31.8838 77.9776C32.0229 76.5247 31.7049 74.9933 30.7031 73.7622C29.6993 72.5286 28.0349 71.628 25.5434 71.3894L25.4957 71.8872C27.8876 72.1162 29.4151 72.9715 30.3153 74.0777C31.2174 75.1864 31.5154 76.5789 31.3861 77.9299L31.8838 77.9776ZM25.5434 71.3894C23.4629 71.1902 21.8748 71.4306 20.7663 72.0853C19.6432 72.7487 19.047 73.8166 18.9165 75.1796L19.4142 75.2272C19.5321 73.9966 20.0569 73.0851 21.0206 72.5159C21.9991 71.938 23.4639 71.6926 25.4957 71.8872L25.5434 71.3894ZM18.9165 75.1796C18.7661 76.7503 19.3182 77.8554 20.3243 78.7259C21.31 79.5788 22.7342 80.2086 24.3268 80.866L24.5176 80.4038C22.9119 79.741 21.5656 79.1388 20.6515 78.3478C19.7576 77.5744 19.2805 76.6239 19.4142 75.2272L18.9165 75.1796ZM24.326 80.8656C25.5954 81.3953 26.8541 81.8356 27.7864 82.425C28.2474 82.7165 28.6081 83.0329 28.8416 83.3954C29.0716 83.7526 29.1855 84.1655 29.1372 84.6705L29.6349 84.7182C29.6939 84.1016 29.5529 83.5765 29.262 83.1247C28.9746 82.6785 28.5486 82.3153 28.0536 82.0024C27.0738 81.383 25.7431 80.9151 24.5185 80.4042L24.326 80.8656ZM29.1372 84.6705C29.0986 85.0738 28.9844 85.3904 28.8071 85.6386C28.6302 85.8863 28.3801 86.0804 28.0465 86.2231C27.3686 86.5131 26.3655 86.5826 25.0204 86.4538L24.9727 86.9516C26.338 87.0823 27.4457 87.0239 28.2431 86.6829C28.6471 86.5101 28.9756 86.2629 29.214 85.9292C29.452 85.5961 29.5896 85.1911 29.6349 84.7182L29.1372 84.6705ZM25.0204 86.4538C23.3103 86.2901 22.0647 85.9504 21.2841 85.2545C20.522 84.5752 20.1539 83.508 20.3221 81.7514L19.8244 81.7037C19.6481 83.5454 20.0243 84.8013 20.9513 85.6277C21.8598 86.4376 23.2482 86.7864 24.9727 86.9516L25.0204 86.4538ZM20.0971 81.4787L17.8307 81.2617L17.783 81.7594L20.0495 81.9764L20.0971 81.4787ZM17.558 81.4867C17.3679 83.4716 17.6639 85.2017 18.7909 86.5052C19.9152 87.8056 21.8227 88.6306 24.7381 88.9098L24.7857 88.412C21.9299 88.1386 20.1731 87.3394 19.1692 86.1782C18.168 85.0202 17.8721 83.4514 18.0557 81.5343L17.558 81.4867ZM24.7381 88.9098C27.2174 89.1472 28.9483 88.8196 30.0975 88.0714C31.2586 87.3154 31.7842 86.158 31.9103 84.8418L31.4126 84.7941C31.297 86.0013 30.8262 87.0003 29.8246 87.6524C28.8112 88.3123 27.2131 88.6445 24.7857 88.412L24.7381 88.9098ZM36.9968 81.2496L36.973 81.4984L37.1726 81.5176L37.2346 81.3268L36.9968 81.2496ZM36.366 81.1892L36.1319 81.1013L36.0172 81.4069L36.3421 81.438L36.366 81.1892ZM36.9041 79.7552L37.1382 79.843L37.1498 79.812L37.153 79.779L36.9041 79.7552ZM37.6157 72.325L37.8645 72.3489L37.8884 72.1L37.6395 72.0762L37.6157 72.325ZM35.3492 72.108L35.3731 71.8591L35.1242 71.8353L35.1004 72.0842L35.3492 72.108ZM33.7047 89.2815L33.4558 89.2576L33.432 89.5065L33.6809 89.5303L33.7047 89.2815ZM35.9711 89.4985L35.9473 89.7474L36.1961 89.7712L36.22 89.5223L35.9711 89.4985ZM42.8171 90.1541L42.5683 90.1303L42.5444 90.3791L42.7933 90.403L42.8171 90.1541ZM45.1069 90.3734L45.0831 90.6222L45.332 90.6461L45.3558 90.3972L45.1069 90.3734ZM41.828 77.8298C40.5147 77.7041 39.4187 77.993 38.561 78.5974C37.7054 79.2002 37.1065 80.1028 36.7591 81.1723L37.2346 81.3268C37.5558 80.3382 38.0989 79.5346 38.849 79.0061C39.5969 78.4791 40.5702 78.2117 41.7803 78.3276L41.828 77.8298ZM37.0207 81.0007L36.3898 80.9403L36.3421 81.438L36.973 81.4984L37.0207 81.0007ZM36.6 81.277L37.1382 79.843L36.6701 79.6674L36.1319 81.1013L36.6 81.277ZM37.153 79.779L37.8645 72.3489L37.3668 72.3012L36.6553 79.7314L37.153 79.779ZM37.6395 72.0762L35.3731 71.8591L35.3254 72.3569L37.5918 72.5739L37.6395 72.0762ZM35.1004 72.0842L33.4558 89.2576L33.9535 89.3053L35.5981 72.1318L35.1004 72.0842ZM33.6809 89.5303L35.9473 89.7474L35.9949 89.2497L33.7285 89.0326L33.6809 89.5303ZM36.22 89.5223L36.6988 84.5222L36.2011 84.4745L35.7223 89.4747L36.22 89.5223ZM36.6988 84.5222C36.8459 82.9859 37.3556 81.8605 38.0881 81.1482C38.8165 80.44 39.7883 80.1175 40.9148 80.2253L40.9625 79.7276C39.7057 79.6073 38.5841 79.9686 37.7396 80.7897C36.8991 81.6069 36.356 82.8565 36.2011 84.4745L36.6988 84.5222ZM40.9148 80.2253C41.8624 80.3161 42.4627 80.5957 42.814 81.0798C43.1715 81.5724 43.3147 82.3351 43.2037 83.4945L43.7014 83.5422C43.8164 82.3417 43.684 81.4274 43.2187 80.7861C42.7472 80.1363 41.9775 79.8248 40.9625 79.7276L40.9148 80.2253ZM43.2037 83.4945L42.5683 90.1303L43.066 90.1779L43.7014 83.5422L43.2037 83.4945ZM42.7933 90.403L45.0831 90.6222L45.1308 90.1245L42.841 89.9052L42.7933 90.403ZM45.3558 90.3972L46.0226 83.4343L45.5248 83.3867L44.8581 90.3495L45.3558 90.3972ZM46.0226 83.4343C46.1843 81.7456 45.8649 80.407 45.1208 79.4528C44.3751 78.4965 43.2327 77.9643 41.828 77.8298L41.7803 78.3276C43.086 78.4526 44.0861 78.9391 44.7265 79.7602C45.3684 80.5834 45.6786 81.781 45.5248 83.3867L46.0226 83.4343ZM56.3811 88.199L56.405 87.9502L56.21 87.9315L56.1452 88.1163L56.3811 88.199ZM56.9886 88.2572L57.2216 88.3479L57.3415 88.0398L57.0125 88.0083L56.9886 88.2572ZM56.5196 89.462L56.2866 89.3713L56.274 89.4036L56.2707 89.4382L56.5196 89.462ZM59.951 91.7948L59.9272 92.0437L60.176 92.0675L60.1999 91.8187L59.951 91.7948ZM60.1389 89.8322L60.3878 89.856L60.4116 89.6071L60.1628 89.5833L60.1389 89.8322ZM58.4333 89.6688L58.1844 89.645L58.1606 89.8939L58.4094 89.9177L58.4333 89.6688ZM48.3122 83.3235L48.0634 83.2997L48.0395 83.5485L48.2884 83.5724L48.3122 83.3235ZM50.5086 83.5338L50.4847 83.7827L50.7336 83.8065L50.7574 83.5576L50.5086 83.5338ZM56.6636 84.2647L56.6658 84.5147L56.9024 84.5126L56.9133 84.2762L56.6636 84.2647ZM52.1561 84.3046L52.1538 84.0546L52.1514 84.0547L52.1561 84.3046ZM52.4056 85.8848L52.4037 85.6348L52.4004 85.6348L52.4056 85.8848ZM56.5114 85.8535L56.7603 85.8774L56.7867 85.6014L56.5095 85.6035L56.5114 85.8535ZM47.6039 87.3585C47.5431 87.9942 47.5875 88.9353 48.1193 89.7673C48.659 90.6118 49.6704 91.2973 51.4466 91.4674L51.4942 90.9697C49.8357 90.8108 48.9801 90.1857 48.5406 89.4981C48.0932 88.798 48.0462 87.9855 48.1017 87.4062L47.6039 87.3585ZM51.4466 91.4674C52.9456 91.6109 54.0822 91.2853 54.9276 90.6741C55.7692 90.0658 56.2975 89.1925 56.617 88.2818L56.1452 88.1163C55.8485 88.9621 55.3701 89.7373 54.6347 90.2689C53.9031 90.7978 52.8924 91.1036 51.4942 90.9697L51.4466 91.4674ZM56.3573 88.4479L56.9648 88.506L57.0125 88.0083L56.405 87.9502L56.3573 88.4479ZM56.7557 88.1665L56.2866 89.3713L56.7525 89.5527L57.2216 88.3479L56.7557 88.1665ZM56.2707 89.4382L56.2192 89.9756L56.717 90.0232L56.7684 89.4858L56.2707 89.4382ZM56.2192 89.9756C56.17 90.4902 56.2774 90.9376 56.5559 91.2711C56.834 91.604 57.2527 91.7876 57.7542 91.8356L57.8019 91.3379C57.3921 91.2987 57.1111 91.1558 56.9397 90.9506C56.7687 90.7458 56.6767 90.4432 56.717 90.0232L56.2192 89.9756ZM57.7542 91.8356L59.9272 92.0437L59.9748 91.546L57.8019 91.3379L57.7542 91.8356ZM60.1999 91.8187L60.3878 89.856L59.8901 89.8083L59.7021 91.771L60.1999 91.8187ZM60.1628 89.5833L58.4571 89.42L58.4094 89.9177L60.1151 90.081L60.1628 89.5833ZM58.6821 89.6927L59.1252 85.0663L58.6274 85.0187L58.1844 89.645L58.6821 89.6927ZM59.1252 85.0663C59.286 83.3867 58.8678 81.9455 57.9675 80.8821C57.0678 79.8195 55.7079 79.159 54.0318 78.9985L53.9841 79.4962C55.5557 79.6467 56.7856 80.2599 57.5859 81.2052C58.3855 82.1496 58.7776 83.4506 58.6274 85.0187L59.1252 85.0663ZM54.0318 78.9985C52.3322 78.8357 50.9038 79.2349 49.8644 80.0215C48.8245 80.8084 48.1906 81.9711 48.0634 83.2997L48.5611 83.3473C48.6755 82.1524 49.2422 81.1193 50.1661 80.4202C51.0906 79.7206 52.3892 79.3435 53.9841 79.4962L54.0318 78.9985ZM48.2884 83.5724L50.4847 83.7827L50.5324 83.285L48.3361 83.0746L48.2884 83.5724ZM50.7574 83.5576C50.8449 82.6436 51.2304 82.0744 51.759 81.7421C52.2985 81.4029 53.0202 81.2903 53.8051 81.3654L53.8528 80.8677C53.0021 80.7862 52.1576 80.9009 51.4928 81.3188C50.8171 81.7436 50.3601 82.4613 50.2597 83.51L50.7574 83.5576ZM53.8051 81.3654C54.7362 81.4546 55.3994 81.75 55.8212 82.2151C56.2415 82.6784 56.4557 83.347 56.4138 84.2532L56.9133 84.2762C56.9592 83.2809 56.7258 82.4682 56.1916 81.8792C55.6591 81.2921 54.861 80.9642 53.8528 80.8677L53.8051 81.3654ZM56.6613 84.0147L52.1538 84.0547L52.1583 84.5546L56.6658 84.5147L56.6613 84.0147ZM52.1514 84.0547C50.6825 84.0823 49.5911 84.3903 48.8392 84.9641C48.0791 85.5442 47.6986 86.3705 47.6039 87.3585L48.1017 87.4062C48.1861 86.5249 48.5162 85.8395 49.1425 85.3616C49.777 84.8774 50.7477 84.5812 52.1607 84.5546L52.1514 84.0547ZM50.3994 87.2961C50.4434 86.8366 50.6166 86.5774 50.9074 86.4128C51.2238 86.2336 51.7082 86.1493 52.4108 86.1347L52.4004 85.6348C51.6854 85.6496 51.0926 85.7333 50.6611 85.9777C50.2039 86.2366 49.9584 86.6565 49.9017 87.2484L50.3994 87.2961ZM52.4075 86.1348L56.5133 86.1035L56.5095 85.6035L52.4037 85.6348L52.4075 86.1348ZM56.2626 85.8297C56.1635 86.8638 55.6944 87.7181 54.9624 88.2872C54.2297 88.8569 53.2165 89.1539 52.0093 89.0383L51.9616 89.536C53.2778 89.6621 54.4225 89.3404 55.2693 88.682C56.1168 88.023 56.649 87.0396 56.7603 85.8774L56.2626 85.8297ZM52.0093 89.0383C51.4527 88.985 51.0285 88.8011 50.7578 88.5193C50.4923 88.243 50.347 87.844 50.3994 87.2961L49.9017 87.2484C49.8378 87.9155 50.0141 88.4669 50.3972 88.8657C50.7752 89.2592 51.3266 89.4752 51.9616 89.536L52.0093 89.0383ZM62.0214 91.9931L61.7725 91.9693L61.7487 92.2181L61.9975 92.242L62.0214 91.9931ZM64.2878 92.2101L64.264 92.459L64.5128 92.4828L64.5367 92.234L64.2878 92.2101ZM65.2343 82.3266L65.2666 82.0787L65.0101 82.0452L64.9854 82.3028L65.2343 82.3266ZM71.3358 83.1231L71.3035 83.371L71.56 83.4045L71.5847 83.147L71.3358 83.1231ZM71.5238 81.1605L71.7726 81.1843L71.7956 80.9439L71.5562 80.9126L71.5238 81.1605ZM64.8403 80.2846L64.8728 80.0367L64.8692 80.0363L64.8403 80.2846ZM61.9975 92.242L64.264 92.459L64.3116 91.9613L62.0452 91.7442L61.9975 92.242ZM64.5367 92.234L65.4831 82.3505L64.9854 82.3028L64.0389 92.1863L64.5367 92.234ZM65.2019 82.5745L71.3035 83.371L71.3682 82.8752L65.2666 82.0787L65.2019 82.5745ZM71.5847 83.147L71.7726 81.1843L71.2749 81.1366L71.0869 83.0993L71.5847 83.147ZM71.5562 80.9126L64.8728 80.0368L64.8078 80.5325L71.4913 81.4083L71.5562 80.9126ZM64.8692 80.0363C64.2602 79.9654 63.7476 80.06 63.3711 80.374C62.9962 80.6867 62.8061 81.1756 62.748 81.782L63.2458 81.8297C63.2973 81.2912 63.4576 80.953 63.6914 80.758C63.9234 80.5645 64.2778 80.4709 64.8114 80.533L64.8692 80.0363ZM62.748 81.782L61.7725 91.9693L62.2702 92.0169L63.2458 81.8297L62.748 81.782ZM83.7616 85.6571L83.7378 85.9059L83.9374 85.925L83.9994 85.7343L83.7616 85.6571ZM83.3411 85.6168L83.0912 85.6264L83.0997 85.8448L83.3172 85.8657L83.3411 85.6168ZM75.7707 84.8919L75.7469 85.1407L75.9465 85.1598L76.0085 84.9691L75.7707 84.8919ZM75.1398 84.8314L74.9054 84.7445L74.7924 85.0493L75.116 85.0803L75.1398 84.8314ZM75.6803 83.3741L75.9147 83.461L75.926 83.4304L75.9291 83.3979L75.6803 83.3741ZM75.8525 81.575L76.1014 81.5988L76.1252 81.3499L75.8764 81.3261L75.8525 81.575ZM73.5861 81.3579L73.6099 81.1091L73.3611 81.0853L73.3372 81.3341L73.5861 81.3579ZM72.4718 92.9938L72.223 92.97L72.1992 93.2189L72.448 93.2427L72.4718 92.9938ZM74.7383 93.2109L74.7144 93.4597L74.9633 93.4836L74.9871 93.2347L74.7383 93.2109ZM80.4628 93.7591L80.2139 93.7352L80.1901 93.9841L80.4389 94.0079L80.4628 93.7591ZM82.7292 93.9761L82.7054 94.225L82.9542 94.2488L82.9781 93.9999L82.7292 93.9761ZM88.4537 94.5243L88.2048 94.5004L88.181 94.7493L88.4299 94.7731L88.4537 94.5243ZM90.7201 94.7413L90.6963 94.9902L90.9451 95.014L90.969 94.7651L90.7201 94.7413ZM88.2122 82.2716C86.9451 82.1503 85.9395 82.4308 85.1616 83.0319C84.3891 83.6289 83.8675 84.522 83.5239 85.5798L83.9994 85.7343C84.3244 84.734 84.8012 83.9424 85.4674 83.4275C86.1283 82.9167 87.0017 82.658 88.1646 82.7693L88.2122 82.2716ZM83.7855 85.4082L83.3649 85.3679L83.3172 85.8657L83.7378 85.9059L83.7855 85.4082ZM83.5909 85.6072C83.549 84.523 83.2866 83.5529 82.7358 82.822C82.1793 82.0837 81.3468 81.6142 80.2213 81.5064L80.1737 82.0041C81.1744 82.1 81.8731 82.5081 82.3365 83.123C82.8056 83.7454 83.0518 84.6042 83.0912 85.6264L83.5909 85.6072ZM80.2213 81.5064C78.9542 81.3851 77.9485 81.6655 77.1707 82.2667C76.3982 82.8637 75.8766 83.7568 75.5329 84.8146L76.0085 84.9691C76.3335 83.9688 76.8103 83.1772 77.4765 82.6623C78.1374 82.1515 79.0108 81.8928 80.1737 82.0041L80.2213 81.5064ZM75.7945 84.643L75.1637 84.5826L75.116 85.0803L75.7469 85.1407L75.7945 84.643ZM75.3742 84.9184L75.9147 83.461L75.4458 83.2872L74.9054 84.7445L75.3742 84.9184ZM75.9291 83.3979L76.1014 81.5988L75.6037 81.5511L75.4314 83.3503L75.9291 83.3979ZM75.8764 81.3261L73.6099 81.1091L73.5623 81.6068L75.8287 81.8238L75.8764 81.3261ZM73.3372 81.3341L72.223 92.97L72.7207 93.0177L73.835 81.3818L73.3372 81.3341ZM72.448 93.2427L74.7144 93.4597L74.7621 92.962L72.4957 92.745L72.448 93.2427ZM74.9871 93.2347L75.457 88.328L74.9593 88.2803L74.4894 93.187L74.9871 93.2347ZM75.457 88.328C75.5987 86.8484 76.0065 85.6811 76.6289 84.9157C77.2421 84.1616 78.0731 83.7836 79.1212 83.884L79.1689 83.3863C77.9505 83.2696 76.9574 83.7192 76.2409 84.6003C75.5337 85.4701 75.1062 86.7458 74.9593 88.2803L75.457 88.328ZM79.1212 83.884C79.9596 83.9643 80.4066 84.2427 80.6474 84.7056C80.9046 85.1999 80.9587 85.9578 80.8516 87.0761L81.3493 87.1238C81.457 85.999 81.4213 85.1096 81.091 84.4748C80.7443 83.8085 80.1062 83.4761 79.1689 83.3863L79.1212 83.884ZM80.8516 87.0761L80.2139 93.7352L80.7116 93.7829L81.3493 87.1238L80.8516 87.0761ZM80.4389 94.0079L82.7054 94.225L82.753 93.7272L80.4866 93.5102L80.4389 94.0079ZM82.9781 93.9999L83.4479 89.0932L82.9502 89.0456L82.4803 93.9523L82.9781 93.9999ZM83.4479 89.0932C83.5896 87.6136 83.9974 86.4464 84.6198 85.6809C85.233 84.9268 86.064 84.5489 87.1121 84.6492L87.1598 84.1515C85.9415 84.0348 84.9483 84.4844 84.2319 85.3655C83.5246 86.2353 83.0972 87.511 82.9502 89.0456L83.4479 89.0932ZM87.1121 84.6492C87.9506 84.7295 88.3975 85.0079 88.6383 85.4708C88.8955 85.9651 88.9496 86.723 88.8425 87.8413L89.3402 87.889C89.4479 86.7642 89.4122 85.8748 89.0819 85.24C88.7352 84.5737 88.0971 84.2413 87.1598 84.1515L87.1121 84.6492ZM88.8425 87.8413L88.2048 94.5004L88.7026 94.5481L89.3402 87.889L88.8425 87.8413ZM88.4299 94.7731L90.6963 94.9902L90.7439 94.4924L88.4775 94.2754L88.4299 94.7731ZM90.969 94.7651L91.6469 87.6855L91.1492 87.6378L90.4713 94.7175L90.969 94.7651ZM91.6469 87.6855C91.7795 86.3014 91.614 85.0199 91.0634 84.0433C90.5053 83.0537 89.5642 82.4011 88.2122 82.2716L88.1646 82.7693C89.3595 82.8838 90.1529 83.4466 90.6279 84.2889C91.1102 85.1444 91.2762 86.3115 91.1492 87.6378L91.6469 87.6855ZM102.016 92.5691L102.04 92.3202L101.845 92.3015L101.78 92.4863L102.016 92.5691ZM102.624 92.6272L102.857 92.718L102.977 92.4099L102.648 92.3784L102.624 92.6272ZM102.155 93.832L101.922 93.7413L101.909 93.7737L101.906 93.8082L102.155 93.832ZM105.586 96.1649L105.562 96.4138L105.811 96.4376L105.835 96.1887L105.586 96.1649ZM105.774 94.2022L106.023 94.2261L106.047 93.9772L105.798 93.9534L105.774 94.2022ZM104.069 94.0389L103.82 94.0151L103.796 94.2639L104.045 94.2877L104.069 94.0389ZM93.9475 87.6936L93.6986 87.6697L93.6748 87.9186L93.9237 87.9424L93.9475 87.6936ZM96.1438 87.9039L96.12 88.1527L96.3689 88.1766L96.3927 87.9277L96.1438 87.9039ZM102.299 88.6348L102.301 88.8848L102.538 88.8827L102.549 88.6463L102.299 88.6348ZM97.7913 88.6747L97.7891 88.4247L97.7866 88.4248L97.7913 88.6747ZM98.0409 90.2549L98.039 90.0048L98.0357 90.0049L98.0409 90.2549ZM102.147 90.2236L102.396 90.2474L102.422 89.9715L102.145 89.9736L102.147 90.2236ZM93.2392 91.7286C93.1783 92.3642 93.2228 93.3054 93.7546 94.1374C94.2943 94.9819 95.3057 95.6674 97.0818 95.8375L97.1295 95.3397C95.471 95.1809 94.6154 94.5558 94.1759 93.8681C93.7284 93.168 93.6815 92.3556 93.7369 91.7762L93.2392 91.7286ZM97.0818 95.8375C98.5809 95.981 99.7175 95.6553 100.563 95.0442C101.404 94.4359 101.933 93.5626 102.252 92.6518L101.78 92.4863C101.484 93.3322 101.005 94.1074 100.27 94.639C99.5384 95.1679 98.5277 95.4736 97.1295 95.3397L97.0818 95.8375ZM101.993 92.8179L102.6 92.8761L102.648 92.3784L102.04 92.3202L101.993 92.8179ZM102.391 92.5365L101.922 93.7413L102.388 93.9227L102.857 92.718L102.391 92.5365ZM101.906 93.8082L101.855 94.3456L102.352 94.3933L102.404 93.8559L101.906 93.8082ZM101.855 94.3456C101.805 94.8603 101.913 95.3076 102.191 95.6411C102.469 95.9741 102.888 96.1577 103.389 96.2057L103.437 95.708C103.027 95.6687 102.746 95.5259 102.575 95.3206C102.404 95.1159 102.312 94.8132 102.352 94.3933L101.855 94.3456ZM103.389 96.2057L105.562 96.4138L105.61 95.916L103.437 95.708L103.389 96.2057ZM105.835 96.1887L106.023 94.2261L105.525 94.1784L105.337 96.1411L105.835 96.1887ZM105.798 93.9534L104.092 93.79L104.045 94.2877L105.75 94.4511L105.798 93.9534ZM104.317 94.0627L104.76 89.4364L104.263 89.3887L103.82 94.0151L104.317 94.0627ZM104.76 89.4364C104.921 87.7567 104.503 86.3156 103.603 85.2522C102.703 84.1895 101.343 83.529 99.6671 83.3685L99.6194 83.8663C101.191 84.0168 102.421 84.63 103.221 85.5752C104.021 86.5197 104.413 87.8206 104.263 89.3887L104.76 89.4364ZM99.6671 83.3685C97.9675 83.2058 96.5391 83.605 95.4997 84.3915C94.4598 85.1785 93.8259 86.3412 93.6986 87.6697L94.1964 87.7174C94.3108 86.5225 94.8775 85.4894 95.8014 84.7902C96.7259 84.0907 98.0245 83.7135 99.6194 83.8663L99.6671 83.3685ZM93.9237 87.9424L96.12 88.1527L96.1677 87.655L93.9713 87.4447L93.9237 87.9424ZM96.3927 87.9277C96.4802 87.0137 96.8657 86.4445 97.3942 86.1122C97.9338 85.7729 98.6555 85.6603 99.4404 85.7355L99.4881 85.2378C98.6374 85.1563 97.7928 85.271 97.1281 85.6889C96.4524 86.1137 95.9954 86.8314 95.895 87.88L96.3927 87.9277ZM99.4404 85.7355C100.371 85.8246 101.035 86.1201 101.457 86.5852C101.877 87.0485 102.091 87.717 102.049 88.6232L102.549 88.6463C102.595 87.651 102.361 86.8383 101.827 86.2493C101.294 85.6622 100.496 85.3343 99.4881 85.2378L99.4404 85.7355ZM102.297 88.3848L97.7891 88.4247L97.7935 88.9247L102.301 88.8848L102.297 88.3848ZM97.7866 88.4248C96.3178 88.4523 95.2264 88.7603 94.4744 89.3342C93.7143 89.9142 93.3338 90.7406 93.2392 91.7286L93.7369 91.7762C93.8213 90.895 94.1515 90.2096 94.7778 89.7316C95.4123 89.2475 96.383 88.9512 97.796 88.9247L97.7866 88.4248ZM96.0347 91.6661C96.0787 91.2066 96.2519 90.9475 96.5427 90.7828C96.859 90.6037 97.3435 90.5193 98.046 90.5048L98.0357 90.0049C97.3207 90.0197 96.7279 90.1033 96.2963 90.3477C95.8392 90.6066 95.5937 91.0266 95.537 91.6185L96.0347 91.6661ZM98.0428 90.5048L102.149 90.4736L102.145 89.9736L98.039 90.0049L98.0428 90.5048ZM101.898 90.1998C101.799 91.2339 101.33 92.0881 100.598 92.6573C99.865 93.227 98.8518 93.524 97.6446 93.4084L97.5969 93.9061C98.9131 94.0321 100.058 93.7105 100.905 93.052C101.752 92.393 102.284 91.4097 102.396 90.2474L101.898 90.1998ZM97.6446 93.4084C97.088 93.3551 96.6637 93.1711 96.3931 92.8894C96.1276 92.6131 95.9822 92.2141 96.0347 91.6661L95.537 91.6185C95.4731 92.2855 95.6493 92.8369 96.0325 93.2358C96.4105 93.6292 96.9619 93.8453 97.5969 93.9061L97.6446 93.4084Z" fill="white"/>
<path d="M57.753 66.3964C64.3082 66.3964 69.6223 61.0824 69.6223 54.5272C69.6223 47.972 64.3082 42.658 57.753 42.658C51.1978 42.658 45.8838 47.972 45.8838 54.5272C45.8838 61.0824 51.1978 66.3964 57.753 66.3964Z" fill="#7140F2"/>
<path d="M24.9688 20.1155L26.0036 27.0473L17.1633 28.3669L16.1286 21.4351L14.0008 21.7527L16.3093 37.2177L18.4371 36.9L17.4384 30.2095L26.2786 28.8899L27.2773 35.5804L29.4271 35.2595L27.1186 19.7946L24.9688 20.1155ZM31.4209 31.8673C31.5912 33.008 32.3881 35.0418 35.6127 34.5604C38.3328 34.1544 39.2629 32.4234 39.4276 30.6721L39.9979 30.587L39.8424 31.7987L39.9177 32.3032C40.0487 33.1807 40.6253 33.588 41.4808 33.4603L43.5208 33.1557L43.2458 31.3131L41.6444 31.5521L40.9961 27.2088C40.5409 24.1597 38.2599 22.5492 35.2108 23.0044C32.1178 23.4661 30.5633 25.6715 30.9169 28.0406L32.9789 27.7328C32.7039 25.8902 33.9372 24.9885 35.4727 24.7593C37.2934 24.4875 38.4367 25.2362 38.7897 27L34.6654 28.0641C32.035 28.7707 31.1589 30.1124 31.4209 31.8673ZM33.5028 31.2426C33.3555 30.2554 33.9612 29.8062 35.2544 29.4562L39.0124 28.4916C39.3202 30.5536 38.0139 32.3183 35.6448 32.672C34.526 32.839 33.6731 32.3832 33.5028 31.2426ZM45.4646 32.8656L47.5924 32.548L46.2073 23.269L51.984 22.6085L51.7089 20.7659L45.3805 21.4863C44.3024 21.6248 43.8765 22.2266 44.0369 23.3015L45.4646 32.8656ZM63.7968 27.1914C63.4497 24.8662 61.115 24.6989 58.8604 24.3179C57.0204 24.0095 56.1597 23.8016 56.0189 22.8584C55.8879 21.9809 56.6943 21.5242 57.835 21.3539C59.4582 21.1116 60.4185 21.6859 60.615 23.002L62.7428 22.6844C62.4677 20.8418 61.0487 19.1475 57.5828 19.6648C54.9724 20.0545 53.6291 21.4211 53.8911 23.176C54.2021 25.2599 56.1178 25.6243 58.2747 25.9526C60.1367 26.2577 61.4856 26.2806 61.6755 27.5529C61.8229 28.5401 61.1108 29.0276 59.5753 29.2568C57.5133 29.5646 56.3984 28.8564 56.1463 27.1673L54.0185 27.485C54.4049 30.0734 56.1421 31.496 59.7835 30.9524C63.1617 30.4481 64.0489 28.8805 63.7968 27.1914ZM71.1816 17.6349C68.8125 17.9885 67.6401 19.5987 67.4961 21.6385L66.9038 21.7269L67.0705 20.2893L66.0292 13.3136L63.9014 13.6312L66.3081 29.7542L68.4359 29.4366L67.7352 24.7423C67.2931 21.7809 68.5831 19.9065 70.8205 19.5725C72.6632 19.2974 73.6025 20.0318 73.9332 22.2473L74.8632 28.4772L77.0129 28.1563L76.0371 21.6193C75.5754 18.5263 73.7262 17.2551 71.1816 17.6349ZM81.0087 14.7328C81.9958 14.5855 82.6215 13.8193 82.4839 12.898C82.3497 11.9986 81.5276 11.4486 80.5404 11.5959C79.5752 11.74 78.9715 12.5029 79.1058 13.4023C79.2433 14.3236 80.0435 14.8769 81.0087 14.7328ZM79.0867 27.8467L87.2689 26.6253L86.9938 24.7827L83.9228 25.2411L82.744 17.3442C82.6064 16.4228 82.0607 15.9213 80.9989 16.1695L78.1799 16.8145L78.455 18.6571L80.7727 18.1093L81.8827 25.5457L78.8117 26.0041L79.0867 27.8467ZM91.4925 24.3579L90.3759 16.8777L93.8418 16.3603L93.5667 14.5177L90.1008 15.035L89.6031 11.7008L87.5735 12.6765L87.973 15.3527L85.5381 15.7161L85.8132 17.5588L88.2481 17.1953L89.4007 24.9168C89.5611 25.9917 90.1508 26.4867 91.2158 26.2604L95.6361 25.3763L95.3611 23.5337L91.4925 24.3579Z" fill="white"/>
<path d="M24.9688 20.1155L24.9319 19.8683L24.6847 19.9052L24.7216 20.1524L24.9688 20.1155ZM26.0036 27.0473L26.0405 27.2946L26.2877 27.2577L26.2508 27.0104L26.0036 27.0473ZM17.1633 28.3669L16.9161 28.4038L16.953 28.6511L17.2002 28.6142L17.1633 28.3669ZM16.1286 21.4351L16.3759 21.3982L16.339 21.1509L16.0917 21.1879L16.1286 21.4351ZM14.0008 21.7527L13.9639 21.5055L13.7166 21.5424L13.7535 21.7896L14.0008 21.7527ZM16.3093 37.2177L16.062 37.2546L16.0989 37.5018L16.3462 37.4649L16.3093 37.2177ZM18.4371 36.9L18.474 37.1473L18.7213 37.1104L18.6844 36.8631L18.4371 36.9ZM17.4384 30.2095L17.4015 29.9623L17.1542 29.9992L17.1911 30.2465L17.4384 30.2095ZM26.2786 28.8899L26.5259 28.853L26.489 28.6058L26.2417 28.6427L26.2786 28.8899ZM27.2773 35.5804L27.0301 35.6174L27.067 35.8646L27.3142 35.8277L27.2773 35.5804ZM29.4271 35.2595L29.464 35.5068L29.7112 35.4699L29.6743 35.2226L29.4271 35.2595ZM27.1186 19.7946L27.3658 19.7577L27.3289 19.5104L27.0817 19.5474L27.1186 19.7946ZM24.7216 20.1524L25.7563 27.0842L26.2508 27.0104L25.2161 20.0786L24.7216 20.1524ZM25.9667 26.8L17.1264 28.1197L17.2002 28.6142L26.0405 27.2946L25.9667 26.8ZM17.4106 28.33L16.3759 21.3982L15.8813 21.472L16.9161 28.4038L17.4106 28.33ZM16.0917 21.1879L13.9639 21.5055L14.0377 22L16.1655 21.6824L16.0917 21.1879ZM13.7535 21.7896L16.062 37.2546L16.5566 37.1808L14.2481 21.7158L13.7535 21.7896ZM16.3462 37.4649L18.474 37.1473L18.4002 36.6528L16.2724 36.9704L16.3462 37.4649ZM18.6844 36.8631L17.6856 30.1726L17.1911 30.2465L18.1898 36.937L18.6844 36.8631ZM17.4753 30.4568L26.3155 29.1372L26.2417 28.6427L17.4015 29.9623L17.4753 30.4568ZM26.0314 28.9268L27.0301 35.6174L27.5246 35.5435L26.5259 28.853L26.0314 28.9268ZM27.3142 35.8277L29.464 35.5068L29.3902 35.0123L27.2404 35.3332L27.3142 35.8277ZM29.6743 35.2226L27.3658 19.7577L26.8713 19.8315L29.1798 35.2965L29.6743 35.2226ZM27.0817 19.5474L24.9319 19.8683L25.0058 20.3628L27.1555 20.0419L27.0817 19.5474ZM39.4276 30.6721L39.3906 30.4249L39.197 30.4538L39.1787 30.6487L39.4276 30.6721ZM39.9979 30.587L40.2459 30.6188L40.2879 30.2909L39.961 30.3397L39.9979 30.587ZM39.8424 31.7987L39.5944 31.7669L39.59 31.8013L39.5951 31.8356L39.8424 31.7987ZM43.5208 33.1557L43.5577 33.403L43.805 33.3661L43.7681 33.1188L43.5208 33.1557ZM43.2458 31.3131L43.493 31.2762L43.4561 31.0289L43.2089 31.0658L43.2458 31.3131ZM41.6444 31.5521L41.3972 31.589L41.4341 31.8363L41.6813 31.7994L41.6444 31.5521ZM30.9169 28.0406L30.6697 28.0775L30.7066 28.3248L30.9539 28.2879L30.9169 28.0406ZM32.9789 27.7328L33.0158 27.9801L33.2631 27.9431L33.2262 27.6959L32.9789 27.7328ZM38.7897 27L38.8522 27.242L39.0813 27.1829L39.0348 26.9509L38.7897 27ZM34.6654 28.0641L34.6029 27.822L34.6005 27.8227L34.6654 28.0641ZM35.2544 29.4562L35.1923 29.214L35.1891 29.2149L35.2544 29.4562ZM39.0124 28.4916L39.2596 28.4547L39.2187 28.1805L38.9502 28.2495L39.0124 28.4916ZM31.1736 31.9042C31.2629 32.5025 31.5191 33.3589 32.1995 34.0036C32.8906 34.6585 33.9789 35.0571 35.6496 34.8077L35.5758 34.3132C34.0219 34.5451 33.0994 34.1675 32.5434 33.6407C31.9766 33.1036 31.7491 32.3727 31.6682 31.8304L31.1736 31.9042ZM35.6496 34.8077C37.0597 34.5972 38.031 34.0381 38.6694 33.282C39.3048 32.5296 39.5909 31.6054 39.6765 30.6955L39.1787 30.6487C39.0995 31.4901 38.8383 32.3071 38.2874 32.9595C37.7396 33.6083 36.8857 34.1176 35.5758 34.3132L35.6496 34.8077ZM39.4645 30.9194L40.0348 30.8342L39.961 30.3397L39.3906 30.4249L39.4645 30.9194ZM39.7499 30.5552L39.5944 31.7669L40.0904 31.8305L40.2459 30.6188L39.7499 30.5552ZM39.5951 31.8356L39.6705 32.3401L40.165 32.2663L40.0897 31.7618L39.5951 31.8356ZM39.6705 32.3401C39.743 32.8259 39.9448 33.2154 40.28 33.4605C40.6146 33.7051 41.0444 33.7782 41.5177 33.7075L41.4439 33.213C41.0617 33.27 40.7754 33.2033 40.5751 33.0569C40.3754 32.9108 40.2234 32.658 40.165 32.2663L39.6705 32.3401ZM41.5177 33.7075L43.5577 33.403L43.4839 32.9085L41.4439 33.213L41.5177 33.7075ZM43.7681 33.1188L43.493 31.2762L42.9985 31.35L43.2736 33.1926L43.7681 33.1188ZM43.2089 31.0658L41.6075 31.3049L41.6813 31.7994L43.2827 31.5604L43.2089 31.0658ZM41.8917 31.5152L41.2434 27.1719L40.7488 27.2457L41.3972 31.589L41.8917 31.5152ZM41.2434 27.1719C41.0075 25.5919 40.2939 24.3621 39.2224 23.5897C38.1517 22.8179 36.7503 22.5218 35.1739 22.7571L35.2477 23.2516C36.7203 23.0318 37.9841 23.3134 38.93 23.9953C39.875 24.6766 40.5295 25.7766 40.7488 27.2457L41.2434 27.1719ZM35.1739 22.7571C33.5754 22.9957 32.3532 23.6889 31.5769 24.6501C30.8001 25.6119 30.483 26.8265 30.6697 28.0775L31.1642 28.0037C30.9973 26.8855 31.2805 25.8129 31.9659 24.9643C32.6516 24.1151 33.7532 23.4747 35.2477 23.2516L35.1739 22.7571ZM30.9539 28.2879L33.0158 27.9801L32.942 27.4855L30.88 27.7933L30.9539 28.2879ZM33.2262 27.6959C33.0987 26.8415 33.3214 26.236 33.727 25.8143C34.1417 25.3832 34.7746 25.1162 35.5096 25.0065L35.4358 24.512C34.6354 24.6315 33.8838 24.93 33.3667 25.4677C32.8405 26.0147 32.5842 26.7815 32.7317 27.7697L33.2262 27.6959ZM35.5096 25.0065C36.3817 24.8763 37.0533 24.9961 37.5424 25.324C38.0295 25.6504 38.3768 26.2109 38.5446 27.049L39.0348 26.9509C38.8496 26.0253 38.4488 25.3295 37.8208 24.9086C37.1948 24.4891 36.3845 24.3704 35.4358 24.512L35.5096 25.0065ZM38.7272 26.7579L34.6029 27.822L34.7279 28.3062L38.8522 27.242L38.7272 26.7579ZM34.6005 27.8227C33.2584 28.1832 32.3247 28.7155 31.7634 29.4163C31.1957 30.1251 31.0347 30.9738 31.1736 31.9042L31.6682 31.8304C31.5451 31.0059 31.6912 30.3063 32.1537 29.7289C32.6226 29.1434 33.4421 28.6516 34.7303 28.3055L34.6005 27.8227ZM33.7501 31.2057C33.6863 30.7779 33.7851 30.5056 34.0104 30.2919C34.2571 30.058 34.6792 29.8709 35.3197 29.6975L35.1891 29.2149C34.5365 29.3915 34.0091 29.6041 33.6664 29.9291C33.3024 30.2743 33.1721 30.7201 33.2556 31.2795L33.7501 31.2057ZM35.3166 29.6984L39.0745 28.7338L38.9502 28.2495L35.1923 29.2141L35.3166 29.6984ZM38.7651 28.5285C38.9095 29.4958 38.6749 30.3823 38.1359 31.0679C37.5963 31.7542 36.7382 32.256 35.6078 32.4247L35.6817 32.9192C36.9204 32.7343 37.9 32.1769 38.5289 31.3769C39.1584 30.5763 39.423 29.5494 39.2596 28.4547L38.7651 28.5285ZM35.6078 32.4247C35.0874 32.5024 34.6601 32.4305 34.3513 32.2361C34.0489 32.0457 33.8264 31.7168 33.7501 31.2057L33.2556 31.2795C33.3496 31.909 33.6387 32.3783 34.0849 32.6592C34.5248 32.9361 35.0833 33.0085 35.6817 32.9192L35.6078 32.4247ZM45.4646 32.8656L45.2173 32.9025L45.2542 33.1498L45.5015 33.1128L45.4646 32.8656ZM47.5924 32.548L47.6293 32.7952L47.8765 32.7583L47.8396 32.5111L47.5924 32.548ZM46.2073 23.269L46.1789 23.0206L45.9218 23.05L45.96 23.3059L46.2073 23.269ZM51.984 22.6085L52.0124 22.8569L52.2694 22.8275L52.2312 22.5716L51.984 22.6085ZM51.7089 20.7659L51.9562 20.729L51.9205 20.4902L51.6807 20.5175L51.7089 20.7659ZM45.3805 21.4863L45.3523 21.2379L45.3487 21.2383L45.3805 21.4863ZM45.5015 33.1128L47.6293 32.7952L47.5554 32.3007L45.4277 32.6183L45.5015 33.1128ZM47.8396 32.5111L46.4545 23.2321L45.96 23.3059L47.3451 32.5849L47.8396 32.5111ZM46.2357 23.5174L52.0124 22.8569L51.9556 22.3601L46.1789 23.0206L46.2357 23.5174ZM52.2312 22.5716L51.9562 20.729L51.4617 20.8028L51.7367 22.6454L52.2312 22.5716ZM51.6807 20.5175L45.3523 21.2379L45.4088 21.7347L51.7372 21.0143L51.6807 20.5175ZM45.3487 21.2383C44.772 21.3124 44.3193 21.5171 44.0425 21.8951C43.767 22.2713 43.7044 22.7671 43.7896 23.3384L44.2842 23.2646C44.209 22.7609 44.2791 22.4184 44.446 22.1904C44.6116 21.9642 44.911 21.7987 45.4124 21.7343L45.3487 21.2383ZM43.7896 23.3384L45.2173 32.9025L45.7118 32.8287L44.2842 23.2646L43.7896 23.3384ZM58.8604 24.3179L58.9021 24.0714L58.9018 24.0713L58.8604 24.3179ZM60.615 23.002L60.3677 23.0389L60.4046 23.2862L60.6519 23.2493L60.615 23.002ZM62.7428 22.6844L62.7797 22.9317L63.0269 22.8947L62.99 22.6475L62.7428 22.6844ZM58.2747 25.9526L58.3152 25.7059L58.3124 25.7055L58.2747 25.9526ZM56.1463 27.1673L56.3936 27.1304L56.3567 26.8832L56.1094 26.9201L56.1463 27.1673ZM54.0185 27.485L53.9816 27.2377L53.7343 27.2746L53.7712 27.5219L54.0185 27.485ZM64.044 27.1545C63.9509 26.5307 63.7218 26.0389 63.3848 25.6511C63.0496 25.2654 62.6188 24.9951 62.1403 24.795C61.197 24.4004 60.0073 24.2582 58.9021 24.0714L58.8188 24.5644C59.9681 24.7587 61.073 24.8906 61.9474 25.2562C62.3778 25.4362 62.7367 25.6675 63.0074 25.979C63.2762 26.2885 63.4691 26.6896 63.5495 27.2283L64.044 27.1545ZM58.9018 24.0713C57.9728 23.9156 57.3325 23.7908 56.9051 23.5983C56.6969 23.5045 56.5543 23.4008 56.4565 23.2821C56.3604 23.1654 56.2957 23.0197 56.2661 22.8215L55.7716 22.8953C55.8124 23.1687 55.9081 23.4027 56.0705 23.5999C56.2312 23.7951 56.4452 23.9395 56.6998 24.0542C57.1979 24.2785 57.9081 24.4118 58.8191 24.5645L58.9018 24.0713ZM56.2661 22.8215C56.2158 22.4841 56.3368 22.2378 56.5998 22.0412C56.8791 21.8323 57.318 21.6839 57.8719 21.6012L57.798 21.1067C57.2112 21.1942 56.6766 21.3593 56.3003 21.6407C55.9077 21.9344 55.691 22.3552 55.7716 22.8953L56.2661 22.8215ZM57.8719 21.6012C58.6531 21.4846 59.2333 21.5714 59.6323 21.8085C60.0217 22.0398 60.278 22.4379 60.3677 23.0389L60.8622 22.9651C60.7555 22.2499 60.4334 21.7028 59.8877 21.3786C59.3517 21.0601 58.6401 20.981 57.798 21.1067L57.8719 21.6012ZM60.6519 23.2493L62.7797 22.9317L62.7059 22.4371L60.5781 22.7548L60.6519 23.2493ZM62.99 22.6475C62.845 21.6762 62.3949 20.724 61.505 20.0864C60.6148 19.4486 59.3223 19.1524 57.5459 19.4176L57.6197 19.9121C59.3093 19.6599 60.4591 19.9522 61.2138 20.4928C61.9686 21.0337 62.3654 21.8499 62.4955 22.7213L62.99 22.6475ZM57.5459 19.4176C56.2088 19.6172 55.1649 20.0711 54.4859 20.7289C53.7991 21.3942 53.5008 22.255 53.6438 23.2129L54.1383 23.1391C54.0194 22.3421 54.2618 21.6422 54.8338 21.088C55.4135 20.5264 56.3465 20.1022 57.6197 19.9121L57.5459 19.4176ZM53.6438 23.2129C53.813 24.3464 54.4291 25.0226 55.2791 25.4464C56.1077 25.8595 57.1661 26.0367 58.2371 26.1998L58.3124 25.7055C57.2265 25.5402 56.2485 25.371 55.5023 24.9989C54.7774 24.6375 54.2802 24.0895 54.1383 23.1391L53.6438 23.2129ZM58.2343 26.1993C59.1915 26.3562 59.954 26.4328 60.5213 26.6267C60.7973 26.721 61.0022 26.8361 61.1474 26.9841C61.2887 27.1282 61.3877 27.318 61.4283 27.5898L61.9228 27.516C61.8684 27.1517 61.7275 26.8615 61.5043 26.634C61.285 26.4103 61.0007 26.2621 60.683 26.1535C60.0629 25.9416 59.22 25.8542 58.3152 25.7059L58.2343 26.1993ZM61.4283 27.5898C61.4603 27.8045 61.4434 27.9759 61.3912 28.1161C61.3394 28.2551 61.2472 28.3794 61.1028 28.4919C60.8043 28.7245 60.2965 28.8963 59.5383 29.0095L59.6122 29.504C60.3895 29.388 61.0055 29.2015 61.4101 28.8863C61.6173 28.7248 61.7714 28.5278 61.8597 28.2906C61.9476 28.0546 61.9644 27.795 61.9228 27.516L61.4283 27.5898ZM59.5383 29.0095C58.5353 29.1593 57.8098 29.0538 57.3132 28.748C56.8259 28.448 56.5123 27.9258 56.3936 27.1304L55.899 27.2043C56.0325 28.098 56.4024 28.7744 57.051 29.1738C57.6903 29.5674 58.5532 29.6621 59.6122 29.504L59.5383 29.0095ZM56.1094 26.9201L53.9816 27.2377L54.0554 27.7322L56.1832 27.4146L56.1094 26.9201ZM53.7712 27.5219C53.9716 28.8638 54.5292 29.9412 55.5439 30.6026C56.5525 31.2601 57.9673 31.4763 59.8204 31.1997L59.7466 30.7051C57.9583 30.9721 56.6838 30.7488 55.8169 30.1838C54.956 29.6227 54.4518 28.6946 54.2658 27.4481L53.7712 27.5219ZM59.8204 31.1997C61.538 30.9433 62.6687 30.4105 63.3355 29.6855C64.0104 28.9516 64.1786 28.0558 64.044 27.1545L63.5495 27.2283C63.6671 28.0161 63.5177 28.7487 62.9675 29.347C62.4092 29.9541 61.4071 30.4573 59.7466 30.7051L59.8204 31.1997ZM67.4961 21.6385L67.533 21.8857L67.7314 21.8561L67.7455 21.6561L67.4961 21.6385ZM66.9038 21.7269L66.6555 21.6981L66.6179 22.0223L66.9407 21.9742L66.9038 21.7269ZM67.0705 20.2893L67.3188 20.318L67.3226 20.2851L67.3177 20.2523L67.0705 20.2893ZM66.0292 13.3136L66.2764 13.2767L66.2395 13.0294L65.9923 13.0663L66.0292 13.3136ZM63.9014 13.6312L63.8645 13.3839L63.6172 13.4209L63.6541 13.6681L63.9014 13.6312ZM66.3081 29.7542L66.0609 29.7911L66.0978 30.0384L66.345 30.0015L66.3081 29.7542ZM68.4359 29.4366L68.4728 29.6839L68.7201 29.6469L68.6832 29.3997L68.4359 29.4366ZM74.8632 28.4772L74.6159 28.5141L74.6528 28.7613L74.9001 28.7244L74.8632 28.4772ZM77.0129 28.1563L77.0498 28.4035L77.2971 28.3666L77.2602 28.1194L77.0129 28.1563ZM71.1447 17.3876C69.9089 17.5721 68.9666 18.0883 68.3154 18.8408C67.666 19.5913 67.3217 20.5586 67.2467 21.6209L67.7455 21.6561C67.8145 20.6786 68.1285 19.8209 68.6935 19.168C69.2568 18.5171 70.0853 18.0513 71.2185 17.8822L71.1447 17.3876ZM67.4592 21.3912L66.8669 21.4796L66.9407 21.9742L67.533 21.8857L67.4592 21.3912ZM67.1522 21.7557L67.3188 20.318L66.8221 20.2605L66.6555 21.6981L67.1522 21.7557ZM67.3177 20.2523L66.2764 13.2767L65.7819 13.3505L66.8232 20.3262L67.3177 20.2523ZM65.9923 13.0663L63.8645 13.3839L63.9383 13.8785L66.0661 13.5608L65.9923 13.0663ZM63.6541 13.6681L66.0609 29.7911L66.5554 29.7173L64.1486 13.5943L63.6541 13.6681ZM66.345 30.0015L68.4728 29.6839L68.399 29.1893L66.2712 29.507L66.345 30.0015ZM68.6832 29.3997L67.9824 24.7054L67.4879 24.7792L68.1886 29.4735L68.6832 29.3997ZM67.9824 24.7054C67.7675 23.2653 67.9782 22.1206 68.4854 21.304C68.9896 20.4923 69.8034 19.9771 70.8575 19.8198L70.7836 19.3252C69.6002 19.5019 68.6503 20.0909 68.0607 21.0402C67.474 21.9847 67.2608 23.2579 67.4879 24.7792L67.9824 24.7054ZM70.8575 19.8198C71.7452 19.6872 72.3548 19.807 72.7829 20.1672C73.2192 20.5343 73.5237 21.1969 73.686 22.2842L74.1805 22.2104C74.0121 21.0822 73.6816 20.2699 73.1048 19.7846C72.5199 19.2926 71.7385 19.1827 70.7836 19.3252L70.8575 19.8198ZM73.686 22.2842L74.6159 28.5141L75.1104 28.4403L74.1805 22.2104L73.686 22.2842ZM74.9001 28.7244L77.0498 28.4035L76.976 27.909L74.8263 28.2299L74.9001 28.7244ZM77.2602 28.1194L76.2844 21.5824L75.7899 21.6562L76.7656 28.1932L77.2602 28.1194ZM76.2844 21.5824C76.0474 19.9947 75.4482 18.8363 74.5447 18.1281C73.6392 17.4183 72.4662 17.1904 71.1447 17.3876L71.2185 17.8822C72.4417 17.6996 73.4655 17.9174 74.2362 18.5216C75.0089 19.1273 75.5652 20.151 75.7899 21.6562L76.2844 21.5824ZM79.0867 27.8467L78.8395 27.8836L78.8764 28.1309L79.1236 28.094L79.0867 27.8467ZM87.2689 26.6253L87.3058 26.8726L87.5531 26.8357L87.5161 26.5884L87.2689 26.6253ZM86.9938 24.7827L87.2411 24.7458L87.2042 24.4985L86.9569 24.5355L86.9938 24.7827ZM83.9228 25.2411L83.6755 25.2781L83.7124 25.5253L83.9597 25.4884L83.9228 25.2411ZM80.9989 16.1695L81.0546 16.4132L81.0558 16.4129L80.9989 16.1695ZM78.1799 16.8145L78.1242 16.5708L77.8985 16.6224L77.9327 16.8514L78.1799 16.8145ZM78.455 18.6571L78.2077 18.694L78.2479 18.963L78.5125 18.9004L78.455 18.6571ZM80.7727 18.1093L81.0199 18.0724L80.9798 17.8035L80.7152 17.866L80.7727 18.1093ZM81.8827 25.5457L81.9196 25.7929L82.1669 25.756L82.13 25.5088L81.8827 25.5457ZM78.8117 26.0041L78.7748 25.7568L78.5275 25.7937L78.5644 26.041L78.8117 26.0041ZM81.0456 14.9801C82.1492 14.8153 82.892 13.9382 82.7312 12.8611L82.2367 12.9349C82.3509 13.7004 81.8424 14.3556 80.9718 14.4855L81.0456 14.9801ZM82.7312 12.8611C82.5734 11.8037 81.6047 11.1843 80.5035 11.3487L80.5773 11.8432C81.4504 11.7129 82.126 12.1935 82.2367 12.9349L82.7312 12.8611ZM80.5035 11.3487C79.4176 11.5108 78.7016 12.3879 78.8585 13.4392L79.353 13.3654C79.2415 12.6179 79.7328 11.9693 80.5773 11.8432L80.5035 11.3487ZM78.8585 13.4392C79.0184 14.5102 79.9574 15.1425 81.0456 14.9801L80.9718 14.4855C80.1296 14.6113 79.4682 14.137 79.353 13.3654L78.8585 13.4392ZM79.1236 28.094L87.3058 26.8726L87.232 26.3781L79.0498 27.5995L79.1236 28.094ZM87.5161 26.5884L87.2411 24.7458L86.7466 24.8196L87.0216 26.6623L87.5161 26.5884ZM86.9569 24.5355L83.8859 24.9939L83.9597 25.4884L87.0307 25.03L86.9569 24.5355ZM84.17 25.2042L82.9912 17.3072L82.4967 17.3811L83.6755 25.2781L84.17 25.2042ZM82.9912 17.3072C82.9171 16.8104 82.7262 16.3803 82.3657 16.1165C82.0011 15.8497 81.5166 15.7917 80.942 15.926L81.0558 16.4129C81.5429 16.299 81.8622 16.3677 82.0704 16.52C82.2826 16.6753 82.4334 16.9566 82.4967 17.3811L82.9912 17.3072ZM80.9431 15.9258L78.1242 16.5708L78.2357 17.0582L81.0546 16.4132L80.9431 15.9258ZM77.9327 16.8514L78.2077 18.694L78.7023 18.6202L78.4272 16.7776L77.9327 16.8514ZM78.5125 18.9004L80.8302 18.3526L80.7152 17.866L78.3975 18.4138L78.5125 18.9004ZM80.5254 18.1462L81.6355 25.5826L82.13 25.5088L81.0199 18.0724L80.5254 18.1462ZM81.8458 25.2984L78.7748 25.7568L78.8486 26.2514L81.9196 25.7929L81.8458 25.2984ZM78.5644 26.041L78.8395 27.8836L79.334 27.8098L79.0589 25.9672L78.5644 26.041ZM91.4925 24.3579L91.2452 24.3948L91.2845 24.6578L91.5446 24.6024L91.4925 24.3579ZM90.3759 16.8777L90.339 16.6304L90.0917 16.6673L90.1286 16.9146L90.3759 16.8777ZM93.8418 16.3603L93.8787 16.6076L94.1259 16.5707L94.089 16.3234L93.8418 16.3603ZM93.5667 14.5177L93.814 14.4808L93.7771 14.2335L93.5298 14.2704L93.5667 14.5177ZM90.1008 15.035L89.8536 15.0719L89.8905 15.3192L90.1377 15.2823L90.1008 15.035ZM89.6031 11.7008L89.8504 11.6638L89.8003 11.3286L89.4948 11.4754L89.6031 11.7008ZM87.5735 12.6765L87.4652 12.4511L87.2991 12.531L87.3263 12.7134L87.5735 12.6765ZM87.973 15.3527L88.0099 15.5999L88.2572 15.563L88.2203 15.3158L87.973 15.3527ZM85.5381 15.7161L85.5012 15.4689L85.2539 15.5058L85.2909 15.753L85.5381 15.7161ZM85.8132 17.5588L85.5659 17.5957L85.6028 17.8429L85.8501 17.806L85.8132 17.5588ZM88.2481 17.1953L88.4953 17.1584L88.4584 16.9111L88.2112 16.948L88.2481 17.1953ZM91.2158 26.2604L91.1668 26.0153L91.1639 26.0159L91.2158 26.2604ZM95.6361 25.3763L95.6851 25.6215L95.9185 25.5748L95.8834 25.3394L95.6361 25.3763ZM95.3611 23.5337L95.6083 23.4968L95.5691 23.2338L95.309 23.2892L95.3611 23.5337ZM91.7397 24.321L90.6231 16.8408L90.1286 16.9146L91.2452 24.3948L91.7397 24.321ZM90.4128 17.1249L93.8787 16.6076L93.8049 16.113L90.339 16.6304L90.4128 17.1249ZM94.089 16.3234L93.814 14.4808L93.3195 14.5546L93.5945 16.3972L94.089 16.3234ZM93.5298 14.2704L90.0639 14.7878L90.1377 15.2823L93.6036 14.7649L93.5298 14.2704ZM90.3481 14.9981L89.8504 11.6638L89.3558 11.7377L89.8536 15.0719L90.3481 14.9981ZM89.4948 11.4754L87.4652 12.4511L87.6819 12.9018L89.7114 11.9261L89.4948 11.4754ZM87.3263 12.7134L87.7258 15.3896L88.2203 15.3158L87.8208 12.6396L87.3263 12.7134ZM87.9361 15.1054L85.5012 15.4689L85.575 15.9634L88.0099 15.5999L87.9361 15.1054ZM85.2909 15.753L85.5659 17.5957L86.0604 17.5218L85.7854 15.6792L85.2909 15.753ZM85.8501 17.806L88.285 17.4426L88.2112 16.948L85.7763 17.3115L85.8501 17.806ZM88.0008 17.2322L89.1534 24.9537L89.6479 24.8799L88.4953 17.1584L88.0008 17.2322ZM89.1534 24.9537C89.2386 25.5242 89.4444 25.9901 89.8172 26.2751C90.195 26.564 90.6916 26.6274 91.2678 26.505L91.1639 26.0159C90.6751 26.1197 90.3443 26.0487 90.1209 25.8779C89.8924 25.7033 89.7232 25.3843 89.6479 24.8799L89.1534 24.9537ZM91.2649 26.5056L95.6851 25.6215L95.5871 25.1312L91.1668 26.0153L91.2649 26.5056ZM95.8834 25.3394L95.6083 23.4968L95.1138 23.5706L95.3889 25.4133L95.8834 25.3394ZM95.309 23.2892L91.4404 24.1134L91.5446 24.6024L95.4132 23.7782L95.309 23.2892Z" fill="white"/>
</svg>
