<svg width="82" height="51" viewBox="0 0 82 51" fill="none" xmlns="http://www.w3.org/2000/svg">
<path d="M23.2266 0.318359C35.7609 0.318359 45.9211 11.5501 45.9211 25.4041C45.9211 39.2581 35.7601 50.489 23.2266 50.489C10.693 50.489 0.53125 39.2581 0.53125 25.4041C0.53125 11.5501 10.6923 0.318359 23.2266 0.318359ZM59.4694 1.78782C65.7365 1.78782 70.817 12.3601 70.817 25.4041H70.8178C70.8178 38.4447 65.7373 49.0204 59.4701 49.0204C53.203 49.0204 48.1225 38.4447 48.1225 25.4041C48.1225 12.3635 53.2022 1.78782 59.4694 1.78782ZM77.0102 4.24763C79.2138 4.24763 81.0012 13.7195 81.0012 25.4041C81.0012 37.0853 79.2146 46.5605 77.0102 46.5605C74.8057 46.5605 73.0199 37.0878 73.0199 25.4041C73.0199 13.7204 74.8065 4.24763 77.0102 4.24763Z" fill="white"/>
</svg>
