<svg width="202" height="105" viewBox="0 0 202 105" fill="none" xmlns="http://www.w3.org/2000/svg">
<g clip-path="url(#clip0_4359_4291)">
<path d="M26.9458 45.0275C27.6701 43.089 28.7113 41.4436 30.0694 40.0912C31.4049 38.7388 33.0346 37.6794 34.9132 36.9356C36.7919 36.1918 38.9196 35.8086 41.251 35.8086C43.605 35.8086 45.71 36.1692 47.6339 36.9356C49.5352 37.6794 51.1649 38.7388 52.5004 40.0912C53.8358 41.4436 54.877 43.089 55.624 45.0275C56.3483 46.9659 56.7104 49.1073 56.7331 51.4965C56.7331 53.8632 56.3709 56.0045 55.6466 57.9204C54.9223 59.8363 53.8811 61.4818 52.523 62.8342C51.1876 64.1866 49.5579 65.246 47.6566 65.9672C45.7553 66.6885 43.6276 67.0492 41.2736 67.0717C38.9196 67.0717 36.8146 66.7111 34.9359 65.9898C33.0572 65.2685 31.4275 64.2091 30.0921 62.8567C28.734 61.5043 27.7154 59.8589 26.9685 57.943C26.2442 56.0271 25.882 53.8857 25.8594 51.519C25.8594 49.1298 26.2215 46.9659 26.9458 45.0275ZM34.3926 54.9677C34.619 56.0947 35.0264 57.109 35.5697 58.0106C36.1355 58.9122 36.8598 59.6335 37.7878 60.1744C38.7159 60.7154 39.8702 60.9859 41.251 60.9859C42.6317 60.9859 43.8087 60.7154 44.7367 60.1744C45.6874 59.6335 46.4343 58.9122 46.9775 58.0106C47.5434 57.109 47.9282 56.0947 48.1545 54.9677C48.3809 53.8407 48.4941 52.6911 48.4941 51.4965C48.4941 50.3019 48.3809 49.1523 48.1545 48.0028C47.9282 46.8532 47.5208 45.8389 46.9775 44.9599C46.4117 44.0808 45.6647 43.3595 44.7367 42.796C43.786 42.2325 42.6317 41.962 41.251 41.962C39.8702 41.962 38.7159 42.2325 37.7878 42.796C36.8598 43.3595 36.1355 44.0808 35.5697 44.9599C35.0038 45.8389 34.619 46.8532 34.3926 48.0028C34.1663 49.1523 34.0531 50.3244 34.0531 51.4965C34.0531 52.6911 34.1663 53.8407 34.3926 54.9677Z" fill="white"/>
<path d="M67.6918 36.6209V40.4077H67.8049C68.8009 38.8073 70.0684 37.6352 71.6076 36.914C73.1467 36.1927 74.8443 35.832 76.6777 35.832C79.0318 35.832 81.0462 36.2603 82.7438 37.1619C84.4414 38.041 85.8448 39.213 86.9539 40.6556C88.063 42.1207 88.9005 43.8112 89.4437 45.7271C89.9869 47.6656 90.2586 49.6716 90.2586 51.7904C90.2586 53.7739 89.9869 55.6899 89.4437 57.5381C88.9005 59.3864 88.0856 61.0093 86.9992 62.4293C85.9127 63.8494 84.532 64.9764 82.9023 65.8104C81.2726 66.6443 79.3486 67.0726 77.1531 67.0726C75.297 67.0726 73.5994 66.6894 72.0376 65.9456C70.4758 65.2018 69.2083 64.0973 68.1897 62.6547H68.0766V77.148H59.8828L59.9054 36.6209H67.6918ZM78.3301 60.1528C79.2355 59.6118 79.9598 58.9131 80.5256 58.0566C81.0915 57.2 81.4763 56.1857 81.7026 55.0362C81.929 53.8866 82.0422 52.7146 82.0422 51.5425C82.0422 50.3479 81.9064 49.1983 81.6574 48.0488C81.4084 46.8992 81.001 45.8849 80.4125 44.9833C79.8466 44.0817 79.0997 43.3604 78.1943 42.7969C77.2889 42.2334 76.1798 41.9629 74.867 41.9629C73.5315 41.9629 72.3998 42.2334 71.4944 42.7969C70.589 43.3604 69.8647 44.0817 69.2988 44.9608C68.733 45.8398 68.3482 46.8541 68.1218 48.0037C67.8955 49.1532 67.7823 50.3479 67.7823 51.565C67.7823 52.7596 67.9181 53.9092 68.1671 55.0587C68.4161 56.2083 68.8235 57.2226 69.3894 58.0791C69.9552 58.9356 70.6796 59.6344 71.6076 60.1753C72.5356 60.7163 73.6447 60.9868 74.9575 60.9868C76.293 60.9642 77.4247 60.6938 78.3301 60.1528Z" fill="white"/>
<path d="M126.064 59.9717V66.3054C125.385 66.4181 124.615 66.4858 123.755 66.5308C122.918 66.5759 122.08 66.5759 121.288 66.5759C120.02 66.5759 118.821 66.5083 117.666 66.328C116.535 66.1477 115.539 65.8096 114.678 65.3137C113.818 64.8178 113.139 64.119 112.641 63.1949C112.143 62.2708 111.894 61.0761 111.894 59.5885V42.0748H103.225V56.771C103.225 58.1459 103.474 59.0701 103.927 59.5209C104.38 59.9717 105.308 60.1971 106.688 60.1971C107.141 60.1971 107.594 60.1745 108.001 60.152C108.431 60.1069 108.839 60.0618 109.201 59.9717V66.3054C108.522 66.4181 107.752 66.4858 106.915 66.5308C106.077 66.5759 105.24 66.5759 104.425 66.5759C103.157 66.5759 101.958 66.5083 100.803 66.328C99.6717 66.1477 98.6758 65.8096 97.8157 65.3137C96.9555 64.8178 96.2765 64.119 95.7785 63.1949C95.2806 62.2708 95.0316 61.0761 95.0316 59.5885V42.0748H91.2969V36.5976H95.0316V28.5508H103.225V36.5976H111.894V28.5508H120.088V36.5976H124.819V42.0748H120.088V56.771C120.088 58.1459 120.337 59.0701 120.79 59.5209C121.243 59.9717 122.171 60.1971 123.551 60.1971C124.004 60.1971 124.457 60.1745 124.864 60.152C125.272 60.0844 125.679 60.0393 126.064 59.9717Z" fill="white"/>
<path d="M141.293 76.0203C139.709 77.0571 137.536 77.5756 134.729 77.5756C133.892 77.5756 133.054 77.553 132.217 77.4854C131.379 77.4178 130.564 77.3501 129.704 77.2825V70.5656C130.474 70.6332 131.266 70.7234 132.058 70.791C132.873 70.8586 133.665 70.8811 134.48 70.8586C135.567 70.7459 136.359 70.3176 136.88 69.5964C137.4 68.8751 137.649 68.0636 137.649 67.1846C137.649 66.5309 137.536 65.9223 137.31 65.3363L126.875 36.5977H135.589L142.334 56.9288H142.448L148.966 36.5977H157.454L145.005 70.8811C144.1 73.2704 142.878 74.9834 141.293 76.0203Z" fill="white"/>
<path d="M158.703 32.3155V30.918H164.882V32.3155H162.619V38.4238H160.967V32.3155H158.703Z" fill="white"/>
<path d="M168.299 30.918L170.065 36.0797H170.087L171.762 30.918H174.094V38.4238H172.532V33.1044H172.509L170.653 38.4238H169.386L167.53 33.1494H167.507V38.4238H165.945V30.918H168.299Z" fill="white"/>
</g>
<defs>
<clipPath id="clip0_4359_4291">
<rect width="150" height="52" fill="white" transform="translate(25.0469 27.0625)"/>
</clipPath>
</defs>
</svg>
