<svg width="610" height="612" viewBox="0 0 610 612" fill="none" xmlns="http://www.w3.org/2000/svg">
<path d="M81.6293 162.699C175.614 220.687 342.177 272.501 256.549 15.8528C295.143 120.27 410.667 261.695 574.001 34.3557C581.56 22.3367 589.421 10.767 597.227 0C589.382 12.286 581.639 23.7241 574.001 34.3557C503.978 145.69 459.877 295.583 726.498 203.27C727 203.094 727.501 202.92 728 202.748C727.498 202.923 726.998 203.097 726.498 203.27C617.838 241.277 445.408 362.808 613.886 549.841C525.893 489.091 312.257 416.468 146.29 597.64C142.109 602.572 137.891 607.373 133.689 612C137.856 607.045 142.058 602.26 146.29 597.64C224.17 505.775 289.326 368.309 0 458.896C112.726 421.211 286.869 309.212 81.6293 162.699Z" fill="#121222"/>
</svg>
