<svg width="1920" height="418" viewBox="0 0 1920 418" fill="none" xmlns="http://www.w3.org/2000/svg">
<path opacity="0.06" d="M-865.031 408L-861.531 397.5C-824.031 397.5 -814.531 391.5 -805.531 362L-711.031 54C-702.031 24.5 -700.531 18.5 -745.531 18.5L-742.531 7.99999H-625.531C-565.531 7.99999 -526.031 31.5 -526.031 89C-526.031 155.5 -580.531 231.5 -676.031 231.5C-697.031 231.5 -718.031 228 -733.031 222.5L-775.531 362C-784.531 391.5 -785.531 397.5 -735.031 397.5L-738.531 408H-865.031ZM-676.531 214.5C-594.031 214.5 -557.031 142.5 -557.031 87C-557.031 43.5 -583.031 24 -629.031 24C-662.531 24 -673.531 28.5 -677.531 42L-727.531 205C-714.031 209.5 -695.031 214.5 -676.531 214.5ZM-249.312 7.99999L-274.812 93H-288.312C-275.812 42.5 -275.312 25.5 -312.312 25.5H-388.812C-403.312 25.5 -412.812 32 -417.312 46.5L-461.312 190H-386.312C-358.812 190 -348.312 180.5 -338.312 149H-327.312L-358.812 256.5H-369.812C-360.312 220 -364.312 205.5 -390.812 205.5H-465.312L-513.312 361C-520.812 386 -518.312 390.5 -499.812 390.5H-414.312C-375.812 390.5 -357.812 373 -325.812 318L-311.812 321.5L-359.812 408H-603.313L-599.813 397.5C-562.313 397.5 -552.812 391.5 -543.812 362L-449.312 54C-440.312 24.5 -438.812 18.5 -483.812 18.5L-480.812 7.99999H-249.312ZM-23.4258 -2.21729e-05L-40.9258 360C-42.4258 391.5 -36.9258 397.5 0.0742176 397.5L-4.42575 408H-125.426L-121.926 397.5C-79.9258 397.5 -73.9258 390.5 -72.4258 360L-67.4258 278H-207.426L-266.426 368C-282.926 393.5 -288.426 397.5 -237.926 397.5L-241.426 408H-344.426L-341.426 397.5C-320.426 397.5 -304.426 394.5 -287.426 368L-43.4258 -2.21729e-05H-23.4258ZM-196.926 262.5H-66.9258L-54.4258 50.5H-57.9258L-196.926 262.5ZM124.395 416C54.3945 416 22.3945 362.5 22.3945 291C22.3945 170 112.895 0.999995 229.395 0.999995C261.395 0.999995 280.395 12.5 295.395 34C301.395 43 304.895 42.5 308.895 32.5L319.895 4.49998L329.895 6.49998L292.895 143.5H282.395C292.395 72.5 286.895 18.5 229.895 18.5C127.895 18.5 55.8945 187.5 55.8945 289C55.8945 352.5 83.3945 394 134.395 394C195.395 394 242.395 337 277.395 263H290.395C251.895 347 205.895 416 124.395 416ZM621.293 7.99999L595.793 93H582.293C594.793 42.5 595.293 25.5 558.293 25.5H481.793C467.293 25.5 457.793 32 453.293 46.5L409.293 190H484.293C511.793 190 522.293 180.5 532.293 149H543.293L511.793 256.5H500.793C510.293 220 506.293 205.5 479.793 205.5H405.293L357.293 361C349.793 386 352.293 390.5 370.793 390.5H456.293C494.793 390.5 512.793 373 544.793 318L558.793 321.5L510.793 408H267.293L270.793 397.5C308.293 397.5 317.793 391.5 326.793 362L421.293 54C430.293 24.5 431.793 18.5 386.793 18.5L389.793 7.99999H621.293ZM806.324 416C742.324 416 712.324 364 712.324 293C712.324 153 819.824 -2.21729e-05 924.824 -2.21729e-05C989.324 -2.21729e-05 1018.82 52 1018.82 122.5C1018.82 263 911.824 416 806.324 416ZM816.324 398.5C898.324 398.5 986.324 248.5 986.324 119.5C986.324 61.5 968.324 17 914.824 17C833.324 17 744.824 167.5 744.824 296.5C744.824 354.5 762.824 398.5 816.324 398.5ZM1336.94 7.99999L1311.44 93H1297.94C1310.44 42.5 1310.94 25.5 1274.94 25.5H1179.44C1167.94 25.5 1160.44 31 1156.94 42L1109.44 197.5H1189.94C1217.94 197.5 1228.44 188 1238.94 156.5H1249.94L1217.44 268.5H1205.94C1215.44 231 1211.94 213.5 1185.44 213.5H1104.94L1059.44 362C1050.44 391.5 1049.44 397.5 1100.94 397.5L1097.44 408H969.441L972.941 397.5C1010.44 397.5 1019.94 391.5 1028.94 362L1123.44 54C1132.44 24.5 1133.94 18.5 1088.94 18.5L1091.94 7.99999H1336.94ZM1551.43 7.99999L1556.93 359H1558.43L1759.43 7.99999H1844.93L1841.93 18.5C1807.93 18.5 1799.43 25 1792.43 54.5L1717.43 361.5C1709.93 391 1709.93 397.5 1760.43 397.5L1756.93 408H1630.43L1633.93 397.5C1671.43 397.5 1679.93 391 1686.93 361.5L1764.93 37H1762.93L1542.43 418H1528.43L1520.93 42H1519.43L1421.43 362C1412.93 391.5 1411.43 397.5 1455.93 397.5L1452.93 408H1344.93L1348.43 397.5C1385.93 397.5 1395.43 391.5 1404.43 362L1498.43 54C1507.43 24.5 1508.93 18.5 1463.93 18.5L1466.93 7.99999H1551.43ZM1834.12 362L1928.62 54C1937.62 24.5 1939.12 18.5 1894.12 18.5L1897.12 7.99999H2017.62L2014.62 18.5C1977.12 18.5 1968.12 24.5 1959.12 54L1864.62 362C1855.62 391.5 1854.12 397.5 1899.12 397.5L1895.62 408H1774.62L1778.12 397.5C1815.62 397.5 1825.12 391.5 1834.12 362ZM2377.96 7.99999L2374.96 18.5C2336.96 18.5 2327.46 24.5 2318.96 54L2208.46 415H2189.96L2092.96 68L2004.46 362C1995.46 391.5 1994.46 397.5 2044.46 397.5L2040.96 408H1926.96L1930.46 397.5C1967.96 397.5 1977.46 391.5 1986.46 362L2083.96 39.5C2076.46 22 2067.46 18.5 2048.96 18.5L2051.46 7.99999H2108.46L2204.46 355H2208.46L2300.46 54C2309.46 24.5 2310.46 18.5 2260.46 18.5L2263.96 7.99999H2377.96ZM2406.91 408H2283.41L2286.91 397.5C2324.41 397.5 2333.91 391.5 2342.91 362L2437.41 54C2446.41 24.5 2447.91 18.5 2402.91 18.5L2405.91 7.99999H2523.41C2607.91 7.99999 2665.91 62.5 2665.91 151.5C2665.91 287.5 2552.41 408 2406.91 408ZM2408.91 391C2535.41 391 2633.91 271 2633.91 147.5C2633.91 72 2591.41 24 2521.91 24C2494.91 24 2474.91 27.5 2471.41 40.5L2367.91 375C2364.91 385.5 2373.91 391 2408.91 391Z" fill="white"/>
</svg>
