<svg width="185" height="89" viewBox="0 0 185 89" fill="none" xmlns="http://www.w3.org/2000/svg">
<path d="M98.9843 41.5715C98.675 41.6694 98.4073 41.6807 98.181 41.6052C98.0076 41.5222 97.8341 41.4391 97.6607 41.3561C97.5325 41.2128 97.3817 41.0996 97.2082 41.0166C97.0273 40.8807 96.8048 40.8317 96.5408 40.8693C94.8358 42.1359 93.2514 43.493 91.7878 44.9407C90.3769 46.3809 89.2714 48.0738 88.4713 50.0196C88.4335 50.1327 88.441 50.1855 88.4938 50.178C88.5466 50.1704 88.5768 50.1931 88.5843 50.2459C90.0173 50.4726 91.4315 50.5673 92.8269 50.53C94.2675 50.4324 95.6477 50.6667 96.9675 51.2328C97.1787 51.2027 97.3484 51.0707 97.4767 50.837C97.5975 50.5504 97.7559 50.5278 97.9519 50.7692C98.0349 50.5958 98.1142 50.3959 98.1897 50.1697C98.2652 49.9434 98.4462 49.8907 98.7328 50.0114C98.7705 49.8983 98.8083 49.7852 98.846 49.6721C98.8838 49.5589 98.8951 49.4496 98.8801 49.344C99.1516 49.3591 99.3364 49.3328 99.4345 49.265C99.5325 49.1971 99.6005 49.1066 99.6382 48.9935C99.7212 48.82 99.7854 48.7031 99.8306 48.6428C99.9212 48.5222 100.046 48.4506 100.204 48.428C100.28 48.2017 100.4 47.9152 100.566 47.5683C100.732 47.5985 100.766 47.6475 100.668 47.7154C100.623 47.7757 100.661 47.8511 100.781 47.9417C101.143 47.4591 101.54 47.0255 101.97 46.641C102.452 46.2489 102.841 45.7625 103.135 45.1819C103.399 45.1442 103.629 45.0576 103.826 44.9219C104.022 44.7862 104.214 44.6241 104.403 44.4356C104.591 44.247 104.784 44.0849 104.98 43.9492C105.229 43.806 105.515 43.7382 105.84 43.7459C105.953 44.1607 105.881 44.6019 105.624 45.0695C105.413 45.4767 105.179 45.7256 104.923 45.816C104.832 45.9366 104.817 46.0196 104.877 46.0649C104.99 46.1026 105.032 46.2045 105.002 46.3704C104.134 47.4638 103.206 48.5119 102.218 49.5147C101.282 50.51 100.407 51.5506 99.5918 52.6365C100.187 53.4136 100.557 54.3037 100.7 55.3069C100.722 56.2195 100.563 56.9963 100.224 57.6373C99.9295 58.218 99.6125 58.8289 99.2729 59.4699C98.8353 59.8016 98.443 60.2616 98.0958 60.8498C97.4093 61.3247 96.7492 61.7959 96.1155 62.2634C95.4743 62.678 94.6068 62.8286 93.5132 62.7151C93.3926 62.6246 93.2757 62.5604 93.1625 62.5227C93.0494 62.4849 92.9514 62.3642 92.8685 62.1605C92.3179 62.0774 91.9371 61.8623 91.726 61.5153C91.5677 61.1608 91.3755 60.7572 91.1494 60.3046C91.1496 59.5503 91.2479 58.9168 91.4441 58.4039C91.6857 57.8308 91.9611 57.3067 92.2705 56.8316C92.6252 56.2962 92.961 55.8173 93.2779 55.3951C93.6476 54.9653 93.9344 54.5203 94.1382 54.0603C94.2665 53.8265 94.4287 53.6418 94.6248 53.5061C94.821 53.3704 94.9606 53.2158 95.0436 53.0424C94.4327 52.914 93.7765 52.8459 93.0751 52.8381C92.4189 52.77 91.774 52.7811 91.1404 52.8714C90.3258 52.8259 89.4736 52.705 88.5836 52.5086C87.7389 52.2519 86.981 51.8481 86.3099 51.2973C86.1969 50.8825 85.967 50.592 85.6201 50.426C85.3864 49.9205 85.3224 49.4717 85.4282 49.0796C85.4735 48.6421 85.6057 48.2462 85.8245 47.8918C85.9905 47.5449 86.2132 47.2168 86.4923 46.9077C86.7112 46.5532 86.8772 46.2063 86.9905 45.867C87.6997 45.1733 88.4919 44.3061 89.3671 43.2656C90.2424 42.225 91.1591 41.2862 92.1173 40.4493C92.6001 40.0572 93.0867 39.6916 93.5771 39.3523C94.0599 38.9603 94.6445 38.7153 95.3309 38.6175C95.8061 38.5497 96.4057 38.599 97.1297 38.7651C97.3183 38.9537 97.5294 39.1122 97.7632 39.2405C97.9969 39.3688 98.2345 39.5235 98.4758 39.7046C98.7096 39.8329 98.8981 40.0215 99.0413 40.2704C99.177 40.4666 99.2222 40.7834 99.1768 41.2208C99.0712 41.2359 99.0259 41.2962 99.0409 41.4018C99.0485 41.4546 99.0296 41.5112 98.9843 41.5715ZM97.2038 55.1587C96.6681 55.9354 96.0758 56.6932 95.4269 57.4322C94.8233 58.1108 94.378 58.9555 94.0911 59.9661C95.034 59.4007 95.7697 58.7032 96.2979 57.8737C96.8789 57.0367 97.3129 56.1129 97.5998 55.1023L97.2038 55.1587ZM119.786 42.0005C120.012 41.6988 120.253 41.5028 120.51 41.4124C120.766 41.322 120.977 41.2919 121.143 41.3221C121.256 41.3598 121.321 41.4315 121.336 41.5371C121.403 41.6352 121.445 41.737 121.46 41.8426C121.475 41.9482 121.513 42.0236 121.573 42.0689C121.686 42.1067 121.814 42.0614 121.958 41.9333C121.912 42.3707 121.78 42.7667 121.561 43.1211C121.388 43.4152 121.305 43.7772 121.312 44.2071C121.222 44.3278 121.124 44.3956 121.018 44.4107C120.965 44.4182 120.916 44.4521 120.871 44.5125L120.939 44.9877C119.331 46.9407 117.815 48.9616 116.389 51.0504C114.962 53.1392 113.204 54.979 111.115 56.5698C110.451 56.8261 109.829 56.9956 109.248 57.0784C108.72 57.1536 108.079 57.1911 107.324 57.1909C106.864 56.9871 106.404 56.7833 105.944 56.5795C105.484 56.3757 105.043 56.1154 104.621 55.7985C104.07 55.3382 103.701 54.8252 103.513 54.2595C103.271 53.7012 103.136 53.128 103.106 52.5397C103.015 51.9061 103.004 51.2612 103.072 50.605C103.08 49.9035 103.111 49.1719 103.164 48.4102C103.451 47.0224 103.828 45.7026 104.296 44.4507C104.711 43.2063 105.247 42.0525 105.904 40.9892C106.176 40.6273 106.587 40.2993 107.137 40.0053C107.741 39.7038 108.333 39.5117 108.914 39.4289C109.811 39.3009 110.502 39.4181 110.984 39.7802C111.135 40.082 111.335 40.3498 111.584 40.5837C111.825 40.7648 112.025 41.0326 112.183 41.3872C112.077 41.4022 112.032 41.4625 112.047 41.5681C111.843 42.0282 111.451 42.2996 110.87 42.3824C110.131 42.4877 109.543 42.3292 109.105 41.9066C107.951 43.2564 107.143 44.9607 106.683 47.0197C106.214 49.0258 106.097 51.2244 106.33 53.6155C106.481 53.9172 106.624 54.1662 106.76 54.3623C106.941 54.4981 107.125 54.6603 107.314 54.849C107.812 54.9396 108.377 54.9398 109.011 54.8495C110.142 54.0956 111.127 53.2549 111.965 52.3275C112.794 51.3472 113.568 50.3481 114.285 49.33C115.054 48.3045 115.798 47.2827 116.515 46.2647C117.284 45.2392 118.114 44.2589 119.004 43.3239C118.989 43.2183 118.959 43.1957 118.914 43.256C118.921 43.3088 118.872 43.3427 118.767 43.3578C118.827 43.026 118.982 42.7884 119.231 42.6452C119.48 42.502 119.665 42.2871 119.786 42.0005ZM119.786 42.0005C119.657 41.8571 119.578 41.8684 119.548 42.0343C119.57 42.1927 119.65 42.1815 119.786 42.0005ZM131.046 39.1833C130.797 39.3266 130.51 39.3944 130.186 39.3867C129.907 39.3187 129.609 39.3073 129.292 39.3525C129.239 39.36 129.19 39.3939 129.145 39.4543C129.145 39.4543 129.118 39.458 129.066 39.4656L128.545 39.7822C128.492 39.7897 128.443 39.8236 128.398 39.884C128.398 39.884 128.372 39.8877 128.319 39.8953C126.689 41.6898 125.478 43.775 124.685 46.1506C123.892 48.5262 123.311 51.0603 122.94 53.7529C122.744 53.8886 122.605 54.0431 122.522 54.2166C122.484 54.3297 122.363 54.4277 122.16 54.5106C121.722 54.4653 121.356 54.3558 121.062 54.1822C120.768 54.0086 120.451 53.8652 120.112 53.752C119.69 51.9266 119.487 50.1239 119.503 48.3438C119.466 46.5713 119.455 44.7951 119.471 43.0151C119.305 42.6077 119.158 42.1438 119.03 41.6234C118.894 41.0501 118.857 40.5975 118.917 40.2657C119.166 40.1224 119.366 40.0131 119.517 39.9378C119.607 39.8171 119.781 39.7116 120.037 39.6211C120.731 39.5761 121.214 39.7497 121.485 40.142C121.757 40.5343 121.907 41.0246 121.937 41.6129C122.02 42.1937 122.027 42.8122 121.959 43.4684C121.944 44.117 121.974 44.7054 122.049 45.2334C122.472 44.4189 122.868 43.6082 123.238 42.8013C123.6 41.9416 124.023 41.1271 124.506 40.3579C125.042 39.5812 125.675 38.9252 126.407 38.3899C127.139 37.8546 128.059 37.508 129.168 37.3499C129.583 37.614 130.066 37.7877 130.616 37.8708C130.797 38.0066 130.937 38.2292 131.035 38.5385C131.132 38.8477 131.136 39.0627 131.046 39.1833ZM130.559 39.1719C130.763 39.089 130.925 39.0928 131.046 39.1833C131.159 39.2211 131.321 39.2249 131.532 39.1948C131.909 38.8178 132.309 38.5992 132.732 38.539C133.154 38.4788 133.591 38.5242 134.044 38.6752C134.496 38.8261 134.926 39.0073 135.334 39.2186C135.477 39.4676 135.612 39.6637 135.741 39.8071C135.922 39.9429 136.038 40.1956 136.091 40.5652C136.687 40.9651 137.241 41.4518 137.754 42.0252C138.319 42.591 138.734 43.2323 138.998 43.9489C139.171 44.7862 139.133 45.6535 138.884 46.551C138.635 47.4485 138.238 48.2592 137.695 48.9831C137.205 49.6995 136.563 50.3027 135.771 50.7927C135.032 51.2752 134.206 51.5276 133.293 51.5499C132.592 51.5422 132.004 51.3836 131.528 51.0742C131.106 50.7573 130.631 50.4479 130.103 50.146C129.854 49.535 129.602 49.0862 129.346 48.7995C129.029 46.959 129.03 45.4505 129.347 44.274C129.664 43.0974 130.117 41.9285 130.706 40.7671C130.57 40.1939 130.521 39.6621 130.559 39.1719ZM134.369 48.3258C134.867 47.6623 135.365 46.9987 135.863 46.3351C136.354 45.6187 136.467 44.7137 136.203 43.6199C135.826 43.2427 135.472 42.8353 135.14 42.3977C134.801 41.9073 134.254 41.662 133.5 41.6618C133.009 42.7553 132.538 43.9808 132.085 45.3383C131.677 46.6355 131.744 47.8649 132.287 49.0267C132.717 49.0192 133.056 48.9439 133.305 48.8007C133.6 48.5971 133.954 48.4389 134.369 48.3258ZM143.262 43.5027C143.525 44.5964 143.766 45.7204 143.985 46.8744C144.196 47.9757 144.452 49.0166 144.753 49.9972C145.1 50.9175 145.514 51.7473 145.997 52.4866C146.525 53.1656 147.215 53.6599 148.067 53.9694C149.206 53.6454 150.017 53.0988 150.5 52.3297C151.036 51.5529 151.632 50.8215 152.288 50.1354C152.96 48.8005 153.662 47.4884 154.394 46.1988C155.126 44.9093 155.801 43.6009 156.42 42.2736C156.465 42.2133 156.563 42.1454 156.714 42.0701C156.91 41.9344 156.895 41.8288 156.669 41.7533C156.699 41.5873 156.748 41.5534 156.816 41.6515C156.884 41.7496 156.967 41.7647 157.065 41.6968C157.156 41.5762 157.163 41.4404 157.088 41.2895C157.065 41.1311 157.046 40.9991 157.031 40.8935C157.484 40.6674 157.707 40.3394 157.699 39.9094C157.737 39.4192 158.009 39.0572 158.514 38.8236C158.492 38.6652 158.499 38.5294 158.537 38.4163C158.575 38.3032 158.533 38.2013 158.413 38.1108C158.692 38.1788 158.85 38.1562 158.888 38.0431C158.925 37.9299 159.016 37.8093 159.159 37.6811C159.077 37.1003 159.179 36.6817 159.465 36.4254C159.805 36.1615 159.993 35.7844 160.031 35.2942C160.152 35.3847 160.208 35.5922 160.201 35.9165C160.186 36.188 160.133 36.3841 160.042 36.5048C160.155 36.5425 160.246 36.4218 160.314 36.1428C160.382 35.8637 160.457 35.6375 160.54 35.464C160.706 35.4943 160.744 35.5697 160.653 35.6904C160.608 35.7507 160.593 35.8336 160.608 35.9392C160.729 36.0298 160.842 36.0675 160.947 36.0525C161.045 35.9846 161.128 35.9997 161.196 36.0978C161.302 36.0828 161.317 35.9998 161.242 35.8489C161.219 35.6905 161.257 35.5774 161.355 35.5096C161.46 35.4945 161.502 35.5963 161.479 35.8151C161.457 36.0338 161.494 36.1092 161.592 36.0414C161.162 37.1802 160.792 38.3642 160.482 39.5935C160.218 40.7625 159.69 41.7806 158.898 42.6477C158.988 42.9042 158.984 43.0664 158.886 43.1342C158.788 43.2021 158.754 43.3416 158.784 43.5528C158.173 44.5558 157.596 45.6078 157.052 46.7088C156.509 47.8098 155.939 48.9146 155.343 50.0232C154.747 51.1317 154.09 52.195 153.373 53.213C152.649 54.1782 151.777 55.0567 150.759 55.8483C150.495 55.8859 150.186 55.9839 149.831 56.1422C149.469 56.2476 149.164 56.372 148.915 56.5152C147.783 56.5149 146.78 56.2808 145.905 55.8128C145.083 55.3374 144.375 54.7112 143.779 53.9341C143.229 53.0967 142.773 52.1651 142.411 51.1392C141.996 50.1208 141.684 49.061 141.473 47.9597C141.277 47.7183 141.152 47.2243 141.1 46.4775C141.04 45.678 140.953 45.0708 140.84 44.6559C140.539 44.4296 140.245 44.256 139.958 44.1352C139.611 43.9692 139.355 43.6825 139.189 43.2752C139.189 42.898 139.347 42.6869 139.664 42.6417C139.981 42.5966 140.26 42.476 140.502 42.28C140.208 41.7293 140.129 41.1749 140.265 40.6168C140.4 40.0587 140.321 39.5043 140.027 38.9536C140.088 38.2446 140.141 37.6714 140.186 37.234C140.224 36.7437 140.145 36.1893 139.949 35.5708C140.025 34.2131 140.082 32.9121 140.12 31.6676C140.158 30.4231 140.242 29.1183 140.37 27.7531C140.476 27.7381 140.51 27.7871 140.472 27.9002C140.487 28.0058 140.548 28.0511 140.653 28.0361C140.736 27.8626 140.717 27.7306 140.597 27.6401C140.469 27.4967 140.389 27.3194 140.359 27.1082C140.866 24.2347 141.349 21.5799 141.81 19.1438C142.324 16.7002 143.109 14.2718 144.165 11.8585C144.279 11.8963 144.316 11.9717 144.278 12.0849C144.286 12.1377 144.343 12.1565 144.448 12.1415C144.35 11.8322 144.396 11.5833 144.584 11.3948C144.765 11.1535 144.886 10.8669 144.946 10.5351C145.105 10.5125 145.18 10.4748 145.173 10.422C145.211 10.3089 145.29 10.2976 145.41 10.3881C145.614 9.92812 145.89 9.59257 146.237 9.38149C146.629 9.11008 147.063 8.94051 147.538 8.87278C148.647 8.71473 149.642 8.89606 150.524 9.41677C150.713 9.60539 150.875 9.79777 151.011 9.99391C151.199 10.1825 151.41 10.341 151.644 10.4693C151.674 10.6805 151.81 10.8766 152.051 11.0577C152.745 12.8983 153.084 14.7086 153.068 16.4886C153.045 18.2158 152.965 19.9242 152.829 21.6137C152.436 23.7707 152.009 25.8787 151.548 27.9376C151.088 29.9966 150.48 31.9687 149.725 33.8541C149.023 35.732 148.144 37.5004 147.087 39.1594C146.076 40.7581 144.801 42.2059 143.262 43.5027ZM144.81 11.2817C144.841 11.1158 144.871 11.1385 144.901 11.3497C144.924 11.5081 144.893 11.4854 144.81 11.2817ZM148.935 27.1788C149.464 24.8408 149.887 22.5178 150.204 20.2099C150.575 17.8945 150.523 15.4507 150.048 12.8786C149.882 12.4713 149.781 12.1356 149.743 11.8716C149.562 11.7358 149.408 11.5962 149.279 11.4528C149.144 11.2567 148.963 11.1209 148.736 11.0454C148.344 11.3168 147.94 11.6976 147.525 12.1877C147.111 12.6778 146.801 13.1529 146.597 13.6129C146.295 14.1408 146.031 14.7441 145.805 15.4229C145.631 16.0941 145.431 16.7691 145.205 17.4478C144.57 19.4238 144.095 21.5657 143.777 23.8736C143.46 26.1815 143.15 28.3536 142.847 30.39C142.87 31.3026 142.862 32.1926 142.824 33.06C142.831 33.8671 142.789 34.708 142.699 35.5829C142.751 36.3297 142.774 37.0537 142.766 37.7552C142.758 38.4566 142.833 39.1732 142.991 39.9049C144.493 38.344 145.674 36.4248 146.534 34.1473C147.395 31.8697 148.195 29.5469 148.935 27.1788ZM140.733 26.3277C140.763 26.1618 140.793 26.1844 140.823 26.3956C140.846 26.554 140.816 26.5314 140.733 26.3277ZM160.846 35.3397L161.004 35.3171L161.027 35.4755L160.868 35.4981L160.846 35.3397ZM160.676 36.4144C160.887 36.3843 160.978 36.2637 160.947 36.0525C160.834 36.0147 160.785 36.0487 160.8 36.1543C160.815 36.2599 160.774 36.3466 160.676 36.4144ZM160.596 36.9914C160.642 36.9311 160.649 36.7953 160.619 36.5841C160.642 36.3654 160.597 36.2372 160.484 36.1994C160.446 36.3125 160.416 36.4785 160.393 36.6972C160.415 36.8556 160.483 36.9537 160.596 36.9914ZM159.77 37.4324C159.755 37.3268 159.793 37.2137 159.884 37.093C159.967 36.9196 159.906 36.8743 159.703 36.9572C159.77 37.0553 159.759 37.1646 159.669 37.2853C159.623 37.3456 159.657 37.3946 159.77 37.4324ZM158.741 37.5791C158.846 37.5641 158.88 37.6131 158.843 37.7263C158.858 37.8319 158.805 37.8394 158.684 37.7488C158.722 37.6357 158.741 37.5791 158.741 37.5791ZM160.008 37.9642C160.166 37.9416 160.283 37.8172 160.359 37.591C160.095 37.6286 159.978 37.753 160.008 37.9642ZM156.68 42.3981C156.575 42.4132 156.526 42.4471 156.533 42.4999C156.639 42.4849 156.688 42.4509 156.68 42.3981ZM162.366 40.7797C162.629 41.8734 162.87 42.9973 163.089 44.1514C163.299 45.2527 163.556 46.2936 163.857 47.2742C164.204 48.1945 164.618 49.0243 165.101 49.7636C165.628 50.4426 166.318 50.9368 167.171 51.2464C168.31 50.9224 169.121 50.3758 169.604 49.6066C170.139 48.8299 170.735 48.0985 171.392 47.4123C172.064 46.0775 172.765 44.7653 173.497 43.4758C174.229 42.1863 174.905 40.8779 175.524 39.5506C175.569 39.4903 175.667 39.4224 175.818 39.347C176.014 39.2113 175.999 39.1057 175.773 39.0302C175.803 38.8643 175.852 38.8304 175.92 38.9284C175.988 39.0265 176.071 39.0416 176.169 38.9738C176.259 38.8531 176.267 38.7174 176.192 38.5665C176.169 38.4081 176.15 38.2761 176.135 38.1705C176.588 37.9444 176.81 37.6163 176.803 37.1864C176.841 36.6962 177.112 36.3342 177.618 36.1006C177.595 35.9422 177.603 35.8064 177.641 35.6933C177.678 35.5801 177.637 35.4783 177.516 35.3878C177.795 35.4557 177.954 35.4331 177.991 35.32C178.029 35.2069 178.12 35.0862 178.263 34.9581C178.18 34.3773 178.282 33.9587 178.569 33.7023C178.908 33.4385 179.097 33.0614 179.135 32.5711C179.256 32.6617 179.312 32.8691 179.305 33.1935C179.289 33.465 179.237 33.6611 179.146 33.7817C179.259 33.8195 179.35 33.6988 179.418 33.4198C179.486 33.1407 179.561 32.9145 179.644 32.741C179.81 32.7712 179.848 32.8467 179.757 32.9673C179.712 33.0276 179.697 33.1106 179.712 33.2162C179.832 33.3068 179.946 33.3445 180.051 33.3295C180.149 33.2616 180.232 33.2767 180.3 33.3748C180.406 33.3597 180.421 33.2768 180.345 33.1259C180.323 32.9675 180.361 32.8544 180.459 32.7865C180.564 32.7715 180.606 32.8733 180.583 33.092C180.56 33.3108 180.598 33.3862 180.696 33.3183C180.266 34.4571 179.896 35.6412 179.586 36.8705C179.322 38.0395 178.794 39.0576 178.001 39.9247C178.092 40.1812 178.088 40.3433 177.99 40.4112C177.892 40.479 177.858 40.6186 177.888 40.8298C177.277 41.8327 176.699 42.8847 176.156 43.9858C175.613 45.0868 175.043 46.1916 174.447 47.3001C173.85 48.4087 173.194 49.472 172.477 50.49C171.753 51.4552 170.881 52.3336 169.863 53.1253C169.599 53.1629 169.289 53.2609 168.935 53.4191C168.573 53.5246 168.267 53.649 168.018 53.7922C166.887 53.7918 165.884 53.5577 165.009 53.0898C164.187 52.6144 163.478 51.9881 162.883 51.2111C162.332 50.3737 161.876 49.442 161.515 48.4162C161.1 47.3978 160.787 46.338 160.577 45.2367C160.381 44.9953 160.256 44.5012 160.204 43.7545C160.144 42.955 160.057 42.3478 159.944 41.9329C159.642 41.7065 159.348 41.533 159.062 41.4122C158.715 41.2462 158.458 40.9595 158.293 40.5521C158.293 40.175 158.451 39.9639 158.768 39.9187C159.085 39.8736 159.364 39.753 159.605 39.5569C159.311 39.0062 159.232 38.4518 159.368 37.8937C159.504 37.3356 159.425 36.7812 159.131 36.2306C159.192 35.5216 159.245 34.9484 159.29 34.5109C159.328 34.0207 159.249 33.4663 159.053 32.8477C159.129 31.4901 159.186 30.189 159.224 28.9446C159.262 27.7001 159.346 26.3952 159.474 25.0301C159.58 25.015 159.614 25.0641 159.576 25.1772C159.591 25.2828 159.651 25.3281 159.757 25.313C159.84 25.1396 159.821 25.0076 159.7 24.917C159.572 24.7737 159.493 24.5964 159.463 24.3852C159.969 21.5117 160.453 18.8569 160.914 16.4208C161.427 13.9772 162.213 11.5488 163.269 9.13551C163.382 9.17326 163.42 9.24869 163.382 9.36182C163.39 9.41462 163.446 9.43349 163.552 9.41844C163.454 9.10917 163.499 8.86028 163.688 8.67178C163.869 8.43048 163.99 8.1439 164.05 7.81205C164.209 7.78947 164.284 7.75178 164.277 7.69898C164.314 7.58586 164.394 7.57457 164.514 7.66511C164.718 7.20509 164.993 6.86954 165.34 6.65845C165.733 6.38705 166.166 6.21748 166.642 6.14974C167.75 5.99169 168.746 6.17303 169.628 6.69373C169.817 6.88235 169.979 7.07474 170.115 7.27088C170.303 7.4595 170.514 7.61796 170.748 7.74626C170.778 7.95745 170.914 8.1536 171.155 8.3347C171.848 10.1753 172.187 11.9856 172.172 13.7656C172.148 15.4928 172.069 17.2012 171.932 18.8906C171.54 21.0477 171.113 23.1556 170.652 25.2146C170.191 27.2735 169.584 29.2457 168.829 31.1311C168.127 33.009 167.247 34.7774 166.191 36.4364C165.18 38.0351 163.905 39.4828 162.366 40.7797ZM163.914 8.55871C163.944 8.39279 163.975 8.41542 164.005 8.62662C164.027 8.78502 163.997 8.76238 163.914 8.55871ZM168.039 24.4558C168.568 22.1178 168.991 19.7948 169.308 17.4869C169.678 15.1715 169.626 12.7277 169.152 10.1556C168.986 9.74823 168.884 9.41256 168.847 9.14856C168.666 9.01274 168.511 8.87316 168.383 8.72981C168.247 8.53366 168.066 8.39784 167.84 8.32235C167.448 8.59375 167.044 8.97452 166.629 9.46465C166.214 9.95479 165.905 10.4299 165.701 10.8899C165.399 11.4178 165.135 12.0211 164.909 12.6998C164.735 13.3711 164.535 14.0461 164.308 14.7248C163.674 16.7007 163.198 18.8427 162.881 21.1505C162.563 23.4584 162.253 25.6306 161.951 27.667C161.973 28.5796 161.966 29.4696 161.928 30.337C161.935 31.144 161.893 31.985 161.802 32.8599C161.855 33.6066 161.877 34.3307 161.87 35.0322C161.862 35.7336 161.937 36.4502 162.095 37.1818C163.597 35.621 164.778 33.7018 165.638 31.4243C166.499 29.1467 167.299 26.8239 168.039 24.4558ZM159.837 23.6047C159.867 23.4387 159.897 23.4614 159.927 23.6726C159.95 23.831 159.92 23.8083 159.837 23.6047ZM179.95 32.6167L180.108 32.5941L180.131 32.7525L179.972 32.7751L179.95 32.6167ZM179.78 33.6914C179.991 33.6613 180.081 33.5407 180.051 33.3295C179.938 33.2917 179.889 33.3256 179.904 33.4312C179.919 33.5368 179.878 33.6236 179.78 33.6914ZM179.7 34.2684C179.745 34.2081 179.753 34.0723 179.723 33.8611C179.746 33.6424 179.7 33.5141 179.587 33.4764C179.55 33.5895 179.519 33.7554 179.497 33.9742C179.519 34.1326 179.587 34.2306 179.7 34.2684ZM178.874 34.7094C178.859 34.6038 178.897 34.4906 178.987 34.37C179.07 34.1965 179.01 34.1513 178.806 34.2342C178.874 34.3322 178.863 34.4416 178.772 34.5622C178.727 34.6226 178.761 34.6716 178.874 34.7094ZM177.845 34.8561C177.95 34.8411 177.984 34.8901 177.946 35.0032C177.961 35.1088 177.909 35.1163 177.788 35.0258C177.826 34.9127 177.845 34.8561 177.845 34.8561ZM179.112 35.2412C179.27 35.2186 179.387 35.0942 179.462 34.8679C179.198 34.9056 179.081 35.03 179.112 35.2412ZM175.784 39.6751C175.678 39.6902 175.629 39.7241 175.637 39.7769C175.742 39.7618 175.791 39.7279 175.784 39.6751Z" fill="white"/>
<path d="M20 68.5898C20.3342 0.353111 71.9998 -0.910156 106 19.5898" stroke="white"/>
<path d="M1 51.4721C6.90038 64.4451 20.2184 89.8 26.2874 87.4353C33.8736 84.4794 23.2529 59.3545 45 43.5898" stroke="white"/>
<path d="M98.9843 41.5715C98.675 41.6694 98.4073 41.6807 98.181 41.6052C98.0076 41.5222 97.8341 41.4391 97.6607 41.3561C97.5325 41.2128 97.3817 41.0996 97.2082 41.0166C97.0273 40.8807 96.8048 40.8317 96.5408 40.8693C94.8358 42.1359 93.2514 43.493 91.7878 44.9407C90.3769 46.3809 89.2714 48.0738 88.4713 50.0196C88.4335 50.1327 88.441 50.1855 88.4938 50.178C88.5466 50.1704 88.5768 50.1931 88.5843 50.2459C90.0173 50.4726 91.4315 50.5673 92.8269 50.53C94.2675 50.4324 95.6477 50.6667 96.9675 51.2328C97.1787 51.2027 97.3484 51.0707 97.4767 50.837C97.5975 50.5504 97.7559 50.5278 97.9519 50.7692C98.0349 50.5958 98.1142 50.3959 98.1897 50.1697C98.2652 49.9434 98.4462 49.8907 98.7328 50.0114C98.7705 49.8983 98.8083 49.7852 98.846 49.6721C98.8838 49.5589 98.8951 49.4496 98.8801 49.344C99.1516 49.3591 99.3364 49.3328 99.4345 49.265C99.5325 49.1971 99.6005 49.1066 99.6382 48.9935C99.7212 48.82 99.7854 48.7031 99.8306 48.6428C99.9212 48.5222 100.046 48.4506 100.204 48.428C100.28 48.2017 100.4 47.9152 100.566 47.5683C100.732 47.5985 100.766 47.6475 100.668 47.7154C100.623 47.7757 100.661 47.8511 100.781 47.9417C101.143 47.4591 101.54 47.0255 101.97 46.641C102.452 46.2489 102.841 45.7625 103.135 45.1819C103.399 45.1442 103.629 45.0576 103.826 44.9219C104.022 44.7862 104.214 44.6241 104.403 44.4356C104.591 44.247 104.784 44.0849 104.98 43.9492C105.229 43.806 105.515 43.7382 105.84 43.7459C105.953 44.1607 105.881 44.6019 105.624 45.0695C105.413 45.4767 105.179 45.7256 104.923 45.816C104.832 45.9366 104.817 46.0196 104.877 46.0649C104.99 46.1026 105.032 46.2045 105.002 46.3704C104.134 47.4638 103.206 48.5119 102.218 49.5147C101.282 50.51 100.407 51.5506 99.5918 52.6365C100.187 53.4136 100.557 54.3037 100.7 55.3069C100.722 56.2195 100.563 56.9963 100.224 57.6373C99.9295 58.218 99.6125 58.8289 99.2729 59.4699C98.8353 59.8016 98.443 60.2616 98.0958 60.8498C97.4093 61.3247 96.7492 61.7959 96.1155 62.2634C95.4743 62.678 94.6068 62.8286 93.5132 62.7151C93.3926 62.6246 93.2757 62.5604 93.1625 62.5227C93.0494 62.4849 92.9514 62.3642 92.8685 62.1605C92.3179 62.0774 91.9371 61.8623 91.726 61.5153C91.5677 61.1608 91.3755 60.7572 91.1494 60.3046C91.1496 59.5503 91.2479 58.9168 91.4441 58.4039C91.6857 57.8308 91.9611 57.3067 92.2705 56.8316C92.6252 56.2962 92.961 55.8173 93.2779 55.3951C93.6476 54.9653 93.9344 54.5203 94.1382 54.0603C94.2665 53.8265 94.4287 53.6418 94.6248 53.5061C94.821 53.3704 94.9606 53.2158 95.0436 53.0424C94.4327 52.914 93.7765 52.8459 93.0751 52.8381C92.4189 52.77 91.774 52.7811 91.1404 52.8714C90.3258 52.8259 89.4736 52.705 88.5836 52.5086C87.7389 52.2519 86.981 51.8481 86.3099 51.2973C86.1969 50.8825 85.967 50.592 85.6201 50.426C85.3864 49.9205 85.3224 49.4717 85.4282 49.0796C85.4735 48.6421 85.6057 48.2462 85.8245 47.8918C85.9905 47.5449 86.2132 47.2168 86.4923 46.9077C86.7112 46.5532 86.8772 46.2063 86.9905 45.867C87.6997 45.1733 88.4919 44.3061 89.3671 43.2656C90.2424 42.225 91.1591 41.2862 92.1173 40.4493C92.6001 40.0572 93.0867 39.6916 93.5771 39.3523C94.0599 38.9603 94.6445 38.7153 95.3309 38.6175C95.8061 38.5497 96.4057 38.599 97.1297 38.7651C97.3183 38.9537 97.5294 39.1122 97.7632 39.2405C97.9969 39.3688 98.2345 39.5235 98.4758 39.7046C98.7096 39.8329 98.8981 40.0215 99.0413 40.2704C99.177 40.4666 99.2222 40.7834 99.1768 41.2208C99.0712 41.2359 99.0259 41.2962 99.0409 41.4018C99.0485 41.4546 99.0296 41.5112 98.9843 41.5715ZM97.2038 55.1587C96.6681 55.9354 96.0758 56.6932 95.4269 57.4322C94.8233 58.1108 94.378 58.9555 94.0911 59.9661C95.034 59.4007 95.7697 58.7032 96.2979 57.8737C96.8789 57.0367 97.3129 56.1129 97.5998 55.1023L97.2038 55.1587ZM119.786 42.0005C120.012 41.6988 120.253 41.5028 120.51 41.4124C120.766 41.322 120.977 41.2919 121.143 41.3221C121.256 41.3598 121.321 41.4315 121.336 41.5371C121.403 41.6352 121.445 41.737 121.46 41.8426C121.475 41.9482 121.513 42.0236 121.573 42.0689C121.686 42.1067 121.814 42.0614 121.958 41.9333C121.912 42.3707 121.78 42.7667 121.561 43.1211C121.388 43.4152 121.305 43.7772 121.312 44.2071C121.222 44.3278 121.124 44.3956 121.018 44.4107C120.965 44.4182 120.916 44.4521 120.871 44.5125L120.939 44.9877C119.331 46.9407 117.815 48.9616 116.389 51.0504C114.962 53.1392 113.204 54.979 111.115 56.5698C110.451 56.8261 109.829 56.9956 109.248 57.0784C108.72 57.1536 108.079 57.1911 107.324 57.1909C106.864 56.9871 106.404 56.7833 105.944 56.5795C105.484 56.3757 105.043 56.1154 104.621 55.7985C104.07 55.3382 103.701 54.8252 103.513 54.2595C103.271 53.7012 103.136 53.128 103.106 52.5397C103.015 51.9061 103.004 51.2612 103.072 50.605C103.08 49.9035 103.111 49.1719 103.164 48.4102C103.451 47.0224 103.828 45.7026 104.296 44.4507C104.711 43.2063 105.247 42.0525 105.904 40.9892C106.176 40.6273 106.587 40.2993 107.137 40.0053C107.741 39.7038 108.333 39.5117 108.914 39.4289C109.811 39.3009 110.502 39.4181 110.984 39.7802C111.135 40.082 111.335 40.3498 111.584 40.5837C111.825 40.7648 112.025 41.0326 112.183 41.3872C112.077 41.4022 112.032 41.4625 112.047 41.5681C111.843 42.0282 111.451 42.2996 110.87 42.3824C110.131 42.4877 109.543 42.3292 109.105 41.9066C107.951 43.2564 107.143 44.9607 106.683 47.0197C106.214 49.0258 106.097 51.2244 106.33 53.6155C106.481 53.9172 106.624 54.1662 106.76 54.3623C106.941 54.4981 107.125 54.6603 107.314 54.849C107.812 54.9396 108.377 54.9398 109.011 54.8495C110.142 54.0956 111.127 53.2549 111.965 52.3275C112.794 51.3472 113.568 50.3481 114.285 49.33C115.054 48.3045 115.798 47.2827 116.515 46.2647C117.284 45.2392 118.114 44.2589 119.004 43.3239C118.989 43.2183 118.959 43.1957 118.914 43.256C118.921 43.3088 118.872 43.3427 118.767 43.3578C118.827 43.026 118.982 42.7884 119.231 42.6452C119.48 42.502 119.665 42.2871 119.786 42.0005ZM119.786 42.0005C119.657 41.8571 119.578 41.8684 119.548 42.0343C119.57 42.1927 119.65 42.1815 119.786 42.0005ZM131.046 39.1833C130.797 39.3266 130.51 39.3944 130.186 39.3867C129.907 39.3187 129.609 39.3073 129.292 39.3525C129.239 39.36 129.19 39.3939 129.145 39.4543C129.145 39.4543 129.118 39.458 129.066 39.4656L128.545 39.7822C128.492 39.7897 128.443 39.8236 128.398 39.884C128.398 39.884 128.372 39.8877 128.319 39.8953C126.689 41.6898 125.478 43.775 124.685 46.1506C123.892 48.5262 123.311 51.0603 122.94 53.7529C122.744 53.8886 122.605 54.0431 122.522 54.2166C122.484 54.3297 122.363 54.4277 122.16 54.5106C121.722 54.4653 121.356 54.3558 121.062 54.1822C120.768 54.0086 120.451 53.8652 120.112 53.752C119.69 51.9266 119.487 50.1239 119.503 48.3438C119.466 46.5713 119.455 44.7951 119.471 43.0151C119.305 42.6077 119.158 42.1438 119.03 41.6234C118.894 41.0501 118.857 40.5975 118.917 40.2657C119.166 40.1224 119.366 40.0131 119.517 39.9378C119.607 39.8171 119.781 39.7116 120.037 39.6211C120.731 39.5761 121.214 39.7497 121.485 40.142C121.757 40.5343 121.907 41.0246 121.937 41.6129C122.02 42.1937 122.027 42.8122 121.959 43.4684C121.944 44.117 121.974 44.7054 122.049 45.2334C122.472 44.4189 122.868 43.6082 123.238 42.8013C123.6 41.9416 124.023 41.1271 124.506 40.3579C125.042 39.5812 125.675 38.9252 126.407 38.3899C127.139 37.8546 128.059 37.508 129.168 37.3499C129.583 37.614 130.066 37.7877 130.616 37.8708C130.797 38.0066 130.937 38.2292 131.035 38.5385C131.132 38.8477 131.136 39.0627 131.046 39.1833ZM130.559 39.1719C130.763 39.089 130.925 39.0928 131.046 39.1833C131.159 39.2211 131.321 39.2249 131.532 39.1948C131.909 38.8178 132.309 38.5992 132.732 38.539C133.154 38.4788 133.591 38.5242 134.044 38.6752C134.496 38.8261 134.926 39.0073 135.334 39.2186C135.477 39.4676 135.612 39.6637 135.741 39.8071C135.922 39.9429 136.038 40.1956 136.091 40.5652C136.687 40.9651 137.241 41.4518 137.754 42.0252C138.319 42.591 138.734 43.2323 138.998 43.9489C139.171 44.7862 139.133 45.6535 138.884 46.551C138.635 47.4485 138.238 48.2592 137.695 48.9831C137.205 49.6995 136.563 50.3027 135.771 50.7927C135.032 51.2752 134.206 51.5276 133.293 51.5499C132.592 51.5422 132.004 51.3836 131.528 51.0742C131.106 50.7573 130.631 50.4479 130.103 50.146C129.854 49.535 129.602 49.0862 129.346 48.7995C129.029 46.959 129.03 45.4505 129.347 44.274C129.664 43.0974 130.117 41.9285 130.706 40.7671C130.57 40.1939 130.521 39.6621 130.559 39.1719ZM134.369 48.3258C134.867 47.6623 135.365 46.9987 135.863 46.3351C136.354 45.6187 136.467 44.7137 136.203 43.6199C135.826 43.2427 135.472 42.8353 135.14 42.3977C134.801 41.9073 134.254 41.662 133.5 41.6618C133.009 42.7553 132.538 43.9808 132.085 45.3383C131.677 46.6355 131.744 47.8649 132.287 49.0267C132.717 49.0192 133.056 48.9439 133.305 48.8007C133.6 48.5971 133.954 48.4389 134.369 48.3258ZM143.262 43.5027C143.525 44.5964 143.766 45.7204 143.985 46.8744C144.196 47.9757 144.452 49.0166 144.753 49.9972C145.1 50.9175 145.514 51.7473 145.997 52.4866C146.525 53.1656 147.215 53.6599 148.067 53.9694C149.206 53.6454 150.017 53.0988 150.5 52.3297C151.036 51.5529 151.632 50.8215 152.288 50.1354C152.96 48.8005 153.662 47.4884 154.394 46.1988C155.126 44.9093 155.801 43.6009 156.42 42.2736C156.465 42.2133 156.563 42.1454 156.714 42.0701C156.91 41.9344 156.895 41.8288 156.669 41.7533C156.699 41.5873 156.748 41.5534 156.816 41.6515C156.884 41.7496 156.967 41.7647 157.065 41.6968C157.156 41.5762 157.163 41.4404 157.088 41.2895C157.065 41.1311 157.046 40.9991 157.031 40.8935C157.484 40.6674 157.707 40.3394 157.699 39.9094C157.737 39.4192 158.009 39.0572 158.514 38.8236C158.492 38.6652 158.499 38.5294 158.537 38.4163C158.575 38.3032 158.533 38.2013 158.413 38.1108C158.692 38.1788 158.85 38.1562 158.888 38.0431C158.925 37.9299 159.016 37.8093 159.159 37.6811C159.077 37.1003 159.179 36.6817 159.465 36.4254C159.805 36.1615 159.993 35.7844 160.031 35.2942C160.152 35.3847 160.208 35.5922 160.201 35.9165C160.186 36.188 160.133 36.3841 160.042 36.5048C160.155 36.5425 160.246 36.4218 160.314 36.1428C160.382 35.8637 160.457 35.6375 160.54 35.464C160.706 35.4943 160.744 35.5697 160.653 35.6904C160.608 35.7507 160.593 35.8336 160.608 35.9392C160.729 36.0298 160.842 36.0675 160.947 36.0525C161.045 35.9846 161.128 35.9997 161.196 36.0978C161.302 36.0828 161.317 35.9998 161.242 35.8489C161.219 35.6905 161.257 35.5774 161.355 35.5096C161.46 35.4945 161.502 35.5963 161.479 35.8151C161.457 36.0338 161.494 36.1092 161.592 36.0414C161.162 37.1802 160.792 38.3642 160.482 39.5935C160.218 40.7625 159.69 41.7806 158.898 42.6477C158.988 42.9042 158.984 43.0664 158.886 43.1342C158.788 43.2021 158.754 43.3416 158.784 43.5528C158.173 44.5558 157.596 45.6078 157.052 46.7088C156.509 47.8098 155.939 48.9146 155.343 50.0232C154.747 51.1317 154.09 52.195 153.373 53.213C152.649 54.1782 151.777 55.0567 150.759 55.8483C150.495 55.8859 150.186 55.9839 149.831 56.1422C149.469 56.2476 149.164 56.372 148.915 56.5152C147.783 56.5149 146.78 56.2808 145.905 55.8128C145.083 55.3374 144.375 54.7112 143.779 53.9341C143.229 53.0967 142.773 52.1651 142.411 51.1392C141.996 50.1208 141.684 49.061 141.473 47.9597C141.277 47.7183 141.152 47.2243 141.1 46.4775C141.04 45.678 140.953 45.0708 140.84 44.6559C140.539 44.4296 140.245 44.256 139.958 44.1352C139.611 43.9692 139.355 43.6825 139.189 43.2752C139.189 42.898 139.347 42.6869 139.664 42.6417C139.981 42.5966 140.26 42.476 140.502 42.28C140.208 41.7293 140.129 41.1749 140.265 40.6168C140.4 40.0587 140.321 39.5043 140.027 38.9536C140.088 38.2446 140.141 37.6714 140.186 37.234C140.224 36.7437 140.145 36.1893 139.949 35.5708C140.025 34.2131 140.082 32.9121 140.12 31.6676C140.158 30.4231 140.242 29.1183 140.37 27.7531C140.476 27.7381 140.51 27.7871 140.472 27.9002C140.487 28.0058 140.548 28.0511 140.653 28.0361C140.736 27.8626 140.717 27.7306 140.597 27.6401C140.469 27.4967 140.389 27.3194 140.359 27.1082C140.866 24.2347 141.349 21.5799 141.81 19.1438C142.324 16.7002 143.109 14.2718 144.165 11.8585C144.279 11.8963 144.316 11.9717 144.278 12.0849C144.286 12.1377 144.343 12.1565 144.448 12.1415C144.35 11.8322 144.396 11.5833 144.584 11.3948C144.765 11.1535 144.886 10.8669 144.946 10.5351C145.105 10.5125 145.18 10.4748 145.173 10.422C145.211 10.3089 145.29 10.2976 145.41 10.3881C145.614 9.92812 145.89 9.59257 146.237 9.38149C146.629 9.11008 147.063 8.94051 147.538 8.87278C148.647 8.71473 149.642 8.89606 150.524 9.41677C150.713 9.60539 150.875 9.79777 151.011 9.99391C151.199 10.1825 151.41 10.341 151.644 10.4693C151.674 10.6805 151.81 10.8766 152.051 11.0577C152.745 12.8983 153.084 14.7086 153.068 16.4886C153.045 18.2158 152.965 19.9242 152.829 21.6137C152.436 23.7707 152.009 25.8787 151.548 27.9376C151.088 29.9966 150.48 31.9687 149.725 33.8541C149.023 35.732 148.144 37.5004 147.087 39.1594C146.076 40.7581 144.801 42.2059 143.262 43.5027ZM144.81 11.2817C144.841 11.1158 144.871 11.1385 144.901 11.3497C144.924 11.5081 144.893 11.4854 144.81 11.2817ZM148.935 27.1788C149.464 24.8408 149.887 22.5178 150.204 20.2099C150.575 17.8945 150.523 15.4507 150.048 12.8786C149.882 12.4713 149.781 12.1356 149.743 11.8716C149.562 11.7358 149.408 11.5962 149.279 11.4528C149.144 11.2567 148.963 11.1209 148.736 11.0454C148.344 11.3168 147.94 11.6976 147.525 12.1877C147.111 12.6778 146.801 13.1529 146.597 13.6129C146.295 14.1408 146.031 14.7441 145.805 15.4229C145.631 16.0941 145.431 16.7691 145.205 17.4478C144.57 19.4238 144.095 21.5657 143.777 23.8736C143.46 26.1815 143.15 28.3536 142.847 30.39C142.87 31.3026 142.862 32.1926 142.824 33.06C142.831 33.8671 142.789 34.708 142.699 35.5829C142.751 36.3297 142.774 37.0537 142.766 37.7552C142.758 38.4566 142.833 39.1732 142.991 39.9049C144.493 38.344 145.674 36.4248 146.534 34.1473C147.395 31.8697 148.195 29.5469 148.935 27.1788ZM140.733 26.3277C140.763 26.1618 140.793 26.1844 140.823 26.3956C140.846 26.554 140.816 26.5314 140.733 26.3277ZM160.846 35.3397L161.004 35.3171L161.027 35.4755L160.868 35.4981L160.846 35.3397ZM160.676 36.4144C160.887 36.3843 160.978 36.2637 160.947 36.0525C160.834 36.0147 160.785 36.0487 160.8 36.1543C160.815 36.2599 160.774 36.3466 160.676 36.4144ZM160.596 36.9914C160.642 36.9311 160.649 36.7953 160.619 36.5841C160.642 36.3654 160.597 36.2372 160.484 36.1994C160.446 36.3125 160.416 36.4785 160.393 36.6972C160.415 36.8556 160.483 36.9537 160.596 36.9914ZM159.77 37.4324C159.755 37.3268 159.793 37.2137 159.884 37.093C159.967 36.9196 159.906 36.8743 159.703 36.9572C159.77 37.0553 159.759 37.1646 159.669 37.2853C159.623 37.3456 159.657 37.3946 159.77 37.4324ZM158.741 37.5791C158.846 37.5641 158.88 37.6131 158.843 37.7263C158.858 37.8319 158.805 37.8394 158.684 37.7488C158.722 37.6357 158.741 37.5791 158.741 37.5791ZM160.008 37.9642C160.166 37.9416 160.283 37.8172 160.359 37.591C160.095 37.6286 159.978 37.753 160.008 37.9642ZM156.68 42.3981C156.575 42.4132 156.526 42.4471 156.533 42.4999C156.639 42.4849 156.688 42.4509 156.68 42.3981ZM162.366 40.7797C162.629 41.8734 162.87 42.9973 163.089 44.1514C163.299 45.2527 163.556 46.2936 163.857 47.2742C164.204 48.1945 164.618 49.0243 165.101 49.7636C165.628 50.4426 166.318 50.9368 167.171 51.2464C168.31 50.9224 169.121 50.3758 169.604 49.6066C170.139 48.8299 170.735 48.0985 171.392 47.4123C172.064 46.0775 172.765 44.7653 173.497 43.4758C174.229 42.1863 174.905 40.8779 175.524 39.5506C175.569 39.4903 175.667 39.4224 175.818 39.347C176.014 39.2113 175.999 39.1057 175.773 39.0302C175.803 38.8643 175.852 38.8304 175.92 38.9284C175.988 39.0265 176.071 39.0416 176.169 38.9738C176.259 38.8531 176.267 38.7174 176.192 38.5665C176.169 38.4081 176.15 38.2761 176.135 38.1705C176.588 37.9444 176.81 37.6163 176.803 37.1864C176.841 36.6962 177.112 36.3342 177.618 36.1006C177.595 35.9422 177.603 35.8064 177.641 35.6933C177.678 35.5801 177.637 35.4783 177.516 35.3878C177.795 35.4557 177.954 35.4331 177.991 35.32C178.029 35.2069 178.12 35.0862 178.263 34.9581C178.18 34.3773 178.282 33.9587 178.569 33.7023C178.908 33.4385 179.097 33.0614 179.135 32.5711C179.256 32.6617 179.312 32.8691 179.305 33.1935C179.289 33.465 179.237 33.6611 179.146 33.7817C179.259 33.8195 179.35 33.6988 179.418 33.4198C179.486 33.1407 179.561 32.9145 179.644 32.741C179.81 32.7712 179.848 32.8467 179.757 32.9673C179.712 33.0276 179.697 33.1106 179.712 33.2162C179.832 33.3068 179.946 33.3445 180.051 33.3295C180.149 33.2616 180.232 33.2767 180.3 33.3748C180.406 33.3597 180.421 33.2768 180.345 33.1259C180.323 32.9675 180.361 32.8544 180.459 32.7865C180.564 32.7715 180.606 32.8733 180.583 33.092C180.56 33.3108 180.598 33.3862 180.696 33.3183C180.266 34.4571 179.896 35.6412 179.586 36.8705C179.322 38.0395 178.794 39.0576 178.001 39.9247C178.092 40.1812 178.088 40.3433 177.99 40.4112C177.892 40.479 177.858 40.6186 177.888 40.8298C177.277 41.8327 176.699 42.8847 176.156 43.9858C175.613 45.0868 175.043 46.1916 174.447 47.3001C173.85 48.4087 173.194 49.472 172.477 50.49C171.753 51.4552 170.881 52.3336 169.863 53.1253C169.599 53.1629 169.289 53.2609 168.935 53.4191C168.573 53.5246 168.267 53.649 168.018 53.7922C166.887 53.7918 165.884 53.5577 165.009 53.0898C164.187 52.6144 163.478 51.9881 162.883 51.2111C162.332 50.3737 161.876 49.442 161.515 48.4162C161.1 47.3978 160.787 46.338 160.577 45.2367C160.381 44.9953 160.256 44.5012 160.204 43.7545C160.144 42.955 160.057 42.3478 159.944 41.9329C159.642 41.7065 159.348 41.533 159.062 41.4122C158.715 41.2462 158.458 40.9595 158.293 40.5521C158.293 40.175 158.451 39.9639 158.768 39.9187C159.085 39.8736 159.364 39.753 159.605 39.5569C159.311 39.0062 159.232 38.4518 159.368 37.8937C159.504 37.3356 159.425 36.7812 159.131 36.2306C159.192 35.5216 159.245 34.9484 159.29 34.5109C159.328 34.0207 159.249 33.4663 159.053 32.8477C159.129 31.4901 159.186 30.189 159.224 28.9446C159.262 27.7001 159.346 26.3952 159.474 25.0301C159.58 25.015 159.614 25.0641 159.576 25.1772C159.591 25.2828 159.651 25.3281 159.757 25.313C159.84 25.1396 159.821 25.0076 159.7 24.917C159.572 24.7737 159.493 24.5964 159.463 24.3852C159.969 21.5117 160.453 18.8569 160.914 16.4208C161.427 13.9772 162.213 11.5488 163.269 9.13551C163.382 9.17326 163.42 9.24869 163.382 9.36182C163.39 9.41462 163.446 9.43349 163.552 9.41844C163.454 9.10917 163.499 8.86028 163.688 8.67178C163.869 8.43048 163.99 8.1439 164.05 7.81205C164.209 7.78947 164.284 7.75178 164.277 7.69898C164.314 7.58586 164.394 7.57457 164.514 7.66511C164.718 7.20509 164.993 6.86954 165.34 6.65845C165.733 6.38705 166.166 6.21748 166.642 6.14974C167.75 5.99169 168.746 6.17303 169.628 6.69373C169.817 6.88235 169.979 7.07474 170.115 7.27088C170.303 7.4595 170.514 7.61796 170.748 7.74626C170.778 7.95745 170.914 8.1536 171.155 8.3347C171.848 10.1753 172.187 11.9856 172.172 13.7656C172.148 15.4928 172.069 17.2012 171.932 18.8906C171.54 21.0477 171.113 23.1556 170.652 25.2146C170.191 27.2735 169.584 29.2457 168.829 31.1311C168.127 33.009 167.247 34.7774 166.191 36.4364C165.18 38.0351 163.905 39.4828 162.366 40.7797ZM163.914 8.55871C163.944 8.39279 163.975 8.41542 164.005 8.62662C164.027 8.78502 163.997 8.76238 163.914 8.55871ZM168.039 24.4558C168.568 22.1178 168.991 19.7948 169.308 17.4869C169.678 15.1715 169.626 12.7277 169.152 10.1556C168.986 9.74823 168.884 9.41256 168.847 9.14856C168.666 9.01274 168.511 8.87316 168.383 8.72981C168.247 8.53366 168.066 8.39784 167.84 8.32235C167.448 8.59375 167.044 8.97452 166.629 9.46465C166.214 9.95479 165.905 10.4299 165.701 10.8899C165.399 11.4178 165.135 12.0211 164.909 12.6998C164.735 13.3711 164.535 14.0461 164.308 14.7248C163.674 16.7007 163.198 18.8427 162.881 21.1505C162.563 23.4584 162.253 25.6306 161.951 27.667C161.973 28.5796 161.966 29.4696 161.928 30.337C161.935 31.144 161.893 31.985 161.802 32.8599C161.855 33.6066 161.877 34.3307 161.87 35.0322C161.862 35.7336 161.937 36.4502 162.095 37.1818C163.597 35.621 164.778 33.7018 165.638 31.4243C166.499 29.1467 167.299 26.8239 168.039 24.4558ZM159.837 23.6047C159.867 23.4387 159.897 23.4614 159.927 23.6726C159.95 23.831 159.92 23.8083 159.837 23.6047ZM179.95 32.6167L180.108 32.5941L180.131 32.7525L179.972 32.7751L179.95 32.6167ZM179.78 33.6914C179.991 33.6613 180.081 33.5407 180.051 33.3295C179.938 33.2917 179.889 33.3256 179.904 33.4312C179.919 33.5368 179.878 33.6236 179.78 33.6914ZM179.7 34.2684C179.745 34.2081 179.753 34.0723 179.723 33.8611C179.746 33.6424 179.7 33.5141 179.587 33.4764C179.55 33.5895 179.519 33.7554 179.497 33.9742C179.519 34.1326 179.587 34.2306 179.7 34.2684ZM178.874 34.7094C178.859 34.6038 178.897 34.4906 178.987 34.37C179.07 34.1965 179.01 34.1513 178.806 34.2342C178.874 34.3322 178.863 34.4416 178.772 34.5622C178.727 34.6226 178.761 34.6716 178.874 34.7094ZM177.845 34.8561C177.95 34.8411 177.984 34.8901 177.946 35.0032C177.961 35.1088 177.909 35.1163 177.788 35.0258C177.826 34.9127 177.845 34.8561 177.845 34.8561ZM179.112 35.2412C179.27 35.2186 179.387 35.0942 179.462 34.8679C179.198 34.9056 179.081 35.03 179.112 35.2412ZM175.784 39.6751C175.678 39.6902 175.629 39.7241 175.637 39.7769C175.742 39.7618 175.791 39.7279 175.784 39.6751Z" fill="white"/>
<path d="M20 68.5898C20.3342 0.353111 71.9998 -0.910156 106 19.5898" stroke="white"/>
<path d="M1 51.4721C6.90038 64.4451 20.2184 89.8 26.2874 87.4353C33.8736 84.4794 23.2529 59.3545 45 43.5898" stroke="white"/>
</svg>
