<svg width="415" height="57" viewBox="0 0 415 57" fill="none" xmlns="http://www.w3.org/2000/svg">
<path d="M9.144 24.192C4.824 24.192 0.936 21.36 0.936 15.6C0.936 9.84 4.872 7.008 9.144 7.008C12.96 7.008 15.984 9.312 16.44 12.6H13.824C13.536 10.632 11.568 9.216 9.12 9.216C5.856 9.216 3.504 11.448 3.504 15.6C3.504 19.752 5.856 21.984 9.12 21.984C11.616 21.984 13.608 20.568 13.872 18.6H16.392C16.032 21.888 13.032 24.192 9.144 24.192ZM29.3254 11.904V24H26.9974V21.864C26.3494 23.376 24.9094 24.192 23.1094 24.192C20.3734 24.192 18.5974 22.224 18.5974 19.344V11.904H20.9254V18.888C20.9254 20.808 22.0534 22.104 23.7574 22.104C25.6534 22.104 26.9974 20.568 26.9974 18.456V11.904H29.3254ZM39.3163 13.92H37.5643C35.3563 13.92 34.6363 15.888 34.6363 18.528V24H32.3083V11.904H34.6363V14.232C35.1883 12.624 36.1483 11.904 37.8523 11.904H39.3163V13.92ZM48.246 13.92H46.494C44.286 13.92 43.566 15.888 43.566 18.528V24H41.238V11.904H43.566V14.232C44.118 12.624 45.078 11.904 46.782 11.904H48.246V13.92ZM58.2921 20.064H60.6201C60.1881 22.56 58.0041 24.192 55.0281 24.192C51.2841 24.192 48.9561 21.24 48.9561 17.88C48.9561 14.496 51.0681 11.712 54.7881 11.712C58.5321 11.712 60.5241 14.376 60.5241 17.448C60.5241 17.76 60.5001 18.144 60.4761 18.36H51.2361C51.4281 20.64 52.9161 22.2 55.0281 22.2C56.8041 22.2 57.9561 21.432 58.2921 20.064ZM54.7881 13.584C52.8921 13.584 51.6681 14.64 51.3081 16.656H58.1721C58.0281 14.808 56.7801 13.584 54.7881 13.584ZM62.8943 24V11.904H65.2223V14.04C65.8703 12.528 67.3103 11.712 69.1103 11.712C71.8463 11.712 73.6223 13.68 73.6223 16.56V24H71.2943V17.016C71.2943 15.096 70.1663 13.8 68.4622 13.8C66.5663 13.8 65.2223 15.336 65.2223 17.448V24H62.8943ZM77.5753 8.112H79.9033V11.904H83.4793V13.92H79.9033V19.968C79.9033 21.264 80.5993 21.984 81.7753 21.984H83.4793V24H81.5833C79.1353 24 77.5753 22.512 77.5753 20.04V13.92H75.1033V11.904H77.5753V8.112ZM85.8893 24V6.84H88.2173V24H85.8893ZM101.237 11.904L96.9885 23.568L95.1645 28.896H92.9325L94.5645 24.12L90.0765 11.904H92.4765L95.6445 20.976L98.8365 11.904H101.237ZM108.743 24V7.2H115.247C118.631 7.2 120.671 9.288 120.671 12.264C120.671 15.24 118.631 17.328 115.247 17.328H111.239V24H108.743ZM111.239 15.168H115.175C117.335 15.168 118.175 13.8 118.175 12.264C118.175 10.728 117.335 9.36 115.175 9.36H111.239V15.168ZM129.738 13.92H127.986C125.778 13.92 125.058 15.888 125.058 18.528V24H122.73V11.904H125.058V14.232C125.61 12.624 126.57 11.904 128.274 11.904H129.738V13.92ZM136.688 24.192C133.064 24.192 130.448 21.576 130.448 17.952C130.448 14.328 133.064 11.712 136.688 11.712C140.312 11.712 142.904 14.328 142.904 17.952C142.904 21.576 140.312 24.192 136.688 24.192ZM136.688 22.152C138.968 22.152 140.528 20.424 140.528 17.952C140.528 15.48 138.968 13.752 136.688 13.752C134.384 13.752 132.824 15.48 132.824 17.952C132.824 20.424 134.384 22.152 136.688 22.152ZM150.295 24.192C146.575 24.192 144.487 21.552 144.487 17.952C144.487 14.352 146.575 11.712 150.271 11.712C151.927 11.712 153.391 12.504 154.111 13.68V6.84H156.439V24H154.111V22.2C153.391 23.4 151.903 24.192 150.295 24.192ZM150.559 22.152C152.815 22.152 154.279 20.472 154.279 17.952C154.279 15.432 152.815 13.752 150.559 13.752C148.327 13.752 146.863 15.432 146.863 17.952C146.863 20.472 148.327 22.152 150.559 22.152ZM169.833 11.904V24H167.505V21.864C166.857 23.376 165.417 24.192 163.617 24.192C160.881 24.192 159.105 22.224 159.105 19.344V11.904H161.433V18.888C161.433 20.808 162.561 22.104 164.265 22.104C166.161 22.104 167.505 20.568 167.505 18.456V11.904H169.833ZM178.12 24.192C174.304 24.192 172.12 21.288 172.12 17.952C172.12 14.616 174.304 11.712 178.12 11.712C180.952 11.712 183.4 13.392 183.736 16.128H181.408C181.192 14.76 179.8 13.752 178.168 13.752C175.744 13.752 174.544 15.624 174.544 17.952C174.544 20.28 175.768 22.152 178.168 22.152C179.824 22.152 181.048 21.288 181.432 19.92H183.736C183.352 22.464 181.192 24.192 178.12 24.192ZM187.169 8.112H189.497V11.904H193.073V13.92H189.497V19.968C189.497 21.264 190.193 21.984 191.369 21.984H193.073V24H191.177C188.729 24 187.169 22.512 187.169 20.04V13.92H184.697V11.904H187.169V8.112ZM214.678 24H212.062L210.382 22.176C209.038 23.616 207.334 24.192 205.63 24.192C202.39 24.192 200.278 22.392 200.278 19.392C200.278 16.968 201.886 15.768 203.662 14.832C202.63 13.656 201.766 12.36 201.766 11.088C201.766 8.664 203.542 7.008 206.11 7.008C208.654 7.008 210.43 8.616 210.43 10.944C210.43 13.416 208.75 14.616 206.95 15.552L210.166 19.08L211.03 17.904C212.11 16.176 213.238 15.936 214.462 15.936V18.144C213.43 18.144 212.614 18.792 212.158 19.536L211.534 20.568L214.678 24ZM203.926 11.064C203.926 12 204.742 13.056 205.486 13.92C207.022 13.176 208.294 12.384 208.294 10.92C208.294 9.696 207.406 8.856 206.11 8.856C204.814 8.856 203.926 9.768 203.926 11.064ZM205.63 22.128C206.71 22.128 207.958 21.768 208.99 20.664L205.126 16.44C203.686 17.184 202.534 17.976 202.534 19.416C202.534 21.12 203.686 22.128 205.63 22.128ZM1.704 52V35.2H6.864C11.544 35.2 15.336 38.128 15.336 43.6C15.336 49.072 11.544 52 6.864 52H1.704ZM4.2 49.792H6.72C9.84 49.792 12.768 48.04 12.768 43.6C12.768 39.16 9.84 37.408 6.72 37.408H4.2V49.792ZM26.3936 48.064H28.7216C28.2896 50.56 26.1056 52.192 23.1296 52.192C19.3856 52.192 17.0576 49.24 17.0576 45.88C17.0576 42.496 19.1696 39.712 22.8896 39.712C26.6336 39.712 28.6256 42.376 28.6256 45.448C28.6256 45.76 28.6016 46.144 28.5776 46.36H19.3376C19.5296 48.64 21.0176 50.2 23.1296 50.2C24.9056 50.2 26.0576 49.432 26.3936 48.064ZM22.8896 41.584C20.9936 41.584 19.7696 42.64 19.4096 44.656H26.2736C26.1296 42.808 24.8816 41.584 22.8896 41.584ZM35.1266 52.192C32.2946 52.192 30.3986 50.608 30.2306 48.064H32.4146C32.5586 49.456 33.5666 50.248 35.1266 50.248C36.5186 50.248 37.4066 49.504 37.4066 48.616C37.4066 45.4 30.5426 48.352 30.5426 43.192C30.5426 41.104 32.3186 39.712 34.8386 39.712C37.5746 39.712 39.4466 41.224 39.5666 43.504H37.3826C37.2146 42.112 35.8706 41.56 34.8386 41.56C33.5906 41.56 32.7506 42.184 32.7506 43.12C32.7506 46.12 39.6626 43.048 39.6626 48.568C39.6626 50.776 37.8626 52.192 35.1266 52.192ZM41.9378 34.84H44.5298V37.768H41.9378V34.84ZM42.0818 52V39.904H44.4098V52H42.0818ZM56.4032 39.904H58.7312V52.576C58.7312 55.12 56.8832 56.896 54.2432 56.896H48.4112V54.952H54.0032C55.3952 54.952 56.4032 53.896 56.4032 52.432V50.464C55.8272 51.496 54.2912 52.192 52.5872 52.192C48.8672 52.192 46.7792 49.552 46.7792 45.952C46.7792 42.352 48.8672 39.712 52.5632 39.712C54.1712 39.712 55.6592 40.456 56.4032 41.512V39.904ZM52.8512 50.152C55.1072 50.152 56.5712 48.496 56.5712 45.952C56.5712 43.408 55.1072 41.752 52.8512 41.752C50.6192 41.752 49.1552 43.408 49.1552 45.952C49.1552 48.496 50.6192 50.152 52.8512 50.152ZM61.7927 52V39.904H64.1207V42.04C64.7687 40.528 66.2087 39.712 68.0087 39.712C70.7447 39.712 72.5207 41.68 72.5207 44.56V52H70.1927V45.016C70.1927 43.096 69.0647 41.8 67.3607 41.8C65.4647 41.8 64.1207 43.336 64.1207 45.448V52H61.7927ZM92.8429 34.768C97.4509 34.768 100.523 37.552 100.523 41.68V44.824C100.523 47.92 99.0589 49.6 96.6109 49.6C95.1949 49.6 93.9709 48.952 93.6349 47.92C93.2029 48.928 91.9789 49.696 90.1309 49.696C87.1789 49.696 85.4989 47.584 85.4989 44.728C85.4989 41.848 87.1789 39.76 90.1069 39.76C91.3789 39.76 92.5549 40.336 93.1549 41.2V39.904H95.1709V46.264C95.1709 47.08 95.7709 47.632 96.6349 47.632C97.8829 47.632 98.4349 46.744 98.4349 44.824V41.68C98.4349 38.704 96.2029 36.712 92.8429 36.712H88.6189C85.2589 36.712 82.9549 38.8 82.9549 41.776V47.368C82.9549 50.608 85.2589 52.864 88.6189 52.864H94.1389V54.832H88.6189C84.0109 54.856 80.8189 51.76 80.8189 47.368V41.776C80.8189 37.648 84.0109 34.768 88.6189 34.768H92.8429ZM90.3949 47.992C92.1469 47.992 93.2749 46.696 93.2749 44.728C93.2749 42.736 92.1469 41.44 90.3949 41.44C88.6429 41.44 87.4909 42.736 87.4909 44.728C87.4909 46.696 88.6429 48.016 90.3949 47.992ZM103.118 52V35.2H105.614V52H103.118ZM108.808 52V39.904H111.136V42.04C111.784 40.528 113.224 39.712 115.024 39.712C117.76 39.712 119.536 41.68 119.536 44.56V52H117.208V45.016C117.208 43.096 116.08 41.8 114.376 41.8C112.48 41.8 111.136 43.336 111.136 45.448V52H108.808ZM126.767 52.192C123.935 52.192 122.039 50.608 121.871 48.064H124.055C124.199 49.456 125.207 50.248 126.767 50.248C128.159 50.248 129.047 49.504 129.047 48.616C129.047 45.4 122.183 48.352 122.183 43.192C122.183 41.104 123.959 39.712 126.479 39.712C129.215 39.712 131.087 41.224 131.207 43.504H129.023C128.855 42.112 127.511 41.56 126.479 41.56C125.231 41.56 124.391 42.184 124.391 43.12C124.391 46.12 131.303 43.048 131.303 48.568C131.303 50.776 129.503 52.192 126.767 52.192ZM134.95 36.112H137.278V39.904H140.854V41.92H137.278V47.968C137.278 49.264 137.974 49.984 139.15 49.984H140.854V52H138.958C136.51 52 134.95 50.512 134.95 48.04V41.92H132.478V39.904H134.95V36.112ZM147.24 39.712C150.36 39.712 152.424 41.512 152.424 44.2V52H150.096V50.032C149.52 51.328 147.984 52.192 146.16 52.192C143.688 52.192 142.056 50.704 142.056 48.544C142.056 46.216 143.904 44.776 146.76 44.776H149.28C149.832 44.776 150.096 44.488 150.096 44.056C150.096 42.592 149.04 41.584 147.168 41.584C145.488 41.584 144.264 42.64 144.192 43.864H142.032C142.224 41.488 144.384 39.712 147.24 39.712ZM146.616 50.344C148.824 50.344 150.096 48.928 150.096 46.696V46.408H146.976C145.392 46.408 144.36 47.224 144.36 48.496C144.36 49.6 145.272 50.344 146.616 50.344ZM155.121 52V39.904H157.449V42.04C158.097 40.528 159.537 39.712 161.337 39.712C164.073 39.712 165.849 41.68 165.849 44.56V52H163.521V45.016C163.521 43.096 162.393 41.8 160.689 41.8C158.793 41.8 157.449 43.336 157.449 45.448V52H155.121ZM169.802 36.112H172.13V39.904H175.706V41.92H172.13V47.968C172.13 49.264 172.826 49.984 174.002 49.984H175.706V52H173.81C171.362 52 169.802 50.512 169.802 48.04V41.92H167.33V39.904H169.802V36.112ZM177.811 56.896V39.904H180.139V41.704C180.859 40.504 182.323 39.712 184.003 39.712C187.651 39.712 189.739 42.352 189.739 45.952C189.739 49.552 187.555 52.192 183.883 52.192C182.275 52.192 180.835 51.448 180.139 50.296V56.896H177.811ZM183.667 50.152C185.899 50.152 187.387 48.472 187.387 45.952C187.387 43.432 185.899 41.752 183.667 41.752C181.411 41.752 179.947 43.432 179.947 45.952C179.947 48.472 181.411 50.152 183.667 50.152ZM196.67 39.712C199.79 39.712 201.854 41.512 201.854 44.2V52H199.526V50.032C198.95 51.328 197.414 52.192 195.59 52.192C193.118 52.192 191.486 50.704 191.486 48.544C191.486 46.216 193.334 44.776 196.19 44.776H198.71C199.262 44.776 199.526 44.488 199.526 44.056C199.526 42.592 198.47 41.584 196.598 41.584C194.918 41.584 193.694 42.64 193.622 43.864H191.462C191.654 41.488 193.814 39.712 196.67 39.712ZM196.046 50.344C198.254 50.344 199.526 48.928 199.526 46.696V46.408H196.406C194.822 46.408 193.79 47.224 193.79 48.496C193.79 49.6 194.702 50.344 196.046 50.344ZM214.065 39.904L209.817 51.568L207.993 56.896H205.761L207.393 52.12L202.905 39.904H205.305L208.473 48.976L211.665 39.904H214.065Z" fill="white"/>
<path d="M299.704 4.2H305.92C307.504 4.2 308.76 4.576 309.688 5.328C310.632 6.064 311.104 7.128 311.104 8.52C311.104 8.904 311.04 9.272 310.912 9.624C310.8 9.976 310.64 10.296 310.432 10.584C310.224 10.856 309.992 11.096 309.736 11.304C309.48 11.512 309.216 11.68 308.944 11.808C309.776 12.112 310.472 12.616 311.032 13.32C311.592 14.008 311.872 14.928 311.872 16.08C311.872 16.848 311.736 17.536 311.464 18.144C311.208 18.752 310.832 19.272 310.336 19.704C309.856 20.12 309.264 20.44 308.56 20.664C307.872 20.888 307.096 21 306.232 21H299.704V4.2ZM305.8 10.992C306.744 10.992 307.456 10.8 307.936 10.416C308.432 10.016 308.68 9.424 308.68 8.64C308.68 7.072 307.712 6.288 305.776 6.288H302.176V10.992H305.8ZM305.896 18.792C307.08 18.792 307.96 18.552 308.536 18.072C309.112 17.592 309.4 16.896 309.4 15.984C309.4 15.072 309.112 14.376 308.536 13.896C307.96 13.416 307.08 13.176 305.896 13.176H302.176V18.792H305.896ZM319.053 8.712C319.837 8.712 320.541 8.824 321.165 9.048C321.805 9.256 322.349 9.56 322.797 9.96C323.261 10.344 323.613 10.816 323.853 11.376C324.109 11.92 324.237 12.528 324.237 13.2V21H321.909V19.032C321.621 19.688 321.117 20.216 320.397 20.616C319.693 21 318.885 21.192 317.973 21.192C316.725 21.192 315.725 20.856 314.973 20.184C314.237 19.512 313.869 18.632 313.869 17.544C313.869 16.376 314.293 15.456 315.141 14.784C315.989 14.112 317.133 13.776 318.573 13.776H321.093C321.365 13.776 321.565 13.712 321.693 13.584C321.837 13.456 321.909 13.28 321.909 13.056C321.909 12.32 321.653 11.728 321.141 11.28C320.645 10.816 319.925 10.584 318.98 10.584C318.565 10.584 318.173 10.648 317.805 10.776C317.453 10.888 317.141 11.048 316.869 11.256C316.613 11.464 316.405 11.712 316.245 12C316.101 12.272 316.021 12.56 316.005 12.864H313.845C313.893 12.272 314.053 11.728 314.325 11.232C314.613 10.72 314.989 10.28 315.453 9.912C315.917 9.528 316.453 9.232 317.061 9.024C317.669 8.816 318.333 8.712 319.053 8.712ZM318.429 19.344C319.533 19.344 320.389 19.016 320.997 18.36C321.605 17.704 321.909 16.816 321.909 15.696V15.408H318.789C317.989 15.408 317.349 15.6 316.869 15.984C316.405 16.352 316.173 16.856 316.173 17.496C316.173 18.056 316.381 18.504 316.797 18.84C317.213 19.176 317.757 19.344 318.429 19.344ZM331.181 21.192C329.757 21.192 328.605 20.824 327.725 20.088C326.845 19.352 326.365 18.344 326.285 17.064H328.469C328.549 17.768 328.821 18.312 329.285 18.696C329.765 19.064 330.397 19.248 331.181 19.248C331.885 19.248 332.437 19.088 332.837 18.768C333.253 18.448 333.461 18.064 333.461 17.616C333.461 17.072 333.293 16.688 332.957 16.464C332.621 16.224 332.197 16.048 331.685 15.936C331.173 15.808 330.621 15.704 330.029 15.624C329.437 15.544 328.885 15.392 328.373 15.168C327.861 14.944 327.437 14.608 327.101 14.16C326.765 13.712 326.597 13.056 326.597 12.192C326.597 11.664 326.701 11.192 326.909 10.776C327.117 10.344 327.413 9.976 327.797 9.672C328.181 9.368 328.637 9.136 329.165 8.976C329.693 8.8 330.269 8.712 330.893 8.712C331.581 8.712 332.205 8.808 332.765 9C333.341 9.176 333.829 9.432 334.229 9.768C334.645 10.088 334.973 10.48 335.213 10.944C335.453 11.408 335.589 11.928 335.621 12.504H333.437C333.389 12.152 333.277 11.856 333.101 11.616C332.941 11.36 332.733 11.16 332.477 11.016C332.237 10.856 331.973 10.744 331.685 10.68C331.413 10.6 331.149 10.56 330.893 10.56C330.269 10.56 329.765 10.704 329.381 10.992C328.997 11.28 328.805 11.656 328.805 12.12C328.805 12.488 328.901 12.776 329.093 12.984C329.301 13.192 329.565 13.352 329.885 13.464C330.205 13.576 330.573 13.656 330.989 13.704C331.405 13.752 331.829 13.816 332.261 13.896C332.693 13.976 333.117 14.08 333.533 14.208C333.949 14.336 334.317 14.536 334.637 14.808C334.957 15.08 335.213 15.44 335.405 15.888C335.613 16.32 335.717 16.88 335.717 17.568C335.717 18.112 335.605 18.608 335.381 19.056C335.173 19.504 334.869 19.888 334.469 20.208C334.085 20.528 333.613 20.776 333.053 20.952C332.493 21.112 331.869 21.192 331.181 21.192ZM349.034 17.064C348.922 17.688 348.706 18.256 348.386 18.768C348.082 19.264 347.682 19.696 347.186 20.064C346.706 20.416 346.146 20.696 345.506 20.904C344.882 21.096 344.194 21.192 343.442 21.192C342.514 21.192 341.674 21.024 340.922 20.688C340.17 20.336 339.53 19.872 339.002 19.296C338.474 18.72 338.066 18.048 337.778 17.28C337.506 16.512 337.37 15.712 337.37 14.88C337.37 14.032 337.498 13.24 337.754 12.504C338.01 11.752 338.386 11.096 338.882 10.536C339.378 9.976 339.986 9.536 340.706 9.216C341.442 8.88 342.274 8.712 343.202 8.712C344.146 8.712 344.97 8.872 345.674 9.192C346.394 9.496 346.994 9.912 347.474 10.44C347.954 10.952 348.314 11.56 348.554 12.264C348.81 12.952 348.938 13.68 348.938 14.448C348.938 14.608 348.93 14.776 348.914 14.952C348.914 15.112 348.906 15.248 348.89 15.36H339.65C339.698 15.936 339.818 16.464 340.01 16.944C340.218 17.408 340.49 17.808 340.826 18.144C341.162 18.48 341.546 18.744 341.978 18.936C342.426 19.112 342.914 19.2 343.442 19.2C344.338 19.2 345.058 19.016 345.602 18.648C346.162 18.28 346.53 17.752 346.706 17.064H349.034ZM343.202 10.584C342.242 10.584 341.466 10.848 340.874 11.376C340.282 11.888 339.898 12.648 339.722 13.656H346.586C346.506 12.728 346.17 11.984 345.578 11.424C345.002 10.864 344.21 10.584 343.202 10.584ZM356.42 21.192C355.492 21.192 354.668 21.04 353.948 20.736C353.228 20.416 352.62 19.984 352.124 19.44C351.628 18.88 351.252 18.216 350.996 17.448C350.74 16.68 350.612 15.848 350.612 14.952C350.612 14.056 350.74 13.224 350.996 12.456C351.252 11.688 351.628 11.032 352.124 10.488C352.62 9.928 353.22 9.496 353.924 9.192C354.644 8.872 355.468 8.712 356.396 8.712C357.228 8.712 357.98 8.896 358.652 9.264C359.34 9.616 359.868 10.088 360.236 10.68V3.84H362.564V21H360.236V19.2C359.868 19.808 359.34 20.296 358.652 20.664C357.98 21.016 357.236 21.192 356.42 21.192ZM356.684 19.152C357.82 19.152 358.724 18.768 359.396 18C360.068 17.232 360.404 16.216 360.404 14.952C360.404 13.688 360.068 12.672 359.396 11.904C358.724 11.136 357.82 10.752 356.684 10.752C355.564 10.752 354.668 11.136 353.996 11.904C353.324 12.672 352.988 13.688 352.988 14.952C352.988 16.216 353.324 17.232 353.996 18C354.668 18.768 355.564 19.152 356.684 19.152ZM373.608 3.84V6.768H371.016V3.84H373.608ZM371.16 8.904H373.488V21H371.16V8.904ZM376.433 8.904H378.761V11.04C379.081 10.272 379.577 9.696 380.249 9.312C380.937 8.912 381.737 8.712 382.649 8.712C383.337 8.712 383.953 8.832 384.497 9.072C385.057 9.296 385.529 9.624 385.913 10.056C386.313 10.488 386.617 11 386.825 11.592C387.049 12.184 387.161 12.84 387.161 13.56V21H384.833V14.016C384.833 13.056 384.577 12.28 384.065 11.688C383.553 11.096 382.865 10.8 382.001 10.8C381.521 10.8 381.081 10.896 380.681 11.088C380.297 11.264 379.961 11.512 379.673 11.832C379.385 12.152 379.161 12.536 379.001 12.984C378.841 13.432 378.761 13.92 378.761 14.448V21H376.433V8.904ZM299.704 32.2H304.864C306.032 32.2 307.128 32.384 308.152 32.752C309.192 33.104 310.096 33.64 310.864 34.36C311.632 35.064 312.232 35.936 312.664 36.976C313.112 38.016 313.336 39.224 313.336 40.6C313.336 41.96 313.112 43.168 312.664 44.224C312.232 45.264 311.632 46.144 310.864 46.864C310.096 47.568 309.192 48.104 308.152 48.472C307.128 48.824 306.032 49 304.864 49H299.704V32.2ZM304.72 46.792C305.504 46.792 306.256 46.68 306.976 46.456C307.712 46.216 308.36 45.848 308.92 45.352C309.48 44.856 309.928 44.216 310.264 43.432C310.6 42.648 310.768 41.704 310.768 40.6C310.768 39.496 310.6 38.552 310.264 37.768C309.928 36.984 309.48 36.344 308.92 35.848C308.36 35.352 307.712 34.992 306.976 34.768C306.256 34.528 305.504 34.408 304.72 34.408H302.2V46.792H304.72ZM326.722 45.064C326.61 45.688 326.394 46.256 326.074 46.768C325.77 47.264 325.37 47.696 324.874 48.064C324.394 48.416 323.834 48.696 323.194 48.904C322.57 49.096 321.882 49.192 321.13 49.192C320.202 49.192 319.362 49.024 318.61 48.688C317.858 48.336 317.218 47.872 316.69 47.296C316.162 46.72 315.754 46.048 315.466 45.28C315.194 44.512 315.058 43.712 315.058 42.88C315.058 42.032 315.186 41.24 315.442 40.504C315.698 39.752 316.074 39.096 316.57 38.536C317.066 37.976 317.674 37.536 318.394 37.216C319.13 36.88 319.962 36.712 320.89 36.712C321.834 36.712 322.658 36.872 323.362 37.192C324.082 37.496 324.682 37.912 325.162 38.44C325.642 38.952 326.002 39.56 326.242 40.264C326.498 40.952 326.626 41.68 326.626 42.448C326.626 42.608 326.618 42.776 326.602 42.952C326.602 43.112 326.594 43.248 326.578 43.36H317.338C317.386 43.936 317.506 44.464 317.698 44.944C317.906 45.408 318.178 45.808 318.514 46.144C318.85 46.48 319.234 46.744 319.666 46.936C320.114 47.112 320.602 47.2 321.13 47.2C322.026 47.2 322.746 47.016 323.29 46.648C323.85 46.28 324.218 45.752 324.394 45.064H326.722ZM320.89 38.584C319.93 38.584 319.154 38.848 318.562 39.376C317.97 39.888 317.586 40.648 317.41 41.656H324.274C324.194 40.728 323.858 39.984 323.266 39.424C322.69 38.864 321.898 38.584 320.89 38.584ZM329.116 31.84H331.444V49H329.116V31.84ZM334.647 31.84H336.975V39.04C337.295 38.272 337.791 37.696 338.463 37.312C339.151 36.912 339.951 36.712 340.863 36.712C341.551 36.712 342.167 36.832 342.711 37.072C343.271 37.296 343.743 37.624 344.127 38.056C344.527 38.488 344.831 39 345.039 39.592C345.263 40.184 345.375 40.84 345.375 41.56V49H343.047V42.016C343.047 41.056 342.791 40.28 342.279 39.688C341.767 39.096 341.079 38.8 340.215 38.8C339.735 38.8 339.295 38.896 338.895 39.088C338.511 39.264 338.175 39.512 337.887 39.832C337.599 40.152 337.375 40.536 337.215 40.984C337.055 41.432 336.975 41.92 336.975 42.448V49H334.647V31.84ZM350.803 31.84V34.768H348.211V31.84H350.803ZM348.355 36.904H350.683V49H348.355V36.904ZM353.941 50.104C354.645 50.104 354.997 49.584 354.997 48.544V46.264H357.325V48.688C357.325 49.76 357.045 50.584 356.485 51.16C355.941 51.736 355.173 52.024 354.181 52.024H353.077V50.104H353.941ZM360.712 32.2H363.208V49H360.712V32.2ZM366.402 36.904H368.73V39.04C369.05 38.272 369.546 37.696 370.218 37.312C370.906 36.912 371.706 36.712 372.618 36.712C373.306 36.712 373.922 36.832 374.466 37.072C375.026 37.296 375.498 37.624 375.882 38.056C376.282 38.488 376.586 39 376.794 39.592C377.018 40.184 377.13 40.84 377.13 41.56V49H374.802V42.016C374.802 41.056 374.546 40.28 374.034 39.688C373.522 39.096 372.834 38.8 371.97 38.8C371.49 38.8 371.05 38.896 370.65 39.088C370.266 39.264 369.93 39.512 369.642 39.832C369.354 40.152 369.13 40.536 368.97 40.984C368.81 41.432 368.73 41.92 368.73 42.448V49H366.402V36.904ZM385.225 49.192C384.297 49.192 383.473 49.04 382.753 48.736C382.033 48.416 381.425 47.984 380.929 47.44C380.433 46.88 380.057 46.216 379.801 45.448C379.545 44.68 379.417 43.848 379.417 42.952C379.417 42.056 379.545 41.224 379.801 40.456C380.057 39.688 380.433 39.032 380.929 38.488C381.425 37.928 382.025 37.496 382.729 37.192C383.449 36.872 384.273 36.712 385.201 36.712C386.033 36.712 386.785 36.896 387.457 37.264C388.145 37.616 388.673 38.088 389.041 38.68V31.84H391.369V49H389.041V47.2C388.673 47.808 388.145 48.296 387.457 48.664C386.785 49.016 386.041 49.192 385.225 49.192ZM385.489 47.152C386.625 47.152 387.529 46.768 388.201 46C388.873 45.232 389.209 44.216 389.209 42.952C389.209 41.688 388.873 40.672 388.201 39.904C387.529 39.136 386.625 38.752 385.489 38.752C384.369 38.752 383.473 39.136 382.801 39.904C382.129 40.672 381.793 41.688 381.793 42.952C381.793 44.216 382.129 45.232 382.801 46C383.473 46.768 384.369 47.152 385.489 47.152ZM396.881 31.84V34.768H394.289V31.84H396.881ZM394.433 36.904H396.761V49H394.433V36.904ZM404.459 36.712C405.243 36.712 405.947 36.824 406.571 37.048C407.211 37.256 407.755 37.56 408.203 37.96C408.667 38.344 409.019 38.816 409.259 39.376C409.515 39.92 409.643 40.528 409.643 41.2V49H407.315V47.032C407.027 47.688 406.523 48.216 405.803 48.616C405.099 49 404.291 49.192 403.379 49.192C402.131 49.192 401.131 48.856 400.379 48.184C399.643 47.512 399.275 46.632 399.275 45.544C399.275 44.376 399.699 43.456 400.547 42.784C401.395 42.112 402.539 41.776 403.979 41.776H406.499C406.771 41.776 406.971 41.712 407.099 41.584C407.243 41.456 407.315 41.28 407.315 41.056C407.315 40.32 407.059 39.728 406.547 39.28C406.051 38.816 405.331 38.584 404.387 38.584C403.971 38.584 403.579 38.648 403.211 38.776C402.859 38.888 402.547 39.048 402.275 39.256C402.019 39.464 401.811 39.712 401.651 40C401.507 40.272 401.427 40.56 401.411 40.864H399.251C399.299 40.272 399.459 39.728 399.731 39.232C400.019 38.72 400.395 38.28 400.859 37.912C401.323 37.528 401.859 37.232 402.467 37.024C403.075 36.816 403.739 36.712 404.459 36.712ZM403.835 47.344C404.939 47.344 405.795 47.016 406.403 46.36C407.011 45.704 407.315 44.816 407.315 43.696V43.408H404.195C403.395 43.408 402.755 43.6 402.275 43.984C401.811 44.352 401.579 44.856 401.579 45.496C401.579 46.056 401.787 46.504 402.203 46.84C402.619 47.176 403.163 47.344 403.835 47.344Z" fill="white"/>
</svg>
