<svg width="287" height="43" viewBox="0 0 287 43" fill="none" xmlns="http://www.w3.org/2000/svg">
<path d="M7.01509 18.1473C3.70088 18.1473 0.71808 15.9746 0.71808 11.5557C0.71808 7.13673 3.7377 4.96408 7.01509 4.96408C9.94265 4.96408 12.2626 6.73166 12.6124 9.25415H10.6055C10.3845 7.74434 8.87474 6.65801 6.99668 6.65801C4.49261 6.65801 2.6882 8.37036 2.6882 11.5557C2.6882 14.741 4.49261 16.4534 6.99668 16.4534C8.91156 16.4534 10.4398 15.367 10.6423 13.8572H12.5756C12.2994 16.3797 9.99789 18.1473 7.01509 18.1473ZM22.4978 8.72019V18H20.7118V16.3613C20.2147 17.5213 19.11 18.1473 17.729 18.1473C15.63 18.1473 14.2675 16.6375 14.2675 14.428V8.72019H16.0535V14.0782C16.0535 15.5512 16.9189 16.5454 18.2262 16.5454C19.6808 16.5454 20.7118 15.367 20.7118 13.7468V8.72019H22.4978ZM30.1627 10.2668H28.8186C27.1247 10.2668 26.5723 11.7766 26.5723 13.802V18H24.7863V8.72019H26.5723V10.5062C26.9958 9.27256 27.7323 8.72019 29.0395 8.72019H30.1627V10.2668ZM37.0134 10.2668H35.6693C33.9753 10.2668 33.423 11.7766 33.423 13.802V18H31.637V8.72019H33.423V10.5062C33.8464 9.27256 34.5829 8.72019 35.8902 8.72019H37.0134V10.2668ZM44.7205 14.9804H46.5065C46.1751 16.8953 44.4996 18.1473 42.2164 18.1473C39.3441 18.1473 37.5581 15.8826 37.5581 13.3049C37.5581 10.7087 39.1784 8.57289 42.0323 8.57289C44.9046 8.57289 46.4328 10.6167 46.4328 12.9734C46.4328 13.2128 46.4144 13.5074 46.396 13.6731H39.3073C39.4546 15.4223 40.5961 16.6191 42.2164 16.6191C43.5789 16.6191 44.4627 16.0299 44.7205 14.9804ZM42.0323 10.0091C40.5777 10.0091 39.6387 10.8192 39.3625 12.3658H44.6284C44.518 10.9481 43.5605 10.0091 42.0323 10.0091ZM48.2512 18V8.72019H50.0372V10.3589C50.5343 9.19891 51.6391 8.57289 53.02 8.57289C55.119 8.57289 56.4815 10.0827 56.4815 12.2922V18H54.6955V12.642C54.6955 11.169 53.8301 10.1748 52.5229 10.1748C51.0683 10.1748 50.0372 11.3532 50.0372 12.9734V18H48.2512ZM59.5142 5.81104H61.3002V8.72019H64.0436V10.2668H61.3002V14.9067C61.3002 15.901 61.8342 16.4534 62.7364 16.4534H64.0436V18H62.5891C60.711 18 59.5142 16.8584 59.5142 14.962V10.2668H57.6178V8.72019H59.5142V5.81104ZM65.8925 18V4.83519H67.6785V18H65.8925ZM77.6666 8.72019L74.4076 17.6686L73.0083 21.7561H71.2959L72.548 18.0921L69.1049 8.72019H70.9461L73.3765 15.68L75.8254 8.72019H77.6666ZM83.4255 18V5.11138H88.4152C91.0114 5.11138 92.5764 6.71325 92.5764 8.99638C92.5764 11.2795 91.0114 12.8814 88.4152 12.8814H85.3404V18H83.4255ZM85.3404 11.2243H88.36C90.0171 11.2243 90.6615 10.1748 90.6615 8.99638C90.6615 7.81799 90.0171 6.76849 88.36 6.76849H85.3404V11.2243ZM99.5325 10.2668H98.1884C96.4945 10.2668 95.9421 11.7766 95.9421 13.802V18H94.1561V8.72019H95.9421V10.5062C96.3656 9.27256 97.1021 8.72019 98.4094 8.72019H99.5325V10.2668ZM104.864 18.1473C102.084 18.1473 100.077 16.1404 100.077 13.3601C100.077 10.5798 102.084 8.57289 104.864 8.57289C107.645 8.57289 109.633 10.5798 109.633 13.3601C109.633 16.1404 107.645 18.1473 104.864 18.1473ZM104.864 16.5823C106.614 16.5823 107.81 15.2566 107.81 13.3601C107.81 11.4636 106.614 10.1379 104.864 10.1379C103.097 10.1379 101.9 11.4636 101.9 13.3601C101.9 15.2566 103.097 16.5823 104.864 16.5823ZM115.304 18.1473C112.45 18.1473 110.848 16.1219 110.848 13.3601C110.848 10.5982 112.45 8.57289 115.285 8.57289C116.556 8.57289 117.679 9.1805 118.231 10.0827V4.83519H120.017V18H118.231V16.6191C117.679 17.5397 116.537 18.1473 115.304 18.1473ZM115.506 16.5823C117.237 16.5823 118.36 15.2934 118.36 13.3601C118.36 11.4268 117.237 10.1379 115.506 10.1379C113.794 10.1379 112.671 11.4268 112.671 13.3601C112.671 15.2934 113.794 16.5823 115.506 16.5823ZM130.293 8.72019V18H128.507V16.3613C128.009 17.5213 126.905 18.1473 125.524 18.1473C123.425 18.1473 122.062 16.6375 122.062 14.428V8.72019H123.848V14.0782C123.848 15.5512 124.714 16.5454 126.021 16.5454C127.476 16.5454 128.507 15.367 128.507 13.7468V8.72019H130.293ZM136.65 18.1473C133.723 18.1473 132.047 15.9194 132.047 13.3601C132.047 10.8008 133.723 8.57289 136.65 8.57289C138.823 8.57289 140.701 9.86176 140.959 11.9608H139.173C139.007 10.9113 137.939 10.1379 136.687 10.1379C134.827 10.1379 133.907 11.5741 133.907 13.3601C133.907 15.1461 134.846 16.5823 136.687 16.5823C137.957 16.5823 138.896 15.9194 139.191 14.8699H140.959C140.664 16.8216 139.007 18.1473 136.65 18.1473ZM143.592 5.81104H145.378V8.72019H148.122V10.2668H145.378V14.9067C145.378 15.901 145.912 16.4534 146.814 16.4534H148.122V18H146.667C144.789 18 143.592 16.8584 143.592 14.962V10.2668H141.696V8.72019H143.592V5.81104ZM164.696 18H162.689L161.401 16.6007C160.369 17.7054 159.062 18.1473 157.755 18.1473C155.269 18.1473 153.649 16.7664 153.649 14.4648C153.649 12.6052 154.883 11.6846 156.245 10.9665C155.453 10.0643 154.79 9.07003 154.79 8.09417C154.79 6.23453 156.153 4.96408 158.123 4.96408C160.075 4.96408 161.437 6.1977 161.437 7.9837C161.437 9.88017 160.148 10.8008 158.768 11.5189L161.235 14.2255L161.898 13.3233C162.726 11.9976 163.592 11.8135 164.531 11.8135V13.5074C163.739 13.5074 163.113 14.0045 162.763 14.5753L162.284 15.367L164.696 18ZM156.448 8.07576C156.448 8.79384 157.074 9.60398 157.644 10.2668C158.823 9.69604 159.799 9.08844 159.799 7.96529C159.799 7.02626 159.117 6.38183 158.123 6.38183C157.129 6.38183 156.448 7.08149 156.448 8.07576ZM157.755 16.5638C158.583 16.5638 159.541 16.2877 160.333 15.4407L157.368 12.2001C156.263 12.7709 155.38 13.3785 155.38 14.4832C155.38 15.7905 156.263 16.5638 157.755 16.5638ZM6.02083 39.1473C3.07486 39.1473 1.08633 37.435 1.08633 34.489V26.1114H2.92756V34.5442C2.92756 36.3855 4.1796 37.435 6.02083 37.435C7.88047 37.435 9.13251 36.3855 9.13251 34.5442V26.1114H10.9737V34.489C10.9737 37.435 8.98521 39.1473 6.02083 39.1473ZM22.5289 39H20.522L17.4655 34.1023L14.3907 39H12.3653L16.4528 32.5005L12.4574 26.1114H14.4459L17.4471 30.8986L20.4667 26.1114H22.4553L18.4598 32.5005L22.5289 39ZM37.5312 25.78C41.0664 25.78 43.4231 27.9158 43.4231 31.0827V33.4947C43.4231 35.8699 42.3 37.1588 40.4219 37.1588C39.3356 37.1588 38.3966 36.6616 38.1388 35.8699C37.8074 36.6432 36.8684 37.2324 35.4506 37.2324C33.1859 37.2324 31.897 35.6121 31.897 33.4211C31.897 31.2116 33.1859 29.6097 35.4322 29.6097C36.4081 29.6097 37.3103 30.0516 37.7706 30.7145V29.7202H39.3172V34.5995C39.3172 35.2255 39.7775 35.649 40.4404 35.649C41.3978 35.649 41.8213 34.9677 41.8213 33.4947V31.0827C41.8213 28.7996 40.1089 27.2714 37.5312 27.2714H34.2906C31.7129 27.2714 29.9453 28.8732 29.9453 31.1564V35.4464C29.9453 37.9321 31.7129 39.6628 34.2906 39.6628H38.5255V41.1727H34.2906C30.7555 41.1911 28.3066 38.8159 28.3066 35.4464V31.1564C28.3066 27.9894 30.7555 25.78 34.2906 25.78H37.5312ZM35.6532 35.9251C36.9973 35.9251 37.8626 34.9309 37.8626 33.4211C37.8626 31.8928 36.9973 30.8986 35.6532 30.8986C34.3091 30.8986 33.4253 31.8928 33.4253 33.4211C33.4253 34.9309 34.3091 35.9436 35.6532 35.9251ZM45.4141 39V26.1114H47.329V39H45.4141ZM49.7796 39V29.7202H51.5656V31.3589C52.0627 30.1989 53.1674 29.5729 54.5484 29.5729C56.6474 29.5729 58.0099 31.0827 58.0099 33.2922V39H56.2239V33.642C56.2239 32.169 55.3585 31.1748 54.0512 31.1748C52.5967 31.1748 51.5656 32.3532 51.5656 33.9734V39H49.7796ZM63.5573 39.1473C61.3847 39.1473 59.9301 37.9321 59.8012 35.9804H61.4767C61.5872 37.0483 62.3605 37.6559 63.5573 37.6559C64.6252 37.6559 65.3065 37.0851 65.3065 36.4039C65.3065 33.9366 60.0406 36.2013 60.0406 32.2427C60.0406 30.6408 61.4031 29.5729 63.3364 29.5729C65.4354 29.5729 66.8715 30.7329 66.9636 32.482H65.2881C65.1592 31.4141 64.1281 30.9906 63.3364 30.9906C62.3789 30.9906 61.7345 31.4694 61.7345 32.1874C61.7345 34.489 67.0372 32.1322 67.0372 36.367C67.0372 38.061 65.6563 39.1473 63.5573 39.1473ZM69.8352 26.811H71.6212V29.7202H74.3646V31.2668H71.6212V35.9067C71.6212 36.901 72.1551 37.4534 73.0573 37.4534H74.3646V39H72.91C71.032 39 69.8352 37.8584 69.8352 35.962V31.2668H67.9387V29.7202H69.8352V26.811ZM79.2636 29.5729C81.6572 29.5729 83.2407 30.9538 83.2407 33.016V39H81.4547V37.4902C81.0128 38.4845 79.8344 39.1473 78.435 39.1473C76.5386 39.1473 75.2865 38.0057 75.2865 36.3486C75.2865 34.5626 76.7043 33.4579 78.8953 33.4579H80.8286C81.2521 33.4579 81.4547 33.2369 81.4547 32.9055C81.4547 31.7824 80.6445 31.0091 79.2084 31.0091C77.9195 31.0091 76.9805 31.8192 76.9252 32.7582H75.2681C75.4154 30.9354 77.0725 29.5729 79.2636 29.5729ZM78.7849 37.7296C80.4788 37.7296 81.4547 36.6432 81.4547 34.9309V34.7099H79.0611C77.8458 34.7099 77.0541 35.3359 77.0541 36.3118C77.0541 37.1588 77.7538 37.7296 78.7849 37.7296ZM85.3096 39V29.7202H87.0956V31.3589C87.5927 30.1989 88.6975 29.5729 90.0784 29.5729C92.1774 29.5729 93.5399 31.0827 93.5399 33.2922V39H91.7539V33.642C91.7539 32.169 90.8885 31.1748 89.5812 31.1748C88.1267 31.1748 87.0956 32.3532 87.0956 33.9734V39H85.3096ZM96.5726 26.811H98.3586V29.7202H101.102V31.2668H98.3586V35.9067C98.3586 36.901 98.8926 37.4534 99.7948 37.4534H101.102V39H99.6475C97.7694 39 96.5726 37.8584 96.5726 35.962V31.2668H94.6761V29.7202H96.5726V26.811ZM102.717 42.7561V29.7202H104.503V31.1011C105.056 30.1805 106.179 29.5729 107.468 29.5729C110.266 29.5729 111.868 31.5982 111.868 34.3601C111.868 37.1219 110.193 39.1473 107.375 39.1473C106.142 39.1473 105.037 38.5765 104.503 37.6927V42.7561H102.717ZM107.21 37.5823C108.922 37.5823 110.064 36.2934 110.064 34.3601C110.064 32.4268 108.922 31.1379 107.21 31.1379C105.479 31.1379 104.356 32.4268 104.356 34.3601C104.356 36.2934 105.479 37.5823 107.21 37.5823ZM117.185 29.5729C119.579 29.5729 121.162 30.9538 121.162 33.016V39H119.376V37.4902C118.934 38.4845 117.756 39.1473 116.356 39.1473C114.46 39.1473 113.208 38.0057 113.208 36.3486C113.208 34.5626 114.626 33.4579 116.817 33.4579H118.75C119.174 33.4579 119.376 33.2369 119.376 32.9055C119.376 31.7824 118.566 31.0091 117.13 31.0091C115.841 31.0091 114.902 31.8192 114.847 32.7582H113.19C113.337 30.9354 114.994 29.5729 117.185 29.5729ZM116.706 37.7296C118.4 37.7296 119.376 36.6432 119.376 34.9309V34.7099H116.983C115.767 34.7099 114.976 35.3359 114.976 36.3118C114.976 37.1588 115.675 37.7296 116.706 37.7296ZM130.53 29.7202L127.271 38.6686L125.872 42.7561H124.159L125.411 39.0921L121.968 29.7202H123.81L126.24 36.68L128.689 29.7202H130.53Z" fill="white"/>
<path d="M198.549 18V5.11138H203.318C205.73 5.11138 207.295 6.30818 207.295 8.42559C207.295 9.6224 206.467 10.5798 205.638 10.9481C206.909 11.4084 207.885 12.4579 207.885 14.2255C207.885 16.5638 206.227 18 203.558 18H198.549ZM200.446 10.3221H203.226C204.662 10.3221 205.436 9.71446 205.436 8.51766C205.436 7.33927 204.662 6.71325 203.208 6.71325H200.446V10.3221ZM200.446 16.3061H203.3C205.104 16.3061 205.988 15.5512 205.988 14.1518C205.988 12.7525 205.104 11.9976 203.3 11.9976H200.446V16.3061ZM213.393 8.57289C215.787 8.57289 217.37 9.95382 217.37 12.016V18H215.584V16.4902C215.142 17.4845 213.964 18.1473 212.565 18.1473C210.668 18.1473 209.416 17.0057 209.416 15.3486C209.416 13.5626 210.834 12.4579 213.025 12.4579H214.958C215.382 12.4579 215.584 12.2369 215.584 11.9055C215.584 10.7824 214.774 10.0091 213.338 10.0091C212.049 10.0091 211.11 10.8192 211.055 11.7582H209.398C209.545 9.9354 211.202 8.57289 213.393 8.57289ZM212.915 16.7296C214.608 16.7296 215.584 15.6432 215.584 13.9309V13.7099H213.191C211.975 13.7099 211.184 14.3359 211.184 15.3118C211.184 16.1588 211.883 16.7296 212.915 16.7296ZM222.698 18.1473C220.526 18.1473 219.071 16.9321 218.942 14.9804H220.618C220.728 16.0483 221.501 16.6559 222.698 16.6559C223.766 16.6559 224.447 16.0851 224.447 15.4039C224.447 12.9366 219.181 15.2013 219.181 11.2427C219.181 9.64081 220.544 8.57289 222.477 8.57289C224.576 8.57289 226.012 9.73287 226.105 11.482H224.429C224.3 10.4141 223.269 9.99064 222.477 9.99064C221.52 9.99064 220.875 10.4694 220.875 11.1874C220.875 13.489 226.178 11.1322 226.178 15.367C226.178 17.061 224.797 18.1473 222.698 18.1473ZM234.609 14.9804H236.395C236.063 16.8953 234.388 18.1473 232.104 18.1473C229.232 18.1473 227.446 15.8826 227.446 13.3049C227.446 10.7087 229.066 8.57289 231.92 8.57289C234.793 8.57289 236.321 10.6167 236.321 12.9734C236.321 13.2128 236.302 13.5074 236.284 13.6731H229.195C229.343 15.4223 230.484 16.6191 232.104 16.6191C233.467 16.6191 234.351 16.0299 234.609 14.9804ZM231.92 10.0091C230.466 10.0091 229.527 10.8192 229.251 12.3658H234.516C234.406 10.9481 233.449 10.0091 231.92 10.0091ZM242.061 18.1473C239.207 18.1473 237.605 16.1219 237.605 13.3601C237.605 10.5982 239.207 8.57289 242.043 8.57289C243.313 8.57289 244.436 9.1805 244.989 10.0827V4.83519H246.775V18H244.989V16.6191C244.436 17.5397 243.295 18.1473 242.061 18.1473ZM242.264 16.5823C243.994 16.5823 245.118 15.2934 245.118 13.3601C245.118 11.4268 243.994 10.1379 242.264 10.1379C240.551 10.1379 239.428 11.4268 239.428 13.3601C239.428 15.2934 240.551 16.5823 242.264 16.5823ZM253.258 4.83519H255.247V7.08149H253.258V4.83519ZM253.369 18V8.72019H255.155V18H253.369ZM257.415 18V8.72019H259.201V10.3589C259.698 9.19891 260.803 8.57289 262.183 8.57289C264.282 8.57289 265.645 10.0827 265.645 12.2922V18H263.859V12.642C263.859 11.169 262.994 10.1748 261.686 10.1748C260.232 10.1748 259.201 11.3532 259.201 12.9734V18H257.415ZM198.549 39V26.1114H202.508C206.099 26.1114 209.008 28.3577 209.008 32.5557C209.008 36.7537 206.099 39 202.508 39H198.549ZM200.464 37.3061H202.398C204.791 37.3061 207.038 35.962 207.038 32.5557C207.038 29.1494 204.791 27.8053 202.398 27.8053H200.464V37.3061ZM217.491 35.9804H219.277C218.945 37.8953 217.27 39.1473 214.987 39.1473C212.114 39.1473 210.328 36.8826 210.328 34.3049C210.328 31.7087 211.949 29.5729 214.803 29.5729C217.675 29.5729 219.203 31.6167 219.203 33.9734C219.203 34.2128 219.185 34.5074 219.166 34.6731H212.078C212.225 36.4223 213.366 37.6191 214.987 37.6191C216.349 37.6191 217.233 37.0299 217.491 35.9804ZM214.803 31.0091C213.348 31.0091 212.409 31.8192 212.133 33.3658H217.399C217.288 31.9481 216.331 31.0091 214.803 31.0091ZM221.114 39V25.8352H222.9V39H221.114ZM225.357 39V25.8352H227.143V31.3589C227.64 30.1989 228.745 29.5729 230.126 29.5729C232.225 29.5729 233.587 31.0827 233.587 33.2922V39H231.801V33.642C231.801 32.169 230.936 31.1748 229.629 31.1748C228.174 31.1748 227.143 32.3532 227.143 33.9734V39H225.357ZM235.763 25.8352H237.752V28.0815H235.763V25.8352ZM235.874 39V29.7202H237.66V39H235.874ZM239.496 39.847H240.159C240.674 39.847 240.969 39.4235 240.969 38.6502V36.901H242.755V38.7606C242.755 40.3993 241.853 41.32 240.343 41.32H239.496V39.847ZM245.353 39V26.1114H247.268V39H245.353ZM249.719 39V29.7202H251.505V31.3589C252.002 30.1989 253.107 29.5729 254.488 29.5729C256.587 29.5729 257.949 31.0827 257.949 33.2922V39H256.163V33.642C256.163 32.169 255.298 31.1748 253.991 31.1748C252.536 31.1748 251.505 32.3532 251.505 33.9734V39H249.719ZM264.159 39.1473C261.306 39.1473 259.704 37.1219 259.704 34.3601C259.704 31.5982 261.306 29.5729 264.141 29.5729C265.411 29.5729 266.535 30.1805 267.087 31.0827V25.8352H268.873V39H267.087V37.6191C266.535 38.5397 265.393 39.1473 264.159 39.1473ZM264.362 37.5823C266.093 37.5823 267.216 36.2934 267.216 34.3601C267.216 32.4268 266.093 31.1379 264.362 31.1379C262.65 31.1379 261.526 32.4268 261.526 34.3601C261.526 36.2934 262.65 37.5823 264.362 37.5823ZM271.113 25.8352H273.102V28.0815H271.113V25.8352ZM271.224 39V29.7202H273.01V39H271.224ZM278.915 29.5729C281.309 29.5729 282.892 30.9538 282.892 33.016V39H281.106V37.4902C280.664 38.4845 279.486 39.1473 278.087 39.1473C276.19 39.1473 274.938 38.0057 274.938 36.3486C274.938 34.5626 276.356 33.4579 278.547 33.4579H280.48C280.904 33.4579 281.106 33.2369 281.106 32.9055C281.106 31.7824 280.296 31.0091 278.86 31.0091C277.571 31.0091 276.632 31.8192 276.577 32.7582H274.92C275.067 30.9354 276.724 29.5729 278.915 29.5729ZM278.436 37.7296C280.13 37.7296 281.106 36.6432 281.106 34.9309V34.7099H278.713C277.497 34.7099 276.706 35.3359 276.706 36.3118C276.706 37.1588 277.405 37.7296 278.436 37.7296Z" fill="white"/>
</svg>
