<svg width="87" height="71" viewBox="0 0 87 71" fill="none" xmlns="http://www.w3.org/2000/svg">
<g clip-path="url(#clip0_1218_4)">
<path d="M27.3559 71C60.1862 71 78.143 43.6821 78.143 19.9921C78.143 19.2162 78.143 18.4438 78.0908 17.6749C81.5849 15.1381 84.6006 11.9957 86.9961 8.39534C83.7386 9.84582 80.2827 10.7966 76.744 11.2159C80.4704 8.97569 83.2593 5.45178 84.5914 1.30021C81.0884 3.39001 77.2548 4.86179 73.2571 5.65167C70.5658 2.77757 67.0065 0.874404 63.1298 0.236701C59.2531 -0.401003 55.2752 0.262291 51.8117 2.12395C48.3482 3.98561 45.5921 6.94183 43.97 10.5352C42.3479 14.1285 41.9502 18.1586 42.8384 22.0018C35.7416 21.6454 28.7989 19.7936 22.4611 16.5667C16.1234 13.3398 10.5324 8.80996 6.0513 3.27147C3.76874 7.21804 3.06963 11.89 4.09633 16.336C5.12303 20.7821 7.79832 24.668 11.5775 27.2026C8.7368 27.119 5.95794 26.3494 3.47609 24.9587V25.1859C3.47722 29.3249 4.90381 33.3361 7.51388 36.5391C10.124 39.7422 13.7568 41.9398 17.7963 42.7594C15.1685 43.4793 12.4113 43.5845 9.73661 43.067C10.8768 46.6294 13.0972 49.7447 16.0874 51.977C19.0775 54.2093 22.6877 55.4469 26.4128 55.5166C22.7119 58.4382 18.4739 60.5984 13.941 61.8734C9.40816 63.1484 4.6695 63.5133 -0.00390625 62.9473C8.15833 68.2097 17.6566 71.0004 27.3559 70.9861" fill="white"/>
</g>
<defs>
<clipPath id="clip0_1218_4">
<rect width="87" height="71" fill="white"/>
</clipPath>
</defs>
</svg>
