<?xml version="1.0" encoding="utf-8"?>
<!-- Generator: Adobe Illustrator 26.0.1, SVG Export Plug-In . SVG Version: 6.00 Build 0)  -->
<svg version="1.1" id="Layer_1" xmlns="http://www.w3.org/2000/svg" xmlns:xlink="http://www.w3.org/1999/xlink" x="0px" y="0px"
	 viewBox="0 0 1200 123.8" style="enable-background:new 0 0 1200 123.8;" xml:space="preserve">
<style type="text/css">
	.st0{fill:#FFFFFF;}
</style>
<path class="st0" d="M0,61.9C0,20.7,28.4,0,60,0c29.2,0,51.3,17.1,54.6,42.2H90.8C89,28.9,76.2,19.7,60,19.7
	c-21.1,0-37,14.7-37,42.2s15.9,42,37,42c16.6,0,29.4-9.2,31.5-22.3h22.8c-2.4,25.1-24.6,42.2-54.3,42.2C27.8,123.8,0,103,0,61.9z"/>
<path class="st0" d="M197.6,94.2h-46.7l-10.4,28.2H117l46.5-121H185l46.7,121H208L197.6,94.2z M190.7,74.8l-16.2-44.2l-16.2,44.2
	H190.7z"/>
<path class="st0" d="M234.8,81.8h22c1.2,13.5,10.2,22.1,24.7,22.1c13,0,22-5.2,22-15.9c0-25.9-65-8-65-54.3
	c0-19.9,17.1-33.7,41.7-33.7c25.6,0,42.9,14.7,43.9,37.3h-21.9c-1-10.5-9.3-17.6-22.1-17.6c-11.9,0-19.4,5.5-19.4,14
	c0,26.8,65.9,6.7,65.9,53.9c0,22.5-18.5,36.1-45.1,36.1C253.9,123.8,236,107.2,234.8,81.8z"/>
<path class="st0" d="M343,1.4h80.6v19.7h-57.8v29.4h46.3v19.7h-46.3v32.3h59.6v19.9H343V1.4z"/>
<path class="st0" d="M474.2,81.8h22c1.2,13.5,10.2,22.1,24.7,22.1c13,0,22-5.2,22-15.9c0-25.9-65-8-65-54.3
	C477.9,13.9,495,0,519.6,0c25.6,0,42.9,14.7,43.9,37.3h-21.9c-1-10.5-9.3-17.6-22.1-17.6c-11.9,0-19.4,5.5-19.4,14
	c0,26.8,65.9,6.7,65.9,53.9c0,22.5-18.5,36.1-45.1,36.1C493.4,123.8,475.4,107.2,474.2,81.8z"/>
<path class="st0" d="M605.9,21.1h-36.7V1.4h96v19.7h-36.5v101.3h-22.8V21.1z"/>
<path class="st0" d="M676.1,78.7V1.4h21.6v77.4c0,16.6,10.5,24.9,25.9,24.9s26.1-8.3,26.1-24.9V1.4h21.4v77.3
	c0,29.4-19.2,45.1-47.5,45.1C695.5,123.8,676.1,108,676.1,78.7z"/>
<path class="st0" d="M792.1,1.4h39.2c33.5,0,62.1,20,62.1,60.5s-28.5,60.5-62.1,60.5h-39.2V1.4z M829.4,102.5
	c20.9,0,40.8-10.7,40.8-40.6s-19.9-40.8-40.8-40.8h-14.5v81.4H829.4z"/>
<path class="st0" d="M931.9,72.1L890.3,1.4H915l28.3,49.4l28.5-49.4h24.5l-41.7,70.7v50.3h-22.8V72.1z"/>
<rect x="1050.7" y="63.1" class="st0" width="145.4" height="10.1"/>
<path class="st0" d="M1148.1,118h-10.1c0-21.8,10.8-38.3,31.3-47.6c1.7-0.8,3.5-1.5,5.2-2.1c-35.2-13.7-36.4-51-36.4-51.4l10.1-0.2
	c0,1.8,1.7,44.4,51.8,46.5l-0.1,10.1C1197.8,73.3,1148.1,75.3,1148.1,118z"/>
</svg>
